<svg
  width="1512"
  height="982"
  viewBox="0 0 1512 982"
  fill="none"
  xmlns="http://www.w3.org/2000/svg"
>
  <path
    d="M193.13 806.665L191.772 804.354C209.989 795.291 232.661 784.013 244.502 765.504C256.176 747.258 256.438 722.481 245.186 700.842C235.611 682.426 218.021 665.927 194.319 653.128C189.644 650.604 184.736 648.211 179.99 645.897C168.518 640.304 156.655 634.52 146.873 626.315C133.401 615.014 123.208 596.048 130.805 579.155C133.304 573.763 137.396 569.124 142.617 565.764C147.838 562.404 153.978 560.457 160.341 560.146L160.502 562.77C154.673 563.054 149.047 564.836 144.263 567.913C139.479 570.99 135.729 575.239 133.437 580.177C126.377 595.876 136.064 613.69 148.799 624.374C158.313 632.354 170.013 638.059 181.328 643.575C186.101 645.902 191.037 648.309 195.766 650.862C219.961 663.927 237.941 680.818 247.763 699.708C259.419 722.125 259.114 747.847 246.965 766.837C234.719 785.976 211.659 797.449 193.13 806.665Z"
    fill="#F1F1F1"
  />
  <path
    d="M178.447 573.997C192.253 573.997 203.444 568.996 203.444 562.828C203.444 556.66 192.253 551.659 178.447 551.659C164.642 551.659 153.45 556.66 153.45 562.828C153.45 568.996 164.642 573.997 178.447 573.997Z"
    fill="#F1F1F1"
  />
  <path
    d="M198.445 647.579C212.25 647.579 223.442 642.578 223.442 636.41C223.442 630.242 212.25 625.241 198.445 625.241C184.639 625.241 173.448 630.242 173.448 636.41C173.448 642.578 184.639 647.579 198.445 647.579Z"
    fill="#F1F1F1"
  />
  <path
    d="M152.736 659.404C166.542 659.404 177.733 654.404 177.733 648.236C177.733 642.067 166.542 637.067 152.736 637.067C138.931 637.067 127.739 642.067 127.739 648.236C127.739 654.404 138.931 659.404 152.736 659.404Z"
    fill="#F1F1F1"
  />
  <path
    d="M224.156 721.161C237.962 721.161 249.153 716.161 249.153 709.992C249.153 703.824 237.962 698.823 224.156 698.823C210.351 698.823 199.159 703.824 199.159 709.992C199.159 716.161 210.351 721.161 224.156 721.161Z"
    fill="#F1F1F1"
  />
  <path
    d="M274.15 721.161C287.956 721.161 299.147 716.161 299.147 709.992C299.147 703.824 287.956 698.823 274.15 698.823C260.345 698.823 249.153 703.824 249.153 709.992C249.153 716.161 260.345 721.161 274.15 721.161Z"
    fill="#F1F1F1"
  />
  <path d="M1387 158.274H583.101V509.177H1387V158.274Z" fill="#E6E6E6" />
  <path d="M1364.01 188.364H606.089V481.134H1364.01V188.364Z" fill="white" />
  <path d="M1386.66 138H582.758V169.416H1386.66V138Z" fill="#BBBBE4" />
  <path
    d="M608.138 158.354C611.633 158.354 614.468 155.747 614.468 152.531C614.468 149.315 611.633 146.708 608.138 146.708C604.642 146.708 601.808 149.315 601.808 152.531C601.808 155.747 604.642 158.354 608.138 158.354Z"
    fill="white"
  />
  <path
    d="M632.164 158.354C635.66 158.354 638.494 155.747 638.494 152.531C638.494 149.315 635.66 146.708 632.164 146.708C628.668 146.708 625.834 149.315 625.834 152.531C625.834 155.747 628.668 158.354 632.164 158.354Z"
    fill="white"
  />
  <path
    d="M656.191 158.354C659.687 158.354 662.521 155.747 662.521 152.531C662.521 149.315 659.687 146.708 656.191 146.708C652.695 146.708 649.861 149.315 649.861 152.531C649.861 155.747 652.695 158.354 656.191 158.354Z"
    fill="white"
  />
  <path
    d="M945.089 257.844C944.275 257.844 943.495 258.141 942.92 258.67C942.345 259.199 942.022 259.917 942.022 260.665C942.022 261.413 942.345 262.131 942.92 262.66C943.495 263.189 944.275 263.486 945.089 263.486H1113.36C1114.17 263.486 1114.95 263.189 1115.53 262.66C1116.1 262.131 1116.43 261.413 1116.43 260.665C1116.43 259.917 1116.1 259.199 1115.53 258.67C1114.95 258.141 1114.17 257.844 1113.36 257.844H945.089Z"
    fill="#E6E6E6"
  />
  <path
    d="M945.089 274.771C944.276 274.773 943.498 275.071 942.924 275.6C942.351 276.129 942.029 276.845 942.029 277.592C942.029 278.339 942.351 279.056 942.924 279.585C943.498 280.114 944.276 280.412 945.089 280.413H1030.99C1031.81 280.412 1032.59 280.114 1033.16 279.585C1033.73 279.056 1034.05 278.339 1034.05 277.592C1034.05 276.845 1033.73 276.129 1033.16 275.6C1032.59 275.071 1031.81 274.773 1030.99 274.771H945.089Z"
    fill="#E6E6E6"
  />
  <path
    d="M940.854 356.702C940.041 356.702 939.261 356.999 938.686 357.528C938.111 358.057 937.788 358.774 937.788 359.522C937.788 360.271 938.111 360.988 938.686 361.517C939.261 362.046 940.041 362.343 940.854 362.343H1256.36C1257.18 362.343 1257.96 362.046 1258.53 361.517C1259.11 360.988 1259.43 360.271 1259.43 359.522C1259.43 358.774 1259.11 358.057 1258.53 357.528C1257.96 356.999 1257.18 356.702 1256.36 356.702H940.854Z"
    fill="#E6E6E6"
  />
  <path
    d="M940.854 373.629C940.042 373.63 939.264 373.928 938.69 374.457C938.116 374.986 937.794 375.703 937.794 376.45C937.794 377.197 938.116 377.913 938.69 378.442C939.264 378.971 940.042 379.269 940.854 379.271H1174C1174.81 379.269 1175.59 378.971 1176.16 378.442C1176.74 377.913 1177.06 377.197 1177.06 376.45C1177.06 375.703 1176.74 374.986 1176.16 374.457C1175.59 373.928 1174.81 373.63 1174 373.629H940.854Z"
    fill="#E6E6E6"
  />
  <path
    d="M940.854 390.173C940.042 390.175 939.264 390.472 938.69 391.001C938.116 391.53 937.794 392.247 937.794 392.994C937.794 393.741 938.116 394.458 938.69 394.986C939.264 395.515 940.042 395.813 940.854 395.815H1256.36C1257.18 395.813 1257.95 395.515 1258.53 394.986C1259.1 394.458 1259.42 393.741 1259.42 392.994C1259.42 392.247 1259.1 391.53 1258.53 391.001C1257.95 390.472 1257.18 390.175 1256.36 390.173H940.854Z"
    fill="#E6E6E6"
  />
  <path
    d="M940.854 407.1C940.042 407.102 939.264 407.4 938.69 407.929C938.116 408.457 937.794 409.174 937.794 409.921C937.794 410.668 938.116 411.385 938.69 411.914C939.264 412.443 940.042 412.74 940.854 412.742H1174C1174.81 412.74 1175.59 412.443 1176.16 411.914C1176.74 411.385 1177.06 410.668 1177.06 409.921C1177.06 409.174 1176.74 408.457 1176.16 407.929C1175.59 407.4 1174.81 407.102 1174 407.1H940.854Z"
    fill="#E6E6E6"
  />
  <path
    d="M775.904 368.15C790.651 368.15 802.607 357.152 802.607 343.586C802.607 330.02 790.651 319.023 775.904 319.023C761.156 319.023 749.201 330.02 749.201 343.586C749.201 357.152 761.156 368.15 775.904 368.15Z"
    fill="#A0616A"
  />
  <path
    d="M767.448 323.935C767.448 323.935 779.909 327.006 786.362 328.234C792.816 329.462 792.148 325.982 792.148 325.982C792.148 325.982 800.604 327.006 800.159 326.187C799.714 325.368 803.719 321.07 799.046 316.157C794.373 311.244 795.708 307.56 795.708 307.56H791.703L790.59 306.127H784.36C784.36 306.127 777.471 300.57 765.232 302.208C752.993 303.845 738.52 308.174 737.184 314.929C737.003 315.845 736.765 316.863 736.488 317.938C733.141 330.935 740.252 343.096 747.627 354.601C749.44 357.429 758.207 363.594 757.983 359.364C757.759 355.134 750.091 345.633 755.431 345.019C760.772 344.405 769.896 331.919 767.448 323.935Z"
    fill="#2F2E41"
  />
  <path
    d="M760.756 422.996C755.601 422.617 750.489 421.844 745.473 420.687L745.754 415.788L748.092 376.839L748.113 376.541H795.151L802.533 412.403L803.529 417.242C801.581 417.939 799.611 418.596 797.598 419.173C797.576 419.173 797.576 419.193 797.555 419.193C794.762 419.989 791.926 420.686 789.068 421.264C785.269 422.018 781.423 422.563 777.553 422.897C774.561 423.17 771.555 423.303 768.549 423.295C765.951 423.295 763.331 423.196 760.756 422.996Z"
    fill="#BBBBE4"
  />
  <path
    d="M730.515 416.067C728.567 415.29 726.683 414.454 724.822 413.578L724.021 413.199C723.479 412.941 722.917 412.662 722.376 412.383C721.639 412.005 720.925 411.626 720.232 411.248C719.561 410.889 718.869 410.511 718.198 410.133C718.154 410.113 718.133 410.093 718.09 410.093C715.752 408.719 713.457 407.305 711.249 405.772C710.882 405.513 710.513 405.254 710.145 404.996L709.756 399.261L710.318 398.942L748.092 376.839L748.611 376.54L748.654 376.521L753.979 376.54V394.78C756.988 398.783 759.023 407.166 760.279 418.138C760.452 419.711 760.603 421.324 760.756 422.996C755.601 422.617 750.489 421.844 745.473 420.686C744.932 420.587 744.412 420.467 743.87 420.328C740.716 419.569 737.609 418.651 734.563 417.58C733.632 417.261 732.723 416.923 731.814 416.584L731.727 416.545C731.337 416.385 730.905 416.226 730.515 416.067Z"
    fill="#2F2E41"
  />
  <path
    d="M722.376 412.383C721.639 412.005 720.925 411.626 720.232 411.248C719.561 410.889 718.869 410.511 718.198 410.133C718.154 410.113 718.133 410.093 718.09 410.093C715.752 408.719 713.457 407.305 711.249 405.772C710.882 405.513 710.513 405.254 710.145 404.996C709.973 404.856 709.799 404.737 709.604 404.597C708.219 403.622 706.877 402.606 705.578 401.531C705.513 401.491 705.47 401.431 705.404 401.391C706.716 400.464 708.187 399.744 709.756 399.261L711.293 399.679L722.246 402.706L722.311 406.788L722.376 412.383Z"
    fill="#2F2E41"
  />
  <path
    d="M814.612 412.443C813.962 412.761 813.313 413.08 812.664 413.379C812.512 413.458 812.383 413.518 812.253 413.578C811.386 413.976 810.543 414.374 809.677 414.752C809.655 414.772 809.611 414.772 809.611 414.792C809.568 414.812 809.504 414.832 809.46 414.852C807.512 415.708 805.542 416.505 803.529 417.242C801.581 417.939 799.611 418.596 797.598 419.173C797.576 419.173 797.576 419.193 797.555 419.193C794.762 419.989 791.926 420.686 789.068 421.264C789.036 419.628 789.27 417.997 789.762 416.425L789.783 416.146L791.645 388.428L789.155 376.54L796.299 375.565L835.587 395.019C835.587 395.019 831.258 399.002 813.486 407.484C811.915 408.235 814.222 410.73 814.612 412.443Z"
    fill="#2F2E41"
  />
  <path
    d="M777.077 418.118C774.262 418.357 771.405 418.476 768.548 418.476C765.777 418.476 763.028 418.377 760.279 418.138C760.452 419.711 760.603 421.324 760.756 422.996C763.331 423.196 765.95 423.295 768.548 423.295C771.555 423.303 774.561 423.17 777.553 422.897C781.423 422.563 785.268 422.018 789.068 421.264C789.036 419.628 789.27 417.997 789.762 416.425L789.783 416.146C785.604 417.082 781.358 417.741 777.077 418.118ZM858.879 306.369C854.305 294.282 846.919 283.258 837.238 274.067C827.556 264.875 815.812 257.736 802.823 253.149C789.834 248.561 775.914 246.635 762.033 247.505C748.152 248.375 734.644 252.019 722.452 258.185C710.259 264.35 699.676 272.887 691.438 283.202C683.201 293.516 677.509 305.36 674.759 317.905C672.008 330.451 672.266 343.398 675.514 355.843C678.762 368.288 684.922 379.932 693.564 389.962C694.43 390.957 695.318 391.953 696.227 392.909C696.313 392.988 696.357 393.048 696.421 393.108C698.656 395.479 701.034 397.732 703.543 399.858C704.15 400.376 704.777 400.894 705.404 401.391C705.47 401.431 705.513 401.491 705.578 401.531C706.877 402.606 708.219 403.622 709.604 404.597C709.799 404.737 709.973 404.856 710.145 404.996C710.514 405.254 710.882 405.513 711.249 405.772C713.457 407.305 715.752 408.719 718.09 410.093C718.133 410.093 718.154 410.113 718.198 410.133C718.869 410.511 719.561 410.889 720.232 411.248C720.926 411.626 721.64 412.005 722.376 412.383C722.917 412.662 723.479 412.94 724.021 413.199L724.822 413.578C726.683 414.454 728.567 415.29 730.515 416.067C730.905 416.226 731.337 416.385 731.727 416.545L731.814 416.584C732.723 416.923 733.632 417.261 734.563 417.58C737.609 418.651 740.716 419.569 743.87 420.328C744.411 420.467 744.932 420.587 745.473 420.686C750.489 421.844 755.6 422.617 760.755 422.996C763.331 423.195 765.95 423.295 768.548 423.295C771.555 423.303 774.561 423.17 777.553 422.897C781.423 422.563 785.268 422.018 789.068 421.264C791.926 420.686 794.762 419.989 797.555 419.193C797.576 419.193 797.576 419.173 797.598 419.173C799.61 418.596 801.581 417.939 803.529 417.242C805.542 416.505 807.512 415.708 809.46 414.852C809.504 414.832 809.568 414.812 809.611 414.792C809.611 414.772 809.655 414.772 809.677 414.753C810.543 414.374 811.386 413.976 812.253 413.578C812.383 413.518 812.512 413.458 812.664 413.379C813.313 413.08 813.962 412.761 814.612 412.443C814.655 412.423 814.676 412.403 814.72 412.383C816.43 411.507 818.119 410.591 819.786 409.615C820.24 409.356 820.695 409.098 821.149 408.799C821.82 408.42 822.469 408.002 823.097 407.584C823.942 407.046 824.785 406.489 825.609 405.911C825.882 405.75 826.142 405.57 826.388 405.374C828.401 403.98 830.349 402.506 832.21 400.953C846.327 389.382 856.396 374.219 861.143 357.383C865.89 340.547 865.102 322.793 858.879 306.369L858.879 306.369ZM830.587 395.816C828.244 397.844 825.787 399.758 823.227 401.551C822.665 401.949 822.079 402.347 821.496 402.706C820.933 403.104 820.37 403.482 819.786 403.841C819.288 404.159 818.79 404.478 818.27 404.776C818.227 404.816 818.162 404.836 818.119 404.876C817.75 405.115 817.361 405.334 816.993 405.553C815.846 406.21 814.655 406.867 813.486 407.485C813.205 407.624 812.945 407.783 812.664 407.923C812.512 408.002 812.361 408.082 812.187 408.161C811.538 408.5 810.888 408.799 810.239 409.117C810.153 409.177 810.045 409.197 809.958 409.257C809.926 409.261 809.895 409.275 809.872 409.296C809.417 409.516 808.963 409.715 808.508 409.914C808.118 410.093 807.75 410.272 807.36 410.431C805.78 411.129 804.157 411.786 802.533 412.403C800.823 413.04 799.092 413.618 797.338 414.155C796.905 414.295 796.45 414.454 795.996 414.573C793.939 415.171 791.883 415.708 789.783 416.146C785.604 417.082 781.358 417.741 777.077 418.118C774.262 418.357 771.406 418.476 768.549 418.476C765.777 418.476 763.028 418.377 760.279 418.138C755.375 417.725 750.517 416.939 745.754 415.788C745.581 415.748 745.386 415.708 745.213 415.668C741.306 414.731 737.479 413.534 733.762 412.084C733.567 412.005 733.351 411.945 733.177 411.865C732.961 411.786 732.766 411.726 732.593 411.646C732.376 411.566 732.182 411.487 731.987 411.407C730.364 410.75 728.783 410.033 727.203 409.296L726.467 408.938C725.06 408.261 723.674 407.564 722.311 406.787C721.835 406.549 721.337 406.27 720.86 405.991C720.319 405.692 719.778 405.374 719.258 405.055C719.129 404.975 718.999 404.896 718.869 404.816C717.657 404.059 716.423 403.303 715.254 402.487C714.432 401.929 713.631 401.391 712.83 400.814C712.31 400.455 711.791 400.077 711.293 399.679C710.968 399.46 710.644 399.201 710.318 398.942C709.886 398.604 709.453 398.265 709.02 397.907C708.349 397.409 707.721 396.851 707.115 396.333C704.677 394.267 702.372 392.073 700.209 389.762C699.474 389.006 698.78 388.249 698.11 387.453C697.954 387.296 697.809 387.129 697.677 386.955C686.779 374.3 680.121 359.001 678.514 342.924C676.908 326.847 680.422 310.688 688.63 296.417C696.837 282.146 709.382 270.381 724.734 262.558C740.086 254.734 757.581 251.189 775.086 252.356C792.591 253.523 809.348 259.351 823.313 269.13C837.278 278.908 847.848 292.214 853.732 307.424C859.616 322.634 860.561 339.091 856.452 354.787C852.342 370.482 843.355 384.739 830.587 395.816L830.587 395.816Z"
    fill="#3F3D56"
  />
  <path
    d="M329.452 790.645L346.965 790.643L355.295 728.509L329.449 728.51L329.452 790.645Z"
    fill="#A0616A"
  />
  <path
    d="M324.986 785.385L359.473 785.384H359.475C365.303 785.384 370.893 787.514 375.015 791.306C379.137 795.097 381.452 800.239 381.453 805.601V806.258L324.987 806.26L324.986 785.385Z"
    fill="#2F2E41"
  />
  <path
    d="M395.159 790.645L412.671 790.643L421.002 728.509L395.156 728.51L395.159 790.645Z"
    fill="#A0616A"
  />
  <path
    d="M390.692 785.385L425.18 785.384H425.181C431.01 785.384 436.6 787.514 440.722 791.306C444.843 795.097 447.159 800.239 447.159 805.601V806.258L390.693 806.26L390.692 785.385Z"
    fill="#2F2E41"
  />
  <path
    d="M276.317 545.12C277.75 543.708 278.829 542.024 279.479 540.187C280.128 538.35 280.331 536.405 280.075 534.488C279.819 532.57 279.108 530.728 277.994 529.091C276.88 527.454 275.389 526.061 273.627 525.011L285.794 479.41L260.808 487.6L253.084 529.648C251.363 532.488 250.834 535.811 251.598 538.986C252.362 542.162 254.366 544.969 257.23 546.876C260.093 548.783 263.618 549.658 267.136 549.334C270.654 549.01 273.92 547.511 276.317 545.12V545.12Z"
    fill="#9E616A"
  />
  <path
    d="M462.21 541.178C460.777 539.766 459.698 538.082 459.048 536.245C458.399 534.408 458.196 532.463 458.452 530.546C458.709 528.628 459.419 526.786 460.533 525.149C461.647 523.512 463.138 522.119 464.901 521.069L452.733 475.468L477.719 483.658L485.443 525.706C487.164 528.546 487.693 531.869 486.929 535.045C486.165 538.22 484.161 541.027 481.297 542.934C478.434 544.841 474.909 545.716 471.391 545.392C467.873 545.068 464.607 543.569 462.21 541.178V541.178Z"
    fill="#9E616A"
  />
  <path
    d="M299.357 513.155L323.63 774.72L359.146 771.741L373.36 569.587L386.013 649.631L388.547 776.779L420.686 774.808L438.532 638.024L434.154 505.553L312.144 494.188L299.357 513.155Z"
    fill="#2F2E41"
  />
  <path
    d="M366.128 275.136C386.47 275.136 402.96 259.967 402.96 241.255C402.96 222.542 386.47 207.373 366.128 207.373C345.786 207.373 329.296 222.542 329.296 241.255C329.296 259.967 345.786 275.136 366.128 275.136Z"
    fill="#A0616A"
  />
  <path
    d="M354.465 214.149C354.465 214.149 371.653 218.385 380.554 220.079C389.455 221.773 388.535 216.973 388.535 216.973C388.535 216.973 400.198 218.385 399.584 217.255C398.97 216.126 404.495 210.197 398.05 203.42C391.604 196.644 393.446 191.562 393.446 191.562H387.921L386.386 189.585H377.792C377.792 189.585 368.29 181.921 351.408 184.18C334.527 186.438 314.563 192.409 312.721 201.726C312.471 202.99 312.142 204.394 311.761 205.877C307.144 223.804 316.953 240.578 327.126 256.448C329.626 260.348 341.719 268.853 341.41 263.018C341.1 257.183 330.523 244.078 337.89 243.231C345.256 242.384 357.841 225.161 354.465 214.149Z"
    fill="#2F2E41"
  />
  <path
    d="M327.8 286.71H392.667L438.532 509.526C438.532 509.526 398.546 512.671 375.691 520.555C352.837 528.439 314.844 502.546 314.844 502.546L327.8 286.71Z"
    fill="#BBBBE4"
  />
  <path
    d="M335.898 311.872V286.71L328.554 286.669L274.893 318.053L286.537 490.002C286.537 490.002 300.318 547.367 321.221 546.772C342.124 546.178 358.241 341.675 335.898 311.872Z"
    fill="#2F2E41"
  />
  <path
    d="M292.13 322.803L274.893 318.053C274.893 318.053 262.133 321.489 262.133 333.315C262.133 345.141 251.139 513.155 251.139 513.155L286.065 515.994L293.558 430.548L292.13 322.803Z"
    fill="#2F2E41"
  />
  <path
    d="M387.833 303.094L384.397 286.71L394.261 285.355L429.971 298.495C429.971 298.495 462.11 514.642 447.826 521.212C433.542 527.782 423.897 522.692 423.897 522.692C423.897 522.692 376.915 363.273 385.231 341.724L387.833 303.094Z"
    fill="#2F2E41"
  />
  <path
    d="M404.973 301.78L411.068 299.339C411.068 299.339 428.956 291.185 439.105 307.651C449.254 324.117 484.964 508.072 484.964 508.072L455.581 513.155L433.615 446.952L404.973 301.78Z"
    fill="#2F2E41"
  />
  <path
    d="M641.65 807H97.4284C97.0496 807 96.6862 806.862 96.4184 806.615C96.1505 806.369 96 806.035 96 805.686C96 805.338 96.1505 805.003 96.4184 804.757C96.6862 804.511 97.0496 804.372 97.4284 804.372H641.65C642.028 804.372 642.392 804.511 642.66 804.757C642.928 805.003 643.078 805.338 643.078 805.686C643.078 806.035 642.928 806.369 642.66 806.615C642.392 806.862 642.028 807 641.65 807Z"
    fill="#CACACA"
  />
  <path
    d="M623.277 582H620.046L629.392 556.545H632.574L641.921 582H638.689L631.083 560.572H630.884L623.277 582ZM624.47 572.057H637.496V574.791H624.47V572.057ZM659.011 567.185L656.376 567.93C656.21 567.491 655.966 567.065 655.642 566.65C655.327 566.228 654.897 565.88 654.35 565.606C653.803 565.333 653.103 565.196 652.249 565.196C651.081 565.196 650.107 565.465 649.328 566.004C648.558 566.534 648.173 567.21 648.173 568.03C648.173 568.759 648.438 569.335 648.968 569.757C649.498 570.18 650.327 570.532 651.454 570.814L654.288 571.51C655.995 571.924 657.266 572.558 658.103 573.412C658.94 574.257 659.359 575.346 659.359 576.68C659.359 577.774 659.044 578.752 658.414 579.614C657.793 580.475 656.923 581.155 655.804 581.652C654.685 582.149 653.384 582.398 651.901 582.398C649.954 582.398 648.342 581.975 647.066 581.13C645.79 580.285 644.982 579.05 644.643 577.426L647.427 576.73C647.692 577.758 648.193 578.528 648.931 579.042C649.676 579.556 650.65 579.812 651.852 579.812C653.219 579.812 654.304 579.522 655.108 578.942C655.92 578.354 656.326 577.65 656.326 576.83C656.326 576.167 656.094 575.612 655.63 575.164C655.166 574.708 654.453 574.369 653.492 574.145L650.31 573.399C648.562 572.985 647.278 572.343 646.457 571.473C645.645 570.594 645.239 569.496 645.239 568.179C645.239 567.102 645.542 566.149 646.147 565.32C646.76 564.492 647.593 563.841 648.645 563.369C649.705 562.897 650.907 562.661 652.249 562.661C654.138 562.661 655.622 563.075 656.699 563.903C657.784 564.732 658.555 565.826 659.011 567.185ZM677.297 567.185L674.662 567.93C674.496 567.491 674.252 567.065 673.928 566.65C673.614 566.228 673.183 565.88 672.636 565.606C672.089 565.333 671.389 565.196 670.535 565.196C669.367 565.196 668.393 565.465 667.615 566.004C666.844 566.534 666.459 567.21 666.459 568.03C666.459 568.759 666.724 569.335 667.254 569.757C667.784 570.18 668.613 570.532 669.74 570.814L672.574 571.51C674.281 571.924 675.553 572.558 676.389 573.412C677.226 574.257 677.645 575.346 677.645 576.68C677.645 577.774 677.33 578.752 676.7 579.614C676.079 580.475 675.209 581.155 674.09 581.652C672.971 582.149 671.671 582.398 670.187 582.398C668.24 582.398 666.629 581.975 665.352 581.13C664.076 580.285 663.269 579.05 662.929 577.426L665.713 576.73C665.978 577.758 666.479 578.528 667.217 579.042C667.963 579.556 668.936 579.812 670.138 579.812C671.505 579.812 672.59 579.522 673.394 578.942C674.206 578.354 674.612 577.65 674.612 576.83C674.612 576.167 674.38 575.612 673.916 575.164C673.452 574.708 672.739 574.369 671.778 574.145L668.596 573.399C666.848 572.985 665.564 572.343 664.743 571.473C663.931 570.594 663.525 569.496 663.525 568.179C663.525 567.102 663.828 566.149 664.433 565.32C665.046 564.492 665.879 563.841 666.931 563.369C667.992 562.897 669.193 562.661 670.535 562.661C672.425 562.661 673.908 563.075 674.985 563.903C676.07 564.732 676.841 565.826 677.297 567.185ZM689.816 582.398C688.092 582.398 686.58 581.988 685.279 581.167C683.987 580.347 682.976 579.199 682.247 577.724C681.526 576.25 681.165 574.526 681.165 572.554C681.165 570.565 681.526 568.829 682.247 567.346C682.976 565.863 683.987 564.711 685.279 563.891C686.58 563.071 688.092 562.661 689.816 562.661C691.539 562.661 693.047 563.071 694.34 563.891C695.641 564.711 696.652 565.863 697.373 567.346C698.102 568.829 698.466 570.565 698.466 572.554C698.466 574.526 698.102 576.25 697.373 577.724C696.652 579.199 695.641 580.347 694.34 581.167C693.047 581.988 691.539 582.398 689.816 582.398ZM689.816 579.763C691.125 579.763 692.202 579.427 693.047 578.756C693.893 578.085 694.518 577.202 694.924 576.109C695.33 575.015 695.533 573.83 695.533 572.554C695.533 571.278 695.33 570.089 694.924 568.987C694.518 567.885 693.893 566.994 693.047 566.315C692.202 565.635 691.125 565.295 689.816 565.295C688.507 565.295 687.429 565.635 686.584 566.315C685.739 566.994 685.114 567.885 684.708 568.987C684.302 570.089 684.098 571.278 684.098 572.554C684.098 573.83 684.302 575.015 684.708 576.109C685.114 577.202 685.739 578.085 686.584 578.756C687.429 579.427 688.507 579.763 689.816 579.763ZM710.7 582.398C708.91 582.398 707.369 581.975 706.076 581.13C704.783 580.285 703.789 579.121 703.093 577.637C702.397 576.154 702.049 574.46 702.049 572.554C702.049 570.615 702.405 568.904 703.118 567.421C703.839 565.929 704.841 564.765 706.126 563.928C707.418 563.083 708.926 562.661 710.65 562.661C711.992 562.661 713.202 562.909 714.279 563.406C715.356 563.903 716.239 564.599 716.927 565.494C717.614 566.389 718.041 567.433 718.207 568.626H715.273C715.05 567.756 714.553 566.986 713.782 566.315C713.02 565.635 711.992 565.295 710.7 565.295C709.556 565.295 708.554 565.594 707.692 566.19C706.838 566.779 706.171 567.611 705.691 568.689C705.218 569.757 704.982 571.013 704.982 572.455C704.982 573.929 705.214 575.214 705.678 576.308C706.151 577.401 706.813 578.251 707.667 578.855C708.529 579.46 709.54 579.763 710.7 579.763C711.462 579.763 712.154 579.63 712.775 579.365C713.397 579.1 713.923 578.719 714.354 578.222C714.785 577.724 715.091 577.128 715.273 576.432H718.207C718.041 577.559 717.631 578.574 716.976 579.477C716.33 580.372 715.472 581.084 714.403 581.615C713.343 582.137 712.108 582.398 710.7 582.398ZM722.495 582V562.909H725.428V582H722.495ZM723.986 559.727C723.414 559.727 722.921 559.533 722.507 559.143C722.101 558.754 721.898 558.286 721.898 557.739C721.898 557.192 722.101 556.724 722.507 556.334C722.921 555.945 723.414 555.75 723.986 555.75C724.558 555.75 725.047 555.945 725.453 556.334C725.867 556.724 726.074 557.192 726.074 557.739C726.074 558.286 725.867 558.754 725.453 559.143C725.047 559.533 724.558 559.727 723.986 559.727ZM736.418 582.447C735.209 582.447 734.111 582.22 733.125 581.764C732.139 581.3 731.356 580.633 730.776 579.763C730.196 578.884 729.905 577.824 729.905 576.581C729.905 575.487 730.121 574.601 730.552 573.921C730.983 573.233 731.559 572.695 732.279 572.305C733 571.916 733.796 571.626 734.666 571.435C735.544 571.237 736.427 571.079 737.313 570.963C738.473 570.814 739.414 570.702 740.135 570.627C740.864 570.545 741.394 570.408 741.725 570.217C742.065 570.027 742.235 569.695 742.235 569.223V569.124C742.235 567.897 741.899 566.944 741.228 566.265C740.565 565.585 739.559 565.246 738.208 565.246C736.808 565.246 735.71 565.552 734.914 566.165C734.119 566.779 733.56 567.433 733.236 568.129L730.452 567.135C730.95 565.975 731.612 565.072 732.441 564.425C733.278 563.771 734.189 563.315 735.175 563.058C736.17 562.793 737.147 562.661 738.109 562.661C738.722 562.661 739.426 562.735 740.222 562.884C741.025 563.025 741.8 563.319 742.546 563.767C743.3 564.214 743.925 564.889 744.423 565.793C744.92 566.696 745.168 567.906 745.168 569.422V582H742.235V579.415H742.086C741.887 579.829 741.556 580.272 741.092 580.745C740.628 581.217 740.01 581.619 739.24 581.95C738.469 582.282 737.529 582.447 736.418 582.447ZM736.866 579.812C738.026 579.812 739.004 579.585 739.799 579.129C740.603 578.673 741.208 578.085 741.614 577.364C742.028 576.643 742.235 575.885 742.235 575.089V572.405C742.111 572.554 741.837 572.691 741.415 572.815C741 572.931 740.52 573.035 739.973 573.126C739.434 573.209 738.908 573.283 738.394 573.349C737.889 573.407 737.479 573.457 737.164 573.499C736.402 573.598 735.689 573.76 735.026 573.983C734.372 574.199 733.841 574.526 733.435 574.965C733.038 575.396 732.839 575.984 732.839 576.73C732.839 577.749 733.216 578.52 733.97 579.042C734.732 579.556 735.697 579.812 736.866 579.812ZM758.825 562.909V565.395H748.931V562.909H758.825ZM751.815 558.335H754.748V576.531C754.748 577.36 754.868 577.981 755.108 578.396C755.357 578.802 755.672 579.075 756.053 579.216C756.442 579.348 756.853 579.415 757.283 579.415C757.607 579.415 757.872 579.398 758.079 579.365C758.286 579.324 758.452 579.29 758.576 579.266L759.173 581.901C758.974 581.975 758.696 582.05 758.34 582.124C757.984 582.207 757.532 582.249 756.985 582.249C756.157 582.249 755.345 582.07 754.549 581.714C753.762 581.358 753.107 580.815 752.585 580.086C752.072 579.357 751.815 578.437 751.815 577.327V558.335ZM771.036 582.398C769.197 582.398 767.61 581.992 766.276 581.18C764.95 580.359 763.927 579.216 763.206 577.749C762.493 576.274 762.137 574.559 762.137 572.604C762.137 570.648 762.493 568.925 763.206 567.433C763.927 565.933 764.929 564.765 766.214 563.928C767.506 563.083 769.014 562.661 770.738 562.661C771.732 562.661 772.714 562.826 773.683 563.158C774.653 563.489 775.535 564.028 776.331 564.773C777.126 565.511 777.76 566.489 778.232 567.707C778.705 568.925 778.941 570.424 778.941 572.206V573.449H764.225V570.913H775.958C775.958 569.836 775.743 568.875 775.312 568.03C774.889 567.185 774.284 566.518 773.497 566.029C772.718 565.54 771.798 565.295 770.738 565.295C769.569 565.295 768.559 565.585 767.705 566.165C766.86 566.737 766.21 567.483 765.754 568.403C765.298 569.322 765.07 570.308 765.07 571.361V573.051C765.07 574.493 765.319 575.715 765.816 576.718C766.321 577.712 767.022 578.47 767.916 578.992C768.811 579.506 769.851 579.763 771.036 579.763C771.807 579.763 772.503 579.655 773.124 579.44C773.754 579.216 774.297 578.884 774.752 578.445C775.208 577.998 775.56 577.443 775.809 576.78L778.643 577.575C778.344 578.536 777.843 579.382 777.139 580.111C776.434 580.832 775.564 581.395 774.529 581.801C773.493 582.199 772.329 582.398 771.036 582.398ZM795.136 589.159C794.639 589.159 794.195 589.118 793.806 589.035C793.417 588.96 793.147 588.886 792.998 588.811L793.744 586.226C794.456 586.408 795.086 586.474 795.633 586.425C796.18 586.375 796.665 586.131 797.087 585.691C797.518 585.261 797.912 584.56 798.268 583.591L798.815 582.099L791.755 562.909H794.937L800.207 578.122H800.406L805.676 562.909H808.857L800.754 584.784C800.389 585.77 799.938 586.586 799.399 587.233C798.86 587.887 798.235 588.372 797.522 588.687C796.818 589.002 796.022 589.159 795.136 589.159ZM819.801 582.398C818.078 582.398 816.566 581.988 815.265 581.167C813.972 580.347 812.961 579.199 812.232 577.724C811.511 576.25 811.151 574.526 811.151 572.554C811.151 570.565 811.511 568.829 812.232 567.346C812.961 565.863 813.972 564.711 815.265 563.891C816.566 563.071 818.078 562.661 819.801 562.661C821.525 562.661 823.033 563.071 824.325 563.891C825.626 564.711 826.637 565.863 827.358 567.346C828.087 568.829 828.452 570.565 828.452 572.554C828.452 574.526 828.087 576.25 827.358 577.724C826.637 579.199 825.626 580.347 824.325 581.167C823.033 581.988 821.525 582.398 819.801 582.398ZM819.801 579.763C821.11 579.763 822.188 579.427 823.033 578.756C823.878 578.085 824.503 577.202 824.909 576.109C825.316 575.015 825.519 573.83 825.519 572.554C825.519 571.278 825.316 570.089 824.909 568.987C824.503 567.885 823.878 566.994 823.033 566.315C822.188 565.635 821.11 565.295 819.801 565.295C818.492 565.295 817.415 565.635 816.57 566.315C815.724 566.994 815.099 567.885 814.693 568.987C814.287 570.089 814.084 571.278 814.084 572.554C814.084 573.83 814.287 575.015 814.693 576.109C815.099 577.202 815.724 578.085 816.57 578.756C817.415 579.427 818.492 579.763 819.801 579.763ZM844.961 574.195V562.909H847.894V582H844.961V578.768H844.762C844.314 579.738 843.618 580.562 842.674 581.242C841.729 581.913 840.536 582.249 839.094 582.249C837.901 582.249 836.84 581.988 835.912 581.466C834.984 580.935 834.255 580.14 833.725 579.079C833.194 578.01 832.929 576.664 832.929 575.04V562.909H835.863V574.841C835.863 576.233 836.252 577.343 837.031 578.172C837.818 579 838.821 579.415 840.039 579.415C840.768 579.415 841.509 579.228 842.263 578.855C843.026 578.483 843.664 577.911 844.178 577.14C844.7 576.37 844.961 575.388 844.961 574.195ZM853.266 582V562.909H856.1V565.793H856.299C856.647 564.848 857.277 564.082 858.188 563.493C859.1 562.905 860.127 562.611 861.27 562.611C861.486 562.611 861.755 562.615 862.078 562.623C862.402 562.632 862.646 562.644 862.812 562.661V565.643C862.712 565.619 862.484 565.581 862.128 565.532C861.78 565.474 861.411 565.445 861.022 565.445C860.094 565.445 859.265 565.639 858.536 566.029C857.815 566.41 857.243 566.94 856.821 567.62C856.407 568.291 856.199 569.057 856.199 569.919V582H853.266ZM876.132 582V562.909H878.966V565.892H879.215C879.613 564.873 880.255 564.082 881.141 563.518C882.028 562.946 883.093 562.661 884.336 562.661C885.595 562.661 886.643 562.946 887.48 563.518C888.325 564.082 888.984 564.873 889.456 565.892H889.655C890.144 564.906 890.877 564.123 891.855 563.543C892.833 562.955 894.005 562.661 895.372 562.661C897.079 562.661 898.476 563.195 899.561 564.264C900.647 565.324 901.189 566.978 901.189 569.223V582H898.256V569.223C898.256 567.814 897.871 566.808 897.1 566.203C896.33 565.598 895.422 565.295 894.378 565.295C893.036 565.295 891.996 565.701 891.258 566.513C890.521 567.317 890.152 568.336 890.152 569.571V582H887.169V568.925C887.169 567.839 886.817 566.965 886.113 566.302C885.409 565.631 884.501 565.295 883.391 565.295C882.629 565.295 881.916 565.498 881.253 565.904C880.599 566.31 880.068 566.874 879.662 567.595C879.265 568.307 879.066 569.132 879.066 570.068V582H876.132ZM914.557 582.398C912.717 582.398 911.13 581.992 909.796 581.18C908.471 580.359 907.447 579.216 906.726 577.749C906.014 576.274 905.657 574.559 905.657 572.604C905.657 570.648 906.014 568.925 906.726 567.433C907.447 565.933 908.45 564.765 909.734 563.928C911.027 563.083 912.535 562.661 914.258 562.661C915.253 562.661 916.235 562.826 917.204 563.158C918.173 563.489 919.056 564.028 919.851 564.773C920.647 565.511 921.281 566.489 921.753 567.707C922.225 568.925 922.461 570.424 922.461 572.206V573.449H907.746V570.913H919.478C919.478 569.836 919.263 568.875 918.832 568.03C918.41 567.185 917.805 566.518 917.018 566.029C916.239 565.54 915.319 565.295 914.258 565.295C913.09 565.295 912.079 565.585 911.226 566.165C910.38 566.737 909.73 567.483 909.274 568.403C908.819 569.322 908.591 570.308 908.591 571.361V573.051C908.591 574.493 908.839 575.715 909.336 576.718C909.842 577.712 910.542 578.47 911.437 578.992C912.332 579.506 913.372 579.763 914.557 579.763C915.327 579.763 916.023 579.655 916.645 579.44C917.274 579.216 917.817 578.884 918.273 578.445C918.729 577.998 919.081 577.443 919.329 576.78L922.163 577.575C921.865 578.536 921.364 579.382 920.659 580.111C919.955 580.832 919.085 581.395 918.049 581.801C917.013 582.199 915.849 582.398 914.557 582.398ZM940.446 567.185L937.811 567.93C937.645 567.491 937.401 567.065 937.078 566.65C936.763 566.228 936.332 565.88 935.785 565.606C935.238 565.333 934.538 565.196 933.685 565.196C932.516 565.196 931.543 565.465 930.764 566.004C929.993 566.534 929.608 567.21 929.608 568.03C929.608 568.759 929.873 569.335 930.404 569.757C930.934 570.18 931.762 570.532 932.889 570.814L935.723 571.51C937.43 571.924 938.702 572.558 939.539 573.412C940.376 574.257 940.794 575.346 940.794 576.68C940.794 577.774 940.479 578.752 939.85 579.614C939.228 580.475 938.358 581.155 937.239 581.652C936.121 582.149 934.82 582.398 933.337 582.398C931.39 582.398 929.778 581.975 928.502 581.13C927.226 580.285 926.418 579.05 926.078 577.426L928.862 576.73C929.128 577.758 929.629 578.528 930.366 579.042C931.112 579.556 932.086 579.812 933.287 579.812C934.654 579.812 935.74 579.522 936.543 578.942C937.355 578.354 937.761 577.65 937.761 576.83C937.761 576.167 937.529 575.612 937.065 575.164C936.601 574.708 935.889 574.369 934.928 574.145L931.746 573.399C929.998 572.985 928.713 572.343 927.893 571.473C927.081 570.594 926.675 569.496 926.675 568.179C926.675 567.102 926.977 566.149 927.582 565.32C928.195 564.492 929.028 563.841 930.08 563.369C931.141 562.897 932.342 562.661 933.685 562.661C935.574 562.661 937.057 563.075 938.134 563.903C939.22 564.732 939.99 565.826 940.446 567.185ZM958.732 567.185L956.097 567.93C955.932 567.491 955.687 567.065 955.364 566.65C955.049 566.228 954.618 565.88 954.071 565.606C953.525 565.333 952.824 565.196 951.971 565.196C950.803 565.196 949.829 565.465 949.05 566.004C948.28 566.534 947.894 567.21 947.894 568.03C947.894 568.759 948.159 569.335 948.69 569.757C949.22 570.18 950.049 570.532 951.175 570.814L954.009 571.51C955.716 571.924 956.988 572.558 957.825 573.412C958.662 574.257 959.08 575.346 959.08 576.68C959.08 577.774 958.765 578.752 958.136 579.614C957.514 580.475 956.644 581.155 955.526 581.652C954.407 582.149 953.106 582.398 951.623 582.398C949.676 582.398 948.064 581.975 946.788 581.13C945.512 580.285 944.704 579.05 944.364 577.426L947.148 576.73C947.414 577.758 947.915 578.528 948.652 579.042C949.398 579.556 950.372 579.812 951.573 579.812C952.94 579.812 954.026 579.522 954.83 578.942C955.642 578.354 956.048 577.65 956.048 576.83C956.048 576.167 955.816 575.612 955.352 575.164C954.888 574.708 954.175 574.369 953.214 574.145L950.032 573.399C948.284 572.985 946.999 572.343 946.179 571.473C945.367 570.594 944.961 569.496 944.961 568.179C944.961 567.102 945.263 566.149 945.868 565.32C946.481 564.492 947.314 563.841 948.367 563.369C949.427 562.897 950.629 562.661 951.971 562.661C953.86 562.661 955.343 563.075 956.42 563.903C957.506 564.732 958.277 565.826 958.732 567.185ZM969.114 582.447C967.904 582.447 966.806 582.22 965.82 581.764C964.834 581.3 964.051 580.633 963.471 579.763C962.891 578.884 962.601 577.824 962.601 576.581C962.601 575.487 962.816 574.601 963.247 573.921C963.678 573.233 964.254 572.695 964.975 572.305C965.696 571.916 966.491 571.626 967.361 571.435C968.239 571.237 969.122 571.079 970.008 570.963C971.169 570.814 972.109 570.702 972.83 570.627C973.559 570.545 974.089 570.408 974.421 570.217C974.76 570.027 974.93 569.695 974.93 569.223V569.124C974.93 567.897 974.595 566.944 973.924 566.265C973.261 565.585 972.254 565.246 970.903 565.246C969.503 565.246 968.405 565.552 967.61 566.165C966.814 566.779 966.255 567.433 965.932 568.129L963.148 567.135C963.645 565.975 964.308 565.072 965.136 564.425C965.973 563.771 966.885 563.315 967.871 563.058C968.865 562.793 969.843 562.661 970.804 562.661C971.417 562.661 972.121 562.735 972.917 562.884C973.721 563.025 974.495 563.319 975.241 563.767C975.995 564.214 976.621 564.889 977.118 565.793C977.615 566.696 977.864 567.906 977.864 569.422V582H974.93V579.415H974.781C974.582 579.829 974.251 580.272 973.787 580.745C973.323 581.217 972.706 581.619 971.935 581.95C971.164 582.282 970.224 582.447 969.114 582.447ZM969.561 579.812C970.721 579.812 971.699 579.585 972.494 579.129C973.298 578.673 973.903 578.085 974.309 577.364C974.723 576.643 974.93 575.885 974.93 575.089V572.405C974.806 572.554 974.533 572.691 974.11 572.815C973.696 572.931 973.215 573.035 972.668 573.126C972.13 573.209 971.604 573.283 971.09 573.349C970.584 573.407 970.174 573.457 969.859 573.499C969.097 573.598 968.384 573.76 967.722 573.983C967.067 574.199 966.537 574.526 966.131 574.965C965.733 575.396 965.534 575.984 965.534 576.73C965.534 577.749 965.911 578.52 966.665 579.042C967.427 579.556 968.393 579.812 969.561 579.812ZM990.923 589.557C989.506 589.557 988.288 589.375 987.269 589.01C986.25 588.654 985.401 588.181 984.721 587.593C984.05 587.013 983.516 586.392 983.118 585.729L985.455 584.088C985.72 584.436 986.055 584.834 986.461 585.281C986.867 585.737 987.423 586.131 988.127 586.462C988.839 586.802 989.772 586.972 990.923 586.972C992.465 586.972 993.736 586.599 994.739 585.853C995.742 585.107 996.243 583.939 996.243 582.348V578.47H995.994C995.779 578.818 995.472 579.249 995.075 579.763C994.685 580.268 994.122 580.72 993.384 581.118C992.655 581.507 991.669 581.702 990.426 581.702C988.885 581.702 987.501 581.337 986.275 580.608C985.057 579.879 984.092 578.818 983.379 577.426C982.675 576.034 982.322 574.344 982.322 572.355C982.322 570.4 982.666 568.697 983.354 567.247C984.042 565.788 984.999 564.662 986.225 563.866C987.452 563.062 988.868 562.661 990.476 562.661C991.719 562.661 992.705 562.868 993.434 563.282C994.171 563.688 994.735 564.152 995.124 564.674C995.522 565.188 995.829 565.61 996.044 565.942H996.342V562.909H999.176V582.547C999.176 584.188 998.803 585.522 998.058 586.549C997.32 587.585 996.326 588.343 995.075 588.824C993.832 589.312 992.448 589.557 990.923 589.557ZM990.824 579.067C992.001 579.067 992.995 578.797 993.807 578.259C994.619 577.72 995.236 576.946 995.659 575.935C996.081 574.924 996.293 573.714 996.293 572.305C996.293 570.93 996.086 569.716 995.671 568.664C995.257 567.611 994.644 566.787 993.832 566.19C993.02 565.594 992.017 565.295 990.824 565.295C989.581 565.295 988.545 565.61 987.717 566.24C986.896 566.87 986.279 567.715 985.865 568.776C985.459 569.836 985.256 571.013 985.256 572.305C985.256 573.631 985.463 574.804 985.877 575.823C986.3 576.834 986.921 577.629 987.742 578.209C988.57 578.781 989.598 579.067 990.824 579.067ZM1012.55 582.398C1010.71 582.398 1009.12 581.992 1007.79 581.18C1006.46 580.359 1005.44 579.216 1004.72 577.749C1004.01 576.274 1003.65 574.559 1003.65 572.604C1003.65 570.648 1004.01 568.925 1004.72 567.433C1005.44 565.933 1006.44 564.765 1007.73 563.928C1009.02 563.083 1010.53 562.661 1012.25 562.661C1013.25 562.661 1014.23 562.826 1015.2 563.158C1016.17 563.489 1017.05 564.028 1017.84 564.773C1018.64 565.511 1019.27 566.489 1019.75 567.707C1020.22 568.925 1020.45 570.424 1020.45 572.206V573.449H1005.74V570.913H1017.47C1017.47 569.836 1017.26 568.875 1016.83 568.03C1016.4 567.185 1015.8 566.518 1015.01 566.029C1014.23 565.54 1013.31 565.295 1012.25 565.295C1011.08 565.295 1010.07 565.585 1009.22 566.165C1008.37 566.737 1007.72 567.483 1007.27 568.403C1006.81 569.322 1006.58 570.308 1006.58 571.361V573.051C1006.58 574.493 1006.83 575.715 1007.33 576.718C1007.84 577.712 1008.54 578.47 1009.43 578.992C1010.32 579.506 1011.36 579.763 1012.55 579.763C1013.32 579.763 1014.02 579.655 1014.64 579.44C1015.27 579.216 1015.81 578.884 1016.27 578.445C1016.72 577.998 1017.07 577.443 1017.32 576.78L1020.16 577.575C1019.86 578.536 1019.36 579.382 1018.65 580.111C1017.95 580.832 1017.08 581.395 1016.04 581.801C1015.01 582.199 1013.84 582.398 1012.55 582.398ZM1038.44 567.185L1035.8 567.93C1035.64 567.491 1035.39 567.065 1035.07 566.65C1034.76 566.228 1034.33 565.88 1033.78 565.606C1033.23 565.333 1032.53 565.196 1031.68 565.196C1030.51 565.196 1029.54 565.465 1028.76 566.004C1027.99 566.534 1027.6 567.21 1027.6 568.03C1027.6 568.759 1027.87 569.335 1028.4 569.757C1028.93 570.18 1029.76 570.532 1030.88 570.814L1033.72 571.51C1035.42 571.924 1036.7 572.558 1037.53 573.412C1038.37 574.257 1038.79 575.346 1038.79 576.68C1038.79 577.774 1038.47 578.752 1037.84 579.614C1037.22 580.475 1036.35 581.155 1035.23 581.652C1034.11 582.149 1032.81 582.398 1031.33 582.398C1029.38 582.398 1027.77 581.975 1026.5 581.13C1025.22 580.285 1024.41 579.05 1024.07 577.426L1026.86 576.73C1027.12 577.758 1027.62 578.528 1028.36 579.042C1029.11 579.556 1030.08 579.812 1031.28 579.812C1032.65 579.812 1033.73 579.522 1034.54 578.942C1035.35 578.354 1035.75 577.65 1035.75 576.83C1035.75 576.167 1035.52 575.612 1035.06 575.164C1034.59 574.708 1033.88 574.369 1032.92 574.145L1029.74 573.399C1027.99 572.985 1026.71 572.343 1025.89 571.473C1025.07 570.594 1024.67 569.496 1024.67 568.179C1024.67 567.102 1024.97 566.149 1025.58 565.32C1026.19 564.492 1027.02 563.841 1028.07 563.369C1029.13 562.897 1030.34 562.661 1031.68 562.661C1033.57 562.661 1035.05 563.075 1036.13 563.903C1037.21 564.732 1037.98 565.826 1038.44 567.185ZM1061.35 562.909V565.395H1051.46V562.909H1061.35ZM1054.34 558.335H1057.27V576.531C1057.27 577.36 1057.39 577.981 1057.63 578.396C1057.88 578.802 1058.2 579.075 1058.58 579.216C1058.97 579.348 1059.38 579.415 1059.81 579.415C1060.13 579.415 1060.4 579.398 1060.6 579.365C1060.81 579.324 1060.98 579.29 1061.1 579.266L1061.7 581.901C1061.5 581.975 1061.22 582.05 1060.86 582.124C1060.51 582.207 1060.06 582.249 1059.51 582.249C1058.68 582.249 1057.87 582.07 1057.07 581.714C1056.29 581.358 1055.63 580.815 1055.11 580.086C1054.6 579.357 1054.34 578.437 1054.34 577.327V558.335ZM1073.31 582.398C1071.59 582.398 1070.08 581.988 1068.78 581.167C1067.48 580.347 1066.47 579.199 1065.74 577.724C1065.02 576.25 1064.66 574.526 1064.66 572.554C1064.66 570.565 1065.02 568.829 1065.74 567.346C1066.47 565.863 1067.48 564.711 1068.78 563.891C1070.08 563.071 1071.59 562.661 1073.31 562.661C1075.04 562.661 1076.54 563.071 1077.84 563.891C1079.14 564.711 1080.15 565.863 1080.87 567.346C1081.6 568.829 1081.96 570.565 1081.96 572.554C1081.96 574.526 1081.6 576.25 1080.87 577.724C1080.15 579.199 1079.14 580.347 1077.84 581.167C1076.54 581.988 1075.04 582.398 1073.31 582.398ZM1073.31 579.763C1074.62 579.763 1075.7 579.427 1076.54 578.756C1077.39 578.085 1078.01 577.202 1078.42 576.109C1078.83 575.015 1079.03 573.83 1079.03 572.554C1079.03 571.278 1078.83 570.089 1078.42 568.987C1078.01 567.885 1077.39 566.994 1076.54 566.315C1075.7 565.635 1074.62 565.295 1073.31 565.295C1072 565.295 1070.93 565.635 1070.08 566.315C1069.24 566.994 1068.61 567.885 1068.2 568.987C1067.8 570.089 1067.59 571.278 1067.59 572.554C1067.59 573.83 1067.8 575.015 1068.2 576.109C1068.61 577.202 1069.24 578.085 1070.08 578.756C1070.93 579.427 1072 579.763 1073.31 579.763ZM1098.17 589.159C1097.68 589.159 1097.23 589.118 1096.84 589.035C1096.45 588.96 1096.18 588.886 1096.04 588.811L1096.78 586.226C1097.49 586.408 1098.12 586.474 1098.67 586.425C1099.22 586.375 1099.7 586.131 1100.12 585.691C1100.56 585.261 1100.95 584.56 1101.31 583.591L1101.85 582.099L1094.79 562.909H1097.97L1103.24 578.122H1103.44L1108.71 562.909H1111.89L1103.79 584.784C1103.43 585.77 1102.97 586.586 1102.44 587.233C1101.9 587.887 1101.27 588.372 1100.56 588.687C1099.86 589.002 1099.06 589.159 1098.17 589.159ZM1122.84 582.398C1121.11 582.398 1119.6 581.988 1118.3 581.167C1117.01 580.347 1116 579.199 1115.27 577.724C1114.55 576.25 1114.19 574.526 1114.19 572.554C1114.19 570.565 1114.55 568.829 1115.27 567.346C1116 565.863 1117.01 564.711 1118.3 563.891C1119.6 563.071 1121.11 562.661 1122.84 562.661C1124.56 562.661 1126.07 563.071 1127.36 563.891C1128.66 564.711 1129.67 565.863 1130.4 567.346C1131.12 568.829 1131.49 570.565 1131.49 572.554C1131.49 574.526 1131.12 576.25 1130.4 577.724C1129.67 579.199 1128.66 580.347 1127.36 581.167C1126.07 581.988 1124.56 582.398 1122.84 582.398ZM1122.84 579.763C1124.15 579.763 1125.22 579.427 1126.07 578.756C1126.91 578.085 1127.54 577.202 1127.95 576.109C1128.35 575.015 1128.56 573.83 1128.56 572.554C1128.56 571.278 1128.35 570.089 1127.95 568.987C1127.54 567.885 1126.91 566.994 1126.07 566.315C1125.22 565.635 1124.15 565.295 1122.84 565.295C1121.53 565.295 1120.45 565.635 1119.61 566.315C1118.76 566.994 1118.14 567.885 1117.73 568.987C1117.32 570.089 1117.12 571.278 1117.12 572.554C1117.12 573.83 1117.32 575.015 1117.73 576.109C1118.14 577.202 1118.76 578.085 1119.61 578.756C1120.45 579.427 1121.53 579.763 1122.84 579.763ZM1148 574.195V562.909H1150.93V582H1148V578.768H1147.8C1147.35 579.738 1146.66 580.562 1145.71 581.242C1144.77 581.913 1143.57 582.249 1142.13 582.249C1140.94 582.249 1139.88 581.988 1138.95 581.466C1138.02 580.935 1137.29 580.14 1136.76 579.079C1136.23 578.01 1135.97 576.664 1135.97 575.04V562.909H1138.9V574.841C1138.9 576.233 1139.29 577.343 1140.07 578.172C1140.86 579 1141.86 579.415 1143.08 579.415C1143.8 579.415 1144.55 579.228 1145.3 578.855C1146.06 578.483 1146.7 577.911 1147.21 577.14C1147.74 576.37 1148 575.388 1148 574.195ZM1156.3 582V562.909H1159.14V565.793H1159.34C1159.68 564.848 1160.31 564.082 1161.23 563.493C1162.14 562.905 1163.16 562.611 1164.31 562.611C1164.52 562.611 1164.79 562.615 1165.12 562.623C1165.44 562.632 1165.68 562.644 1165.85 562.661V565.643C1165.75 565.619 1165.52 565.581 1165.17 565.532C1164.82 565.474 1164.45 565.445 1164.06 565.445C1163.13 565.445 1162.3 565.639 1161.57 566.029C1160.85 566.41 1160.28 566.94 1159.86 567.62C1159.44 568.291 1159.24 569.057 1159.24 569.919V582H1156.3ZM1186.93 582.398C1185.14 582.398 1183.59 581.975 1182.3 581.13C1181.01 580.285 1180.01 579.121 1179.32 577.637C1178.62 576.154 1178.27 574.46 1178.27 572.554C1178.27 570.615 1178.63 568.904 1179.34 567.421C1180.06 565.929 1181.07 564.765 1182.35 563.928C1183.64 563.083 1185.15 562.661 1186.88 562.661C1188.22 562.661 1189.43 562.909 1190.5 563.406C1191.58 563.903 1192.46 564.599 1193.15 565.494C1193.84 566.389 1194.27 567.433 1194.43 568.626H1191.5C1191.28 567.756 1190.78 566.986 1190.01 566.315C1189.25 565.635 1188.22 565.295 1186.93 565.295C1185.78 565.295 1184.78 565.594 1183.92 566.19C1183.06 566.779 1182.4 567.611 1181.92 568.689C1181.44 569.757 1181.21 571.013 1181.21 572.455C1181.21 573.929 1181.44 575.214 1181.9 576.308C1182.38 577.401 1183.04 578.251 1183.89 578.855C1184.75 579.46 1185.77 579.763 1186.93 579.763C1187.69 579.763 1188.38 579.63 1189 579.365C1189.62 579.1 1190.15 578.719 1190.58 578.222C1191.01 577.724 1191.32 577.128 1191.5 576.432H1194.43C1194.27 577.559 1193.86 578.574 1193.2 579.477C1192.56 580.372 1191.7 581.084 1190.63 581.615C1189.57 582.137 1188.33 582.398 1186.93 582.398ZM1206.48 582.398C1204.75 582.398 1203.24 581.988 1201.94 581.167C1200.65 580.347 1199.64 579.199 1198.91 577.724C1198.19 576.25 1197.83 574.526 1197.83 572.554C1197.83 570.565 1198.19 568.829 1198.91 567.346C1199.64 565.863 1200.65 564.711 1201.94 563.891C1203.24 563.071 1204.75 562.661 1206.48 562.661C1208.2 562.661 1209.71 563.071 1211 563.891C1212.3 564.711 1213.31 565.863 1214.03 567.346C1214.76 568.829 1215.13 570.565 1215.13 572.554C1215.13 574.526 1214.76 576.25 1214.03 577.724C1213.31 579.199 1212.3 580.347 1211 581.167C1209.71 581.988 1208.2 582.398 1206.48 582.398ZM1206.48 579.763C1207.79 579.763 1208.86 579.427 1209.71 578.756C1210.55 578.085 1211.18 577.202 1211.58 576.109C1211.99 575.015 1212.19 573.83 1212.19 572.554C1212.19 571.278 1211.99 570.089 1211.58 568.987C1211.18 567.885 1210.55 566.994 1209.71 566.315C1208.86 565.635 1207.79 565.295 1206.48 565.295C1205.17 565.295 1204.09 565.635 1203.24 566.315C1202.4 566.994 1201.77 567.885 1201.37 568.987C1200.96 570.089 1200.76 571.278 1200.76 572.554C1200.76 573.83 1200.96 575.015 1201.37 576.109C1201.77 577.202 1202.4 578.085 1203.24 578.756C1204.09 579.427 1205.17 579.763 1206.48 579.763ZM1222.54 570.516V582H1219.6V562.909H1222.44V565.892H1222.69C1223.13 564.923 1223.81 564.144 1224.72 563.555C1225.64 562.959 1226.81 562.661 1228.25 562.661C1229.55 562.661 1230.68 562.926 1231.65 563.456C1232.62 563.978 1233.37 564.773 1233.91 565.842C1234.45 566.903 1234.72 568.245 1234.72 569.869V582H1231.78V570.068C1231.78 568.568 1231.4 567.4 1230.62 566.563C1229.84 565.718 1228.77 565.295 1227.41 565.295C1226.47 565.295 1225.64 565.498 1224.9 565.904C1224.17 566.31 1223.59 566.903 1223.17 567.682C1222.75 568.461 1222.54 569.405 1222.54 570.516ZM1248.38 562.909V565.395H1238.49V562.909H1248.38ZM1241.37 558.335H1244.3V576.531C1244.3 577.36 1244.42 577.981 1244.66 578.396C1244.91 578.802 1245.23 579.075 1245.61 579.216C1246 579.348 1246.41 579.415 1246.84 579.415C1247.16 579.415 1247.43 579.398 1247.63 579.365C1247.84 579.324 1248.01 579.29 1248.13 579.266L1248.73 581.901C1248.53 581.975 1248.25 582.05 1247.9 582.124C1247.54 582.207 1247.09 582.249 1246.54 582.249C1245.71 582.249 1244.9 582.07 1244.1 581.714C1243.32 581.358 1242.66 580.815 1242.14 580.086C1241.63 579.357 1241.37 578.437 1241.37 577.327V558.335ZM1258.41 582.447C1257.2 582.447 1256.1 582.22 1255.12 581.764C1254.13 581.3 1253.35 580.633 1252.77 579.763C1252.19 578.884 1251.9 577.824 1251.9 576.581C1251.9 575.487 1252.11 574.601 1252.54 573.921C1252.97 573.233 1253.55 572.695 1254.27 572.305C1254.99 571.916 1255.79 571.626 1256.66 571.435C1257.54 571.237 1258.42 571.079 1259.31 570.963C1260.47 570.814 1261.41 570.702 1262.13 570.627C1262.86 570.545 1263.39 570.408 1263.72 570.217C1264.06 570.027 1264.23 569.695 1264.23 569.223V569.124C1264.23 567.897 1263.89 566.944 1263.22 566.265C1262.56 565.585 1261.55 565.246 1260.2 565.246C1258.8 565.246 1257.7 565.552 1256.91 566.165C1256.11 566.779 1255.55 567.433 1255.23 568.129L1252.44 567.135C1252.94 565.975 1253.6 565.072 1254.43 564.425C1255.27 563.771 1256.18 563.315 1257.17 563.058C1258.16 562.793 1259.14 562.661 1260.1 562.661C1260.71 562.661 1261.42 562.735 1262.21 562.884C1263.02 563.025 1263.79 563.319 1264.54 563.767C1265.29 564.214 1265.92 564.889 1266.41 565.793C1266.91 566.696 1267.16 567.906 1267.16 569.422V582H1264.23V579.415H1264.08C1263.88 579.829 1263.55 580.272 1263.08 580.745C1262.62 581.217 1262 581.619 1261.23 581.95C1260.46 582.282 1259.52 582.447 1258.41 582.447ZM1258.86 579.812C1260.02 579.812 1261 579.585 1261.79 579.129C1262.59 578.673 1263.2 578.085 1263.61 577.364C1264.02 576.643 1264.23 575.885 1264.23 575.089V572.405C1264.1 572.554 1263.83 572.691 1263.41 572.815C1262.99 572.931 1262.51 573.035 1261.97 573.126C1261.43 573.209 1260.9 573.283 1260.39 573.349C1259.88 573.407 1259.47 573.457 1259.16 573.499C1258.39 573.598 1257.68 573.76 1257.02 573.983C1256.36 574.199 1255.83 574.526 1255.43 574.965C1255.03 575.396 1254.83 575.984 1254.83 576.73C1254.83 577.749 1255.21 578.52 1255.96 579.042C1256.72 579.556 1257.69 579.812 1258.86 579.812ZM1280.27 582.398C1278.48 582.398 1276.94 581.975 1275.65 581.13C1274.35 580.285 1273.36 579.121 1272.66 577.637C1271.97 576.154 1271.62 574.46 1271.62 572.554C1271.62 570.615 1271.98 568.904 1272.69 567.421C1273.41 565.929 1274.41 564.765 1275.7 563.928C1276.99 563.083 1278.5 562.661 1280.22 562.661C1281.56 562.661 1282.77 562.909 1283.85 563.406C1284.93 563.903 1285.81 564.599 1286.5 565.494C1287.18 566.389 1287.61 567.433 1287.78 568.626H1284.84C1284.62 567.756 1284.12 566.986 1283.35 566.315C1282.59 565.635 1281.56 565.295 1280.27 565.295C1279.13 565.295 1278.12 565.594 1277.26 566.19C1276.41 566.779 1275.74 567.611 1275.26 568.689C1274.79 569.757 1274.55 571.013 1274.55 572.455C1274.55 573.929 1274.78 575.214 1275.25 576.308C1275.72 577.401 1276.38 578.251 1277.24 578.855C1278.1 579.46 1279.11 579.763 1280.27 579.763C1281.03 579.763 1281.72 579.63 1282.35 579.365C1282.97 579.1 1283.49 578.719 1283.92 578.222C1284.35 577.724 1284.66 577.128 1284.84 576.432H1287.78C1287.61 577.559 1287.2 578.574 1286.55 579.477C1285.9 580.372 1285.04 581.084 1283.97 581.615C1282.91 582.137 1281.68 582.398 1280.27 582.398ZM1300.37 562.909V565.395H1290.47V562.909H1300.37ZM1293.36 558.335H1296.29V576.531C1296.29 577.36 1296.41 577.981 1296.65 578.396C1296.9 578.802 1297.21 579.075 1297.6 579.216C1297.99 579.348 1298.4 579.415 1298.83 579.415C1299.15 579.415 1299.41 579.398 1299.62 579.365C1299.83 579.324 1299.99 579.29 1300.12 579.266L1300.72 581.901C1300.52 581.975 1300.24 582.05 1299.88 582.124C1299.53 582.207 1299.07 582.249 1298.53 582.249C1297.7 582.249 1296.89 582.07 1296.09 581.714C1295.3 581.358 1294.65 580.815 1294.13 580.086C1293.61 579.357 1293.36 578.437 1293.36 577.327V558.335ZM1317.96 567.185L1315.33 567.93C1315.16 567.491 1314.92 567.065 1314.59 566.65C1314.28 566.228 1313.85 565.88 1313.3 565.606C1312.75 565.333 1312.05 565.196 1311.2 565.196C1310.03 565.196 1309.06 565.465 1308.28 566.004C1307.51 566.534 1307.12 567.21 1307.12 568.03C1307.12 568.759 1307.39 569.335 1307.92 569.757C1308.45 570.18 1309.28 570.532 1310.4 570.814L1313.24 571.51C1314.94 571.924 1316.22 572.558 1317.05 573.412C1317.89 574.257 1318.31 575.346 1318.31 576.68C1318.31 577.774 1317.99 578.752 1317.36 579.614C1316.74 580.475 1315.87 581.155 1314.75 581.652C1313.64 582.149 1312.33 582.398 1310.85 582.398C1308.9 582.398 1307.29 581.975 1306.02 581.13C1304.74 580.285 1303.93 579.05 1303.59 577.426L1306.38 576.73C1306.64 577.758 1307.14 578.528 1307.88 579.042C1308.63 579.556 1309.6 579.812 1310.8 579.812C1312.17 579.812 1313.25 579.522 1314.06 578.942C1314.87 578.354 1315.28 577.65 1315.28 576.83C1315.28 576.167 1315.04 575.612 1314.58 575.164C1314.12 574.708 1313.4 574.369 1312.44 574.145L1309.26 573.399C1307.51 572.985 1306.23 572.343 1305.41 571.473C1304.6 570.594 1304.19 569.496 1304.19 568.179C1304.19 567.102 1304.49 566.149 1305.1 565.32C1305.71 564.492 1306.54 563.841 1307.6 563.369C1308.66 562.897 1309.86 562.661 1311.2 562.661C1313.09 562.661 1314.57 563.075 1315.65 563.903C1316.73 564.732 1317.51 565.826 1317.96 567.185ZM1327.1 578.52L1326.9 579.862C1326.76 580.807 1326.54 581.818 1326.25 582.895C1325.97 583.972 1325.68 584.987 1325.37 585.94C1325.07 586.893 1324.81 587.651 1324.61 588.214H1322.38C1322.48 587.684 1322.62 586.984 1322.8 586.114C1322.97 585.244 1323.15 584.27 1323.32 583.193C1323.5 582.124 1323.65 581.031 1323.77 579.912L1323.92 578.52H1327.1ZM651.09 604.909V607.395H641.197V604.909H651.09ZM644.08 600.335H647.014V618.531C647.014 619.36 647.134 619.981 647.374 620.396C647.623 620.802 647.937 621.075 648.319 621.216C648.708 621.348 649.118 621.415 649.549 621.415C649.872 621.415 650.137 621.398 650.345 621.365C650.552 621.324 650.717 621.29 650.842 621.266L651.438 623.901C651.239 623.975 650.962 624.05 650.606 624.124C650.249 624.207 649.798 624.249 649.251 624.249C648.422 624.249 647.61 624.07 646.815 623.714C646.028 623.358 645.373 622.815 644.851 622.086C644.337 621.357 644.08 620.437 644.08 619.327V600.335ZM658.846 612.516V624H655.913V598.545H658.846V607.892H659.095C659.542 606.906 660.213 606.123 661.108 605.543C662.011 604.955 663.213 604.661 664.712 604.661C666.013 604.661 667.153 604.922 668.13 605.444C669.108 605.957 669.866 606.749 670.405 607.817C670.952 608.878 671.225 610.229 671.225 611.869V624H668.292V612.068C668.292 610.552 667.898 609.379 667.111 608.551C666.332 607.714 665.251 607.295 663.867 607.295C662.906 607.295 662.044 607.498 661.282 607.904C660.528 608.31 659.931 608.903 659.492 609.682C659.061 610.461 658.846 611.405 658.846 612.516ZM684.596 624.398C682.756 624.398 681.169 623.992 679.835 623.18C678.51 622.359 677.486 621.216 676.765 619.749C676.053 618.274 675.697 616.559 675.697 614.604C675.697 612.648 676.053 610.925 676.765 609.433C677.486 607.933 678.489 606.765 679.773 605.928C681.066 605.083 682.574 604.661 684.297 604.661C685.292 604.661 686.274 604.826 687.243 605.158C688.212 605.489 689.095 606.028 689.89 606.773C690.686 607.511 691.32 608.489 691.792 609.707C692.264 610.925 692.5 612.424 692.5 614.206V615.449H677.785V612.913H689.518C689.518 611.836 689.302 610.875 688.871 610.03C688.449 609.185 687.844 608.518 687.057 608.029C686.278 607.54 685.358 607.295 684.297 607.295C683.129 607.295 682.118 607.585 681.265 608.165C680.42 608.737 679.769 609.483 679.313 610.403C678.858 611.322 678.63 612.308 678.63 613.361V615.051C678.63 616.493 678.878 617.715 679.375 618.718C679.881 619.712 680.581 620.47 681.476 620.992C682.371 621.506 683.411 621.763 684.596 621.763C685.366 621.763 686.062 621.655 686.684 621.44C687.313 621.216 687.856 620.884 688.312 620.445C688.768 619.998 689.12 619.443 689.368 618.78L692.202 619.575C691.904 620.536 691.403 621.382 690.698 622.111C689.994 622.832 689.124 623.395 688.088 623.801C687.052 624.199 685.888 624.398 684.596 624.398ZM709.739 598.545V624H706.806V598.545H709.739ZM720.73 624.447C719.52 624.447 718.422 624.22 717.436 623.764C716.45 623.3 715.667 622.633 715.087 621.763C714.507 620.884 714.217 619.824 714.217 618.581C714.217 617.487 714.432 616.601 714.863 615.921C715.294 615.233 715.87 614.695 716.591 614.305C717.312 613.916 718.107 613.626 718.977 613.435C719.856 613.237 720.738 613.079 721.625 612.963C722.785 612.814 723.725 612.702 724.446 612.627C725.175 612.545 725.706 612.408 726.037 612.217C726.377 612.027 726.547 611.695 726.547 611.223V611.124C726.547 609.897 726.211 608.944 725.54 608.265C724.877 607.585 723.87 607.246 722.52 607.246C721.119 607.246 720.021 607.552 719.226 608.165C718.43 608.779 717.871 609.433 717.548 610.129L714.764 609.135C715.261 607.975 715.924 607.072 716.753 606.425C717.589 605.771 718.501 605.315 719.487 605.058C720.481 604.793 721.459 604.661 722.42 604.661C723.033 604.661 723.738 604.735 724.533 604.884C725.337 605.025 726.112 605.319 726.857 605.767C727.611 606.214 728.237 606.889 728.734 607.793C729.231 608.696 729.48 609.906 729.48 611.422V624H726.547V621.415H726.397C726.199 621.829 725.867 622.272 725.403 622.745C724.939 623.217 724.322 623.619 723.551 623.95C722.781 624.282 721.84 624.447 720.73 624.447ZM721.177 621.812C722.337 621.812 723.315 621.585 724.11 621.129C724.914 620.673 725.519 620.085 725.925 619.364C726.339 618.643 726.547 617.885 726.547 617.089V614.405C726.422 614.554 726.149 614.691 725.726 614.815C725.312 614.931 724.831 615.035 724.284 615.126C723.746 615.209 723.22 615.283 722.706 615.349C722.201 615.407 721.79 615.457 721.476 615.499C720.713 615.598 720.001 615.76 719.338 615.983C718.683 616.199 718.153 616.526 717.747 616.965C717.349 617.396 717.15 617.984 717.15 618.73C717.15 619.749 717.527 620.52 718.281 621.042C719.044 621.556 720.009 621.812 721.177 621.812ZM743.136 604.909V607.395H733.243V604.909H743.136ZM736.126 600.335H739.059V618.531C739.059 619.36 739.18 619.981 739.42 620.396C739.668 620.802 739.983 621.075 740.364 621.216C740.754 621.348 741.164 621.415 741.595 621.415C741.918 621.415 742.183 621.398 742.39 621.365C742.598 621.324 742.763 621.29 742.888 621.266L743.484 623.901C743.285 623.975 743.008 624.05 742.651 624.124C742.295 624.207 741.844 624.249 741.297 624.249C740.468 624.249 739.656 624.07 738.861 623.714C738.073 623.358 737.419 622.815 736.897 622.086C736.383 621.357 736.126 620.437 736.126 619.327V600.335ZM755.851 604.909V607.395H745.958V604.909H755.851ZM748.841 600.335H751.774V618.531C751.774 619.36 751.894 619.981 752.135 620.396C752.383 620.802 752.698 621.075 753.079 621.216C753.469 621.348 753.879 621.415 754.31 621.415C754.633 621.415 754.898 621.398 755.105 621.365C755.312 621.324 755.478 621.29 755.602 621.266L756.199 623.901C756 623.975 755.723 624.05 755.366 624.124C755.01 624.207 754.558 624.249 754.011 624.249C753.183 624.249 752.371 624.07 751.575 623.714C750.788 623.358 750.134 622.815 749.612 622.086C749.098 621.357 748.841 620.437 748.841 619.327V600.335ZM768.062 624.398C766.223 624.398 764.636 623.992 763.302 623.18C761.976 622.359 760.953 621.216 760.232 619.749C759.52 618.274 759.163 616.559 759.163 614.604C759.163 612.648 759.52 610.925 760.232 609.433C760.953 607.933 761.956 606.765 763.24 605.928C764.533 605.083 766.041 604.661 767.764 604.661C768.758 604.661 769.74 604.826 770.71 605.158C771.679 605.489 772.562 606.028 773.357 606.773C774.153 607.511 774.787 608.489 775.259 609.707C775.731 610.925 775.967 612.424 775.967 614.206V615.449H761.251V612.913H772.984C772.984 611.836 772.769 610.875 772.338 610.03C771.915 609.185 771.311 608.518 770.523 608.029C769.745 607.54 768.825 607.295 767.764 607.295C766.596 607.295 765.585 607.585 764.731 608.165C763.886 608.737 763.236 609.483 762.78 610.403C762.324 611.322 762.097 612.308 762.097 613.361V615.051C762.097 616.493 762.345 617.715 762.842 618.718C763.348 619.712 764.048 620.47 764.943 620.992C765.838 621.506 766.878 621.763 768.062 621.763C768.833 621.763 769.529 621.655 770.151 621.44C770.78 621.216 771.323 620.884 771.779 620.445C772.234 619.998 772.587 619.443 772.835 618.78L775.669 619.575C775.371 620.536 774.869 621.382 774.165 622.111C773.461 622.832 772.591 623.395 771.555 623.801C770.519 624.199 769.355 624.398 768.062 624.398ZM780.429 624V604.909H783.263V607.793H783.462C783.81 606.848 784.44 606.082 785.351 605.493C786.263 604.905 787.29 604.611 788.434 604.611C788.649 604.611 788.918 604.615 789.241 604.623C789.565 604.632 789.809 604.644 789.975 604.661V607.643C789.875 607.619 789.647 607.581 789.291 607.532C788.943 607.474 788.574 607.445 788.185 607.445C787.257 607.445 786.428 607.639 785.699 608.029C784.978 608.41 784.407 608.94 783.984 609.62C783.57 610.291 783.363 611.057 783.363 611.919V624H780.429ZM811.051 624.398C809.261 624.398 807.72 623.975 806.428 623.13C805.135 622.285 804.141 621.121 803.445 619.637C802.749 618.154 802.401 616.46 802.401 614.554C802.401 612.615 802.757 610.904 803.47 609.421C804.19 607.929 805.193 606.765 806.477 605.928C807.77 605.083 809.278 604.661 811.001 604.661C812.344 604.661 813.554 604.909 814.631 605.406C815.708 605.903 816.59 606.599 817.278 607.494C817.966 608.389 818.393 609.433 818.558 610.626H815.625C815.401 609.756 814.904 608.986 814.134 608.315C813.371 607.635 812.344 607.295 811.051 607.295C809.908 607.295 808.905 607.594 808.043 608.19C807.19 608.779 806.523 609.611 806.042 610.689C805.57 611.757 805.334 613.013 805.334 614.455C805.334 615.929 805.566 617.214 806.03 618.308C806.502 619.401 807.165 620.251 808.019 620.855C808.88 621.46 809.891 621.763 811.051 621.763C811.813 621.763 812.505 621.63 813.127 621.365C813.748 621.1 814.274 620.719 814.705 620.222C815.136 619.724 815.443 619.128 815.625 618.432H818.558C818.393 619.559 817.982 620.574 817.328 621.477C816.682 622.372 815.824 623.084 814.755 623.615C813.694 624.137 812.46 624.398 811.051 624.398ZM828.464 624.447C827.254 624.447 826.157 624.22 825.17 623.764C824.184 623.3 823.401 622.633 822.821 621.763C822.241 620.884 821.951 619.824 821.951 618.581C821.951 617.487 822.167 616.601 822.598 615.921C823.029 615.233 823.604 614.695 824.325 614.305C825.046 613.916 825.842 613.626 826.712 613.435C827.59 613.237 828.472 613.079 829.359 612.963C830.519 612.814 831.46 612.702 832.18 612.627C832.91 612.545 833.44 612.408 833.771 612.217C834.111 612.027 834.281 611.695 834.281 611.223V611.124C834.281 609.897 833.945 608.944 833.274 608.265C832.611 607.585 831.605 607.246 830.254 607.246C828.854 607.246 827.756 607.552 826.96 608.165C826.165 608.779 825.606 609.433 825.282 610.129L822.498 609.135C822.995 607.975 823.658 607.072 824.487 606.425C825.324 605.771 826.235 605.315 827.221 605.058C828.216 604.793 829.193 604.661 830.155 604.661C830.768 604.661 831.472 604.735 832.267 604.884C833.071 605.025 833.846 605.319 834.592 605.767C835.346 606.214 835.971 606.889 836.468 607.793C836.966 608.696 837.214 609.906 837.214 611.422V624H834.281V621.415H834.132C833.933 621.829 833.601 622.272 833.137 622.745C832.673 623.217 832.056 623.619 831.286 623.95C830.515 624.282 829.575 624.447 828.464 624.447ZM828.912 621.812C830.072 621.812 831.049 621.585 831.845 621.129C832.649 620.673 833.253 620.085 833.659 619.364C834.074 618.643 834.281 617.885 834.281 617.089V614.405C834.157 614.554 833.883 614.691 833.461 614.815C833.046 614.931 832.566 615.035 832.019 615.126C831.48 615.209 830.954 615.283 830.44 615.349C829.935 615.407 829.525 615.457 829.21 615.499C828.448 615.598 827.735 615.76 827.072 615.983C826.418 616.199 825.887 616.526 825.481 616.965C825.083 617.396 824.885 617.984 824.885 618.73C824.885 619.749 825.262 620.52 826.016 621.042C826.778 621.556 827.743 621.812 828.912 621.812ZM845.501 612.516V624H842.568V604.909H845.402V607.892H845.65C846.098 606.923 846.777 606.144 847.689 605.555C848.6 604.959 849.777 604.661 851.219 604.661C852.511 604.661 853.642 604.926 854.612 605.456C855.581 605.978 856.335 606.773 856.874 607.842C857.412 608.903 857.682 610.245 857.682 611.869V624H854.748V612.068C854.748 610.568 854.359 609.4 853.58 608.563C852.801 607.718 851.732 607.295 850.373 607.295C849.437 607.295 848.6 607.498 847.863 607.904C847.134 608.31 846.558 608.903 846.135 609.682C845.712 610.461 845.501 611.405 845.501 612.516ZM873.283 624V598.545H876.216V607.942H876.465C876.68 607.61 876.979 607.188 877.36 606.674C877.749 606.152 878.304 605.688 879.025 605.282C879.754 604.868 880.74 604.661 881.983 604.661C883.591 604.661 885.008 605.062 886.234 605.866C887.46 606.67 888.417 607.809 889.105 609.284C889.793 610.759 890.137 612.499 890.137 614.504C890.137 616.526 889.793 618.279 889.105 619.762C888.417 621.237 887.465 622.38 886.246 623.192C885.028 623.996 883.624 624.398 882.033 624.398C880.807 624.398 879.825 624.195 879.087 623.789C878.35 623.374 877.782 622.906 877.385 622.384C876.987 621.854 876.68 621.415 876.465 621.067H876.117V624H873.283ZM876.167 614.455C876.167 615.896 876.378 617.168 876.8 618.27C877.223 619.364 877.84 620.222 878.652 620.843C879.464 621.456 880.459 621.763 881.635 621.763C882.862 621.763 883.885 621.44 884.705 620.793C885.534 620.139 886.155 619.26 886.57 618.158C886.992 617.048 887.204 615.813 887.204 614.455C887.204 613.112 886.996 611.902 886.582 610.825C886.176 609.74 885.559 608.882 884.73 608.252C883.91 607.614 882.878 607.295 881.635 607.295C880.442 607.295 879.44 607.598 878.628 608.203C877.816 608.799 877.202 609.636 876.788 610.713C876.374 611.782 876.167 613.029 876.167 614.455ZM902.628 624.398C900.788 624.398 899.202 623.992 897.868 623.18C896.542 622.359 895.519 621.216 894.798 619.749C894.085 618.274 893.729 616.559 893.729 614.604C893.729 612.648 894.085 610.925 894.798 609.433C895.519 607.933 896.521 606.765 897.805 605.928C899.098 605.083 900.606 604.661 902.33 604.661C903.324 604.661 904.306 604.826 905.275 605.158C906.245 605.489 907.127 606.028 907.923 606.773C908.718 607.511 909.352 608.489 909.824 609.707C910.297 610.925 910.533 612.424 910.533 614.206V615.449H895.817V612.913H907.55C907.55 611.836 907.334 610.875 906.903 610.03C906.481 609.185 905.876 608.518 905.089 608.029C904.31 607.54 903.39 607.295 902.33 607.295C901.161 607.295 900.15 607.585 899.297 608.165C898.452 608.737 897.801 609.483 897.346 610.403C896.89 611.322 896.662 612.308 896.662 613.361V615.051C896.662 616.493 896.911 617.715 897.408 618.718C897.913 619.712 898.613 620.47 899.508 620.992C900.403 621.506 901.443 621.763 902.628 621.763C903.398 621.763 904.095 621.655 904.716 621.44C905.346 621.216 905.888 620.884 906.344 620.445C906.8 619.998 907.152 619.443 907.401 618.78L910.234 619.575C909.936 620.536 909.435 621.382 908.731 622.111C908.026 622.832 907.156 623.395 906.12 623.801C905.085 624.199 903.92 624.398 902.628 624.398ZM932.594 624.398C930.804 624.398 929.263 623.975 927.971 623.13C926.678 622.285 925.684 621.121 924.988 619.637C924.292 618.154 923.944 616.46 923.944 614.554C923.944 612.615 924.3 610.904 925.012 609.421C925.733 607.929 926.736 606.765 928.02 605.928C929.313 605.083 930.821 604.661 932.544 604.661C933.887 604.661 935.097 604.909 936.174 605.406C937.251 605.903 938.133 606.599 938.821 607.494C939.509 608.389 939.936 609.433 940.101 610.626H937.168C936.944 609.756 936.447 608.986 935.677 608.315C934.914 607.635 933.887 607.295 932.594 607.295C931.451 607.295 930.448 607.594 929.586 608.19C928.733 608.779 928.066 609.611 927.585 610.689C927.113 611.757 926.877 613.013 926.877 614.455C926.877 615.929 927.109 617.214 927.573 618.308C928.045 619.401 928.708 620.251 929.561 620.855C930.423 621.46 931.434 621.763 932.594 621.763C933.356 621.763 934.048 621.63 934.67 621.365C935.291 621.1 935.817 620.719 936.248 620.222C936.679 619.724 936.986 619.128 937.168 618.432H940.101C939.936 619.559 939.525 620.574 938.871 621.477C938.224 622.372 937.367 623.084 936.298 623.615C935.237 624.137 934.003 624.398 932.594 624.398ZM952.145 624.398C950.421 624.398 948.909 623.988 947.608 623.167C946.316 622.347 945.305 621.199 944.576 619.724C943.855 618.25 943.494 616.526 943.494 614.554C943.494 612.565 943.855 610.829 944.576 609.346C945.305 607.863 946.316 606.711 947.608 605.891C948.909 605.071 950.421 604.661 952.145 604.661C953.868 604.661 955.376 605.071 956.669 605.891C957.97 606.711 958.981 607.863 959.702 609.346C960.431 610.829 960.795 612.565 960.795 614.554C960.795 616.526 960.431 618.25 959.702 619.724C958.981 621.199 957.97 622.347 956.669 623.167C955.376 623.988 953.868 624.398 952.145 624.398ZM952.145 621.763C953.454 621.763 954.531 621.427 955.376 620.756C956.222 620.085 956.847 619.202 957.253 618.109C957.659 617.015 957.862 615.83 957.862 614.554C957.862 613.278 957.659 612.089 957.253 610.987C956.847 609.885 956.222 608.994 955.376 608.315C954.531 607.635 953.454 607.295 952.145 607.295C950.836 607.295 949.759 607.635 948.913 608.315C948.068 608.994 947.443 609.885 947.037 610.987C946.631 612.089 946.428 613.278 946.428 614.554C946.428 615.83 946.631 617.015 947.037 618.109C947.443 619.202 948.068 620.085 948.913 620.756C949.759 621.427 950.836 621.763 952.145 621.763ZM968.206 612.516V624H965.273V604.909H968.107V607.892H968.355C968.803 606.923 969.482 606.144 970.394 605.555C971.305 604.959 972.482 604.661 973.924 604.661C975.216 604.661 976.347 604.926 977.317 605.456C978.286 605.978 979.04 606.773 979.579 607.842C980.117 608.903 980.387 610.245 980.387 611.869V624H977.453V612.068C977.453 610.568 977.064 609.4 976.285 608.563C975.506 607.718 974.437 607.295 973.078 607.295C972.142 607.295 971.305 607.498 970.568 607.904C969.839 608.31 969.263 608.903 968.84 609.682C968.418 610.461 968.206 611.405 968.206 612.516ZM994.248 604.909V607.395H983.957V604.909H994.248ZM987.039 624V602.274C987.039 601.18 987.296 600.269 987.81 599.54C988.324 598.811 988.991 598.264 989.811 597.899C990.631 597.535 991.497 597.352 992.409 597.352C993.129 597.352 993.718 597.41 994.174 597.526C994.629 597.642 994.969 597.75 995.193 597.849L994.348 600.385C994.198 600.335 993.991 600.273 993.726 600.199C993.469 600.124 993.129 600.087 992.707 600.087C991.737 600.087 991.037 600.331 990.606 600.82C990.184 601.309 989.973 602.026 989.973 602.97V624H987.039ZM998.359 624V604.909H1001.29V624H998.359ZM999.85 601.727C999.279 601.727 998.786 601.533 998.371 601.143C997.965 600.754 997.762 600.286 997.762 599.739C997.762 599.192 997.965 598.724 998.371 598.334C998.786 597.945 999.279 597.75 999.85 597.75C1000.42 597.75 1000.91 597.945 1001.32 598.334C1001.73 598.724 1001.94 599.192 1001.94 599.739C1001.94 600.286 1001.73 600.754 1001.32 601.143C1000.91 601.533 1000.42 601.727 999.85 601.727ZM1014.37 631.557C1012.95 631.557 1011.74 631.375 1010.72 631.01C1009.7 630.654 1008.85 630.181 1008.17 629.593C1007.5 629.013 1006.96 628.392 1006.57 627.729L1008.9 626.088C1009.17 626.436 1009.5 626.834 1009.91 627.281C1010.31 627.737 1010.87 628.131 1011.57 628.462C1012.29 628.802 1013.22 628.972 1014.37 628.972C1015.91 628.972 1017.18 628.599 1018.19 627.853C1019.19 627.107 1019.69 625.939 1019.69 624.348V620.47H1019.44C1019.23 620.818 1018.92 621.249 1018.52 621.763C1018.13 622.268 1017.57 622.72 1016.83 623.118C1016.1 623.507 1015.12 623.702 1013.87 623.702C1012.33 623.702 1010.95 623.337 1009.72 622.608C1008.5 621.879 1007.54 620.818 1006.83 619.426C1006.12 618.034 1005.77 616.344 1005.77 614.355C1005.77 612.4 1006.11 610.697 1006.8 609.247C1007.49 607.788 1008.45 606.662 1009.67 605.866C1010.9 605.062 1012.32 604.661 1013.92 604.661C1015.17 604.661 1016.15 604.868 1016.88 605.282C1017.62 605.688 1018.18 606.152 1018.57 606.674C1018.97 607.188 1019.28 607.61 1019.49 607.942H1019.79V604.909H1022.62V624.547C1022.62 626.188 1022.25 627.522 1021.5 628.549C1020.77 629.585 1019.77 630.343 1018.52 630.824C1017.28 631.312 1015.9 631.557 1014.37 631.557ZM1014.27 621.067C1015.45 621.067 1016.44 620.797 1017.25 620.259C1018.07 619.72 1018.68 618.946 1019.11 617.935C1019.53 616.924 1019.74 615.714 1019.74 614.305C1019.74 612.93 1019.53 611.716 1019.12 610.664C1018.7 609.611 1018.09 608.787 1017.28 608.19C1016.47 607.594 1015.46 607.295 1014.27 607.295C1013.03 607.295 1011.99 607.61 1011.16 608.24C1010.34 608.87 1009.73 609.715 1009.31 610.776C1008.91 611.836 1008.7 613.013 1008.7 614.305C1008.7 615.631 1008.91 616.804 1009.32 617.823C1009.75 618.834 1010.37 619.629 1011.19 620.209C1012.02 620.781 1013.04 621.067 1014.27 621.067ZM1040.02 616.195V604.909H1042.96V624H1040.02V620.768H1039.83C1039.38 621.738 1038.68 622.562 1037.74 623.242C1036.79 623.913 1035.6 624.249 1034.16 624.249C1032.96 624.249 1031.9 623.988 1030.98 623.466C1030.05 622.935 1029.32 622.14 1028.79 621.079C1028.26 620.01 1027.99 618.664 1027.99 617.04V604.909H1030.93V616.841C1030.93 618.233 1031.32 619.343 1032.09 620.172C1032.88 621 1033.88 621.415 1035.1 621.415C1035.83 621.415 1036.57 621.228 1037.33 620.855C1038.09 620.483 1038.73 619.911 1039.24 619.14C1039.76 618.37 1040.02 617.388 1040.02 616.195ZM1048.33 624V604.909H1051.16V607.793H1051.36C1051.71 606.848 1052.34 606.082 1053.25 605.493C1054.16 604.905 1055.19 604.611 1056.33 604.611C1056.55 604.611 1056.82 604.615 1057.14 604.623C1057.46 604.632 1057.71 604.644 1057.88 604.661V607.643C1057.78 607.619 1057.55 607.581 1057.19 607.532C1056.84 607.474 1056.47 607.445 1056.09 607.445C1055.16 607.445 1054.33 607.639 1053.6 608.029C1052.88 608.41 1052.31 608.94 1051.88 609.62C1051.47 610.291 1051.26 611.057 1051.26 611.919V624H1048.33ZM1068.78 624.398C1066.94 624.398 1065.35 623.992 1064.02 623.18C1062.69 622.359 1061.67 621.216 1060.95 619.749C1060.23 618.274 1059.88 616.559 1059.88 614.604C1059.88 612.648 1060.23 610.925 1060.95 609.433C1061.67 607.933 1062.67 606.765 1063.95 605.928C1065.25 605.083 1066.75 604.661 1068.48 604.661C1069.47 604.661 1070.45 604.826 1071.42 605.158C1072.39 605.489 1073.27 606.028 1074.07 606.773C1074.87 607.511 1075.5 608.489 1075.97 609.707C1076.44 610.925 1076.68 612.424 1076.68 614.206V615.449H1061.96V612.913H1073.7C1073.7 611.836 1073.48 610.875 1073.05 610.03C1072.63 609.185 1072.02 608.518 1071.24 608.029C1070.46 607.54 1069.54 607.295 1068.48 607.295C1067.31 607.295 1066.3 607.585 1065.44 608.165C1064.6 608.737 1063.95 609.483 1063.49 610.403C1063.04 611.322 1062.81 612.308 1062.81 613.361V615.051C1062.81 616.493 1063.06 617.715 1063.56 618.718C1064.06 619.712 1064.76 620.47 1065.66 620.992C1066.55 621.506 1067.59 621.763 1068.78 621.763C1069.55 621.763 1070.24 621.655 1070.86 621.44C1071.49 621.216 1072.04 620.884 1072.49 620.445C1072.95 619.998 1073.3 619.443 1073.55 618.78L1076.38 619.575C1076.08 620.536 1075.58 621.382 1074.88 622.111C1074.17 622.832 1073.3 623.395 1072.27 623.801C1071.23 624.199 1070.07 624.398 1068.78 624.398ZM1088.35 624.398C1086.76 624.398 1085.36 623.996 1084.14 623.192C1082.92 622.38 1081.97 621.237 1081.28 619.762C1080.59 618.279 1080.25 616.526 1080.25 614.504C1080.25 612.499 1080.59 610.759 1081.28 609.284C1081.97 607.809 1082.92 606.67 1084.15 605.866C1085.38 605.062 1086.79 604.661 1088.4 604.661C1089.64 604.661 1090.63 604.868 1091.35 605.282C1092.08 605.688 1092.63 606.152 1093.01 606.674C1093.4 607.188 1093.7 607.61 1093.92 607.942H1094.17V598.545H1097.1V624H1094.27V621.067H1093.92C1093.7 621.415 1093.4 621.854 1093 622.384C1092.6 622.906 1092.03 623.374 1091.3 623.789C1090.56 624.195 1089.58 624.398 1088.35 624.398ZM1088.75 621.763C1089.93 621.763 1090.92 621.456 1091.73 620.843C1092.54 620.222 1093.16 619.364 1093.58 618.27C1094.01 617.168 1094.22 615.896 1094.22 614.455C1094.22 613.029 1094.01 611.782 1093.6 610.713C1093.18 609.636 1092.57 608.799 1091.76 608.203C1090.94 607.598 1089.94 607.295 1088.75 607.295C1087.51 607.295 1086.47 607.614 1085.64 608.252C1084.82 608.882 1084.2 609.74 1083.79 610.825C1083.38 611.902 1083.18 613.112 1083.18 614.455C1083.18 615.813 1083.39 617.048 1083.8 618.158C1084.22 619.26 1084.85 620.139 1085.67 620.793C1086.49 621.44 1087.52 621.763 1088.75 621.763ZM1121.03 604.909V607.395H1111.13V604.909H1121.03ZM1114.02 600.335H1116.95V618.531C1116.95 619.36 1117.07 619.981 1117.31 620.396C1117.56 620.802 1117.87 621.075 1118.26 621.216C1118.64 621.348 1119.05 621.415 1119.49 621.415C1119.81 621.415 1120.07 621.398 1120.28 621.365C1120.49 621.324 1120.65 621.29 1120.78 621.266L1121.37 623.901C1121.18 623.975 1120.9 624.05 1120.54 624.124C1120.19 624.207 1119.73 624.249 1119.19 624.249C1118.36 624.249 1117.55 624.07 1116.75 623.714C1115.96 623.358 1115.31 622.815 1114.79 622.086C1114.27 621.357 1114.02 620.437 1114.02 619.327V600.335ZM1132.99 624.398C1131.27 624.398 1129.75 623.988 1128.45 623.167C1127.16 622.347 1126.15 621.199 1125.42 619.724C1124.7 618.25 1124.34 616.526 1124.34 614.554C1124.34 612.565 1124.7 610.829 1125.42 609.346C1126.15 607.863 1127.16 606.711 1128.45 605.891C1129.75 605.071 1131.27 604.661 1132.99 604.661C1134.71 604.661 1136.22 605.071 1137.51 605.891C1138.81 606.711 1139.83 607.863 1140.55 609.346C1141.28 610.829 1141.64 612.565 1141.64 614.554C1141.64 616.526 1141.28 618.25 1140.55 619.724C1139.83 621.199 1138.81 622.347 1137.51 623.167C1136.22 623.988 1134.71 624.398 1132.99 624.398ZM1132.99 621.763C1134.3 621.763 1135.38 621.427 1136.22 620.756C1137.07 620.085 1137.69 619.202 1138.1 618.109C1138.5 617.015 1138.71 615.83 1138.71 614.554C1138.71 613.278 1138.5 612.089 1138.1 610.987C1137.69 609.885 1137.07 608.994 1136.22 608.315C1135.38 607.635 1134.3 607.295 1132.99 607.295C1131.68 607.295 1130.6 607.635 1129.76 608.315C1128.91 608.994 1128.29 609.885 1127.88 610.987C1127.48 612.089 1127.27 613.278 1127.27 614.554C1127.27 615.83 1127.48 617.015 1127.88 618.109C1128.29 619.202 1128.91 620.085 1129.76 620.756C1130.6 621.427 1131.68 621.763 1132.99 621.763ZM1157.85 631.159C1157.35 631.159 1156.91 631.118 1156.52 631.035C1156.13 630.96 1155.86 630.886 1155.71 630.811L1156.46 628.226C1157.17 628.408 1157.8 628.474 1158.35 628.425C1158.89 628.375 1159.38 628.131 1159.8 627.691C1160.23 627.261 1160.63 626.56 1160.98 625.591L1161.53 624.099L1154.47 604.909H1157.65L1162.92 620.122H1163.12L1168.39 604.909H1171.57L1163.47 626.784C1163.1 627.77 1162.65 628.586 1162.11 629.233C1161.58 629.887 1160.95 630.372 1160.24 630.687C1159.53 631.002 1158.74 631.159 1157.85 631.159ZM1182.52 624.398C1180.79 624.398 1179.28 623.988 1177.98 623.167C1176.69 622.347 1175.68 621.199 1174.95 619.724C1174.23 618.25 1173.87 616.526 1173.87 614.554C1173.87 612.565 1174.23 610.829 1174.95 609.346C1175.68 607.863 1176.69 606.711 1177.98 605.891C1179.28 605.071 1180.79 604.661 1182.52 604.661C1184.24 604.661 1185.75 605.071 1187.04 605.891C1188.34 606.711 1189.35 607.863 1190.07 609.346C1190.8 610.829 1191.17 612.565 1191.17 614.554C1191.17 616.526 1190.8 618.25 1190.07 619.724C1189.35 621.199 1188.34 622.347 1187.04 623.167C1185.75 623.988 1184.24 624.398 1182.52 624.398ZM1182.52 621.763C1183.83 621.763 1184.9 621.427 1185.75 620.756C1186.59 620.085 1187.22 619.202 1187.62 618.109C1188.03 617.015 1188.23 615.83 1188.23 614.554C1188.23 613.278 1188.03 612.089 1187.62 610.987C1187.22 609.885 1186.59 608.994 1185.75 608.315C1184.9 607.635 1183.83 607.295 1182.52 607.295C1181.21 607.295 1180.13 607.635 1179.28 608.315C1178.44 608.994 1177.81 609.885 1177.41 610.987C1177 612.089 1176.8 613.278 1176.8 614.554C1176.8 615.83 1177 617.015 1177.41 618.109C1177.81 619.202 1178.44 620.085 1179.28 620.756C1180.13 621.427 1181.21 621.763 1182.52 621.763ZM1207.68 616.195V604.909H1210.61V624H1207.68V620.768H1207.48C1207.03 621.738 1206.33 622.562 1205.39 623.242C1204.44 623.913 1203.25 624.249 1201.81 624.249C1200.62 624.249 1199.56 623.988 1198.63 623.466C1197.7 622.935 1196.97 622.14 1196.44 621.079C1195.91 620.01 1195.64 618.664 1195.64 617.04V604.909H1198.58V616.841C1198.58 618.233 1198.97 619.343 1199.75 620.172C1200.53 621 1201.54 621.415 1202.75 621.415C1203.48 621.415 1204.22 621.228 1204.98 620.855C1205.74 620.483 1206.38 619.911 1206.89 619.14C1207.41 618.37 1207.68 617.388 1207.68 616.195ZM1228.76 598.545V624H1225.82V598.545H1228.76ZM1234.13 624V604.909H1237.06V624H1234.13ZM1235.62 601.727C1235.05 601.727 1234.56 601.533 1234.14 601.143C1233.74 600.754 1233.53 600.286 1233.53 599.739C1233.53 599.192 1233.74 598.724 1234.14 598.334C1234.56 597.945 1235.05 597.75 1235.62 597.75C1236.19 597.75 1236.68 597.945 1237.09 598.334C1237.5 598.724 1237.71 599.192 1237.71 599.739C1237.71 600.286 1237.5 600.754 1237.09 601.143C1236.68 601.533 1236.19 601.727 1235.62 601.727ZM1245.17 617.04L1245.12 613.411H1245.72L1254.07 604.909H1257.7L1248.8 613.908H1248.55L1245.17 617.04ZM1242.44 624V598.545H1245.37V624H1242.44ZM1254.57 624L1247.11 614.554L1249.2 612.516L1258.3 624H1254.57ZM1261.47 624V604.909H1264.41V624H1261.47ZM1262.97 601.727C1262.39 601.727 1261.9 601.533 1261.49 601.143C1261.08 600.754 1260.88 600.286 1260.88 599.739C1260.88 599.192 1261.08 598.724 1261.49 598.334C1261.9 597.945 1262.39 597.75 1262.97 597.75C1263.54 597.75 1264.03 597.945 1264.43 598.334C1264.85 598.724 1265.05 599.192 1265.05 599.739C1265.05 600.286 1264.85 600.754 1264.43 601.143C1264.03 601.533 1263.54 601.727 1262.97 601.727ZM1272.71 612.516V624H1269.78V604.909H1272.61V607.892H1272.86C1273.31 606.923 1273.99 606.144 1274.9 605.555C1275.81 604.959 1276.99 604.661 1278.43 604.661C1279.72 604.661 1280.85 604.926 1281.82 605.456C1282.79 605.978 1283.55 606.773 1284.09 607.842C1284.62 608.903 1284.89 610.245 1284.89 611.869V624H1281.96V612.068C1281.96 610.568 1281.57 609.4 1280.79 608.563C1280.01 607.718 1278.94 607.295 1277.59 607.295C1276.65 607.295 1275.81 607.498 1275.07 607.904C1274.35 608.31 1273.77 608.903 1273.35 609.682C1272.92 610.461 1272.71 611.405 1272.71 612.516ZM1297.96 631.557C1296.54 631.557 1295.32 631.375 1294.31 631.01C1293.29 630.654 1292.44 630.181 1291.76 629.593C1291.09 629.013 1290.55 628.392 1290.15 627.729L1292.49 626.088C1292.76 626.436 1293.09 626.834 1293.5 627.281C1293.9 627.737 1294.46 628.131 1295.16 628.462C1295.88 628.802 1296.81 628.972 1297.96 628.972C1299.5 628.972 1300.77 628.599 1301.78 627.853C1302.78 627.107 1303.28 625.939 1303.28 624.348V620.47H1303.03C1302.82 620.818 1302.51 621.249 1302.11 621.763C1301.72 622.268 1301.16 622.72 1300.42 623.118C1299.69 623.507 1298.71 623.702 1297.46 623.702C1295.92 623.702 1294.54 623.337 1293.31 622.608C1292.09 621.879 1291.13 620.818 1290.42 619.426C1289.71 618.034 1289.36 616.344 1289.36 614.355C1289.36 612.4 1289.7 610.697 1290.39 609.247C1291.08 607.788 1292.03 606.662 1293.26 605.866C1294.49 605.062 1295.9 604.661 1297.51 604.661C1298.75 604.661 1299.74 604.868 1300.47 605.282C1301.21 605.688 1301.77 606.152 1302.16 606.674C1302.56 607.188 1302.86 607.61 1303.08 607.942H1303.38V604.909H1306.21V624.547C1306.21 626.188 1305.84 627.522 1305.09 628.549C1304.36 629.585 1303.36 630.343 1302.11 630.824C1300.87 631.312 1299.48 631.557 1297.96 631.557ZM1297.86 621.067C1299.04 621.067 1300.03 620.797 1300.84 620.259C1301.66 619.72 1302.27 618.946 1302.69 617.935C1303.12 616.924 1303.33 615.714 1303.33 614.305C1303.33 612.93 1303.12 611.716 1302.71 610.664C1302.29 609.611 1301.68 608.787 1300.87 608.19C1300.06 607.594 1299.05 607.295 1297.86 607.295C1296.62 607.295 1295.58 607.61 1294.75 608.24C1293.93 608.87 1293.32 609.715 1292.9 610.776C1292.49 611.836 1292.29 613.013 1292.29 614.305C1292.29 615.631 1292.5 616.804 1292.91 617.823C1293.34 618.834 1293.96 619.629 1294.78 620.209C1295.61 620.781 1296.63 621.067 1297.86 621.067Z"
    fill="black"
  />
</svg>
