<svg width="1411" height="474" viewBox="0 0 1411 474" fill="none" xmlns="http://www.w3.org/2000/svg">
<g clip-path="url(#clip0_218_280)">
<path d="M782.711 414.455C759.344 414.25 736.016 412.538 712.87 409.331C712.057 409.219 711.244 409.096 710.432 408.984L711.654 190.161C712.462 189.518 713.279 188.886 714.105 188.273C716.841 186.23 719.655 184.315 722.566 182.558C736.589 174.109 753.007 170.241 764.335 174.117L764.511 174.187C766.991 175.023 769.282 176.342 771.251 178.066C781.199 186.903 779.541 204.77 771.511 220.985C787.431 206.442 807.518 194.862 825.449 193.982C842.938 193.119 855.432 202.264 866.049 212.183C866.4 212.508 866.741 212.834 867.083 213.159C867.258 213.317 867.424 213.484 867.599 213.642C875.691 221.381 883.667 230.403 882.702 243.462C881.642 257.784 869.646 273.664 855.666 284.797C841.697 295.931 825.827 303.33 810.34 310.829C794.862 318.338 778.988 326.463 765.758 338.512C786.402 322.192 809.889 309.033 832.732 304.173C855.575 299.312 877.515 303.59 888.273 318.135C891.439 322.551 893.5 327.661 894.286 333.037C894.39 333.664 894.475 334.302 894.55 334.949C896.082 348.414 891.425 364.491 880.293 378.169C868.037 393.233 849.867 403.677 832.618 408.873C815.369 414.069 798.763 414.623 782.711 414.455Z" fill="#F2F2F2"/>
<path d="M711.201 271.288L711.224 267.104C712.055 265.775 712.876 264.44 713.687 263.099C714.211 262.269 714.716 261.429 715.23 260.589C723.707 246.709 731.838 232.743 739.623 218.69C747.414 204.65 754.847 190.539 761.921 176.358C762.084 175.982 762.375 175.675 762.741 175.491C763.107 175.307 763.526 175.257 763.926 175.35C763.978 175.365 764.028 175.388 764.072 175.419C764.444 175.617 764.598 176.059 764.281 176.704C763.409 178.444 762.536 180.193 761.645 181.933C754.45 196.153 746.896 210.312 738.983 224.41C731.074 238.498 722.815 252.506 714.207 266.434C714.029 266.727 713.842 267.02 713.664 267.313C712.843 268.641 712.022 269.96 711.201 271.288Z" fill="white"/>
<path d="M710.9 325.24L710.914 322.652C711.731 322.068 712.547 321.495 713.364 320.911C732.591 307.2 751.818 293.492 771.046 279.786C802.523 257.342 834.001 234.905 865.479 212.474C865.648 212.341 865.842 212.242 866.049 212.183C866.746 211.991 867.155 212.503 867.082 213.159C867.043 213.436 866.945 213.701 866.795 213.937C866.645 214.172 866.446 214.373 866.212 214.526C848.56 227.11 830.913 239.69 813.274 252.267C781.953 274.594 750.636 296.919 719.322 319.24C717.335 320.659 715.337 322.079 713.35 323.499C712.533 324.082 711.716 324.666 710.9 325.24Z" fill="white"/>
<path d="M725.925 382.883C721.565 382.751 717.274 382.462 713.022 382.085C712.209 382.012 711.396 381.939 710.583 381.866L710.598 379.151C711.411 379.234 712.224 379.317 713.037 379.39C719.179 379.964 725.391 380.371 731.77 380.426C749.459 380.498 767.109 378.775 784.449 375.281C803.119 371.568 821.431 366.237 839.177 359.347C857.893 352.116 876 343.398 893.324 333.276C893.606 333.086 893.947 333.001 894.286 333.037C895.06 333.149 895.289 334.179 894.55 334.949C894.405 335.101 894.239 335.232 894.057 335.338C891.904 336.59 889.744 337.82 887.578 339.026C870.158 348.775 851.988 357.119 833.241 363.979C815.437 370.514 797.098 375.484 778.431 378.835C761.113 381.973 743.519 383.329 725.925 382.883V382.883Z" fill="white"/>
<path d="M704.369 1.11395e-08H109.476C107.21 0.00206055 105.037 0.903117 103.435 2.50538C101.833 4.10764 100.932 6.28018 100.93 8.54608V411.662C100.932 413.928 101.833 416.101 103.435 417.703C105.037 419.305 107.21 420.206 109.476 420.208H704.369C705.605 420.208 706.825 419.94 707.947 419.423C709.069 418.905 710.065 418.15 710.867 417.209C710.935 417.136 710.997 417.057 711.053 416.974C711.563 416.35 711.976 415.653 712.278 414.906C712.708 413.879 712.928 412.776 712.925 411.662V8.54614C712.922 6.27863 712.02 4.10485 710.416 2.50239C708.811 0.899931 706.636 -0.000115616 704.369 1.11395e-08V1.11395e-08ZM710.485 411.662C710.486 412.855 710.134 414.021 709.475 415.014C708.889 415.888 708.094 416.603 707.162 417.092C706.299 417.538 705.341 417.77 704.369 417.768H109.476C107.857 417.766 106.305 417.122 105.16 415.978C104.016 414.833 103.372 413.281 103.37 411.662V8.54614C103.372 6.92739 104.016 5.3755 105.16 4.23087C106.305 3.08623 107.857 2.44232 109.476 2.44036H704.369C705.989 2.44015 707.543 3.08305 708.69 4.22786C709.837 5.37268 710.482 6.9258 710.485 8.54614V411.662Z" fill="#3F3D56"/>
<path d="M711.7 34.2522H102.148V36.6953H711.7V34.2522Z" fill="#3F3D56"/>
<path d="M122.914 25.6525C126.962 25.6525 130.243 22.371 130.243 18.3232C130.243 14.2753 126.962 10.9939 122.914 10.9939C118.866 10.9939 115.585 14.2753 115.585 18.3232C115.585 22.371 118.866 25.6525 122.914 25.6525Z" fill="#3F3D56"/>
<path d="M143.986 25.6525C148.034 25.6525 151.315 22.371 151.315 18.3232C151.315 14.2753 148.034 10.9939 143.986 10.9939C139.938 10.9939 136.656 14.2753 136.656 18.3232C136.656 22.371 139.938 25.6525 143.986 25.6525Z" fill="#3F3D56"/>
<path d="M165.057 25.6525C169.105 25.6525 172.387 22.371 172.387 18.3232C172.387 14.2753 169.105 10.9939 165.057 10.9939C161.009 10.9939 157.728 14.2753 157.728 18.3232C157.728 22.371 161.009 25.6525 165.057 25.6525Z" fill="#3F3D56"/>
<path d="M559.908 90.8041H254.131C250.752 90.8041 247.512 89.4618 245.122 87.0724C242.733 84.6831 241.391 81.4424 241.391 78.0633C241.391 74.6843 242.733 71.4437 245.122 69.0543C247.512 66.665 250.752 65.3226 254.131 65.3226H559.908C563.288 65.3226 566.528 66.665 568.918 69.0543C571.307 71.4437 572.649 74.6843 572.649 78.0633C572.649 81.4424 571.307 84.6831 568.918 87.0724C566.528 89.4618 563.288 90.8041 559.908 90.8041ZM254.131 67.2827C251.272 67.2827 248.53 68.4186 246.508 70.4403C244.487 72.4621 243.351 75.2042 243.351 78.0633C243.351 80.9225 244.487 83.6647 246.508 85.6864C248.53 87.7082 251.272 88.8439 254.131 88.8439H559.908C562.768 88.8439 565.51 87.7082 567.532 85.6864C569.553 83.6647 570.689 80.9225 570.689 78.0633C570.689 75.2042 569.553 72.4621 567.532 70.4403C565.51 68.4186 562.768 67.2827 559.908 67.2827H254.131Z" fill="#3F3D56"/>
<path d="M256.686 168.718H229.244C227.165 168.718 225.17 167.892 223.7 166.422C222.23 164.952 221.404 162.957 221.404 160.878C221.404 158.799 222.23 156.804 223.7 155.334C225.17 153.864 227.165 153.037 229.244 153.037H256.686C258.765 153.037 260.759 153.864 262.23 155.334C263.7 156.804 264.526 158.799 264.526 160.878C264.526 162.957 263.7 164.952 262.23 166.422C260.759 167.892 258.765 168.718 256.686 168.718Z" fill="#CCCCCC"/>
<path d="M289.027 195.18H229.244C227.165 195.18 225.17 194.354 223.7 192.883C222.23 191.413 221.404 189.419 221.404 187.339C221.404 185.26 222.23 183.266 223.7 181.795C225.17 180.325 227.165 179.499 229.244 179.499H289.027C291.107 179.499 293.101 180.325 294.572 181.795C296.042 183.266 296.868 185.26 296.868 187.339C296.868 189.419 296.042 191.413 294.572 192.883C293.101 194.354 291.107 195.18 289.027 195.18Z" fill="#CCCCCC"/>
<path d="M261.586 284.365H234.144C232.065 284.365 230.071 283.539 228.6 282.069C227.13 280.598 226.304 278.604 226.304 276.525C226.304 274.445 227.13 272.451 228.6 270.981C230.071 269.51 232.065 268.684 234.144 268.684H261.586C263.665 268.684 265.66 269.51 267.13 270.981C268.6 272.451 269.426 274.445 269.426 276.525C269.426 278.604 268.6 280.598 267.13 282.069C265.66 283.539 263.665 284.365 261.586 284.365Z" fill="#CCCCCC"/>
<path d="M293.928 310.826H234.144C232.065 310.826 230.071 310 228.6 308.53C227.13 307.06 226.304 305.065 226.304 302.986C226.304 300.907 227.13 298.912 228.6 297.442C230.071 295.972 232.065 295.146 234.144 295.146H293.928C296.007 295.146 298.001 295.972 299.472 297.442C300.942 298.912 301.768 300.907 301.768 302.986C301.768 305.065 300.942 307.06 299.472 308.53C298.001 310 296.007 310.826 293.928 310.826Z" fill="#CCCCCC"/>
<path d="M441.916 281.425H414.475C412.395 281.425 410.401 280.599 408.931 279.128C407.46 277.658 406.634 275.664 406.634 273.584C406.634 271.505 407.46 269.511 408.931 268.04C410.401 266.57 412.395 265.744 414.475 265.744H441.916C443.996 265.744 445.99 266.57 447.46 268.04C448.93 269.511 449.757 271.505 449.757 273.584C449.757 275.664 448.93 277.658 447.46 279.128C445.99 280.599 443.996 281.425 441.916 281.425Z" fill="#CCCCCC"/>
<path d="M474.258 307.886H414.475C412.395 307.886 410.401 307.06 408.931 305.59C407.46 304.119 406.634 302.125 406.634 300.046C406.634 297.966 407.46 295.972 408.931 294.502C410.401 293.031 412.395 292.205 414.475 292.205H474.258C476.337 292.205 478.332 293.031 479.802 294.502C481.272 295.972 482.098 297.966 482.098 300.046C482.098 302.125 481.272 304.119 479.802 305.59C478.332 307.06 476.337 307.886 474.258 307.886Z" fill="#CCCCCC"/>
<path d="M438.976 173.619H411.534C409.455 173.619 407.461 172.793 405.99 171.322C404.52 169.852 403.694 167.858 403.694 165.778C403.694 163.699 404.52 161.705 405.99 160.234C407.461 158.764 409.455 157.938 411.534 157.938H438.976C441.055 157.938 443.05 158.764 444.52 160.234C445.99 161.705 446.816 163.699 446.816 165.778C446.816 167.858 445.99 169.852 444.52 171.322C443.05 172.793 441.055 173.619 438.976 173.619Z" fill="#CCCCCC"/>
<path d="M471.318 200.08H411.534C409.455 200.08 407.461 199.254 405.99 197.784C404.52 196.313 403.694 194.319 403.694 192.24C403.694 190.16 404.52 188.166 405.99 186.696C407.461 185.225 409.455 184.399 411.534 184.399H471.318C473.397 184.399 475.391 185.225 476.862 186.696C478.332 188.166 479.158 190.16 479.158 192.24C479.158 194.319 478.332 196.313 476.862 197.784C475.391 199.254 473.397 200.08 471.318 200.08Z" fill="#CCCCCC"/>
<path d="M622.246 167.738H594.805C592.725 167.738 590.731 166.912 589.261 165.442C587.79 163.972 586.964 161.977 586.964 159.898C586.964 157.819 587.79 155.824 589.261 154.354C590.731 152.884 592.725 152.057 594.805 152.057H622.246C624.326 152.057 626.32 152.884 627.79 154.354C629.261 155.824 630.087 157.819 630.087 159.898C630.087 161.977 629.261 163.972 627.79 165.442C626.32 166.912 624.326 167.738 622.246 167.738Z" fill="#CCCCCC"/>
<path d="M654.588 194.2H594.805C592.725 194.2 590.731 193.374 589.261 191.903C587.79 190.433 586.964 188.439 586.964 186.359C586.964 184.28 587.79 182.286 589.261 180.815C590.731 179.345 592.725 178.519 594.805 178.519H654.588C656.668 178.519 658.662 179.345 660.132 180.815C661.602 182.286 662.429 184.28 662.429 186.359C662.429 188.439 661.602 190.433 660.132 191.903C658.662 193.374 656.668 194.2 654.588 194.2Z" fill="#CCCCCC"/>
<path d="M180.828 203.51C197.066 203.51 210.229 190.347 210.229 174.109C210.229 157.871 197.066 144.707 180.828 144.707C164.59 144.707 151.426 157.871 151.426 174.109C151.426 190.347 164.59 203.51 180.828 203.51Z" fill="#BBBBE4"/>
<path d="M194.549 187.34H167.107C166.328 187.339 165.58 187.029 165.029 186.477C164.478 185.926 164.168 185.179 164.167 184.399V163.818C164.168 163.039 164.478 162.291 165.029 161.74C165.58 161.189 166.328 160.879 167.107 160.878H174.832C175.335 160.876 175.829 161.004 176.268 161.249C176.707 161.494 177.075 161.848 177.336 162.277L179.491 165.778H194.549C195.328 165.779 196.076 166.089 196.627 166.64C197.178 167.192 197.488 167.939 197.489 168.719V184.399C197.488 185.179 197.178 185.926 196.627 186.477C196.076 187.029 195.328 187.339 194.549 187.34V187.34ZM167.107 162.838C166.847 162.839 166.598 162.942 166.415 163.126C166.231 163.309 166.127 163.558 166.127 163.818V184.399C166.127 184.659 166.231 184.908 166.415 185.092C166.598 185.276 166.847 185.379 167.107 185.379H194.549C194.809 185.379 195.058 185.276 195.241 185.092C195.425 184.908 195.528 184.659 195.529 184.399V168.719C195.528 168.459 195.425 168.21 195.241 168.026C195.058 167.842 194.809 167.739 194.549 167.738H178.396L175.667 163.304C175.58 163.161 175.457 163.043 175.311 162.962C175.165 162.88 175 162.838 174.832 162.838H167.107Z" fill="white"/>
<path d="M361.158 208.411C377.396 208.411 390.56 195.247 390.56 179.009C390.56 162.771 377.396 149.607 361.158 149.607C344.92 149.607 331.756 162.771 331.756 179.009C331.756 195.247 344.92 208.411 361.158 208.411Z" fill="#BBBBE4"/>
<path d="M373.899 197.63H348.417C347.638 197.629 346.89 197.319 346.339 196.768C345.788 196.217 345.478 195.47 345.477 194.69V163.328C345.478 162.549 345.788 161.801 346.339 161.25C346.89 160.699 347.638 160.389 348.417 160.388H366.881C367.551 160.389 368.2 160.617 368.723 161.036L375.74 166.676C376.084 166.95 376.361 167.299 376.552 167.696C376.742 168.093 376.84 168.527 376.839 168.967V194.69C376.838 195.47 376.528 196.217 375.977 196.768C375.426 197.319 374.678 197.629 373.899 197.63V197.63ZM348.417 162.348C348.158 162.349 347.908 162.452 347.725 162.636C347.541 162.819 347.438 163.068 347.437 163.328V194.69C347.438 194.95 347.541 195.199 347.725 195.383C347.908 195.566 348.158 195.67 348.417 195.67H373.899C374.159 195.67 374.408 195.566 374.591 195.383C374.775 195.199 374.878 194.95 374.879 194.69V168.967C374.879 168.821 374.846 168.676 374.783 168.544C374.72 168.411 374.627 168.295 374.513 168.204L367.494 162.564C367.32 162.424 367.104 162.348 366.881 162.348H348.417Z" fill="white"/>
<path d="M368.998 174.109H353.318C353.058 174.109 352.808 174.006 352.625 173.822C352.441 173.638 352.338 173.389 352.338 173.129C352.338 172.869 352.441 172.62 352.625 172.436C352.808 172.252 353.058 172.149 353.318 172.149H368.998C369.258 172.149 369.508 172.252 369.691 172.436C369.875 172.62 369.979 172.869 369.979 173.129C369.979 173.389 369.875 173.638 369.691 173.822C369.508 174.006 369.258 174.109 368.998 174.109Z" fill="white"/>
<path d="M368.998 179.989H353.318C353.058 179.989 352.808 179.886 352.625 179.702C352.441 179.518 352.338 179.269 352.338 179.009C352.338 178.749 352.441 178.5 352.625 178.316C352.808 178.132 353.058 178.029 353.318 178.029H368.998C369.258 178.029 369.508 178.132 369.691 178.316C369.875 178.5 369.979 178.749 369.979 179.009C369.979 179.269 369.875 179.518 369.691 179.702C369.508 179.886 369.258 179.989 368.998 179.989Z" fill="white"/>
<path d="M368.998 185.87H353.318C353.058 185.87 352.808 185.766 352.625 185.582C352.441 185.399 352.338 185.149 352.338 184.889C352.338 184.63 352.441 184.38 352.625 184.196C352.808 184.013 353.058 183.909 353.318 183.909H368.998C369.258 183.909 369.508 184.013 369.691 184.196C369.875 184.38 369.979 184.63 369.979 184.889C369.979 185.149 369.875 185.399 369.691 185.582C369.508 185.766 369.258 185.87 368.998 185.87Z" fill="white"/>
<path d="M542.468 202.53C558.706 202.53 571.87 189.367 571.87 173.129C571.87 156.89 558.706 143.727 542.468 143.727C526.23 143.727 513.066 156.89 513.066 173.129C513.066 189.367 526.23 202.53 542.468 202.53Z" fill="#BBBBE4"/>
<path d="M556.188 183.909H528.747C527.967 183.909 527.22 183.598 526.669 183.047C526.118 182.496 525.808 181.749 525.807 180.969V165.288C525.808 164.509 526.118 163.761 526.669 163.21C527.22 162.659 527.967 162.349 528.747 162.348H556.188C556.968 162.349 557.715 162.659 558.267 163.21C558.818 163.761 559.128 164.509 559.129 165.288V180.969C559.128 181.749 558.818 182.496 558.267 183.047C557.715 183.598 556.968 183.909 556.188 183.909V183.909ZM528.747 164.308C528.487 164.309 528.238 164.412 528.054 164.596C527.87 164.779 527.767 165.028 527.767 165.288V180.969C527.767 181.229 527.87 181.478 528.054 181.662C528.238 181.846 528.487 181.949 528.747 181.949H556.188C556.448 181.949 556.697 181.846 556.881 181.662C557.065 181.478 557.168 181.229 557.169 180.969V165.288C557.168 165.028 557.065 164.779 556.881 164.596C556.697 164.412 556.448 164.309 556.188 164.308H528.747Z" fill="white"/>
<path d="M542.468 175.714C541.917 175.715 541.377 175.561 540.91 175.271L526.267 166.12C526.047 165.982 525.891 165.762 525.833 165.509C525.775 165.256 525.82 164.99 525.957 164.77C526.095 164.55 526.314 164.393 526.567 164.334C526.82 164.276 527.086 164.32 527.307 164.457L541.949 173.608C542.105 173.705 542.285 173.756 542.468 173.756C542.652 173.756 542.831 173.705 542.987 173.608L557.629 164.457C557.849 164.32 558.115 164.276 558.368 164.334C558.621 164.393 558.841 164.55 558.978 164.77C559.116 164.99 559.161 165.256 559.102 165.509C559.044 165.762 558.888 165.982 558.668 166.12L544.027 175.271C543.559 175.562 543.019 175.715 542.468 175.714V175.714Z" fill="white"/>
<path d="M180.828 319.157C197.066 319.157 210.229 305.993 210.229 289.755C210.229 273.517 197.066 260.354 180.828 260.354C164.59 260.354 151.426 273.517 151.426 289.755C151.426 305.993 164.59 319.157 180.828 319.157Z" fill="#BBBBE4"/>
<path d="M194.549 300.536H167.107C166.328 300.535 165.58 300.225 165.029 299.674C164.478 299.123 164.168 298.375 164.167 297.596V281.915C164.168 281.135 164.478 280.388 165.029 279.837C165.58 279.286 166.328 278.976 167.107 278.975H194.549C195.328 278.976 196.076 279.286 196.627 279.837C197.178 280.388 197.488 281.135 197.489 281.915V297.596C197.488 298.375 197.178 299.123 196.627 299.674C196.076 300.225 195.328 300.535 194.549 300.536ZM167.107 280.935C166.847 280.935 166.598 281.038 166.414 281.222C166.231 281.406 166.127 281.655 166.127 281.915V297.596C166.127 297.856 166.231 298.105 166.414 298.288C166.598 298.472 166.847 298.576 167.107 298.576H194.549C194.809 298.576 195.058 298.472 195.241 298.288C195.425 298.105 195.528 297.856 195.529 297.596V281.915C195.528 281.655 195.425 281.406 195.241 281.222C195.058 281.038 194.809 280.935 194.549 280.935H167.107Z" fill="white"/>
<path d="M190.199 300.536H170.477C170.132 300.536 169.794 300.446 169.496 300.274C169.198 300.102 168.951 299.854 168.779 299.556C168.607 299.258 168.516 298.92 168.516 298.576C168.516 298.232 168.607 297.894 168.779 297.596L174.72 287.305C174.892 287.007 175.139 286.76 175.437 286.588C175.735 286.416 176.073 286.325 176.417 286.325C176.762 286.325 177.1 286.416 177.398 286.588C177.695 286.76 177.943 287.007 178.115 287.305L181.952 293.951L184.175 290.101C184.347 289.803 184.594 289.555 184.892 289.383C185.19 289.211 185.528 289.121 185.872 289.121C186.216 289.121 186.555 289.211 186.853 289.383C187.151 289.555 187.398 289.803 187.57 290.101L191.897 297.596C192.069 297.894 192.16 298.232 192.16 298.576C192.16 298.92 192.069 299.258 191.897 299.556C191.725 299.854 191.477 300.102 191.179 300.274C190.881 300.446 190.543 300.536 190.199 300.536H190.199ZM190.199 298.576L185.872 291.081L182.801 296.401C182.715 296.55 182.591 296.674 182.442 296.76C182.293 296.846 182.124 296.891 181.952 296.891V296.891C181.78 296.891 181.611 296.846 181.462 296.76C181.313 296.674 181.189 296.55 181.103 296.401L176.418 288.285L170.477 298.576H190.199Z" fill="white"/>
<path d="M191.608 286.815C192.691 286.815 193.569 285.937 193.569 284.855C193.569 283.772 192.691 282.895 191.608 282.895C190.526 282.895 189.648 283.772 189.648 284.855C189.648 285.937 190.526 286.815 191.608 286.815Z" fill="white"/>
<path d="M363.118 316.217C379.356 316.217 392.52 303.053 392.52 286.815C392.52 270.577 379.356 257.413 363.118 257.413C346.88 257.413 333.716 270.577 333.716 286.815C333.716 303.053 346.88 316.217 363.118 316.217Z" fill="#BBBBE4"/>
<path d="M363.118 287.305C361.374 287.305 359.668 286.788 358.218 285.819C356.767 284.849 355.637 283.472 354.969 281.86C354.301 280.248 354.127 278.475 354.467 276.764C354.807 275.053 355.648 273.481 356.881 272.248C358.115 271.014 359.686 270.174 361.397 269.834C363.108 269.493 364.882 269.668 366.494 270.336C368.105 271.003 369.483 272.134 370.452 273.584C371.421 275.035 371.939 276.74 371.939 278.485C371.936 280.823 371.006 283.065 369.352 284.719C367.699 286.372 365.457 287.303 363.118 287.305V287.305ZM363.118 271.624C361.761 271.624 360.435 272.027 359.307 272.78C358.179 273.534 357.299 274.606 356.78 275.859C356.261 277.113 356.125 278.492 356.39 279.823C356.654 281.154 357.308 282.376 358.267 283.336C359.227 284.295 360.449 284.949 361.78 285.213C363.11 285.478 364.49 285.342 365.743 284.823C366.997 284.304 368.068 283.424 368.822 282.296C369.576 281.168 369.978 279.842 369.978 278.485C369.976 276.666 369.253 274.922 367.967 273.636C366.681 272.35 364.937 271.626 363.118 271.624Z" fill="white"/>
<path d="M370.959 303.966H355.278C354.368 303.965 353.496 303.603 352.853 302.96C352.21 302.317 351.849 301.445 351.848 300.536C351.848 297.547 353.035 294.68 355.149 292.566C357.262 290.453 360.129 289.265 363.118 289.265C366.107 289.265 368.974 290.453 371.088 292.566C373.201 294.68 374.389 297.547 374.389 300.536C374.388 301.445 374.026 302.317 373.383 302.96C372.74 303.603 371.868 303.965 370.959 303.966ZM363.118 291.225C360.65 291.228 358.283 292.21 356.538 293.956C354.792 295.701 353.81 298.068 353.808 300.536C353.808 300.926 353.963 301.299 354.239 301.575C354.514 301.851 354.888 302.006 355.278 302.006H370.959C371.348 302.006 371.722 301.851 371.998 301.575C372.273 301.299 372.428 300.926 372.429 300.536C372.426 298.068 371.444 295.701 369.699 293.956C367.953 292.21 365.587 291.228 363.118 291.225V291.225Z" fill="white"/>
<path d="M79.3228 461.8H91.3382L97.0539 415.455L79.3208 415.456L79.3228 461.8Z" fill="#FFB8B8"/>
<path d="M114.51 472.956L76.7482 472.958L76.7476 458.368L99.9199 458.367C103.789 458.366 107.5 459.903 110.237 462.639C112.973 465.375 114.51 469.086 114.51 472.956V472.956L114.51 472.956Z" fill="#2F2E41"/>
<path d="M34.2402 461.8H46.2557L51.9714 415.455L34.2383 415.456L34.2402 461.8Z" fill="#FFB8B8"/>
<path d="M69.428 472.956L31.6657 472.958L31.6651 458.368L54.8374 458.367C58.7069 458.366 62.4179 459.903 65.1542 462.639C67.8905 465.375 69.4278 469.086 69.428 472.956V472.956L69.428 472.956Z" fill="#2F2E41"/>
<path d="M35.7076 323.771C37.0021 322.938 38.0983 321.832 38.919 320.53C39.7396 319.227 40.2648 317.761 40.4575 316.234C40.6502 314.707 40.5057 313.156 40.0342 311.691C39.5628 310.226 38.7758 308.882 37.7287 307.754L45.6402 195.481L22.851 197.691L22.225 307.64C20.4464 309.525 19.4209 311.996 19.3428 314.586C19.2648 317.177 20.1396 319.706 21.8015 321.694C23.4634 323.682 25.797 324.992 28.36 325.375C30.9229 325.757 33.5373 325.187 35.7077 323.771H35.7076Z" fill="#FFB8B8"/>
<path d="M79.6808 438.458C78.6027 438.455 77.563 438.058 76.7566 437.343C75.9503 436.627 75.4328 435.642 75.3012 434.572L68.3171 376.158C68.2188 375.335 67.8262 374.576 67.2118 374.021C66.5974 373.465 65.8027 373.151 64.9744 373.135C64.1462 373.12 63.3404 373.405 62.7059 373.937C62.0714 374.47 61.6511 375.214 61.5225 376.033L52.7246 431.962C52.5653 433.002 52.0378 433.95 51.2382 434.633C50.4386 435.317 49.42 435.691 48.3679 435.687H34.1081C33.5262 435.687 32.9499 435.571 32.4127 435.348C31.8755 435.124 31.3878 434.796 30.9778 434.383C30.5679 433.97 30.2437 433.48 30.024 432.941C29.8044 432.402 29.6935 431.825 29.6979 431.243L36.5036 307.233C36.5061 306.177 36.8895 305.157 37.5833 304.362C38.2771 303.566 39.2347 303.047 40.2803 302.901L93.197 295.219C93.8258 295.128 94.4668 295.174 95.0762 295.353C95.6856 295.533 96.249 295.842 96.728 296.259C97.2069 296.677 97.59 297.193 97.8511 297.772C98.1123 298.351 98.2452 298.98 98.2408 299.615L97.3178 433.448C97.31 434.576 96.8702 435.658 96.0888 436.472C95.3075 437.285 94.2441 437.769 93.1173 437.822L79.8902 438.453C79.8201 438.456 79.7503 438.458 79.6808 438.458Z" fill="#2F2E41"/>
<path d="M52.2465 311.917C47.1566 311.898 42.1083 310.999 37.3244 309.261C36.5134 308.962 35.809 308.43 35.3001 307.731C34.7912 307.033 34.5004 306.199 34.4646 305.336C34.008 295.205 31.3373 243.059 23.562 211.251C22.0507 205.012 22.4203 198.464 24.6242 192.434C26.8281 186.405 30.7677 181.162 35.9464 177.368C36.3646 177.067 36.791 176.772 37.2255 176.482C41.7225 173.489 46.9107 171.695 52.2964 171.273C57.6822 170.851 63.0864 171.814 67.9949 174.07C73.0657 176.339 77.4716 179.868 80.7934 184.321C84.1151 188.774 86.2422 194.003 86.9722 199.51L99.6516 293.645C99.7331 294.233 99.6942 294.832 99.5373 295.405C99.3805 295.978 99.1089 296.513 98.739 296.978C98.3773 297.44 97.9255 297.823 97.4111 298.105C96.8967 298.387 96.3303 298.561 95.7465 298.618C91.353 299.056 82.2408 300.759 70.5787 307.238C64.9706 310.345 58.6575 311.956 52.2465 311.917V311.917Z" fill="#3F3D56"/>
<path d="M36.7453 233.887L15.8793 228.229C14.7511 227.922 13.7909 227.18 13.2093 226.166C12.6276 225.151 12.4721 223.948 12.7768 222.819L20.1121 195.764C20.8978 192.866 22.7286 190.362 25.2515 188.734C27.7743 187.106 30.8107 186.469 33.775 186.948C36.7392 187.426 39.4216 188.984 41.3046 191.323C43.1877 193.662 44.1383 196.615 43.9729 199.613L42.3031 229.873C42.267 230.529 42.0847 231.169 41.7695 231.746C41.4544 232.322 41.0144 232.821 40.4817 233.206C39.949 233.591 39.337 233.851 38.6906 233.969C38.0441 234.087 37.3795 234.059 36.7453 233.887V233.887Z" fill="#3F3D56"/>
<path d="M59.9729 161.289C73.267 161.289 84.0441 150.512 84.0441 137.218C84.0441 123.923 73.267 113.146 59.9729 113.146C46.6788 113.146 35.9017 123.923 35.9017 137.218C35.9017 150.512 46.6788 161.289 59.9729 161.289Z" fill="#FFB8B8"/>
<path d="M147.201 184.51C147.081 185.038 147.003 185.576 146.967 186.117L104.866 210.405L94.633 204.514L83.7239 218.795L105.615 234.398L153.646 196.507C155.605 197.232 157.738 197.343 159.762 196.826C161.786 196.309 163.604 195.188 164.975 193.612C166.347 192.037 167.206 190.081 167.438 188.005C167.671 185.929 167.266 183.832 166.278 181.992C165.289 180.152 163.764 178.656 161.905 177.704C160.046 176.752 157.941 176.388 155.87 176.662C153.799 176.935 151.86 177.832 150.312 179.234C148.764 180.636 147.679 182.476 147.201 184.51V184.51Z" fill="#FFB8B8"/>
<path d="M101.377 211.577L83.2418 223.346C82.2603 223.981 81.0667 224.201 79.9231 223.958C78.7795 223.714 77.7791 223.027 77.1415 222.047L61.882 198.533C60.2474 196.015 59.6031 192.98 60.0735 190.015C60.5439 187.049 62.0957 184.363 64.4295 182.473C66.7633 180.584 69.7139 179.626 72.7124 179.784C75.7109 179.941 78.5448 181.203 80.6678 183.327L102.095 204.759C102.56 205.224 102.915 205.786 103.134 206.406C103.353 207.025 103.431 207.686 103.363 208.339C103.294 208.993 103.08 209.622 102.736 210.183C102.393 210.743 101.928 211.219 101.377 211.577Z" fill="#3F3D56"/>
<path d="M42.939 156.261C47.4296 161.045 55.7692 158.477 56.3543 151.942C56.4002 151.435 56.3969 150.924 56.3444 150.418C56.0422 147.523 54.3699 144.895 54.7705 141.839C54.8612 141.078 55.1446 140.353 55.5939 139.732C59.1723 134.941 67.5724 141.876 70.9496 137.538C73.0204 134.878 70.5862 130.69 72.1753 127.717C74.2726 123.793 80.485 125.729 84.3808 123.58C88.7153 121.189 88.456 114.539 85.6027 110.494C82.123 105.561 76.022 102.928 69.997 102.549C63.972 102.17 57.9885 103.798 52.3635 105.99C45.9725 108.481 39.6349 111.923 35.702 117.543C30.9191 124.377 30.4588 133.565 32.8508 141.556C34.3059 146.417 39.2719 152.355 42.939 156.261Z" fill="#2F2E41"/>
<path d="M138.188 473.026H0.980055C0.720128 473.026 0.470847 472.922 0.287051 472.738C0.103255 472.555 0 472.305 0 472.045C0 471.786 0.103255 471.536 0.287051 471.352C0.470847 471.169 0.720128 471.065 0.980055 471.065H138.188C138.448 471.065 138.697 471.169 138.881 471.352C139.065 471.536 139.168 471.786 139.168 472.045C139.168 472.305 139.065 472.555 138.881 472.738C138.697 472.922 138.448 473.026 138.188 473.026Z" fill="#3F3D56"/>
</g>
<path d="M927.29 194.909C927.141 193.65 926.536 192.672 925.476 191.976C924.415 191.28 923.114 190.932 921.573 190.932C920.446 190.932 919.46 191.114 918.615 191.479C917.778 191.843 917.124 192.345 916.651 192.983C916.187 193.621 915.955 194.346 915.955 195.158C915.955 195.837 916.117 196.421 916.44 196.91C916.771 197.391 917.194 197.793 917.708 198.116C918.221 198.431 918.76 198.692 919.323 198.899C919.887 199.098 920.405 199.259 920.877 199.384L923.462 200.08C924.125 200.254 924.863 200.494 925.675 200.8C926.495 201.107 927.278 201.525 928.024 202.056C928.778 202.578 929.399 203.249 929.888 204.069C930.377 204.89 930.621 205.896 930.621 207.089C930.621 208.465 930.261 209.708 929.54 210.818C928.827 211.929 927.783 212.811 926.408 213.466C925.041 214.12 923.379 214.447 921.424 214.447C919.601 214.447 918.023 214.153 916.689 213.565C915.363 212.977 914.319 212.156 913.556 211.104C912.802 210.052 912.376 208.83 912.276 207.438H915.458C915.541 208.399 915.864 209.194 916.428 209.824C916.999 210.445 917.72 210.909 918.59 211.216C919.468 211.514 920.413 211.663 921.424 211.663C922.601 211.663 923.657 211.473 924.593 211.092C925.53 210.702 926.271 210.164 926.818 209.476C927.365 208.78 927.638 207.968 927.638 207.04C927.638 206.195 927.402 205.507 926.93 204.977C926.458 204.446 925.836 204.015 925.066 203.684C924.295 203.353 923.462 203.062 922.567 202.814L919.435 201.919C917.447 201.347 915.872 200.531 914.712 199.471C913.552 198.41 912.972 197.022 912.972 195.307C912.972 193.882 913.358 192.639 914.128 191.578C914.907 190.509 915.951 189.681 917.26 189.092C918.578 188.496 920.048 188.197 921.673 188.197C923.313 188.197 924.771 188.492 926.048 189.08C927.324 189.66 928.334 190.455 929.08 191.466C929.834 192.477 930.232 193.625 930.273 194.909H927.29ZM940.909 214.447C939.7 214.447 938.602 214.22 937.616 213.764C936.63 213.3 935.847 212.633 935.267 211.763C934.687 210.884 934.397 209.824 934.397 208.581C934.397 207.487 934.612 206.601 935.043 205.921C935.474 205.233 936.05 204.695 936.771 204.305C937.492 203.916 938.287 203.626 939.157 203.435C940.035 203.237 940.918 203.079 941.804 202.963C942.964 202.814 943.905 202.702 944.626 202.627C945.355 202.545 945.885 202.408 946.217 202.217C946.556 202.027 946.726 201.695 946.726 201.223V201.124C946.726 199.897 946.391 198.944 945.72 198.265C945.057 197.585 944.05 197.246 942.699 197.246C941.299 197.246 940.201 197.552 939.406 198.165C938.61 198.779 938.051 199.433 937.728 200.129L934.944 199.135C935.441 197.975 936.104 197.072 936.932 196.425C937.769 195.771 938.681 195.315 939.667 195.058C940.661 194.793 941.639 194.661 942.6 194.661C943.213 194.661 943.917 194.735 944.713 194.884C945.516 195.025 946.291 195.319 947.037 195.767C947.791 196.214 948.417 196.889 948.914 197.793C949.411 198.696 949.659 199.906 949.659 201.422V214H946.726V211.415H946.577C946.378 211.829 946.047 212.272 945.583 212.745C945.119 213.217 944.501 213.619 943.731 213.95C942.96 214.282 942.02 214.447 940.909 214.447ZM941.357 211.812C942.517 211.812 943.495 211.585 944.29 211.129C945.094 210.673 945.699 210.085 946.105 209.364C946.519 208.643 946.726 207.885 946.726 207.089V204.405C946.602 204.554 946.329 204.691 945.906 204.815C945.492 204.931 945.011 205.035 944.464 205.126C943.926 205.209 943.399 205.283 942.886 205.349C942.38 205.407 941.97 205.457 941.655 205.499C940.893 205.598 940.18 205.76 939.517 205.983C938.863 206.199 938.333 206.526 937.927 206.965C937.529 207.396 937.33 207.984 937.33 208.73C937.33 209.749 937.707 210.52 938.461 211.042C939.223 211.556 940.189 211.812 941.357 211.812ZM969.94 194.909L962.881 214H959.898L952.838 194.909H956.02L961.29 210.122H961.489L966.759 194.909H969.94ZM981.133 214.398C979.293 214.398 977.707 213.992 976.372 213.18C975.047 212.359 974.023 211.216 973.303 209.749C972.59 208.274 972.234 206.559 972.234 204.604C972.234 202.648 972.59 200.925 973.303 199.433C974.023 197.933 975.026 196.765 976.31 195.928C977.603 195.083 979.111 194.661 980.834 194.661C981.829 194.661 982.811 194.826 983.78 195.158C984.75 195.489 985.632 196.028 986.428 196.773C987.223 197.511 987.857 198.489 988.329 199.707C988.801 200.925 989.038 202.424 989.038 204.206V205.449H974.322V202.913H986.055C986.055 201.836 985.839 200.875 985.408 200.03C984.986 199.185 984.381 198.518 983.594 198.029C982.815 197.54 981.895 197.295 980.834 197.295C979.666 197.295 978.655 197.585 977.802 198.165C976.957 198.737 976.306 199.483 975.85 200.403C975.395 201.322 975.167 202.308 975.167 203.361V205.051C975.167 206.493 975.415 207.715 975.913 208.718C976.418 209.712 977.118 210.47 978.013 210.992C978.908 211.506 979.948 211.763 981.133 211.763C981.903 211.763 982.599 211.655 983.221 211.44C983.851 211.216 984.393 210.884 984.849 210.445C985.305 209.998 985.657 209.443 985.905 208.78L988.739 209.575C988.441 210.536 987.94 211.382 987.235 212.111C986.531 212.832 985.661 213.395 984.625 213.801C983.59 214.199 982.425 214.398 981.133 214.398ZM997.875 210.52L997.676 211.862C997.535 212.807 997.319 213.818 997.029 214.895C996.748 215.972 996.454 216.987 996.147 217.94C995.84 218.893 995.588 219.651 995.389 220.214H993.152C993.259 219.684 993.4 218.984 993.574 218.114C993.748 217.244 993.922 216.27 994.096 215.193C994.278 214.124 994.428 213.031 994.544 211.912L994.693 210.52H997.875ZM1021.16 214.398C1019.32 214.398 1017.73 213.992 1016.4 213.18C1015.07 212.359 1014.05 211.216 1013.33 209.749C1012.61 208.274 1012.26 206.559 1012.26 204.604C1012.26 202.648 1012.61 200.925 1013.33 199.433C1014.05 197.933 1015.05 196.765 1016.33 195.928C1017.63 195.083 1019.14 194.661 1020.86 194.661C1021.85 194.661 1022.84 194.826 1023.8 195.158C1024.77 195.489 1025.66 196.028 1026.45 196.773C1027.25 197.511 1027.88 198.489 1028.35 199.707C1028.83 200.925 1029.06 202.424 1029.06 204.206V205.449H1014.35V202.913H1026.08C1026.08 201.836 1025.86 200.875 1025.43 200.03C1025.01 199.185 1024.41 198.518 1023.62 198.029C1022.84 197.54 1021.92 197.295 1020.86 197.295C1019.69 197.295 1018.68 197.585 1017.83 198.165C1016.98 198.737 1016.33 199.483 1015.87 200.403C1015.42 201.322 1015.19 202.308 1015.19 203.361V205.051C1015.19 206.493 1015.44 207.715 1015.94 208.718C1016.44 209.712 1017.14 210.47 1018.04 210.992C1018.93 211.506 1019.97 211.763 1021.16 211.763C1021.93 211.763 1022.62 211.655 1023.25 211.44C1023.87 211.216 1024.42 210.884 1024.87 210.445C1025.33 209.998 1025.68 209.443 1025.93 208.78L1028.76 209.575C1028.47 210.536 1027.96 211.382 1027.26 212.111C1026.56 212.832 1025.69 213.395 1024.65 213.801C1023.61 214.199 1022.45 214.398 1021.16 214.398ZM1040.73 214.398C1039.14 214.398 1037.74 213.996 1036.52 213.192C1035.3 212.38 1034.35 211.237 1033.66 209.762C1032.97 208.279 1032.63 206.526 1032.63 204.504C1032.63 202.499 1032.97 200.759 1033.66 199.284C1034.35 197.809 1035.31 196.67 1036.53 195.866C1037.76 195.062 1039.18 194.661 1040.78 194.661C1042.03 194.661 1043.01 194.868 1043.73 195.282C1044.46 195.688 1045.01 196.152 1045.39 196.674C1045.78 197.188 1046.09 197.61 1046.3 197.942H1046.55V188.545H1049.48V214H1046.65V211.067H1046.3C1046.09 211.415 1045.78 211.854 1045.38 212.384C1044.98 212.906 1044.42 213.374 1043.68 213.789C1042.94 214.195 1041.96 214.398 1040.73 214.398ZM1041.13 211.763C1042.31 211.763 1043.3 211.456 1044.11 210.843C1044.93 210.222 1045.54 209.364 1045.97 208.27C1046.39 207.168 1046.6 205.896 1046.6 204.455C1046.6 203.029 1046.39 201.782 1045.98 200.713C1045.56 199.636 1044.95 198.799 1044.14 198.203C1043.33 197.598 1042.32 197.295 1041.13 197.295C1039.89 197.295 1038.85 197.614 1038.02 198.252C1037.2 198.882 1036.59 199.74 1036.17 200.825C1035.77 201.902 1035.56 203.112 1035.56 204.455C1035.56 205.813 1035.77 207.048 1036.18 208.158C1036.61 209.26 1037.23 210.139 1038.05 210.793C1038.88 211.44 1039.9 211.763 1041.13 211.763ZM1055.26 214V194.909H1058.2V214H1055.26ZM1056.75 191.727C1056.18 191.727 1055.69 191.533 1055.27 191.143C1054.87 190.754 1054.67 190.286 1054.67 189.739C1054.67 189.192 1054.87 188.724 1055.27 188.334C1055.69 187.945 1056.18 187.75 1056.75 187.75C1057.33 187.75 1057.81 187.945 1058.22 188.334C1058.63 188.724 1058.84 189.192 1058.84 189.739C1058.84 190.286 1058.63 190.754 1058.22 191.143C1057.81 191.533 1057.33 191.727 1056.75 191.727ZM1071.87 194.909V197.395H1061.98V194.909H1071.87ZM1064.86 190.335H1067.79V208.531C1067.79 209.36 1067.91 209.981 1068.15 210.396C1068.4 210.802 1068.72 211.075 1069.1 211.216C1069.49 211.348 1069.9 211.415 1070.33 211.415C1070.65 211.415 1070.92 211.398 1071.12 211.365C1071.33 211.324 1071.5 211.29 1071.62 211.266L1072.22 213.901C1072.02 213.975 1071.74 214.05 1071.39 214.124C1071.03 214.207 1070.58 214.249 1070.03 214.249C1069.2 214.249 1068.39 214.07 1067.59 213.714C1066.81 213.358 1066.15 212.815 1065.63 212.086C1065.12 211.357 1064.86 210.437 1064.86 209.327V190.335ZM1091.74 214.447C1090.53 214.447 1089.44 214.22 1088.45 213.764C1087.46 213.3 1086.68 212.633 1086.1 211.763C1085.52 210.884 1085.23 209.824 1085.23 208.581C1085.23 207.487 1085.45 206.601 1085.88 205.921C1086.31 205.233 1086.88 204.695 1087.61 204.305C1088.33 203.916 1089.12 203.626 1089.99 203.435C1090.87 203.237 1091.75 203.079 1092.64 202.963C1093.8 202.814 1094.74 202.702 1095.46 202.627C1096.19 202.545 1096.72 202.408 1097.05 202.217C1097.39 202.027 1097.56 201.695 1097.56 201.223V201.124C1097.56 199.897 1097.23 198.944 1096.55 198.265C1095.89 197.585 1094.88 197.246 1093.53 197.246C1092.13 197.246 1091.04 197.552 1090.24 198.165C1089.45 198.779 1088.89 199.433 1088.56 200.129L1085.78 199.135C1086.28 197.975 1086.94 197.072 1087.77 196.425C1088.6 195.771 1089.52 195.315 1090.5 195.058C1091.5 194.793 1092.47 194.661 1093.43 194.661C1094.05 194.661 1094.75 194.735 1095.55 194.884C1096.35 195.025 1097.13 195.319 1097.87 195.767C1098.63 196.214 1099.25 196.889 1099.75 197.793C1100.25 198.696 1100.49 199.906 1100.49 201.422V214H1097.56V211.415H1097.41C1097.21 211.829 1096.88 212.272 1096.42 212.745C1095.95 213.217 1095.34 213.619 1094.57 213.95C1093.8 214.282 1092.85 214.447 1091.74 214.447ZM1092.19 211.812C1093.35 211.812 1094.33 211.585 1095.13 211.129C1095.93 210.673 1096.53 210.085 1096.94 209.364C1097.35 208.643 1097.56 207.885 1097.56 207.089V204.405C1097.44 204.554 1097.16 204.691 1096.74 204.815C1096.33 204.931 1095.85 205.035 1095.3 205.126C1094.76 205.209 1094.23 205.283 1093.72 205.349C1093.22 205.407 1092.81 205.457 1092.49 205.499C1091.73 205.598 1091.02 205.76 1090.35 205.983C1089.7 206.199 1089.17 206.526 1088.76 206.965C1088.36 207.396 1088.16 207.984 1088.16 208.73C1088.16 209.749 1088.54 210.52 1089.3 211.042C1090.06 211.556 1091.02 211.812 1092.19 211.812ZM1108.78 202.516V214H1105.85V194.909H1108.68V197.892H1108.93C1109.38 196.923 1110.06 196.144 1110.97 195.555C1111.88 194.959 1113.06 194.661 1114.5 194.661C1115.79 194.661 1116.92 194.926 1117.89 195.456C1118.86 195.978 1119.62 196.773 1120.15 197.842C1120.69 198.903 1120.96 200.245 1120.96 201.869V214H1118.03V202.068C1118.03 200.568 1117.64 199.4 1116.86 198.563C1116.08 197.718 1115.01 197.295 1113.65 197.295C1112.72 197.295 1111.88 197.498 1111.14 197.904C1110.41 198.31 1109.84 198.903 1109.42 199.682C1108.99 200.461 1108.78 201.405 1108.78 202.516ZM1133.53 214.398C1131.94 214.398 1130.54 213.996 1129.32 213.192C1128.1 212.38 1127.15 211.237 1126.46 209.762C1125.77 208.279 1125.43 206.526 1125.43 204.504C1125.43 202.499 1125.77 200.759 1126.46 199.284C1127.15 197.809 1128.1 196.67 1129.33 195.866C1130.56 195.062 1131.97 194.661 1133.58 194.661C1134.82 194.661 1135.81 194.868 1136.53 195.282C1137.26 195.688 1137.81 196.152 1138.19 196.674C1138.58 197.188 1138.88 197.61 1139.1 197.942H1139.35V188.545H1142.28V214H1139.45V211.067H1139.1C1138.88 211.415 1138.58 211.854 1138.18 212.384C1137.78 212.906 1137.21 213.374 1136.48 213.789C1135.74 214.195 1134.76 214.398 1133.53 214.398ZM1133.93 211.763C1135.11 211.763 1136.1 211.456 1136.91 210.843C1137.72 210.222 1138.34 209.364 1138.76 208.27C1139.19 207.168 1139.4 205.896 1139.4 204.455C1139.4 203.029 1139.19 201.782 1138.78 200.713C1138.36 199.636 1137.75 198.799 1136.94 198.203C1136.12 197.598 1135.12 197.295 1133.93 197.295C1132.69 197.295 1131.65 197.614 1130.82 198.252C1130 198.882 1129.38 199.74 1128.97 200.825C1128.56 201.902 1128.36 203.112 1128.36 204.455C1128.36 205.813 1128.57 207.048 1128.98 208.158C1129.4 209.26 1130.03 210.139 1130.85 210.793C1131.67 211.44 1132.7 211.763 1133.93 211.763ZM1163.52 214.447C1162.31 214.447 1161.21 214.22 1160.23 213.764C1159.24 213.3 1158.46 212.633 1157.88 211.763C1157.3 210.884 1157.01 209.824 1157.01 208.581C1157.01 207.487 1157.22 206.601 1157.66 205.921C1158.09 205.233 1158.66 204.695 1159.38 204.305C1160.1 203.916 1160.9 203.626 1161.77 203.435C1162.65 203.237 1163.53 203.079 1164.42 202.963C1165.58 202.814 1166.52 202.702 1167.24 202.627C1167.97 202.545 1168.5 202.408 1168.83 202.217C1169.17 202.027 1169.34 201.695 1169.34 201.223V201.124C1169.34 199.897 1169 198.944 1168.33 198.265C1167.67 197.585 1166.66 197.246 1165.31 197.246C1163.91 197.246 1162.81 197.552 1162.02 198.165C1161.22 198.779 1160.66 199.433 1160.34 200.129L1157.56 199.135C1158.05 197.975 1158.72 197.072 1159.54 196.425C1160.38 195.771 1161.29 195.315 1162.28 195.058C1163.27 194.793 1164.25 194.661 1165.21 194.661C1165.83 194.661 1166.53 194.735 1167.33 194.884C1168.13 195.025 1168.9 195.319 1169.65 195.767C1170.4 196.214 1171.03 196.889 1171.53 197.793C1172.02 198.696 1172.27 199.906 1172.27 201.422V214H1169.34V211.415H1169.19C1168.99 211.829 1168.66 212.272 1168.2 212.745C1167.73 213.217 1167.11 213.619 1166.34 213.95C1165.57 214.282 1164.63 214.447 1163.52 214.447ZM1163.97 211.812C1165.13 211.812 1166.11 211.585 1166.9 211.129C1167.71 210.673 1168.31 210.085 1168.72 209.364C1169.13 208.643 1169.34 207.885 1169.34 207.089V204.405C1169.21 204.554 1168.94 204.691 1168.52 204.815C1168.1 204.931 1167.62 205.035 1167.08 205.126C1166.54 205.209 1166.01 205.283 1165.5 205.349C1164.99 205.407 1164.58 205.457 1164.27 205.499C1163.51 205.598 1162.79 205.76 1162.13 205.983C1161.48 206.199 1160.94 206.526 1160.54 206.965C1160.14 207.396 1159.94 207.984 1159.94 208.73C1159.94 209.749 1160.32 210.52 1161.07 211.042C1161.84 211.556 1162.8 211.812 1163.97 211.812ZM1189.66 206.195V194.909H1192.59V214H1189.66V210.768H1189.46C1189.01 211.738 1188.31 212.562 1187.37 213.242C1186.43 213.913 1185.23 214.249 1183.79 214.249C1182.6 214.249 1181.54 213.988 1180.61 213.466C1179.68 212.935 1178.95 212.14 1178.42 211.079C1177.89 210.01 1177.63 208.664 1177.63 207.04V194.909H1180.56V206.841C1180.56 208.233 1180.95 209.343 1181.73 210.172C1182.51 211 1183.52 211.415 1184.73 211.415C1185.46 211.415 1186.21 211.228 1186.96 210.855C1187.72 210.483 1188.36 209.911 1188.87 209.14C1189.4 208.37 1189.66 207.388 1189.66 206.195ZM1206.27 194.909V197.395H1196.37V194.909H1206.27ZM1199.26 190.335H1202.19V208.531C1202.19 209.36 1202.31 209.981 1202.55 210.396C1202.8 210.802 1203.11 211.075 1203.49 211.216C1203.88 211.348 1204.29 211.415 1204.72 211.415C1205.05 211.415 1205.31 211.398 1205.52 211.365C1205.73 211.324 1205.89 211.29 1206.02 211.266L1206.61 213.901C1206.41 213.975 1206.14 214.05 1205.78 214.124C1205.42 214.207 1204.97 214.249 1204.43 214.249C1203.6 214.249 1202.78 214.07 1201.99 213.714C1201.2 213.358 1200.55 212.815 1200.03 212.086C1199.51 211.357 1199.26 210.437 1199.26 209.327V190.335ZM1218.23 214.398C1216.5 214.398 1214.99 213.988 1213.69 213.167C1212.4 212.347 1211.39 211.199 1210.66 209.724C1209.94 208.25 1209.58 206.526 1209.58 204.554C1209.58 202.565 1209.94 200.829 1210.66 199.346C1211.39 197.863 1212.4 196.711 1213.69 195.891C1214.99 195.071 1216.5 194.661 1218.23 194.661C1219.95 194.661 1221.46 195.071 1222.75 195.891C1224.05 196.711 1225.06 197.863 1225.78 199.346C1226.51 200.829 1226.88 202.565 1226.88 204.554C1226.88 206.526 1226.51 208.25 1225.78 209.724C1225.06 211.199 1224.05 212.347 1222.75 213.167C1221.46 213.988 1219.95 214.398 1218.23 214.398ZM1218.23 211.763C1219.54 211.763 1220.61 211.427 1221.46 210.756C1222.3 210.085 1222.93 209.202 1223.34 208.109C1223.74 207.015 1223.95 205.83 1223.95 204.554C1223.95 203.278 1223.74 202.089 1223.34 200.987C1222.93 199.885 1222.3 198.994 1221.46 198.315C1220.61 197.635 1219.54 197.295 1218.23 197.295C1216.92 197.295 1215.84 197.635 1215 198.315C1214.15 198.994 1213.53 199.885 1213.12 200.987C1212.71 202.089 1212.51 203.278 1212.51 204.554C1212.51 205.83 1212.71 207.015 1213.12 208.109C1213.53 209.202 1214.15 210.085 1215 210.756C1215.84 211.427 1216.92 211.763 1218.23 211.763ZM1231.36 214V194.909H1234.19V197.892H1234.44C1234.84 196.873 1235.48 196.082 1236.36 195.518C1237.25 194.946 1238.32 194.661 1239.56 194.661C1240.82 194.661 1241.87 194.946 1242.7 195.518C1243.55 196.082 1244.21 196.873 1244.68 197.892H1244.88C1245.37 196.906 1246.1 196.123 1247.08 195.543C1248.06 194.955 1249.23 194.661 1250.6 194.661C1252.3 194.661 1253.7 195.195 1254.78 196.264C1255.87 197.324 1256.41 198.978 1256.41 201.223V214H1253.48V201.223C1253.48 199.814 1253.09 198.808 1252.32 198.203C1251.55 197.598 1250.65 197.295 1249.6 197.295C1248.26 197.295 1247.22 197.701 1246.48 198.513C1245.74 199.317 1245.38 200.336 1245.38 201.571V214H1242.39V200.925C1242.39 199.839 1242.04 198.965 1241.34 198.302C1240.63 197.631 1239.72 197.295 1238.61 197.295C1237.85 197.295 1237.14 197.498 1236.48 197.904C1235.82 198.31 1235.29 198.874 1234.89 199.595C1234.49 200.307 1234.29 201.132 1234.29 202.068V214H1231.36ZM1267.39 214.447C1266.18 214.447 1265.09 214.22 1264.1 213.764C1263.11 213.3 1262.33 212.633 1261.75 211.763C1261.17 210.884 1260.88 209.824 1260.88 208.581C1260.88 207.487 1261.1 206.601 1261.53 205.921C1261.96 205.233 1262.53 204.695 1263.26 204.305C1263.98 203.916 1264.77 203.626 1265.64 203.435C1266.52 203.237 1267.4 203.079 1268.29 202.963C1269.45 202.814 1270.39 202.702 1271.11 202.627C1271.84 202.545 1272.37 202.408 1272.7 202.217C1273.04 202.027 1273.21 201.695 1273.21 201.223V201.124C1273.21 199.897 1272.88 198.944 1272.2 198.265C1271.54 197.585 1270.53 197.246 1269.18 197.246C1267.78 197.246 1266.69 197.552 1265.89 198.165C1265.09 198.779 1264.54 199.433 1264.21 200.129L1261.43 199.135C1261.93 197.975 1262.59 197.072 1263.42 196.425C1264.25 195.771 1265.16 195.315 1266.15 195.058C1267.15 194.793 1268.12 194.661 1269.08 194.661C1269.7 194.661 1270.4 194.735 1271.2 194.884C1272 195.025 1272.78 195.319 1273.52 195.767C1274.28 196.214 1274.9 196.889 1275.4 197.793C1275.9 198.696 1276.14 199.906 1276.14 201.422V214H1273.21V211.415H1273.06C1272.86 211.829 1272.53 212.272 1272.07 212.745C1271.6 213.217 1270.99 213.619 1270.22 213.95C1269.44 214.282 1268.5 214.447 1267.39 214.447ZM1267.84 211.812C1269 211.812 1269.98 211.585 1270.77 211.129C1271.58 210.673 1272.18 210.085 1272.59 209.364C1273 208.643 1273.21 207.885 1273.21 207.089V204.405C1273.09 204.554 1272.81 204.691 1272.39 204.815C1271.98 204.931 1271.5 205.035 1270.95 205.126C1270.41 205.209 1269.88 205.283 1269.37 205.349C1268.86 205.407 1268.45 205.457 1268.14 205.499C1267.38 205.598 1266.66 205.76 1266 205.983C1265.35 206.199 1264.82 206.526 1264.41 206.965C1264.01 207.396 1263.81 207.984 1263.81 208.73C1263.81 209.749 1264.19 210.52 1264.95 211.042C1265.71 211.556 1266.67 211.812 1267.84 211.812ZM1289.8 194.909V197.395H1279.91V194.909H1289.8ZM1282.79 190.335H1285.72V208.531C1285.72 209.36 1285.84 209.981 1286.08 210.396C1286.33 210.802 1286.65 211.075 1287.03 211.216C1287.42 211.348 1287.83 211.415 1288.26 211.415C1288.58 211.415 1288.85 211.398 1289.05 211.365C1289.26 211.324 1289.43 211.29 1289.55 211.266L1290.15 213.901C1289.95 213.975 1289.67 214.05 1289.32 214.124C1288.96 214.207 1288.51 214.249 1287.96 214.249C1287.13 214.249 1286.32 214.07 1285.52 213.714C1284.74 213.358 1284.08 212.815 1283.56 212.086C1283.05 211.357 1282.79 210.437 1282.79 209.327V190.335ZM1302.01 214.398C1300.17 214.398 1298.59 213.992 1297.25 213.18C1295.93 212.359 1294.9 211.216 1294.18 209.749C1293.47 208.274 1293.11 206.559 1293.11 204.604C1293.11 202.648 1293.47 200.925 1294.18 199.433C1294.9 197.933 1295.9 196.765 1297.19 195.928C1298.48 195.083 1299.99 194.661 1301.71 194.661C1302.71 194.661 1303.69 194.826 1304.66 195.158C1305.63 195.489 1306.51 196.028 1307.31 196.773C1308.1 197.511 1308.74 198.489 1309.21 199.707C1309.68 200.925 1309.92 202.424 1309.92 204.206V205.449H1295.2V202.913H1306.93C1306.93 201.836 1306.72 200.875 1306.29 200.03C1305.86 199.185 1305.26 198.518 1304.47 198.029C1303.69 197.54 1302.77 197.295 1301.71 197.295C1300.55 197.295 1299.53 197.585 1298.68 198.165C1297.84 198.737 1297.19 199.483 1296.73 200.403C1296.27 201.322 1296.05 202.308 1296.05 203.361V205.051C1296.05 206.493 1296.29 207.715 1296.79 208.718C1297.3 209.712 1298 210.47 1298.89 210.992C1299.79 211.506 1300.83 211.763 1302.01 211.763C1302.78 211.763 1303.48 211.655 1304.1 211.44C1304.73 211.216 1305.27 210.884 1305.73 210.445C1306.18 209.998 1306.54 209.443 1306.78 208.78L1309.62 209.575C1309.32 210.536 1308.82 211.382 1308.11 212.111C1307.41 212.832 1306.54 213.395 1305.5 213.801C1304.47 214.199 1303.3 214.398 1302.01 214.398ZM1332.52 194.909V197.395H1322.63V194.909H1332.52ZM1325.51 190.335H1328.45V208.531C1328.45 209.36 1328.57 209.981 1328.81 210.396C1329.06 210.802 1329.37 211.075 1329.75 211.216C1330.14 211.348 1330.55 211.415 1330.98 211.415C1331.31 211.415 1331.57 211.398 1331.78 211.365C1331.99 211.324 1332.15 211.29 1332.28 211.266L1332.87 213.901C1332.67 213.975 1332.4 214.05 1332.04 214.124C1331.68 214.207 1331.23 214.249 1330.69 214.249C1329.86 214.249 1329.04 214.07 1328.25 213.714C1327.46 213.358 1326.81 212.815 1326.29 212.086C1325.77 211.357 1325.51 210.437 1325.51 209.327V190.335ZM1340.28 202.516V214H1337.35V188.545H1340.28V197.892H1340.53C1340.98 196.906 1341.65 196.123 1342.54 195.543C1343.45 194.955 1344.65 194.661 1346.15 194.661C1347.45 194.661 1348.59 194.922 1349.56 195.444C1350.54 195.957 1351.3 196.749 1351.84 197.817C1352.39 198.878 1352.66 200.229 1352.66 201.869V214H1349.73V202.068C1349.73 200.552 1349.33 199.379 1348.55 198.551C1347.77 197.714 1346.69 197.295 1345.3 197.295C1344.34 197.295 1343.48 197.498 1342.72 197.904C1341.96 198.31 1341.37 198.903 1340.93 199.682C1340.5 200.461 1340.28 201.405 1340.28 202.516ZM1366.03 214.398C1364.19 214.398 1362.6 213.992 1361.27 213.18C1359.94 212.359 1358.92 211.216 1358.2 209.749C1357.49 208.274 1357.13 206.559 1357.13 204.604C1357.13 202.648 1357.49 200.925 1358.2 199.433C1358.92 197.933 1359.92 196.765 1361.21 195.928C1362.5 195.083 1364.01 194.661 1365.73 194.661C1366.73 194.661 1367.71 194.826 1368.68 195.158C1369.65 195.489 1370.53 196.028 1371.32 196.773C1372.12 197.511 1372.75 198.489 1373.23 199.707C1373.7 200.925 1373.94 202.424 1373.94 204.206V205.449H1359.22V202.913H1370.95C1370.95 201.836 1370.74 200.875 1370.31 200.03C1369.88 199.185 1369.28 198.518 1368.49 198.029C1367.71 197.54 1366.79 197.295 1365.73 197.295C1364.56 197.295 1363.55 197.585 1362.7 198.165C1361.85 198.737 1361.2 199.483 1360.75 200.403C1360.29 201.322 1360.06 202.308 1360.06 203.361V205.051C1360.06 206.493 1360.31 207.715 1360.81 208.718C1361.32 209.712 1362.02 210.47 1362.91 210.992C1363.81 211.506 1364.85 211.763 1366.03 211.763C1366.8 211.763 1367.5 211.655 1368.12 211.44C1368.75 211.216 1369.29 210.884 1369.75 210.445C1370.2 209.998 1370.55 209.443 1370.8 208.78L1373.64 209.575C1373.34 210.536 1372.84 211.382 1372.13 212.111C1371.43 212.832 1370.56 213.395 1369.52 213.801C1368.49 214.199 1367.32 214.398 1366.03 214.398ZM951.036 241.185L948.401 241.93C948.235 241.491 947.991 241.065 947.668 240.65C947.353 240.228 946.922 239.88 946.375 239.606C945.828 239.333 945.128 239.196 944.275 239.196C943.106 239.196 942.133 239.465 941.354 240.004C940.583 240.534 940.198 241.21 940.198 242.03C940.198 242.759 940.463 243.335 940.993 243.757C941.524 244.18 942.352 244.532 943.479 244.814L946.313 245.51C948.02 245.924 949.292 246.558 950.129 247.412C950.966 248.257 951.384 249.346 951.384 250.68C951.384 251.774 951.069 252.752 950.439 253.614C949.818 254.475 948.948 255.155 947.829 255.652C946.711 256.149 945.41 256.398 943.927 256.398C941.979 256.398 940.368 255.975 939.092 255.13C937.816 254.285 937.008 253.05 936.668 251.426L939.452 250.73C939.717 251.758 940.219 252.528 940.956 253.042C941.702 253.556 942.675 253.812 943.877 253.812C945.244 253.812 946.33 253.522 947.133 252.942C947.945 252.354 948.351 251.65 948.351 250.83C948.351 250.167 948.119 249.612 947.655 249.164C947.191 248.708 946.479 248.369 945.518 248.145L942.336 247.399C940.587 246.985 939.303 246.343 938.483 245.473C937.671 244.594 937.265 243.496 937.265 242.179C937.265 241.102 937.567 240.149 938.172 239.32C938.785 238.492 939.618 237.841 940.67 237.369C941.731 236.897 942.932 236.661 944.275 236.661C946.164 236.661 947.647 237.075 948.724 237.903C949.81 238.732 950.58 239.826 951.036 241.185ZM963.804 256.398C961.964 256.398 960.377 255.992 959.043 255.18C957.718 254.359 956.694 253.216 955.973 251.749C955.261 250.274 954.905 248.559 954.905 246.604C954.905 244.648 955.261 242.925 955.973 241.433C956.694 239.933 957.697 238.765 958.981 237.928C960.274 237.083 961.782 236.661 963.505 236.661C964.5 236.661 965.482 236.826 966.451 237.158C967.42 237.489 968.303 238.028 969.098 238.773C969.894 239.511 970.528 240.489 971 241.707C971.472 242.925 971.708 244.424 971.708 246.206V247.449H956.993V244.913H968.726C968.726 243.836 968.51 242.875 968.079 242.03C967.657 241.185 967.052 240.518 966.265 240.029C965.486 239.54 964.566 239.295 963.505 239.295C962.337 239.295 961.326 239.585 960.473 240.165C959.628 240.737 958.977 241.483 958.521 242.403C958.066 243.322 957.838 244.308 957.838 245.361V247.051C957.838 248.493 958.086 249.715 958.583 250.718C959.089 251.712 959.789 252.47 960.684 252.992C961.579 253.506 962.619 253.763 963.804 253.763C964.574 253.763 965.27 253.655 965.892 253.44C966.521 253.216 967.064 252.884 967.52 252.445C967.976 251.998 968.328 251.443 968.576 250.78L971.41 251.575C971.112 252.536 970.611 253.382 969.906 254.111C969.202 254.832 968.332 255.395 967.296 255.801C966.26 256.199 965.096 256.398 963.804 256.398ZM979.104 244.516V256H976.17V236.909H979.004V239.892H979.253C979.7 238.923 980.38 238.144 981.291 237.555C982.203 236.959 983.379 236.661 984.821 236.661C986.114 236.661 987.245 236.926 988.214 237.456C989.184 237.978 989.938 238.773 990.476 239.842C991.015 240.903 991.284 242.245 991.284 243.869V256H988.351V244.068C988.351 242.568 987.961 241.4 987.183 240.563C986.404 239.718 985.335 239.295 983.976 239.295C983.04 239.295 982.203 239.498 981.465 239.904C980.736 240.31 980.16 240.903 979.738 241.682C979.315 242.461 979.104 243.405 979.104 244.516ZM1003.85 256.398C1002.26 256.398 1000.86 255.996 999.64 255.192C998.421 254.38 997.469 253.237 996.781 251.762C996.093 250.279 995.749 248.526 995.749 246.504C995.749 244.499 996.093 242.759 996.781 241.284C997.469 239.809 998.426 238.67 999.652 237.866C1000.88 237.062 1002.3 236.661 1003.9 236.661C1005.15 236.661 1006.13 236.868 1006.85 237.282C1007.58 237.688 1008.13 238.152 1008.51 238.674C1008.9 239.188 1009.21 239.61 1009.42 239.942H1009.67V230.545H1012.6V256H1009.77V253.067H1009.42C1009.21 253.415 1008.9 253.854 1008.5 254.384C1008.1 254.906 1007.54 255.374 1006.8 255.789C1006.06 256.195 1005.08 256.398 1003.85 256.398ZM1004.25 253.763C1005.43 253.763 1006.42 253.456 1007.23 252.843C1008.05 252.222 1008.66 251.364 1009.09 250.27C1009.51 249.168 1009.72 247.896 1009.72 246.455C1009.72 245.029 1009.51 243.782 1009.1 242.713C1008.68 241.636 1008.07 240.799 1007.26 240.203C1006.45 239.598 1005.44 239.295 1004.25 239.295C1003.01 239.295 1001.97 239.614 1001.14 240.252C1000.32 240.882 999.706 241.74 999.292 242.825C998.885 243.902 998.682 245.112 998.682 246.455C998.682 247.813 998.89 249.048 999.304 250.158C999.727 251.26 1000.35 252.139 1001.17 252.793C1002 253.44 1003.02 253.763 1004.25 253.763ZM1018.38 256V236.909H1021.32V256H1018.38ZM1019.87 233.727C1019.3 233.727 1018.81 233.533 1018.39 233.143C1017.99 232.754 1017.79 232.286 1017.79 231.739C1017.79 231.192 1017.99 230.724 1018.39 230.334C1018.81 229.945 1019.3 229.75 1019.87 229.75C1020.45 229.75 1020.93 229.945 1021.34 230.334C1021.75 230.724 1021.96 231.192 1021.96 231.739C1021.96 232.286 1021.75 232.754 1021.34 233.143C1020.93 233.533 1020.45 233.727 1019.87 233.727ZM1029.62 244.516V256H1026.69V236.909H1029.52V239.892H1029.77C1030.22 238.923 1030.9 238.144 1031.81 237.555C1032.72 236.959 1033.9 236.661 1035.34 236.661C1036.63 236.661 1037.76 236.926 1038.73 237.456C1039.7 237.978 1040.46 238.773 1040.99 239.842C1041.53 240.903 1041.8 242.245 1041.8 243.869V256H1038.87V244.068C1038.87 242.568 1038.48 241.4 1037.7 240.563C1036.92 239.718 1035.85 239.295 1034.49 239.295C1033.56 239.295 1032.72 239.498 1031.98 239.904C1031.25 240.31 1030.68 240.903 1030.26 241.682C1029.83 242.461 1029.62 243.405 1029.62 244.516ZM1054.87 263.557C1053.45 263.557 1052.23 263.375 1051.21 263.01C1050.19 262.654 1049.35 262.181 1048.67 261.593C1047.99 261.013 1047.46 260.392 1047.06 259.729L1049.4 258.088C1049.66 258.436 1050 258.834 1050.41 259.281C1050.81 259.737 1051.37 260.131 1052.07 260.462C1052.78 260.802 1053.72 260.972 1054.87 260.972C1056.41 260.972 1057.68 260.599 1058.68 259.853C1059.69 259.107 1060.19 257.939 1060.19 256.348V252.47H1059.94C1059.72 252.818 1059.42 253.249 1059.02 253.763C1058.63 254.268 1058.07 254.72 1057.33 255.118C1056.6 255.507 1055.61 255.702 1054.37 255.702C1052.83 255.702 1051.45 255.337 1050.22 254.608C1049 253.879 1048.04 252.818 1047.32 251.426C1046.62 250.034 1046.27 248.344 1046.27 246.355C1046.27 244.4 1046.61 242.697 1047.3 241.247C1047.99 239.788 1048.94 238.662 1050.17 237.866C1051.4 237.062 1052.81 236.661 1054.42 236.661C1055.66 236.661 1056.65 236.868 1057.38 237.282C1058.12 237.688 1058.68 238.152 1059.07 238.674C1059.47 239.188 1059.77 239.61 1059.99 239.942H1060.29V236.909H1063.12V256.547C1063.12 258.188 1062.75 259.522 1062 260.549C1061.26 261.585 1060.27 262.343 1059.02 262.824C1057.78 263.312 1056.39 263.557 1054.87 263.557ZM1054.77 253.067C1055.94 253.067 1056.94 252.797 1057.75 252.259C1058.56 251.72 1059.18 250.946 1059.6 249.935C1060.03 248.924 1060.24 247.714 1060.24 246.305C1060.24 244.93 1060.03 243.716 1059.62 242.664C1059.2 241.611 1058.59 240.787 1057.78 240.19C1056.96 239.594 1055.96 239.295 1054.77 239.295C1053.53 239.295 1052.49 239.61 1051.66 240.24C1050.84 240.87 1050.22 241.715 1049.81 242.776C1049.4 243.836 1049.2 245.013 1049.2 246.305C1049.2 247.631 1049.41 248.804 1049.82 249.823C1050.24 250.834 1050.87 251.629 1051.69 252.209C1052.51 252.781 1053.54 253.067 1054.77 253.067ZM1086.09 256.398C1084.37 256.398 1082.85 255.988 1081.55 255.167C1080.26 254.347 1079.25 253.199 1078.52 251.724C1077.8 250.25 1077.44 248.526 1077.44 246.554C1077.44 244.565 1077.8 242.829 1078.52 241.346C1079.25 239.863 1080.26 238.711 1081.55 237.891C1082.85 237.071 1084.37 236.661 1086.09 236.661C1087.81 236.661 1089.32 237.071 1090.61 237.891C1091.91 238.711 1092.93 239.863 1093.65 241.346C1094.38 242.829 1094.74 244.565 1094.74 246.554C1094.74 248.526 1094.38 250.25 1093.65 251.724C1092.93 253.199 1091.91 254.347 1090.61 255.167C1089.32 255.988 1087.81 256.398 1086.09 256.398ZM1086.09 253.763C1087.4 253.763 1088.48 253.427 1089.32 252.756C1090.17 252.085 1090.79 251.202 1091.2 250.109C1091.6 249.015 1091.81 247.83 1091.81 246.554C1091.81 245.278 1091.6 244.089 1091.2 242.987C1090.79 241.885 1090.17 240.994 1089.32 240.315C1088.48 239.635 1087.4 239.295 1086.09 239.295C1084.78 239.295 1083.7 239.635 1082.86 240.315C1082.01 240.994 1081.39 241.885 1080.98 242.987C1080.57 244.089 1080.37 245.278 1080.37 246.554C1080.37 247.83 1080.57 249.015 1080.98 250.109C1081.39 251.202 1082.01 252.085 1082.86 252.756C1083.7 253.427 1084.78 253.763 1086.09 253.763ZM1107.72 236.909V239.395H1097.43V236.909H1107.72ZM1100.51 256V234.274C1100.51 233.18 1100.77 232.269 1101.28 231.54C1101.79 230.811 1102.46 230.264 1103.28 229.899C1104.1 229.535 1104.97 229.352 1105.88 229.352C1106.6 229.352 1107.19 229.41 1107.64 229.526C1108.1 229.642 1108.44 229.75 1108.66 229.849L1107.82 232.385C1107.67 232.335 1107.46 232.273 1107.2 232.199C1106.94 232.124 1106.6 232.087 1106.18 232.087C1105.21 232.087 1104.51 232.331 1104.08 232.82C1103.65 233.309 1103.44 234.026 1103.44 234.97V256H1100.51ZM1121.67 263.159V236.909H1124.51V239.942H1124.86C1125.07 239.61 1125.37 239.188 1125.75 238.674C1126.14 238.152 1126.69 237.688 1127.42 237.282C1128.14 236.868 1129.13 236.661 1130.37 236.661C1131.98 236.661 1133.4 237.062 1134.62 237.866C1135.85 238.67 1136.81 239.809 1137.5 241.284C1138.18 242.759 1138.53 244.499 1138.53 246.504C1138.53 248.526 1138.18 250.279 1137.5 251.762C1136.81 253.237 1135.85 254.38 1134.64 255.192C1133.42 255.996 1132.01 256.398 1130.42 256.398C1129.2 256.398 1128.22 256.195 1127.48 255.789C1126.74 255.374 1126.17 254.906 1125.77 254.384C1125.38 253.854 1125.07 253.415 1124.86 253.067H1124.61V263.159H1121.67ZM1124.56 246.455C1124.56 247.896 1124.77 249.168 1125.19 250.27C1125.61 251.364 1126.23 252.222 1127.04 252.843C1127.85 253.456 1128.85 253.763 1130.03 253.763C1131.25 253.763 1132.28 253.44 1133.1 252.793C1133.92 252.139 1134.55 251.26 1134.96 250.158C1135.38 249.048 1135.59 247.813 1135.59 246.455C1135.59 245.112 1135.39 243.902 1134.97 242.825C1134.57 241.74 1133.95 240.882 1133.12 240.252C1132.3 239.614 1131.27 239.295 1130.03 239.295C1128.83 239.295 1127.83 239.598 1127.02 240.203C1126.21 240.799 1125.59 241.636 1125.18 242.713C1124.76 243.782 1124.56 245.029 1124.56 246.455ZM1143 256V236.909H1145.84V239.793H1146.03C1146.38 238.848 1147.01 238.082 1147.92 237.493C1148.83 236.905 1149.86 236.611 1151.01 236.611C1151.22 236.611 1151.49 236.615 1151.81 236.623C1152.14 236.632 1152.38 236.644 1152.55 236.661V239.643C1152.45 239.619 1152.22 239.581 1151.86 239.532C1151.52 239.474 1151.15 239.445 1150.76 239.445C1149.83 239.445 1149 239.639 1148.27 240.029C1147.55 240.41 1146.98 240.94 1146.56 241.62C1146.14 242.291 1145.93 243.057 1145.93 243.919V256H1143ZM1163.45 256.398C1161.61 256.398 1160.02 255.992 1158.69 255.18C1157.36 254.359 1156.34 253.216 1155.62 251.749C1154.9 250.274 1154.55 248.559 1154.55 246.604C1154.55 244.648 1154.9 242.925 1155.62 241.433C1156.34 239.933 1157.34 238.765 1158.62 237.928C1159.92 237.083 1161.43 236.661 1163.15 236.661C1164.14 236.661 1165.13 236.826 1166.09 237.158C1167.06 237.489 1167.95 238.028 1168.74 238.773C1169.54 239.511 1170.17 240.489 1170.64 241.707C1171.12 242.925 1171.35 244.424 1171.35 246.206V247.449H1156.64V244.913H1168.37C1168.37 243.836 1168.15 242.875 1167.72 242.03C1167.3 241.185 1166.7 240.518 1165.91 240.029C1165.13 239.54 1164.21 239.295 1163.15 239.295C1161.98 239.295 1160.97 239.585 1160.12 240.165C1159.27 240.737 1158.62 241.483 1158.16 242.403C1157.71 243.322 1157.48 244.308 1157.48 245.361V247.051C1157.48 248.493 1157.73 249.715 1158.23 250.718C1158.73 251.712 1159.43 252.47 1160.33 252.992C1161.22 253.506 1162.26 253.763 1163.45 253.763C1164.22 253.763 1164.91 253.655 1165.54 253.44C1166.17 253.216 1166.71 252.884 1167.16 252.445C1167.62 251.998 1167.97 251.443 1168.22 250.78L1171.05 251.575C1170.76 252.536 1170.25 253.382 1169.55 254.111C1168.85 254.832 1167.98 255.395 1166.94 255.801C1165.9 256.199 1164.74 256.398 1163.45 256.398ZM1183.57 256.398C1181.78 256.398 1180.24 255.975 1178.95 255.13C1177.65 254.285 1176.66 253.121 1175.96 251.637C1175.27 250.154 1174.92 248.46 1174.92 246.554C1174.92 244.615 1175.28 242.904 1175.99 241.421C1176.71 239.929 1177.71 238.765 1179 237.928C1180.29 237.083 1181.8 236.661 1183.52 236.661C1184.86 236.661 1186.07 236.909 1187.15 237.406C1188.23 237.903 1189.11 238.599 1189.8 239.494C1190.48 240.389 1190.91 241.433 1191.08 242.626H1188.14C1187.92 241.756 1187.42 240.986 1186.65 240.315C1185.89 239.635 1184.86 239.295 1183.57 239.295C1182.43 239.295 1181.42 239.594 1180.56 240.19C1179.71 240.779 1179.04 241.611 1178.56 242.689C1178.09 243.757 1177.85 245.013 1177.85 246.455C1177.85 247.929 1178.08 249.214 1178.55 250.308C1179.02 251.401 1179.68 252.251 1180.54 252.855C1181.4 253.46 1182.41 253.763 1183.57 253.763C1184.33 253.763 1185.02 253.63 1185.65 253.365C1186.27 253.1 1186.79 252.719 1187.22 252.222C1187.65 251.724 1187.96 251.128 1188.14 250.432H1191.08C1190.91 251.559 1190.5 252.574 1189.85 253.477C1189.2 254.372 1188.34 255.084 1187.27 255.615C1186.21 256.137 1184.98 256.398 1183.57 256.398ZM1203.12 256.398C1201.4 256.398 1199.88 255.988 1198.58 255.167C1197.29 254.347 1196.28 253.199 1195.55 251.724C1194.83 250.25 1194.47 248.526 1194.47 246.554C1194.47 244.565 1194.83 242.829 1195.55 241.346C1196.28 239.863 1197.29 238.711 1198.58 237.891C1199.88 237.071 1201.4 236.661 1203.12 236.661C1204.84 236.661 1206.35 237.071 1207.64 237.891C1208.95 238.711 1209.96 239.863 1210.68 241.346C1211.41 242.829 1211.77 244.565 1211.77 246.554C1211.77 248.526 1211.41 250.25 1210.68 251.724C1209.96 253.199 1208.95 254.347 1207.64 255.167C1206.35 255.988 1204.84 256.398 1203.12 256.398ZM1203.12 253.763C1204.43 253.763 1205.51 253.427 1206.35 252.756C1207.2 252.085 1207.82 251.202 1208.23 250.109C1208.63 249.015 1208.84 247.83 1208.84 246.554C1208.84 245.278 1208.63 244.089 1208.23 242.987C1207.82 241.885 1207.2 240.994 1206.35 240.315C1205.51 239.635 1204.43 239.295 1203.12 239.295C1201.81 239.295 1200.73 239.635 1199.89 240.315C1199.04 240.994 1198.42 241.885 1198.01 242.987C1197.61 244.089 1197.4 245.278 1197.4 246.554C1197.4 247.83 1197.61 249.015 1198.01 250.109C1198.42 251.202 1199.04 252.085 1199.89 252.756C1200.73 253.427 1201.81 253.763 1203.12 253.763ZM1219.18 244.516V256H1216.25V236.909H1219.08V239.892H1219.33C1219.78 238.923 1220.46 238.144 1221.37 237.555C1222.28 236.959 1223.46 236.661 1224.9 236.661C1226.19 236.661 1227.32 236.926 1228.29 237.456C1229.26 237.978 1230.02 238.773 1230.55 239.842C1231.09 240.903 1231.36 242.245 1231.36 243.869V256H1228.43V244.068C1228.43 242.568 1228.04 241.4 1227.26 240.563C1226.48 239.718 1225.41 239.295 1224.05 239.295C1223.12 239.295 1222.28 239.498 1221.54 239.904C1220.81 240.31 1220.24 240.903 1219.82 241.682C1219.39 242.461 1219.18 243.405 1219.18 244.516ZM1245.22 236.909V239.395H1234.93V236.909H1245.22ZM1238.01 256V234.274C1238.01 233.18 1238.27 232.269 1238.79 231.54C1239.3 230.811 1239.97 230.264 1240.79 229.899C1241.61 229.535 1242.47 229.352 1243.38 229.352C1244.11 229.352 1244.69 229.41 1245.15 229.526C1245.6 229.642 1245.94 229.75 1246.17 229.849L1245.32 232.385C1245.17 232.335 1244.97 232.273 1244.7 232.199C1244.44 232.124 1244.11 232.087 1243.68 232.087C1242.71 232.087 1242.01 232.331 1241.58 232.82C1241.16 233.309 1240.95 234.026 1240.95 234.97V256H1238.01ZM1249.33 256V236.909H1252.27V256H1249.33ZM1250.83 233.727C1250.25 233.727 1249.76 233.533 1249.35 233.143C1248.94 232.754 1248.74 232.286 1248.74 231.739C1248.74 231.192 1248.94 230.724 1249.35 230.334C1249.76 229.945 1250.25 229.75 1250.83 229.75C1251.4 229.75 1251.89 229.945 1252.29 230.334C1252.71 230.724 1252.91 231.192 1252.91 231.739C1252.91 232.286 1252.71 232.754 1252.29 233.143C1251.89 233.533 1251.4 233.727 1250.83 233.727ZM1265.35 263.557C1263.93 263.557 1262.71 263.375 1261.69 263.01C1260.67 262.654 1259.82 262.181 1259.14 261.593C1258.47 261.013 1257.94 260.392 1257.54 259.729L1259.88 258.088C1260.14 258.436 1260.48 258.834 1260.88 259.281C1261.29 259.737 1261.85 260.131 1262.55 260.462C1263.26 260.802 1264.19 260.972 1265.35 260.972C1266.89 260.972 1268.16 260.599 1269.16 259.853C1270.16 259.107 1270.67 257.939 1270.67 256.348V252.47H1270.42C1270.2 252.818 1269.9 253.249 1269.5 253.763C1269.11 254.268 1268.54 254.72 1267.81 255.118C1267.08 255.507 1266.09 255.702 1264.85 255.702C1263.31 255.702 1261.92 255.337 1260.7 254.608C1259.48 253.879 1258.51 252.818 1257.8 251.426C1257.1 250.034 1256.75 248.344 1256.75 246.355C1256.75 244.4 1257.09 242.697 1257.78 241.247C1258.46 239.788 1259.42 238.662 1260.65 237.866C1261.87 237.062 1263.29 236.661 1264.9 236.661C1266.14 236.661 1267.13 236.868 1267.86 237.282C1268.59 237.688 1269.16 238.152 1269.55 238.674C1269.94 239.188 1270.25 239.61 1270.47 239.942H1270.77V236.909H1273.6V256.547C1273.6 258.188 1273.23 259.522 1272.48 260.549C1271.74 261.585 1270.75 262.343 1269.5 262.824C1268.25 263.312 1266.87 263.557 1265.35 263.557ZM1265.25 253.067C1266.42 253.067 1267.42 252.797 1268.23 252.259C1269.04 251.72 1269.66 250.946 1270.08 249.935C1270.5 248.924 1270.72 247.714 1270.72 246.305C1270.72 244.93 1270.51 243.716 1270.09 242.664C1269.68 241.611 1269.07 240.787 1268.25 240.19C1267.44 239.594 1266.44 239.295 1265.25 239.295C1264 239.295 1262.97 239.61 1262.14 240.24C1261.32 240.87 1260.7 241.715 1260.29 242.776C1259.88 243.836 1259.68 245.013 1259.68 246.305C1259.68 247.631 1259.89 248.804 1260.3 249.823C1260.72 250.834 1261.34 251.629 1262.16 252.209C1262.99 252.781 1264.02 253.067 1265.25 253.067ZM1291 248.195V236.909H1293.93V256H1291V252.768H1290.8C1290.35 253.738 1289.66 254.562 1288.71 255.242C1287.77 255.913 1286.57 256.249 1285.13 256.249C1283.94 256.249 1282.88 255.988 1281.95 255.466C1281.02 254.935 1280.29 254.14 1279.76 253.079C1279.23 252.01 1278.97 250.664 1278.97 249.04V236.909H1281.9V248.841C1281.9 250.233 1282.29 251.343 1283.07 252.172C1283.86 253 1284.86 253.415 1286.08 253.415C1286.81 253.415 1287.55 253.228 1288.3 252.855C1289.06 252.483 1289.7 251.911 1290.22 251.14C1290.74 250.37 1291 249.388 1291 248.195ZM1299.31 256V236.909H1302.14V239.793H1302.34C1302.69 238.848 1303.32 238.082 1304.23 237.493C1305.14 236.905 1306.17 236.611 1307.31 236.611C1307.52 236.611 1307.79 236.615 1308.12 236.623C1308.44 236.632 1308.69 236.644 1308.85 236.661V239.643C1308.75 239.619 1308.52 239.581 1308.17 239.532C1307.82 239.474 1307.45 239.445 1307.06 239.445C1306.13 239.445 1305.3 239.639 1304.58 240.029C1303.85 240.41 1303.28 240.94 1302.86 241.62C1302.45 242.291 1302.24 243.057 1302.24 243.919V256H1299.31ZM1319.75 256.398C1317.91 256.398 1316.32 255.992 1314.99 255.18C1313.66 254.359 1312.64 253.216 1311.92 251.749C1311.21 250.274 1310.85 248.559 1310.85 246.604C1310.85 244.648 1311.21 242.925 1311.92 241.433C1312.64 239.933 1313.64 238.765 1314.93 237.928C1316.22 237.083 1317.73 236.661 1319.45 236.661C1320.45 236.661 1321.43 236.826 1322.4 237.158C1323.37 237.489 1324.25 238.028 1325.05 238.773C1325.84 239.511 1326.48 240.489 1326.95 241.707C1327.42 242.925 1327.66 244.424 1327.66 246.206V247.449H1312.94V244.913H1324.67C1324.67 243.836 1324.46 242.875 1324.03 242.03C1323.6 241.185 1323 240.518 1322.21 240.029C1321.43 239.54 1320.51 239.295 1319.45 239.295C1318.28 239.295 1317.27 239.585 1316.42 240.165C1315.57 240.737 1314.92 241.483 1314.47 242.403C1314.01 243.322 1313.79 244.308 1313.79 245.361V247.051C1313.79 248.493 1314.03 249.715 1314.53 250.718C1315.04 251.712 1315.74 252.47 1316.63 252.992C1317.53 253.506 1318.57 253.763 1319.75 253.763C1320.52 253.763 1321.22 253.655 1321.84 253.44C1322.47 253.216 1323.01 252.884 1323.47 252.445C1323.92 251.998 1324.28 251.443 1324.52 250.78L1327.36 251.575C1327.06 252.536 1326.56 253.382 1325.85 254.111C1325.15 254.832 1324.28 255.395 1323.24 255.801C1322.21 256.199 1321.04 256.398 1319.75 256.398ZM1339.33 256.398C1337.74 256.398 1336.33 255.996 1335.11 255.192C1333.9 254.38 1332.94 253.237 1332.25 251.762C1331.57 250.279 1331.22 248.526 1331.22 246.504C1331.22 244.499 1331.57 242.759 1332.25 241.284C1332.94 239.809 1333.9 238.67 1335.13 237.866C1336.35 237.062 1337.77 236.661 1339.38 236.661C1340.62 236.661 1341.6 236.868 1342.32 237.282C1343.05 237.688 1343.61 238.152 1343.99 238.674C1344.38 239.188 1344.68 239.61 1344.89 239.942H1345.14V230.545H1348.08V256H1345.24V253.067H1344.89C1344.68 253.415 1344.37 253.854 1343.98 254.384C1343.58 254.906 1343.01 255.374 1342.27 255.789C1341.53 256.195 1340.55 256.398 1339.33 256.398ZM1339.72 253.763C1340.9 253.763 1341.9 253.456 1342.71 252.843C1343.52 252.222 1344.14 251.364 1344.56 250.27C1344.98 249.168 1345.19 247.896 1345.19 246.455C1345.19 245.029 1344.99 243.782 1344.57 242.713C1344.16 241.636 1343.54 240.799 1342.73 240.203C1341.92 239.598 1340.92 239.295 1339.72 239.295C1338.48 239.295 1337.45 239.614 1336.62 240.252C1335.8 240.882 1335.18 241.74 1334.77 242.825C1334.36 243.902 1334.16 245.112 1334.16 246.455C1334.16 247.813 1334.36 249.048 1334.78 250.158C1335.2 251.26 1335.82 252.139 1336.64 252.793C1337.47 253.44 1338.5 253.763 1339.72 253.763ZM1062.15 298V278.909H1064.98V281.892H1065.23C1065.63 280.873 1066.27 280.082 1067.16 279.518C1068.04 278.946 1069.11 278.661 1070.35 278.661C1071.61 278.661 1072.66 278.946 1073.5 279.518C1074.34 280.082 1075 280.873 1075.47 281.892H1075.67C1076.16 280.906 1076.89 280.123 1077.87 279.543C1078.85 278.955 1080.02 278.661 1081.39 278.661C1083.1 278.661 1084.49 279.195 1085.58 280.264C1086.66 281.324 1087.21 282.978 1087.21 285.223V298H1084.27V285.223C1084.27 283.814 1083.89 282.808 1083.12 282.203C1082.35 281.598 1081.44 281.295 1080.4 281.295C1079.05 281.295 1078.01 281.701 1077.28 282.513C1076.54 283.317 1076.17 284.336 1076.17 285.571V298H1073.19V284.925C1073.19 283.839 1072.83 282.965 1072.13 282.302C1071.43 281.631 1070.52 281.295 1069.41 281.295C1068.65 281.295 1067.93 281.498 1067.27 281.904C1066.62 282.31 1066.09 282.874 1065.68 283.595C1065.28 284.307 1065.08 285.132 1065.08 286.068V298H1062.15ZM1100.57 298.398C1098.73 298.398 1097.15 297.992 1095.81 297.18C1094.49 296.359 1093.46 295.216 1092.74 293.749C1092.03 292.274 1091.67 290.559 1091.67 288.604C1091.67 286.648 1092.03 284.925 1092.74 283.433C1093.46 281.933 1094.47 280.765 1095.75 279.928C1097.04 279.083 1098.55 278.661 1100.28 278.661C1101.27 278.661 1102.25 278.826 1103.22 279.158C1104.19 279.489 1105.07 280.028 1105.87 280.773C1106.66 281.511 1107.3 282.489 1107.77 283.707C1108.24 284.925 1108.48 286.424 1108.48 288.206V289.449H1093.76V286.913H1105.5C1105.5 285.836 1105.28 284.875 1104.85 284.03C1104.43 283.185 1103.82 282.518 1103.03 282.029C1102.26 281.54 1101.34 281.295 1100.28 281.295C1099.11 281.295 1098.1 281.585 1097.24 282.165C1096.4 282.737 1095.75 283.483 1095.29 284.403C1094.84 285.322 1094.61 286.308 1094.61 287.361V289.051C1094.61 290.493 1094.86 291.715 1095.35 292.718C1095.86 293.712 1096.56 294.47 1097.45 294.992C1098.35 295.506 1099.39 295.763 1100.57 295.763C1101.34 295.763 1102.04 295.655 1102.66 295.44C1103.29 295.216 1103.83 294.884 1104.29 294.445C1104.75 293.998 1105.1 293.443 1105.35 292.78L1108.18 293.575C1107.88 294.536 1107.38 295.382 1106.68 296.111C1105.97 296.832 1105.1 297.395 1104.07 297.801C1103.03 298.199 1101.87 298.398 1100.57 298.398ZM1126.46 283.185L1123.83 283.93C1123.66 283.491 1123.42 283.065 1123.09 282.65C1122.78 282.228 1122.35 281.88 1121.8 281.606C1121.26 281.333 1120.56 281.196 1119.7 281.196C1118.53 281.196 1117.56 281.465 1116.78 282.004C1116.01 282.534 1115.63 283.21 1115.63 284.03C1115.63 284.759 1115.89 285.335 1116.42 285.757C1116.95 286.18 1117.78 286.532 1118.91 286.814L1121.74 287.51C1123.45 287.924 1124.72 288.558 1125.56 289.412C1126.39 290.257 1126.81 291.346 1126.81 292.68C1126.81 293.774 1126.5 294.752 1125.87 295.614C1125.25 296.475 1124.38 297.155 1123.26 297.652C1122.14 298.149 1120.84 298.398 1119.35 298.398C1117.41 298.398 1115.8 297.975 1114.52 297.13C1113.24 296.285 1112.44 295.05 1112.1 293.426L1114.88 292.73C1115.14 293.758 1115.65 294.528 1116.38 295.042C1117.13 295.556 1118.1 295.812 1119.3 295.812C1120.67 295.812 1121.76 295.522 1122.56 294.942C1123.37 294.354 1123.78 293.65 1123.78 292.83C1123.78 292.167 1123.55 291.612 1123.08 291.164C1122.62 290.708 1121.91 290.369 1120.94 290.145L1117.76 289.399C1116.01 288.985 1114.73 288.343 1113.91 287.473C1113.1 286.594 1112.69 285.496 1112.69 284.179C1112.69 283.102 1112.99 282.149 1113.6 281.32C1114.21 280.492 1115.05 279.841 1116.1 279.369C1117.16 278.897 1118.36 278.661 1119.7 278.661C1121.59 278.661 1123.07 279.075 1124.15 279.903C1125.24 280.732 1126.01 281.826 1126.46 283.185ZM1144.75 283.185L1142.11 283.93C1141.95 283.491 1141.7 283.065 1141.38 282.65C1141.07 282.228 1140.64 281.88 1140.09 281.606C1139.54 281.333 1138.84 281.196 1137.99 281.196C1136.82 281.196 1135.85 281.465 1135.07 282.004C1134.3 282.534 1133.91 283.21 1133.91 284.03C1133.91 284.759 1134.18 285.335 1134.71 285.757C1135.24 286.18 1136.07 286.532 1137.19 286.814L1140.03 287.51C1141.73 287.924 1143.01 288.558 1143.84 289.412C1144.68 290.257 1145.1 291.346 1145.1 292.68C1145.1 293.774 1144.78 294.752 1144.15 295.614C1143.53 296.475 1142.66 297.155 1141.54 297.652C1140.42 298.149 1139.12 298.398 1137.64 298.398C1135.69 298.398 1134.08 297.975 1132.81 297.13C1131.53 296.285 1130.72 295.05 1130.38 293.426L1133.17 292.73C1133.43 293.758 1133.93 294.528 1134.67 295.042C1135.42 295.556 1136.39 295.812 1137.59 295.812C1138.96 295.812 1140.04 295.522 1140.85 294.942C1141.66 294.354 1142.06 293.65 1142.06 292.83C1142.06 292.167 1141.83 291.612 1141.37 291.164C1140.9 290.708 1140.19 290.369 1139.23 290.145L1136.05 289.399C1134.3 288.985 1133.02 288.343 1132.2 287.473C1131.38 286.594 1130.98 285.496 1130.98 284.179C1130.98 283.102 1131.28 282.149 1131.89 281.32C1132.5 280.492 1133.33 279.841 1134.38 279.369C1135.44 278.897 1136.65 278.661 1137.99 278.661C1139.88 278.661 1141.36 279.075 1142.44 279.903C1143.52 280.732 1144.29 281.826 1144.75 283.185ZM1155.13 298.447C1153.92 298.447 1152.82 298.22 1151.84 297.764C1150.85 297.3 1150.07 296.633 1149.49 295.763C1148.91 294.884 1148.62 293.824 1148.62 292.581C1148.62 291.487 1148.83 290.601 1149.26 289.921C1149.7 289.233 1150.27 288.695 1150.99 288.305C1151.71 287.916 1152.51 287.626 1153.38 287.435C1154.26 287.237 1155.14 287.079 1156.03 286.963C1157.19 286.814 1158.13 286.702 1158.85 286.627C1159.58 286.545 1160.11 286.408 1160.44 286.217C1160.78 286.027 1160.95 285.695 1160.95 285.223V285.124C1160.95 283.897 1160.61 282.944 1159.94 282.265C1159.28 281.585 1158.27 281.246 1156.92 281.246C1155.52 281.246 1154.42 281.552 1153.63 282.165C1152.83 282.779 1152.27 283.433 1151.95 284.129L1149.16 283.135C1149.66 281.975 1150.32 281.072 1151.15 280.425C1151.99 279.771 1152.9 279.315 1153.89 279.058C1154.88 278.793 1155.86 278.661 1156.82 278.661C1157.43 278.661 1158.14 278.735 1158.93 278.884C1159.74 279.025 1160.51 279.319 1161.26 279.767C1162.01 280.214 1162.64 280.889 1163.13 281.793C1163.63 282.696 1163.88 283.906 1163.88 285.422V298H1160.95V295.415H1160.8C1160.6 295.829 1160.27 296.272 1159.8 296.745C1159.34 297.217 1158.72 297.619 1157.95 297.95C1157.18 298.282 1156.24 298.447 1155.13 298.447ZM1155.58 295.812C1156.74 295.812 1157.72 295.585 1158.51 295.129C1159.32 294.673 1159.92 294.085 1160.33 293.364C1160.74 292.643 1160.95 291.885 1160.95 291.089V288.405C1160.82 288.554 1160.55 288.691 1160.13 288.815C1159.71 288.931 1159.23 289.035 1158.69 289.126C1158.15 289.209 1157.62 289.283 1157.11 289.349C1156.6 289.407 1156.19 289.457 1155.88 289.499C1155.11 289.598 1154.4 289.76 1153.74 289.983C1153.08 290.199 1152.55 290.526 1152.15 290.965C1151.75 291.396 1151.55 291.984 1151.55 292.73C1151.55 293.749 1151.93 294.52 1152.68 295.042C1153.44 295.556 1154.41 295.812 1155.58 295.812ZM1176.94 305.557C1175.52 305.557 1174.31 305.375 1173.29 305.01C1172.27 304.654 1171.42 304.181 1170.74 303.593C1170.07 303.013 1169.53 302.392 1169.14 301.729L1171.47 300.088C1171.74 300.436 1172.07 300.834 1172.48 301.281C1172.88 301.737 1173.44 302.131 1174.14 302.462C1174.86 302.802 1175.79 302.972 1176.94 302.972C1178.48 302.972 1179.75 302.599 1180.76 301.853C1181.76 301.107 1182.26 299.939 1182.26 298.348V294.47H1182.01C1181.8 294.818 1181.49 295.249 1181.09 295.763C1180.7 296.268 1180.14 296.72 1179.4 297.118C1178.67 297.507 1177.69 297.702 1176.44 297.702C1174.9 297.702 1173.52 297.337 1172.29 296.608C1171.07 295.879 1170.11 294.818 1169.4 293.426C1168.69 292.034 1168.34 290.344 1168.34 288.355C1168.34 286.4 1168.68 284.697 1169.37 283.247C1170.06 281.788 1171.02 280.662 1172.24 279.866C1173.47 279.062 1174.89 278.661 1176.49 278.661C1177.74 278.661 1178.72 278.868 1179.45 279.282C1180.19 279.688 1180.75 280.152 1181.14 280.674C1181.54 281.188 1181.85 281.61 1182.06 281.942H1182.36V278.909H1185.19V298.547C1185.19 300.188 1184.82 301.522 1184.07 302.549C1183.34 303.585 1182.34 304.343 1181.09 304.824C1179.85 305.312 1178.47 305.557 1176.94 305.557ZM1176.84 295.067C1178.02 295.067 1179.01 294.797 1179.82 294.259C1180.64 293.72 1181.25 292.946 1181.68 291.935C1182.1 290.924 1182.31 289.714 1182.31 288.305C1182.31 286.93 1182.1 285.716 1181.69 284.664C1181.27 283.611 1180.66 282.787 1179.85 282.19C1179.04 281.594 1178.03 281.295 1176.84 281.295C1175.6 281.295 1174.56 281.61 1173.73 282.24C1172.91 282.87 1172.3 283.715 1171.88 284.776C1171.48 285.836 1171.27 287.013 1171.27 288.305C1171.27 289.631 1171.48 290.804 1171.89 291.823C1172.32 292.834 1172.94 293.629 1173.76 294.209C1174.59 294.781 1175.61 295.067 1176.84 295.067ZM1198.57 298.398C1196.73 298.398 1195.14 297.992 1193.81 297.18C1192.48 296.359 1191.46 295.216 1190.74 293.749C1190.02 292.274 1189.67 290.559 1189.67 288.604C1189.67 286.648 1190.02 284.925 1190.74 283.433C1191.46 281.933 1192.46 280.765 1193.74 279.928C1195.04 279.083 1196.55 278.661 1198.27 278.661C1199.26 278.661 1200.24 278.826 1201.21 279.158C1202.18 279.489 1203.07 280.028 1203.86 280.773C1204.66 281.511 1205.29 282.489 1205.76 283.707C1206.24 284.925 1206.47 286.424 1206.47 288.206V289.449H1191.76V286.913H1203.49C1203.49 285.836 1203.27 284.875 1202.84 284.03C1202.42 283.185 1201.81 282.518 1201.03 282.029C1200.25 281.54 1199.33 281.295 1198.27 281.295C1197.1 281.295 1196.09 281.585 1195.24 282.165C1194.39 282.737 1193.74 283.483 1193.28 284.403C1192.83 285.322 1192.6 286.308 1192.6 287.361V289.051C1192.6 290.493 1192.85 291.715 1193.35 292.718C1193.85 293.712 1194.55 294.47 1195.45 294.992C1196.34 295.506 1197.38 295.763 1198.57 295.763C1199.34 295.763 1200.03 295.655 1200.65 295.44C1201.28 295.216 1201.83 294.884 1202.28 294.445C1202.74 293.998 1203.09 293.443 1203.34 292.78L1206.17 293.575C1205.88 294.536 1205.37 295.382 1204.67 296.111C1203.97 296.832 1203.1 297.395 1202.06 297.801C1201.02 298.199 1199.86 298.398 1198.57 298.398ZM1224.46 283.185L1221.82 283.93C1221.66 283.491 1221.41 283.065 1221.09 282.65C1220.77 282.228 1220.34 281.88 1219.8 281.606C1219.25 281.333 1218.55 281.196 1217.7 281.196C1216.53 281.196 1215.55 281.465 1214.77 282.004C1214 282.534 1213.62 283.21 1213.62 284.03C1213.62 284.759 1213.88 285.335 1214.41 285.757C1214.94 286.18 1215.77 286.532 1216.9 286.814L1219.73 287.51C1221.44 287.924 1222.71 288.558 1223.55 289.412C1224.39 290.257 1224.8 291.346 1224.8 292.68C1224.8 293.774 1224.49 294.752 1223.86 295.614C1223.24 296.475 1222.37 297.155 1221.25 297.652C1220.13 298.149 1218.83 298.398 1217.35 298.398C1215.4 298.398 1213.79 297.975 1212.51 297.13C1211.24 296.285 1210.43 295.05 1210.09 293.426L1212.87 292.73C1213.14 293.758 1213.64 294.528 1214.38 295.042C1215.12 295.556 1216.1 295.812 1217.3 295.812C1218.66 295.812 1219.75 295.522 1220.55 294.942C1221.37 294.354 1221.77 293.65 1221.77 292.83C1221.77 292.167 1221.54 291.612 1221.08 291.164C1220.61 290.708 1219.9 290.369 1218.94 290.145L1215.76 289.399C1214.01 288.985 1212.72 288.343 1211.9 287.473C1211.09 286.594 1210.69 285.496 1210.69 284.179C1210.69 283.102 1210.99 282.149 1211.59 281.32C1212.21 280.492 1213.04 279.841 1214.09 279.369C1215.15 278.897 1216.35 278.661 1217.7 278.661C1219.58 278.661 1221.07 279.075 1222.14 279.903C1223.23 280.732 1224 281.826 1224.46 283.185Z" fill="black"/>
<defs>
<clipPath id="clip0_218_280">
<rect width="895" height="473.025" fill="white"/>
</clipPath>
</defs>
</svg>
