<svg width="1792" height="1792" viewBox="0 0 1792 1792" fill="none" xmlns="http://www.w3.org/2000/svg">
<circle cx="896" cy="896" r="896" fill="#6166E4"/>
<g clip-path="url(#clip0_215_318)">
<path d="M653.407 314.674C642.6 258.679 659.615 194.975 706.906 161.081C704.226 222.973 724.246 283.789 763.424 332.767C778.604 351.603 797.514 371.023 796.926 394.907C796.561 409.768 788.259 423.613 777.319 434.043C766.377 444.473 752.9 451.993 739.584 459.396L737.511 462.517C698.476 419.892 664.214 370.67 653.407 314.674Z" fill="#F0F0F0"/>
<path d="M707.768 161.937C687.899 204.985 682.547 253 692.47 299.161C694.425 309.135 697.991 318.749 703.037 327.648C708.242 336.163 715.708 343.174 724.658 347.951C732.911 352.567 741.905 356.364 748.855 362.843C752.362 366.21 755.094 370.257 756.872 374.718C758.649 379.179 759.433 383.953 759.171 388.728C758.839 400.642 754.104 411.73 749.084 422.417C743.511 434.282 737.528 446.522 737.889 459.862C737.933 461.479 735.34 461.45 735.296 459.836C734.667 436.626 752 417.985 755.863 395.714C757.665 385.322 756.243 374.342 748.696 366.286C742.097 359.242 732.825 355.319 724.427 350.715C715.625 346.178 708.105 339.624 702.522 331.625C697.024 323.004 693.082 313.539 690.863 303.637C685.502 281.421 683.783 258.527 685.768 235.794C687.885 209.837 694.573 184.421 705.542 160.647C706.222 159.176 708.443 160.475 707.768 161.937L707.768 161.937Z" fill="white"/>
<path d="M688.371 284.48C680.145 285.04 671.981 282.752 665.337 278.023C658.693 273.294 654.002 266.433 652.101 258.664C651.722 257.091 654.229 256.447 654.609 258.022C656.365 265.259 660.736 271.65 666.932 276.041C673.128 280.433 680.742 282.535 688.398 281.969C690.062 281.848 690.026 284.359 688.371 284.48Z" fill="white"/>
<path d="M720.155 346.144C731.322 333.918 737.32 318.068 736.951 301.752C736.913 300.136 739.506 300.164 739.544 301.778C739.895 318.757 733.619 335.24 721.97 347.937C720.859 349.147 719.05 347.346 720.155 346.144V346.144Z" fill="white"/>
<path d="M690.923 211.396C694.153 211.821 697.441 211.463 700.492 210.354C703.543 209.245 706.262 207.419 708.405 205.042C709.5 203.819 711.307 205.621 710.219 206.835C707.839 209.452 704.834 211.464 701.466 212.697C698.097 213.929 694.468 214.345 690.896 213.906C690.556 213.892 690.234 213.753 689.995 213.518C689.757 213.282 689.62 212.967 689.613 212.638C689.618 212.305 689.759 211.988 690.004 211.756C690.249 211.523 690.58 211.394 690.923 211.396V211.396Z" fill="white"/>
<path d="M900.302 207.397C899.64 208.18 898.979 208.962 898.324 209.765C889.49 220.325 881.558 231.563 874.604 243.367C874.051 244.271 873.506 245.196 872.981 246.113C856.542 274.725 845.732 306.043 841.102 338.474C839.272 351.381 838.459 364.404 838.669 377.431C838.962 395.421 840.757 414.904 835.061 431.45C834.487 433.182 833.802 434.879 833.011 436.53L741.605 464.723C741.364 464.686 741.129 464.67 740.887 464.633L737.291 465.92C737.231 465.249 737.185 464.552 737.125 463.881C737.089 463.492 737.074 463.096 737.037 462.707C737.02 462.446 737.003 462.184 736.972 461.949C736.966 461.862 736.96 461.775 736.961 461.708C736.929 461.473 736.926 461.252 736.901 461.037C736.63 457.14 736.378 453.237 736.169 449.321C736.163 449.3 736.163 449.3 736.176 449.274C734.607 419.446 735.597 389.23 741.292 360.12C741.464 359.244 741.628 358.348 741.841 357.46C744.484 344.352 748.229 331.475 753.038 318.958C755.694 312.112 758.707 305.401 762.064 298.85C770.772 281.94 782.174 266.461 795.851 252.98C823.12 226.111 858.962 207.984 897.367 207.413C898.349 207.399 899.312 207.391 900.302 207.397Z" fill="#F0F0F0"/>
<path d="M900.466 208.584C857.83 231.375 823.695 266.592 802.911 309.234C798.268 318.336 795.136 328.091 793.631 338.138C792.492 347.97 794.093 357.919 798.268 366.95C801.987 375.447 806.807 383.721 808.327 392.944C809.032 397.677 808.697 402.5 807.342 407.098C805.987 411.696 803.644 415.965 800.465 419.625C792.79 428.944 782.114 435.037 771.46 440.644C759.63 446.87 747.242 453.155 739.234 464.017C738.263 465.333 736.211 463.799 737.179 462.485C751.112 443.586 776.544 438.806 793.478 423.275C801.38 416.028 807.074 406.432 806.058 395.601C805.17 386.13 800.207 377.594 796.365 369.023C792.158 360.27 790.23 350.654 790.747 341.013C791.719 330.925 794.457 321.07 798.844 311.871C808.38 291.008 821.245 271.726 836.968 254.732C854.801 235.24 875.947 218.845 899.491 206.257C900.949 205.478 901.914 207.811 900.466 208.584V208.584Z" fill="white"/>
<path d="M808.768 295.122C801.852 290.775 796.756 284.189 794.392 276.541C792.028 268.893 792.55 260.68 795.863 253.369C796.539 251.892 798.942 252.839 798.265 254.318C795.166 261.12 794.682 268.771 796.898 275.888C799.114 283.006 803.886 289.122 810.351 293.133C811.755 294.007 810.164 295.99 808.768 295.122V295.122Z" fill="white"/>
<path d="M795.797 362.883C812.316 359.631 826.962 350.47 836.815 337.228C837.79 335.915 839.843 337.45 838.869 338.761C828.589 352.522 813.328 362.025 796.13 365.373C794.49 365.691 794.166 363.199 795.797 362.883V362.883Z" fill="white"/>
<path d="M856.257 238.256C858.572 240.478 861.419 242.108 864.546 243.001C867.672 243.894 870.978 244.022 874.167 243.372C875.802 243.034 876.124 245.526 874.5 245.862C870.973 246.564 867.322 246.419 863.866 245.439C860.41 244.46 857.254 242.677 854.674 240.244C854.411 240.035 854.241 239.736 854.197 239.409C854.153 239.082 854.24 238.751 854.439 238.484C854.65 238.222 854.959 238.05 855.3 238.008C855.64 237.965 855.984 238.054 856.257 238.256V238.256Z" fill="white"/>
<path d="M1175.17 584.479C1175.41 585.506 1175.57 586.549 1175.64 587.599L1260.07 634.749L1280.59 623.312L1302.46 651.037L1268.17 674.7C1265.4 676.612 1262.06 677.602 1258.66 677.522C1255.26 677.441 1251.98 676.295 1249.3 674.255L1162.25 607.769C1158.32 609.177 1154.04 609.393 1149.98 608.39C1145.93 607.386 1142.28 605.21 1139.53 602.151C1136.78 599.092 1135.05 595.294 1134.59 591.264C1134.12 587.234 1134.93 583.161 1136.92 579.589C1138.9 576.016 1141.96 573.112 1145.69 571.263C1149.41 569.415 1153.64 568.709 1157.79 569.24C1161.94 569.771 1165.83 571.513 1168.94 574.235C1172.04 576.958 1174.22 580.531 1175.17 584.479V584.479Z" fill="#FFB6B6"/>
<path d="M1261.24 629.543C1261.51 628.34 1262.04 627.208 1262.8 626.222C1263.56 625.237 1264.53 624.422 1265.65 623.834L1304.63 603.275C1309.82 599.482 1316.35 597.837 1322.79 598.701C1329.23 599.564 1335.06 602.865 1338.99 607.88C1342.92 612.895 1344.63 619.214 1343.76 625.453C1342.88 631.691 1339.49 637.339 1334.32 641.157L1303.08 671.879C1302.19 672.756 1301.11 673.436 1299.92 673.874C1298.74 674.312 1297.47 674.497 1296.2 674.416C1294.93 674.335 1293.69 673.991 1292.58 673.406C1291.46 672.822 1290.48 672.01 1289.72 671.028L1262.82 636.506C1262.06 635.524 1261.52 634.394 1261.24 633.192C1260.97 631.99 1260.97 630.745 1261.24 629.543V629.543Z" fill="#3F3D56"/>
<path d="M1329.11 511.69C1334.72 494.388 1347.47 478.519 1365.11 472.67C1382.74 466.821 1408.57 475.731 1421.83 488.524C1446.08 511.925 1446.83 540.572 1430.17 565.977C1426.85 565.807 1415.41 565.681 1412.06 565.56L1407.31 550.248V565.409C1381.13 564.625 1353.87 565.116 1326.6 565.623C1324.15 547.636 1323.5 528.992 1329.11 511.69Z" fill="#2F2E41"/>
<path d="M1323.37 1236.27H1299.49L1288.12 1147.09L1323.37 1147.09L1323.37 1236.27Z" fill="#FFB6B6"/>
<path d="M1470.55 1236.27H1446.67L1435.31 1147.09L1470.56 1147.09L1470.55 1236.27Z" fill="#FFB6B6"/>
<path d="M1400.82 688.548L1406.23 702.169L1405.15 715.791L1299.24 751.302L1304.5 691.693L1316.4 678.072L1400.82 688.548Z" fill="#FFB6B6"/>
<path d="M1367.34 565.978C1388.23 565.978 1405.16 549.583 1405.16 529.359C1405.16 509.135 1388.23 492.74 1367.34 492.74C1346.44 492.74 1329.51 509.135 1329.51 529.359C1329.51 549.583 1346.44 565.978 1367.34 565.978Z" fill="#FFB7B7"/>
<path d="M1424.53 751.048V774.321C1424.53 774.321 1452.67 809.721 1437.52 836.962L1480.93 1199.49H1435.48L1359.6 893.54L1327.25 1193.21H1288.29L1283.65 954.876C1282.42 892.187 1293.24 829.824 1315.53 770.955V770.955L1424.53 751.048Z" fill="#2F2E41"/>
<path d="M1341.34 481.675C1348.61 477.386 1356.94 475.065 1365.45 474.957C1373.96 474.848 1382.34 476.955 1389.73 481.058C1397.11 485.16 1403.22 491.107 1407.41 498.277C1411.61 505.447 1413.74 513.577 1413.58 521.816C1392.43 522.757 1370.22 523.002 1347.7 523.045L1342.38 510.434L1339.24 523.054C1332.38 523.053 1325.5 523.045 1318.61 523.028C1318.33 514.812 1320.28 506.669 1324.27 499.412C1328.26 492.155 1334.15 486.039 1341.34 481.675V481.675Z" fill="#2F2E41"/>
<path d="M1334.05 1280.17H1317.1L1314.08 1264.68L1306.33 1280.17H1261.39C1259.23 1280.17 1257.13 1279.5 1255.4 1278.27C1253.66 1277.03 1252.38 1275.29 1251.74 1273.3C1251.1 1271.31 1251.13 1269.17 1251.83 1267.2C1252.54 1265.23 1253.87 1263.52 1255.65 1262.34L1291.54 1238.34V1222.68L1329.29 1224.86L1334.05 1280.17Z" fill="#2F2E41"/>
<path d="M1483.4 1280.17H1466.46L1463.43 1264.68L1455.68 1280.17H1410.74C1408.58 1280.17 1406.49 1279.5 1404.75 1278.27C1403.02 1277.03 1401.73 1275.29 1401.09 1273.3C1400.45 1271.31 1400.48 1269.17 1401.19 1267.2C1401.89 1265.23 1403.23 1263.52 1405 1262.34L1440.89 1238.34V1222.68L1478.64 1224.86L1483.4 1280.17Z" fill="#2F2E41"/>
<path d="M1441.74 825.688C1443.84 797.719 1441.68 769.602 1435.31 742.244C1427.28 707.717 1417.07 663.784 1416.87 662.648C1416.87 662.626 1416.87 662.604 1416.87 662.581L1413.75 598.227C1413.75 598.041 1413.66 597.864 1413.53 597.733C1413.39 597.602 1413.21 597.525 1413.01 597.519L1391.49 596.819C1391.29 596.812 1391.1 596.731 1390.96 596.592C1390.83 596.454 1390.75 596.268 1390.75 596.075V596.075C1390.75 594.523 1390.43 592.986 1389.82 591.552C1389.21 590.118 1388.31 588.815 1387.17 587.717C1386.04 586.62 1384.69 585.749 1383.21 585.155C1381.73 584.561 1380.14 584.255 1378.54 584.255H1335.55C1332.77 584.256 1330.08 585.241 1327.99 587.025C1325.91 588.809 1324.56 591.268 1324.22 593.943C1324.2 594.127 1324.11 594.297 1323.96 594.42C1323.82 594.542 1323.63 594.608 1323.44 594.604L1306.72 594.06C1306.55 594.054 1306.38 594.102 1306.25 594.196C1306.11 594.29 1306.01 594.425 1305.96 594.58L1304.79 598.158C1287.91 650.801 1283.22 706.4 1291.06 760.997C1293.09 775.525 1292.17 797.371 1291.4 809.542C1291.33 810.731 1291.5 811.924 1291.9 813.051C1292.3 814.178 1292.93 815.217 1293.74 816.108C1294.56 817 1295.55 817.726 1296.66 818.245C1297.77 818.764 1298.97 819.067 1300.2 819.135C1331.3 820.867 1419.34 862.108 1440.42 842.418C1440.47 842.371 1441.03 835.107 1441.74 825.688Z" fill="#3F3D56"/>
<path d="M1269.29 584.479C1269.53 585.506 1269.69 586.549 1269.76 587.599L1354.19 634.749L1374.71 623.312L1396.58 651.037L1362.29 674.7C1359.52 676.612 1356.18 677.602 1352.78 677.522C1349.38 677.441 1346.09 676.295 1343.42 674.255L1256.37 607.769C1252.44 609.177 1248.16 609.393 1244.1 608.39C1240.04 607.386 1236.4 605.21 1233.65 602.151C1230.9 599.092 1229.17 595.294 1228.71 591.264C1228.24 587.234 1229.05 583.161 1231.03 579.589C1233.02 576.016 1236.08 573.112 1239.8 571.263C1243.53 569.415 1247.76 568.709 1251.91 569.24C1256.06 569.771 1259.95 571.513 1263.05 574.235C1266.16 576.958 1268.34 580.531 1269.29 584.479V584.479Z" fill="#FFB6B6"/>
<path d="M1355.36 629.543C1355.63 628.34 1356.16 627.208 1356.92 626.222C1357.68 625.237 1358.65 624.422 1359.77 623.834L1398.74 603.275C1403.94 599.484 1410.47 597.84 1416.91 598.704C1423.35 599.568 1429.17 602.869 1433.1 607.883C1437.03 612.897 1438.75 619.216 1437.87 625.453C1437 631.691 1433.61 637.338 1428.44 641.157L1397.2 671.879C1396.31 672.756 1395.23 673.436 1394.04 673.874C1392.86 674.312 1391.58 674.497 1390.32 674.416C1389.05 674.335 1387.81 673.991 1386.7 673.406C1385.58 672.822 1384.6 672.011 1383.84 671.028L1356.94 636.506C1356.18 635.524 1355.64 634.394 1355.36 633.192C1355.09 631.99 1355.09 630.745 1355.36 629.543Z" fill="#3F3D56"/>
<path d="M322.494 1153.13C376.89 1153.13 420.988 1110.44 420.988 1057.78C420.988 1005.12 376.89 962.426 322.494 962.426C268.097 962.426 224 1005.12 224 1057.78C224 1110.44 268.097 1153.13 322.494 1153.13Z" fill="#F0F0F0"/>
<path d="M1192.86 726.897L479.087 1044.15C468.927 1048.65 457.337 1049.07 446.86 1045.31C436.383 1041.55 427.874 1033.92 423.2 1024.09L247.06 652.682C242.409 642.846 241.978 631.626 245.862 621.484C249.746 611.341 257.627 603.104 267.776 598.579L981.546 281.328C991.705 276.826 1003.3 276.409 1013.77 280.169C1024.25 283.929 1032.76 291.559 1037.43 301.384L1213.57 672.794C1218.22 682.629 1218.65 693.849 1214.77 703.992C1210.89 714.135 1203.01 722.372 1192.86 726.897V726.897Z" fill="white"/>
<path d="M279.648 623.613C276.351 625.082 273.791 627.758 272.529 631.053C271.267 634.349 271.407 637.994 272.918 641.189L449.059 1012.6C450.577 1015.79 453.342 1018.27 456.745 1019.49C460.149 1020.71 463.914 1020.58 467.215 1019.11L1180.98 701.863C1184.28 700.393 1186.84 697.717 1188.1 694.422C1189.36 691.127 1189.22 687.482 1187.71 684.287L1011.57 312.877C1010.05 309.685 1007.29 307.207 1003.89 305.985C1000.48 304.764 996.718 304.899 993.418 306.362L279.648 623.613Z" fill="#E4E4E4"/>
<path d="M1192.86 726.897L479.087 1044.15C468.927 1048.65 457.337 1049.07 446.86 1045.31C436.383 1041.55 427.874 1033.92 423.2 1024.09L247.06 652.682C242.409 642.846 241.978 631.626 245.862 621.484C249.746 611.341 257.627 603.104 267.776 598.579L981.546 281.328C991.705 276.826 1003.3 276.409 1013.77 280.169C1024.25 283.929 1032.76 291.559 1037.43 301.384L1213.57 672.794C1218.22 682.629 1218.65 693.849 1214.77 703.992C1210.89 714.135 1203.01 722.372 1192.86 726.897V726.897ZM269.603 602.43C260.507 606.485 253.445 613.867 249.965 622.956C246.484 632.045 246.87 642.1 251.038 650.914L427.179 1022.32C431.367 1031.13 438.992 1037.97 448.381 1041.34C457.77 1044.7 468.156 1044.33 477.26 1040.3L1191.03 723.045C1200.12 718.991 1207.19 711.609 1210.67 702.52C1214.15 693.431 1213.76 683.376 1209.59 674.562L1033.45 303.152C1029.27 294.347 1021.64 287.51 1012.25 284.141C1002.86 280.772 992.477 281.145 983.372 285.18L269.603 602.43Z" fill="#CACACA"/>
<path d="M1014.5 558.357L447.455 810.394C442.888 812.416 437.788 813.024 432.85 812.136C427.912 811.248 423.378 808.906 419.867 805.43L253.96 640.72C251.239 638.019 249.228 634.725 248.095 631.114C246.963 627.504 246.742 623.683 247.452 619.973C248.161 616.263 249.78 612.773 252.173 609.794C254.566 606.816 257.662 604.437 261.202 602.858L987.906 278.548C991.4 276.99 995.225 276.255 999.068 276.404C1002.91 276.553 1006.66 277.581 1010.02 279.404C1013.37 281.228 1016.23 283.794 1018.36 286.894C1020.49 289.993 1021.84 293.538 1022.28 297.236L1022.38 297.234L1028.68 536.336C1028.81 540.948 1027.53 545.494 1025.01 549.409C1022.49 553.324 1018.83 556.435 1014.5 558.357V558.357ZM989.764 282.385L263.034 606.707C260.131 608.002 257.591 609.953 255.628 612.396C253.666 614.839 252.338 617.702 251.756 620.745C251.174 623.787 251.355 626.921 252.284 629.882C253.213 632.843 254.862 635.545 257.094 637.761L423 802.471C425.88 805.322 429.599 807.243 433.649 807.971C437.699 808.7 441.883 808.201 445.629 806.542L1012.68 554.506C1016.23 552.93 1019.23 550.377 1021.29 547.166C1023.36 543.955 1024.41 540.227 1024.31 536.444L1018.06 299.461L1018.93 299.44L1018.06 299.461C1017.97 296.263 1017.07 293.135 1015.43 290.358C1013.79 287.581 1011.46 285.242 1008.66 283.549C1005.86 281.857 1002.66 280.865 999.363 280.662C996.065 280.458 992.767 281.051 989.764 282.385V282.385Z" fill="#CACACA"/>
<path d="M658.913 899.319L482.245 977.843C480.963 978.414 479.577 978.735 478.167 978.788C476.757 978.84 475.35 978.623 474.026 978.149C472.702 977.675 471.489 976.953 470.453 976.024C469.418 975.095 468.583 973.978 467.994 972.736C467.405 971.495 467.075 970.153 467.022 968.788C466.969 967.422 467.194 966.06 467.686 964.78C468.177 963.499 468.924 962.324 469.884 961.323C470.845 960.322 471.999 959.514 473.282 958.945L649.951 880.421C652.539 879.273 655.492 879.168 658.16 880.127C660.829 881.086 662.995 883.031 664.183 885.536C665.371 888.04 665.483 890.899 664.495 893.483C663.506 896.068 661.499 898.167 658.913 899.319V899.319Z" fill="white"/>
<path d="M788.159 656.629C791.192 663.008 792.897 669.903 793.175 676.92C793.454 683.937 792.301 690.938 789.784 697.523C787.266 704.109 783.432 710.149 778.501 715.299C773.57 720.449 767.639 724.608 761.047 727.538C754.456 730.468 747.332 732.112 740.083 732.375C732.835 732.638 725.604 731.515 718.804 729.072C712.004 726.628 705.768 722.91 700.453 718.132C695.138 713.354 690.847 707.608 687.827 701.224" fill="#CACACA"/>
<path d="M1186.49 1232.08H401.088C389.915 1232.06 379.202 1227.76 371.301 1220.11C363.4 1212.46 358.956 1202.09 358.943 1191.28V782.591C358.956 771.774 363.4 761.403 371.301 753.754C379.202 746.105 389.915 741.803 401.088 741.79H1186.49C1197.66 741.803 1208.38 746.105 1216.28 753.754C1224.18 761.403 1228.62 771.774 1228.64 782.591V1191.28C1228.62 1202.09 1224.18 1212.46 1216.28 1220.11C1208.38 1227.76 1197.66 1232.06 1186.49 1232.08Z" fill="white"/>
<path d="M1186.49 1232.08H401.088C389.915 1232.06 379.202 1227.76 371.301 1220.11C363.4 1212.46 358.956 1202.09 358.943 1191.28V782.591C358.956 771.774 363.4 761.403 371.301 753.754C379.202 746.105 389.915 741.803 401.088 741.79H1186.49C1197.66 741.803 1208.38 746.105 1216.28 753.754C1224.18 761.403 1228.62 771.774 1228.64 782.591V1191.28C1228.62 1202.09 1224.18 1212.46 1216.28 1220.11C1208.38 1227.76 1197.66 1232.06 1186.49 1232.08ZM401.088 746.028C391.075 746.039 381.475 749.895 374.395 756.749C367.315 763.604 363.332 772.897 363.321 782.591V1191.28C363.332 1200.97 367.315 1210.26 374.395 1217.12C381.475 1223.97 391.075 1227.83 401.088 1227.84H1186.49C1196.5 1227.83 1206.1 1223.97 1213.18 1217.12C1220.26 1210.26 1224.25 1200.97 1224.26 1191.28V782.591C1224.25 772.897 1220.26 763.604 1213.18 756.749C1206.1 749.895 1196.5 746.039 1186.49 746.028H401.088Z" fill="#3F3D56"/>
<path d="M401.088 769.336C397.458 769.34 393.978 770.738 391.412 773.223C388.845 775.708 387.401 779.077 387.397 782.591V1191.28C387.401 1194.79 388.845 1198.16 391.412 1200.64C393.978 1203.13 397.458 1204.53 401.088 1204.53H1186.49C1190.12 1204.53 1193.6 1203.13 1196.17 1200.64C1198.73 1198.16 1200.18 1194.79 1200.18 1191.28V782.591C1200.18 779.077 1198.73 775.708 1196.17 773.223C1193.6 770.738 1190.12 769.34 1186.49 769.336H401.088Z" fill="#BBBBE4"/>
<path d="M1097.04 1006.86H473.089C468.067 1006.86 463.169 1005.35 459.065 1002.55C454.96 999.747 451.849 995.787 450.156 991.21L370.37 774.508C369.061 770.953 368.653 767.147 369.18 763.409C369.707 759.67 371.153 756.109 373.397 753.024C375.641 749.939 378.617 747.42 382.075 745.68C385.533 743.94 389.372 743.029 393.27 743.024L1193.47 741.833C1197.32 741.828 1201.11 742.705 1204.54 744.393C1207.97 746.081 1210.93 748.531 1213.2 751.543C1215.46 754.554 1216.95 758.042 1217.55 761.72C1218.15 765.398 1217.85 769.161 1216.66 772.702L1216.75 772.739L1119.42 992.581C1117.55 996.822 1114.43 1000.44 1110.45 1002.98C1106.47 1005.52 1101.81 1006.87 1097.04 1006.86V1006.86ZM1193.5 746.071L393.275 747.261C390.079 747.266 386.93 748.013 384.094 749.44C381.257 750.868 378.816 752.933 376.976 755.463C375.136 757.994 373.95 760.915 373.518 763.981C373.086 767.047 373.42 770.169 374.493 773.084L454.279 989.786C455.668 993.54 458.219 996.788 461.586 999.087C464.952 1001.38 468.97 1002.62 473.089 1002.63H1097.04C1100.95 1002.63 1104.78 1001.52 1108.04 999.438C1111.3 997.355 1113.86 994.39 1115.4 990.911L1211.86 773.018L1212.66 773.352L1211.86 773.018C1213.16 770.077 1213.69 766.87 1213.39 763.684C1213.1 760.497 1211.99 757.432 1210.17 754.761C1208.36 752.09 1205.88 749.898 1202.97 748.382C1200.06 746.865 1196.81 746.071 1193.5 746.071V746.071Z" fill="#3F3D56"/>
<path d="M626.934 1173.09H432.535C429.687 1173.09 426.955 1172 424.941 1170.05C422.927 1168.1 421.795 1165.45 421.795 1162.7C421.795 1159.94 422.927 1157.29 424.941 1155.35C426.955 1153.4 429.687 1152.3 432.535 1152.3H626.934C629.782 1152.3 632.514 1153.4 634.528 1155.35C636.542 1157.29 637.674 1159.94 637.674 1162.7C637.674 1165.45 636.542 1168.1 634.528 1170.05C632.514 1172 629.782 1173.09 626.934 1173.09V1173.09Z" fill="white"/>
<path d="M848.991 1004.75C848.991 1018.92 843.175 1032.51 832.823 1042.53C822.47 1052.56 808.43 1058.19 793.79 1058.19C779.149 1058.19 765.109 1052.56 754.757 1042.53C744.405 1032.51 738.589 1018.92 738.589 1004.75" fill="#3F3D56"/>
<path d="M499.782 390.317C510.662 390.317 519.481 381.779 519.481 371.247C519.481 360.715 510.662 352.177 499.782 352.177C488.903 352.177 480.084 360.715 480.084 371.247C480.084 381.779 488.903 390.317 499.782 390.317Z" fill="#F0F0F0"/>
<path d="M243.699 848.004C254.578 848.004 263.398 839.466 263.398 828.934C263.398 818.402 254.578 809.864 243.699 809.864C232.819 809.864 224 818.402 224 828.934C224 839.466 232.819 848.004 243.699 848.004Z" fill="#F0F0F0"/>
<path d="M1228.64 489.907C1239.52 489.907 1248.34 481.368 1248.34 470.836C1248.34 460.304 1239.52 451.766 1228.64 451.766C1217.76 451.766 1208.94 460.304 1208.94 470.836C1208.94 481.368 1217.76 489.907 1228.64 489.907Z" fill="#F0F0F0"/>
<path d="M1565.83 1280.17H1190.91C1190.22 1280.17 1189.55 1279.9 1189.06 1279.43C1188.58 1278.96 1188.3 1278.31 1188.3 1277.65C1188.3 1276.98 1188.58 1276.33 1189.06 1275.86C1189.55 1275.39 1190.22 1275.12 1190.91 1275.12H1565.83C1566.52 1275.12 1567.18 1275.39 1567.67 1275.86C1568.15 1276.34 1568.43 1276.98 1568.43 1277.65C1568.43 1278.31 1568.15 1278.95 1567.67 1279.43C1567.18 1279.9 1566.52 1280.17 1565.83 1280.17V1280.17Z" fill="#CACACA"/>
</g>
<path d="M544.5 1378C544.5 1374.83 545.583 1372.25 547.75 1370.25C550.083 1368.08 553 1367 556.5 1367H629.5C640.5 1367 650.25 1369.33 658.75 1374C667.25 1378.5 673.833 1384.92 678.5 1393.25C683.167 1401.42 685.5 1410.83 685.5 1421.5C685.5 1432.5 683.167 1442.17 678.5 1450.5C674 1458.83 667.5 1465.25 659 1469.75C650.5 1474.25 640.667 1476.5 629.5 1476.5H568V1524.75C568 1531.08 566 1535.92 562 1539.25C558 1542.58 552.167 1544.25 544.5 1544.25V1378ZM629.5 1455.75C639.5 1455.75 647.417 1452.75 653.25 1446.75C659.083 1440.58 662 1432.17 662 1421.5C662 1411.17 659 1403 653 1397C647.167 1390.83 639.333 1387.75 629.5 1387.75H568V1455.75H629.5ZM714.178 1384.25C714.178 1378.08 716.261 1373.33 720.428 1370C724.594 1366.5 730.344 1364.75 737.678 1364.75L798.178 1510L793.428 1521.75L795.178 1522.5L859.178 1364.75C866.511 1364.75 872.261 1366.5 876.428 1370C880.761 1373.5 882.928 1378.33 882.928 1384.5V1544.25C867.428 1544.25 859.678 1537.83 859.678 1525V1419.75L866.178 1402.5L864.178 1402L808.428 1537.5C807.594 1539.5 806.261 1541.08 804.428 1542.25C802.594 1543.58 800.678 1544.25 798.678 1544.25C796.511 1544.25 794.511 1543.67 792.678 1542.5C790.844 1541.33 789.511 1539.67 788.678 1537.5L732.928 1401.75L730.928 1402.5L737.428 1419.5V1525C737.428 1531.33 735.428 1536.17 731.428 1539.5C727.594 1542.67 721.844 1544.25 714.178 1544.25V1384.25ZM918.035 1384.25C918.035 1378.08 920.118 1373.33 924.285 1370C928.452 1366.5 934.202 1364.75 941.535 1364.75L1002.04 1510L997.285 1521.75L999.035 1522.5L1063.04 1364.75C1070.37 1364.75 1076.12 1366.5 1080.29 1370C1084.62 1373.5 1086.79 1378.33 1086.79 1384.5V1544.25C1071.29 1544.25 1063.54 1537.83 1063.54 1525V1419.75L1070.04 1402.5L1068.04 1402L1012.29 1537.5C1011.45 1539.5 1010.12 1541.08 1008.29 1542.25C1006.45 1543.58 1004.54 1544.25 1002.54 1544.25C1000.37 1544.25 998.368 1543.67 996.535 1542.5C994.702 1541.33 993.368 1539.67 992.535 1537.5L936.785 1401.75L934.785 1402.5L941.285 1419.5V1525C941.285 1531.33 939.285 1536.17 935.285 1539.5C931.452 1542.67 925.702 1544.25 918.035 1544.25V1384.25ZM1184.39 1544.25C1170.39 1544.25 1158.23 1542.25 1147.89 1538.25C1137.73 1534.25 1129.98 1528.92 1124.64 1522.25C1119.31 1515.58 1116.64 1508.42 1116.64 1500.75C1116.64 1494.42 1118.31 1489.58 1121.64 1486.25C1124.98 1482.75 1130.06 1481 1136.89 1481C1136.89 1495.17 1141.14 1506 1149.64 1513.5C1158.14 1520.83 1170.06 1524.5 1185.39 1524.5C1200.06 1524.5 1211.31 1522.08 1219.14 1517.25C1226.98 1512.25 1230.89 1504.92 1230.89 1495.25C1230.89 1489.42 1229.39 1484.67 1226.39 1481C1223.56 1477.17 1218.64 1473.92 1211.64 1471.25C1204.81 1468.42 1194.89 1465.58 1181.89 1462.75C1166.56 1459.42 1154.39 1455.58 1145.39 1451.25C1136.39 1446.75 1129.81 1441.33 1125.64 1435C1121.48 1428.67 1119.39 1420.83 1119.39 1411.5C1119.39 1402.17 1121.98 1394 1127.14 1387C1132.48 1379.83 1139.98 1374.33 1149.64 1370.5C1159.31 1366.67 1170.56 1364.75 1183.39 1364.75C1195.56 1364.75 1206.39 1366.5 1215.89 1370C1225.56 1373.33 1233.06 1378.17 1238.39 1384.5C1243.89 1390.67 1246.64 1397.67 1246.64 1405.5C1246.64 1410.33 1245.06 1414.17 1241.89 1417C1238.89 1419.67 1234.14 1421 1227.64 1421C1225.81 1408.33 1221.31 1399.08 1214.14 1393.25C1207.14 1387.42 1196.89 1384.5 1183.39 1384.5C1170.39 1384.5 1160.39 1386.83 1153.39 1391.5C1146.39 1396 1142.89 1402.42 1142.89 1410.75C1142.89 1416.58 1144.14 1421.42 1146.64 1425.25C1149.31 1428.92 1153.73 1432.08 1159.89 1434.75C1166.23 1437.42 1175.06 1440 1186.39 1442.5C1203.39 1446.17 1216.73 1450.25 1226.39 1454.75C1236.23 1459.25 1243.31 1464.75 1247.64 1471.25C1251.98 1477.75 1254.14 1485.75 1254.14 1495.25C1254.14 1510.42 1247.81 1522.42 1235.14 1531.25C1222.48 1539.92 1205.56 1544.25 1184.39 1544.25Z" fill="white"/>
<defs>
<clipPath id="clip0_215_318">
<rect width="1344.43" height="1120.17" fill="white" transform="translate(224 160)"/>
</clipPath>
</defs>
</svg>
