<svg width="1512" height="982" viewBox="0 0 1512 982" fill="none" xmlns="http://www.w3.org/2000/svg">
<g clip-path="url(#clip0_202_174)">
<path d="M923.382 271.705C917.533 241.402 926.741 206.927 952.334 188.585C950.884 222.079 961.718 254.991 982.92 281.496C991.135 291.69 1001.37 302.199 1001.05 315.125C1000.85 323.167 996.36 330.659 990.439 336.304C984.518 341.948 977.225 346.018 970.018 350.024L968.897 351.713C947.772 328.646 929.231 302.008 923.382 271.705Z" fill="#F0F0F0"/>
<path d="M952.8 189.048C942.048 212.345 939.151 238.329 944.522 263.31C945.58 268.708 947.509 273.91 950.24 278.726C953.057 283.334 957.097 287.128 961.941 289.713C966.407 292.212 971.275 294.266 975.036 297.772C976.933 299.595 978.412 301.785 979.374 304.199C980.336 306.613 980.76 309.197 980.618 311.781C980.438 318.228 977.876 324.228 975.16 330.012C972.144 336.433 968.906 343.057 969.101 350.276C969.125 351.151 967.722 351.135 967.698 350.262C967.358 337.701 976.738 327.614 978.828 315.562C979.803 309.938 979.034 303.995 974.95 299.636C971.378 295.824 966.361 293.701 961.816 291.209C957.053 288.754 952.983 285.207 949.962 280.879C946.986 276.213 944.853 271.091 943.652 265.732C940.751 253.709 939.821 241.32 940.895 229.017C942.04 214.97 945.66 201.216 951.596 188.35C951.964 187.554 953.166 188.257 952.8 189.048L952.8 189.048Z" fill="white"/>
<path d="M942.304 255.365C937.852 255.668 933.434 254.429 929.838 251.87C926.243 249.311 923.704 245.598 922.675 241.394C922.47 240.543 923.827 240.194 924.032 241.047C924.983 244.963 927.348 248.422 930.701 250.798C934.054 253.174 938.175 254.312 942.318 254.006C943.219 253.94 943.199 255.299 942.304 255.365Z" fill="white"/>
<path d="M959.504 288.735C965.548 282.119 968.793 273.541 968.593 264.712C968.573 263.837 969.976 263.852 969.997 264.726C970.187 273.915 966.791 282.835 960.486 289.706C959.885 290.36 958.906 289.386 959.504 288.735Z" fill="white"/>
<path d="M943.684 215.814C945.432 216.044 947.212 215.85 948.863 215.25C950.514 214.65 951.986 213.662 953.145 212.375C953.738 211.714 954.716 212.689 954.127 213.346C952.839 214.762 951.213 215.851 949.39 216.518C947.567 217.185 945.603 217.41 943.67 217.172C943.486 217.165 943.311 217.09 943.182 216.962C943.053 216.835 942.979 216.664 942.975 216.486C942.978 216.306 943.054 216.135 943.187 216.009C943.32 215.883 943.499 215.813 943.684 215.814Z" fill="white"/>
<path d="M1056.99 213.65C1056.64 214.073 1056.28 214.497 1055.92 214.931C1051.14 220.646 1046.85 226.728 1043.09 233.116C1042.79 233.605 1042.49 234.105 1042.21 234.602C1033.31 250.086 1027.46 267.034 1024.96 284.585C1023.97 291.57 1023.53 298.617 1023.64 305.667C1023.8 315.403 1024.77 325.946 1021.69 334.9C1021.38 335.838 1021.01 336.756 1020.58 337.649L971.112 352.907C970.982 352.887 970.854 352.878 970.723 352.858L968.777 353.555C968.745 353.192 968.72 352.814 968.688 352.451C968.668 352.241 968.66 352.027 968.64 351.816C968.631 351.675 968.622 351.533 968.605 351.406C968.601 351.359 968.598 351.311 968.599 351.275C968.582 351.148 968.58 351.028 968.567 350.912C968.419 348.803 968.283 346.691 968.17 344.571C968.167 344.561 968.167 344.561 968.174 344.546C967.325 328.405 967.861 312.052 970.943 296.299C971.036 295.825 971.124 295.34 971.24 294.859C972.67 287.766 974.696 280.797 977.299 274.023C978.737 270.319 980.367 266.687 982.184 263.141C986.896 253.99 993.067 245.613 1000.47 238.318C1015.23 223.777 1034.62 213.968 1055.41 213.659C1055.94 213.651 1056.46 213.647 1056.99 213.65Z" fill="#F0F0F0"/>
<path d="M1057.08 214.292C1034.01 226.626 1015.54 245.685 1004.29 268.761C1001.78 273.687 1000.08 278.966 999.267 284.403C998.65 289.724 999.517 295.108 1001.78 299.995C1003.79 304.593 1006.4 309.071 1007.22 314.062C1007.6 316.623 1007.42 319.234 1006.69 321.722C1005.95 324.21 1004.69 326.521 1002.97 328.501C998.812 333.544 993.034 336.842 987.268 339.876C980.867 343.245 974.162 346.647 969.829 352.525C969.304 353.237 968.193 352.407 968.717 351.696C976.257 341.468 990.02 338.881 999.184 330.476C1003.46 326.554 1006.54 321.361 1005.99 315.5C1005.51 310.375 1002.83 305.755 1000.75 301.117C998.47 296.38 997.426 291.176 997.706 285.959C998.232 280.499 999.714 275.166 1002.09 270.188C1007.25 258.897 1014.21 248.463 1022.72 239.266C1032.37 228.718 1043.81 219.845 1056.56 213.033C1057.34 212.612 1057.87 213.874 1057.08 214.292Z" fill="white"/>
<path d="M1007.46 261.124C1003.72 258.771 1000.96 255.207 999.679 251.068C998.4 246.929 998.682 242.485 1000.47 238.529C1000.84 237.729 1002.14 238.242 1001.77 239.042C1000.1 242.723 999.836 246.863 1001.03 250.715C1002.23 254.567 1004.82 257.877 1008.32 260.048C1009.08 260.52 1008.21 261.594 1007.46 261.124Z" fill="white"/>
<path d="M1000.44 297.794C1009.38 296.034 1017.3 291.077 1022.64 283.91C1023.16 283.2 1024.28 284.03 1023.75 284.74C1018.19 292.187 1009.93 297.33 1000.62 299.141C999.732 299.314 999.556 297.965 1000.44 297.794V297.794Z" fill="white"/>
<path d="M1033.16 230.35C1034.41 231.552 1035.95 232.435 1037.64 232.918C1039.34 233.401 1041.12 233.47 1042.85 233.118C1043.74 232.935 1043.91 234.284 1043.03 234.466C1041.12 234.846 1039.15 234.767 1037.28 234.237C1035.41 233.707 1033.7 232.742 1032.3 231.426C1032.16 231.312 1032.07 231.151 1032.04 230.974C1032.02 230.797 1032.07 230.618 1032.17 230.473C1032.29 230.331 1032.46 230.238 1032.64 230.215C1032.82 230.192 1033.01 230.24 1033.16 230.35V230.35Z" fill="white"/>
<path d="M1205.75 417.715C1205.88 418.271 1205.96 418.835 1206 419.404L1251.69 444.92L1262.79 438.731L1274.63 453.734L1256.07 466.54C1254.57 467.575 1252.77 468.11 1250.93 468.067C1249.09 468.024 1247.31 467.403 1245.86 466.299L1198.75 430.319C1196.63 431.081 1194.31 431.198 1192.11 430.655C1189.92 430.112 1187.94 428.934 1186.46 427.279C1184.97 425.623 1184.04 423.568 1183.78 421.387C1183.53 419.206 1183.97 417.002 1185.04 415.069C1186.12 413.135 1187.77 411.564 1189.79 410.563C1191.81 409.563 1194.09 409.181 1196.34 409.468C1198.59 409.755 1200.69 410.698 1202.37 412.172C1204.05 413.645 1205.23 415.578 1205.75 417.715Z" fill="#FFB6B6"/>
<path d="M1252.32 442.102C1252.47 441.451 1252.75 440.839 1253.17 440.305C1253.58 439.772 1254.1 439.331 1254.71 439.013L1275.8 427.887C1278.61 425.835 1282.15 424.944 1285.63 425.411C1289.12 425.879 1292.27 427.665 1294.4 430.379C1296.52 433.093 1297.45 436.513 1296.98 439.889C1296.51 443.265 1294.67 446.321 1291.87 448.388L1274.97 465.013C1274.48 465.488 1273.9 465.856 1273.26 466.093C1272.61 466.33 1271.93 466.43 1271.24 466.386C1270.55 466.343 1269.89 466.156 1269.28 465.84C1268.68 465.523 1268.15 465.085 1267.73 464.553L1253.18 445.871C1252.76 445.339 1252.47 444.727 1252.33 444.077C1252.18 443.427 1252.18 442.753 1252.32 442.102Z" fill="#3F3D56"/>
<path d="M1289.05 378.324C1292.09 368.961 1298.99 360.373 1308.53 357.208C1318.08 354.042 1332.05 358.864 1339.23 365.787C1352.35 378.451 1352.76 393.954 1343.74 407.702C1341.95 407.61 1335.76 407.542 1333.94 407.476L1331.37 399.19V407.395C1317.2 406.971 1302.45 407.236 1287.69 407.511C1286.37 397.777 1286.02 387.687 1289.05 378.324Z" fill="#2F2E41"/>
<path d="M1285.94 770.444H1273.02L1266.87 722.183L1285.95 722.184L1285.94 770.444Z" fill="#FFB6B6"/>
<path d="M1365.6 770.444H1352.67L1346.52 722.183L1365.6 722.184L1365.6 770.444Z" fill="#FFB6B6"/>
<path d="M1327.86 474.034L1330.79 481.405L1330.2 488.777L1272.89 507.995L1275.73 475.736L1282.18 468.365L1327.86 474.034Z" fill="#FFB6B6"/>
<path d="M1309.74 407.703C1321.04 407.703 1330.21 398.83 1330.21 387.886C1330.21 376.941 1321.04 368.069 1309.74 368.069C1298.43 368.069 1289.27 376.941 1289.27 387.886C1289.27 398.83 1298.43 407.703 1309.74 407.703Z" fill="#FFB7B7"/>
<path d="M1340.69 507.857V520.452C1340.69 520.452 1355.92 539.609 1347.72 554.351L1371.21 750.541H1346.62L1305.55 584.969L1288.05 747.14H1266.96L1264.45 618.163C1263.79 584.237 1269.64 550.488 1281.7 518.63V518.63L1340.69 507.857Z" fill="#2F2E41"/>
<path d="M1295.67 362.081C1299.61 359.76 1304.11 358.504 1308.72 358.445C1313.32 358.386 1317.86 359.527 1321.86 361.747C1325.85 363.967 1329.16 367.185 1331.43 371.065C1333.7 374.946 1334.85 379.345 1334.76 383.804C1323.32 384.313 1311.3 384.446 1299.11 384.469L1296.23 377.644L1294.53 384.474C1290.82 384.473 1287.1 384.469 1283.37 384.46C1283.22 380.013 1284.28 375.606 1286.43 371.679C1288.59 367.752 1291.78 364.442 1295.67 362.081Z" fill="#2F2E41"/>
<path d="M1291.73 794.201H1282.55L1280.92 785.819L1276.73 794.201H1252.4C1251.24 794.201 1250.1 793.84 1249.16 793.171C1248.22 792.503 1247.53 791.56 1247.18 790.483C1246.83 789.405 1246.85 788.249 1247.23 787.182C1247.61 786.115 1248.34 785.193 1249.3 784.552L1268.72 771.565V763.091L1289.15 764.272L1291.73 794.201Z" fill="#2F2E41"/>
<path d="M1372.55 794.201H1363.38L1361.74 785.819L1357.55 794.201H1333.23C1332.06 794.201 1330.93 793.84 1329.99 793.171C1329.05 792.503 1328.35 791.56 1328.01 790.483C1327.66 789.405 1327.68 788.249 1328.06 787.182C1328.44 786.115 1329.16 785.193 1330.12 784.552L1349.54 771.565V763.091L1369.97 764.272L1372.55 794.201Z" fill="#2F2E41"/>
<path d="M1350 548.25C1351.14 533.114 1349.97 517.898 1346.53 503.093C1342.18 484.408 1336.65 460.633 1336.55 460.018C1336.54 460.006 1336.54 459.994 1336.54 459.982L1334.86 425.155C1334.85 425.054 1334.81 424.959 1334.74 424.888C1334.66 424.817 1334.56 424.775 1334.46 424.772L1322.81 424.393C1322.7 424.389 1322.6 424.346 1322.53 424.27C1322.45 424.195 1322.41 424.095 1322.41 423.991C1322.41 423.151 1322.24 422.319 1321.91 421.543C1321.57 420.767 1321.09 420.062 1320.47 419.468C1319.86 418.874 1319.13 418.402 1318.33 418.081C1317.53 417.76 1316.67 417.594 1315.8 417.594H1292.54C1291.03 417.595 1289.58 418.128 1288.45 419.093C1287.32 420.058 1286.59 421.389 1286.4 422.837C1286.39 422.936 1286.34 423.029 1286.27 423.095C1286.19 423.161 1286.09 423.197 1285.99 423.194L1276.93 422.9C1276.84 422.897 1276.75 422.923 1276.68 422.974C1276.6 423.025 1276.55 423.097 1276.52 423.181L1275.89 425.118C1266.75 453.606 1264.22 483.695 1268.46 513.241C1269.56 521.104 1269.06 532.926 1268.65 539.512C1268.61 540.156 1268.7 540.801 1268.91 541.411C1269.13 542.021 1269.47 542.583 1269.91 543.066C1270.36 543.548 1270.89 543.941 1271.49 544.222C1272.09 544.503 1272.74 544.667 1273.41 544.704C1290.24 545.641 1337.88 567.96 1349.29 557.304C1349.32 557.278 1349.62 553.348 1350 548.25Z" fill="#3F3D56"/>
<path d="M1256.68 417.715C1256.81 418.271 1256.9 418.835 1256.93 419.404L1302.62 444.92L1313.73 438.731L1325.57 453.734L1307.01 466.54C1305.51 467.575 1303.7 468.11 1301.86 468.067C1300.02 468.024 1298.24 467.403 1296.8 466.299L1249.69 430.319C1247.56 431.081 1245.25 431.198 1243.05 430.655C1240.85 430.112 1238.88 428.934 1237.39 427.279C1235.9 425.623 1234.97 423.568 1234.72 421.387C1234.46 419.206 1234.9 417.002 1235.98 415.069C1237.05 413.135 1238.7 411.564 1240.72 410.563C1242.74 409.563 1245.03 409.181 1247.27 409.468C1249.52 409.755 1251.62 410.698 1253.3 412.172C1254.99 413.645 1256.16 415.578 1256.68 417.715Z" fill="#FFB6B6"/>
<path d="M1303.26 442.102C1303.4 441.451 1303.69 440.838 1304.1 440.305C1304.51 439.772 1305.04 439.331 1305.64 439.013L1326.74 427.887C1329.54 425.835 1333.08 424.946 1336.56 425.413C1340.05 425.881 1343.2 427.667 1345.33 430.381C1347.46 433.094 1348.38 436.514 1347.91 439.889C1347.44 443.265 1345.6 446.321 1342.81 448.388L1325.9 465.013C1325.42 465.488 1324.83 465.856 1324.19 466.093C1323.55 466.33 1322.86 466.43 1322.18 466.386C1321.49 466.343 1320.82 466.156 1320.22 465.84C1319.61 465.523 1319.08 465.084 1318.67 464.553L1304.11 445.871C1303.7 445.339 1303.41 444.727 1303.26 444.077C1303.11 443.427 1303.11 442.753 1303.26 442.102Z" fill="#3F3D56"/>
<path d="M744.302 725.451C773.74 725.451 797.604 702.348 797.604 673.85C797.604 645.351 773.74 622.249 744.302 622.249C714.864 622.249 691 645.351 691 673.85C691 702.348 714.864 725.451 744.302 725.451Z" fill="#F0F0F0"/>
<path d="M1215.32 494.787L829.045 666.474C823.547 668.91 817.275 669.136 811.605 667.101C805.935 665.066 801.33 660.937 798.801 655.62L703.479 454.625C700.962 449.302 700.729 443.23 702.831 437.741C704.933 432.252 709.198 427.794 714.69 425.346L1100.96 253.659C1106.46 251.223 1112.73 250.997 1118.4 253.032C1124.07 255.067 1128.68 259.195 1131.2 264.513L1226.53 465.508C1229.04 470.831 1229.28 476.903 1227.17 482.392C1225.07 487.881 1220.81 492.339 1215.32 494.787Z" fill="white"/>
<path d="M721.115 438.893C719.331 439.688 717.945 441.137 717.262 442.92C716.58 444.703 716.655 446.676 717.473 448.405L812.795 649.4C813.617 651.128 815.113 652.469 816.955 653.13C818.796 653.791 820.834 653.718 822.62 652.926L1208.89 481.24C1210.67 480.444 1212.06 478.996 1212.74 477.213C1213.43 475.43 1213.35 473.457 1212.53 471.728L1117.21 270.733C1116.39 269.005 1114.89 267.664 1113.05 267.003C1111.21 266.342 1109.17 266.415 1107.39 267.207L721.115 438.893Z" fill="#E4E4E4"/>
<path d="M1215.32 494.787L829.045 666.474C823.547 668.91 817.275 669.136 811.605 667.101C805.935 665.066 801.33 660.937 798.801 655.62L703.479 454.625C700.962 449.302 700.729 443.23 702.831 437.741C704.933 432.252 709.198 427.794 714.69 425.346L1100.96 253.659C1106.46 251.223 1112.73 250.997 1118.4 253.032C1124.07 255.067 1128.68 259.195 1131.2 264.513L1226.53 465.508C1229.04 470.831 1229.28 476.903 1227.17 482.392C1225.07 487.881 1220.81 492.339 1215.32 494.787ZM715.679 427.43C710.757 429.624 706.935 433.619 705.051 438.538C703.168 443.456 703.377 448.898 705.632 453.668L800.954 654.663C803.221 659.428 807.347 663.128 812.428 664.952C817.509 666.775 823.13 666.573 828.057 664.389L1214.33 492.703C1219.25 490.509 1223.07 486.514 1224.95 481.595C1226.84 476.676 1226.63 471.235 1224.37 466.465L1129.05 265.47C1126.78 260.705 1122.66 257.005 1117.58 255.181C1112.5 253.358 1106.88 253.56 1101.95 255.744L715.679 427.43Z" fill="#CACACA"/>
<path d="M1118.8 403.579L811.927 539.973C809.456 541.068 806.695 541.397 804.023 540.916C801.351 540.435 798.897 539.168 796.997 537.287L707.214 448.151C705.741 446.689 704.653 444.907 704.04 442.953C703.427 440.999 703.307 438.931 703.691 436.924C704.075 434.916 704.952 433.027 706.246 431.415C707.541 429.803 709.217 428.516 711.132 427.661L1104.4 252.154C1106.29 251.311 1108.36 250.914 1110.44 250.994C1112.52 251.075 1114.55 251.631 1116.37 252.618C1118.18 253.605 1119.73 254.994 1120.88 256.671C1122.04 258.348 1122.77 260.267 1123.01 262.268L1123.06 262.267L1126.47 391.662C1126.54 394.158 1125.85 396.618 1124.48 398.736C1123.12 400.855 1121.14 402.539 1118.8 403.579ZM1105.41 254.231L712.124 429.744C710.553 430.445 709.178 431.501 708.116 432.823C707.054 434.145 706.336 435.694 706.021 437.341C705.706 438.988 705.804 440.684 706.306 442.286C706.809 443.888 707.702 445.351 708.909 446.55L798.693 535.686C800.251 537.228 802.264 538.268 804.456 538.662C806.648 539.057 808.912 538.787 810.939 537.889L1117.81 401.494C1119.73 400.642 1121.35 399.26 1122.47 397.523C1123.59 395.785 1124.16 393.767 1124.1 391.72L1120.72 263.472L1121.19 263.461L1120.72 263.472C1120.67 261.741 1120.19 260.049 1119.3 258.546C1118.41 257.043 1117.15 255.777 1115.63 254.861C1114.12 253.945 1112.39 253.408 1110.6 253.298C1108.82 253.188 1107.03 253.509 1105.41 254.231Z" fill="#CACACA"/>
<path d="M926.362 588.097L830.754 630.592C830.06 630.901 829.311 631.075 828.547 631.103C827.784 631.131 827.023 631.014 826.306 630.757C825.59 630.501 824.933 630.11 824.373 629.607C823.813 629.105 823.361 628.5 823.042 627.828C822.723 627.156 822.545 626.43 822.516 625.691C822.487 624.952 822.609 624.215 822.875 623.522C823.141 622.829 823.545 622.193 824.065 621.652C824.585 621.11 825.21 620.673 825.904 620.365L921.511 577.87C922.912 577.249 924.51 577.192 925.954 577.711C927.398 578.23 928.571 579.283 929.214 580.638C929.856 581.993 929.917 583.54 929.382 584.939C928.847 586.337 927.761 587.473 926.362 588.097Z" fill="white"/>
<path d="M996.306 456.76C997.947 460.213 998.87 463.944 999.02 467.741C999.171 471.539 998.547 475.327 997.185 478.891C995.822 482.455 993.747 485.724 991.079 488.511C988.411 491.298 985.201 493.549 981.634 495.134C978.066 496.72 974.211 497.609 970.289 497.752C966.366 497.894 962.453 497.287 958.773 495.964C955.093 494.642 951.718 492.63 948.842 490.044C945.965 487.458 943.644 484.349 942.009 480.894" fill="#CACACA"/>
<path d="M1211.87 768.175H786.835C780.788 768.168 774.991 765.84 770.715 761.7C766.439 757.561 764.034 751.949 764.027 746.095V524.927C764.034 519.073 766.439 513.461 770.715 509.322C774.991 505.182 780.788 502.854 786.835 502.847H1211.87C1217.92 502.854 1223.71 505.182 1227.99 509.322C1232.27 513.461 1234.67 519.073 1234.68 524.927V746.095C1234.67 751.949 1232.27 757.561 1227.99 761.7C1223.72 765.84 1217.92 768.168 1211.87 768.175Z" fill="white"/>
<path d="M1211.87 768.175H786.835C780.788 768.168 774.991 765.84 770.715 761.7C766.439 757.561 764.034 751.949 764.027 746.095V524.927C764.034 519.073 766.439 513.461 770.715 509.322C774.991 505.182 780.788 502.854 786.835 502.847H1211.87C1217.92 502.854 1223.71 505.182 1227.99 509.322C1232.27 513.461 1234.67 519.073 1234.68 524.927V746.095C1234.67 751.949 1232.27 757.561 1227.99 761.7C1223.72 765.84 1217.92 768.168 1211.87 768.175ZM786.835 505.141C781.416 505.146 776.221 507.233 772.389 510.942C768.558 514.652 766.402 519.681 766.396 524.927V746.095C766.402 751.341 768.558 756.37 772.389 760.079C776.221 763.789 781.416 765.875 786.835 765.881H1211.87C1217.29 765.875 1222.48 763.789 1226.32 760.079C1230.15 756.37 1232.3 751.341 1232.31 746.095V524.927C1232.3 519.681 1230.15 514.652 1226.32 510.942C1222.48 507.233 1217.29 505.146 1211.87 505.141H786.835Z" fill="#3F3D56"/>
<path d="M786.835 517.754C784.87 517.756 782.987 518.513 781.598 519.858C780.209 521.202 779.428 523.026 779.425 524.927V746.095C779.428 747.996 780.209 749.82 781.598 751.164C782.987 752.509 784.87 753.266 786.835 753.268H1211.87C1213.84 753.266 1215.72 752.509 1217.11 751.164C1218.5 749.82 1219.28 747.996 1219.28 746.095V524.927C1219.28 523.026 1218.5 521.202 1217.11 519.858C1215.72 518.513 1213.84 517.756 1211.87 517.754H786.835Z" fill="#BBBBE4"/>
<path d="M1163.46 646.297H825.799C823.081 646.294 820.431 645.478 818.21 643.962C815.989 642.445 814.305 640.302 813.389 637.825L770.211 520.553C769.503 518.629 769.282 516.57 769.567 514.546C769.852 512.523 770.635 510.596 771.849 508.926C773.063 507.257 774.674 505.894 776.545 504.952C778.417 504.011 780.494 503.518 782.604 503.515L1215.65 502.87C1217.73 502.868 1219.78 503.342 1221.64 504.256C1223.49 505.169 1225.1 506.495 1226.32 508.125C1227.55 509.755 1228.35 511.642 1228.68 513.633C1229.01 515.623 1228.84 517.66 1228.19 519.576L1228.24 519.596L1175.58 638.567C1174.56 640.863 1172.87 642.819 1170.72 644.193C1168.57 645.568 1166.04 646.299 1163.46 646.297ZM1215.67 505.164L782.607 505.808C780.877 505.81 779.173 506.215 777.638 506.987C776.103 507.76 774.782 508.877 773.786 510.247C772.79 511.616 772.148 513.197 771.914 514.856C771.681 516.515 771.862 518.205 772.442 519.782L815.62 637.055C816.371 639.087 817.752 640.844 819.574 642.088C821.396 643.332 823.57 644.001 825.799 644.004H1163.46C1165.58 644.006 1167.65 643.405 1169.42 642.278C1171.18 641.151 1172.57 639.546 1173.4 637.664L1225.6 519.746L1226.03 519.927L1225.6 519.746C1226.3 518.155 1226.59 516.42 1226.43 514.695C1226.27 512.971 1225.67 511.312 1224.69 509.866C1223.7 508.421 1222.36 507.235 1220.79 506.414C1219.21 505.593 1217.45 505.164 1215.67 505.164Z" fill="#3F3D56"/>
<path d="M909.056 736.256H803.853C802.311 736.256 800.833 735.663 799.743 734.608C798.653 733.553 798.041 732.121 798.041 730.629C798.041 729.137 798.653 727.706 799.743 726.65C800.833 725.595 802.311 725.002 803.853 725.002H909.056C910.597 725.002 912.075 725.595 913.165 726.65C914.255 727.706 914.868 729.137 914.868 730.629C914.868 732.121 914.255 733.553 913.165 734.608C912.075 735.663 910.597 736.256 909.056 736.256Z" fill="white"/>
<path d="M1029.23 645.151C1029.23 652.821 1026.08 660.177 1020.48 665.6C1014.87 671.024 1007.28 674.071 999.353 674.071C991.43 674.071 983.832 671.024 978.229 665.6C972.627 660.177 969.48 652.821 969.48 645.151" fill="#3F3D56"/>
<path d="M840.245 312.641C846.133 312.641 850.905 308.02 850.905 302.32C850.905 296.621 846.133 292 840.245 292C834.358 292 829.585 296.621 829.585 302.32C829.585 308.02 834.358 312.641 840.245 312.641Z" fill="#F0F0F0"/>
<path d="M701.66 560.327C707.548 560.327 712.321 555.707 712.321 550.007C712.321 544.307 707.548 539.687 701.66 539.687C695.773 539.687 691 544.307 691 550.007C691 555.707 695.773 560.327 701.66 560.327Z" fill="#F0F0F0"/>
<path d="M1234.68 366.535C1240.57 366.535 1245.34 361.915 1245.34 356.215C1245.34 350.515 1240.57 345.895 1234.68 345.895C1228.79 345.895 1224.02 350.515 1224.02 356.215C1224.02 361.915 1228.79 366.535 1234.68 366.535Z" fill="#F0F0F0"/>
<path d="M1417.16 794.201H1214.26C1213.89 794.201 1213.53 794.057 1213.26 793.801C1213 793.545 1212.85 793.198 1212.85 792.836C1212.85 792.474 1213 792.126 1213.26 791.87C1213.53 791.614 1213.89 791.47 1214.26 791.47H1417.16C1417.53 791.471 1417.89 791.616 1418.15 791.872C1418.41 792.127 1418.56 792.474 1418.56 792.836C1418.56 793.197 1418.41 793.544 1418.15 793.8C1417.89 794.056 1417.53 794.2 1417.16 794.201Z" fill="#CACACA"/>
</g>
<path d="M111.657 463H103.802V437.545H112.005C114.474 437.545 116.587 438.055 118.344 439.074C120.101 440.085 121.447 441.539 122.383 443.437C123.32 445.326 123.788 447.588 123.788 450.223C123.788 452.875 123.316 455.157 122.371 457.071C121.426 458.977 120.051 460.444 118.245 461.471C116.438 462.49 114.242 463 111.657 463ZM106.884 460.266H111.458C113.563 460.266 115.307 459.86 116.691 459.048C118.075 458.236 119.106 457.08 119.786 455.58C120.465 454.08 120.805 452.295 120.805 450.223C120.805 448.168 120.469 446.399 119.798 444.916C119.127 443.424 118.124 442.281 116.79 441.485C115.456 440.682 113.795 440.28 111.806 440.28H106.884V460.266ZM136.565 463.398C134.725 463.398 133.139 462.992 131.805 462.18C130.479 461.359 129.456 460.216 128.735 458.749C128.022 457.274 127.666 455.559 127.666 453.604C127.666 451.648 128.022 449.925 128.735 448.433C129.456 446.933 130.458 445.765 131.742 444.928C133.035 444.083 134.543 443.661 136.267 443.661C137.261 443.661 138.243 443.826 139.212 444.158C140.182 444.489 141.064 445.028 141.86 445.773C142.655 446.511 143.289 447.489 143.761 448.707C144.234 449.925 144.47 451.424 144.47 453.206V454.449H129.754V451.913H141.487C141.487 450.836 141.271 449.875 140.84 449.03C140.418 448.185 139.813 447.518 139.026 447.029C138.247 446.54 137.327 446.295 136.267 446.295C135.098 446.295 134.087 446.585 133.234 447.165C132.389 447.737 131.738 448.483 131.283 449.403C130.827 450.322 130.599 451.308 130.599 452.361V454.051C130.599 455.493 130.848 456.715 131.345 457.718C131.85 458.712 132.55 459.47 133.445 459.992C134.34 460.506 135.38 460.763 136.565 460.763C137.335 460.763 138.032 460.655 138.653 460.44C139.283 460.216 139.825 459.884 140.281 459.445C140.737 458.998 141.089 458.443 141.338 457.78L144.171 458.575C143.873 459.536 143.372 460.382 142.668 461.111C141.963 461.832 141.093 462.395 140.057 462.801C139.022 463.199 137.858 463.398 136.565 463.398ZM157.433 443.909V446.395H147.142V443.909H157.433ZM150.224 463V441.274C150.224 440.18 150.481 439.269 150.995 438.54C151.509 437.811 152.176 437.264 152.996 436.899C153.816 436.535 154.682 436.352 155.594 436.352C156.315 436.352 156.903 436.41 157.359 436.526C157.814 436.642 158.154 436.75 158.378 436.849L157.533 439.385C157.383 439.335 157.176 439.273 156.911 439.199C156.654 439.124 156.315 439.087 155.892 439.087C154.922 439.087 154.222 439.331 153.791 439.82C153.369 440.309 153.158 441.026 153.158 441.97V463H150.224ZM161.544 463V443.909H164.477V463H161.544ZM163.036 440.727C162.464 440.727 161.971 440.533 161.556 440.143C161.15 439.754 160.947 439.286 160.947 438.739C160.947 438.192 161.15 437.724 161.556 437.334C161.971 436.945 162.464 436.75 163.036 436.75C163.607 436.75 164.096 436.945 164.502 437.334C164.916 437.724 165.124 438.192 165.124 438.739C165.124 439.286 164.916 439.754 164.502 440.143C164.096 440.533 163.607 440.727 163.036 440.727ZM172.783 451.516V463H169.85V443.909H172.684V446.892H172.932C173.38 445.923 174.059 445.144 174.97 444.555C175.882 443.959 177.059 443.661 178.5 443.661C179.793 443.661 180.924 443.926 181.893 444.456C182.863 444.978 183.617 445.773 184.155 446.842C184.694 447.903 184.963 449.245 184.963 450.869V463H182.03V451.068C182.03 449.568 181.641 448.4 180.862 447.563C180.083 446.718 179.014 446.295 177.655 446.295C176.719 446.295 175.882 446.498 175.144 446.904C174.415 447.31 173.839 447.903 173.417 448.682C172.994 449.461 172.783 450.405 172.783 451.516ZM198.328 463.398C196.488 463.398 194.901 462.992 193.567 462.18C192.242 461.359 191.218 460.216 190.497 458.749C189.785 457.274 189.428 455.559 189.428 453.604C189.428 451.648 189.785 449.925 190.497 448.433C191.218 446.933 192.221 445.765 193.505 444.928C194.798 444.083 196.306 443.661 198.029 443.661C199.024 443.661 200.006 443.826 200.975 444.158C201.944 444.489 202.827 445.028 203.622 445.773C204.418 446.511 205.052 447.489 205.524 448.707C205.996 449.925 206.232 451.424 206.232 453.206V454.449H191.517V451.913H203.249C203.249 450.836 203.034 449.875 202.603 449.03C202.181 448.185 201.576 447.518 200.789 447.029C200.01 446.54 199.09 446.295 198.029 446.295C196.861 446.295 195.85 446.585 194.997 447.165C194.151 447.737 193.501 448.483 193.045 449.403C192.59 450.322 192.362 451.308 192.362 452.361V454.051C192.362 455.493 192.61 456.715 193.107 457.718C193.613 458.712 194.313 459.47 195.208 459.992C196.103 460.506 197.143 460.763 198.328 460.763C199.098 460.763 199.794 460.655 200.416 460.44C201.045 460.216 201.588 459.884 202.044 459.445C202.5 458.998 202.852 458.443 203.1 457.78L205.934 458.575C205.636 459.536 205.135 460.382 204.43 461.111C203.726 461.832 202.856 462.395 201.82 462.801C200.784 463.199 199.62 463.398 198.328 463.398ZM226.156 463.447C224.946 463.447 223.848 463.22 222.862 462.764C221.876 462.3 221.093 461.633 220.513 460.763C219.933 459.884 219.643 458.824 219.643 457.581C219.643 456.487 219.859 455.601 220.29 454.921C220.72 454.233 221.296 453.695 222.017 453.305C222.738 452.916 223.534 452.626 224.404 452.435C225.282 452.237 226.164 452.079 227.051 451.963C228.211 451.814 229.151 451.702 229.872 451.627C230.602 451.545 231.132 451.408 231.463 451.217C231.803 451.027 231.973 450.695 231.973 450.223V450.124C231.973 448.897 231.637 447.944 230.966 447.265C230.303 446.585 229.296 446.246 227.946 446.246C226.546 446.246 225.448 446.552 224.652 447.165C223.857 447.779 223.297 448.433 222.974 449.129L220.19 448.135C220.687 446.975 221.35 446.072 222.179 445.425C223.016 444.771 223.927 444.315 224.913 444.058C225.907 443.793 226.885 443.661 227.846 443.661C228.46 443.661 229.164 443.735 229.959 443.884C230.763 444.025 231.538 444.319 232.284 444.767C233.038 445.214 233.663 445.889 234.16 446.793C234.657 447.696 234.906 448.906 234.906 450.422V463H231.973V460.415H231.824C231.625 460.829 231.293 461.272 230.829 461.745C230.365 462.217 229.748 462.619 228.977 462.95C228.207 463.282 227.266 463.447 226.156 463.447ZM226.604 460.812C227.764 460.812 228.741 460.585 229.537 460.129C230.34 459.673 230.945 459.085 231.351 458.364C231.766 457.643 231.973 456.885 231.973 456.089V453.405C231.849 453.554 231.575 453.691 231.153 453.815C230.738 453.931 230.258 454.035 229.711 454.126C229.172 454.209 228.646 454.283 228.132 454.349C227.627 454.407 227.217 454.457 226.902 454.499C226.14 454.598 225.427 454.76 224.764 454.983C224.109 455.199 223.579 455.526 223.173 455.965C222.775 456.396 222.577 456.984 222.577 457.73C222.577 458.749 222.954 459.52 223.708 460.042C224.47 460.556 225.435 460.812 226.604 460.812ZM253.037 437.545V463H250.104V437.545H253.037ZM258.409 463V443.909H261.343V463H258.409ZM259.901 440.727C259.329 440.727 258.836 440.533 258.422 440.143C258.016 439.754 257.813 439.286 257.813 438.739C257.813 438.192 258.016 437.724 258.422 437.334C258.836 436.945 259.329 436.75 259.901 436.75C260.472 436.75 260.961 436.945 261.367 437.334C261.782 437.724 261.989 438.192 261.989 438.739C261.989 439.286 261.782 439.754 261.367 440.143C260.961 440.533 260.472 440.727 259.901 440.727ZM280.238 448.185L277.603 448.93C277.437 448.491 277.193 448.065 276.869 447.65C276.555 447.228 276.124 446.88 275.577 446.606C275.03 446.333 274.33 446.196 273.476 446.196C272.308 446.196 271.334 446.465 270.555 447.004C269.785 447.534 269.4 448.21 269.4 449.03C269.4 449.759 269.665 450.335 270.195 450.757C270.725 451.18 271.554 451.532 272.681 451.814L275.515 452.51C277.222 452.924 278.493 453.558 279.33 454.412C280.167 455.257 280.586 456.346 280.586 457.68C280.586 458.774 280.271 459.752 279.641 460.614C279.02 461.475 278.15 462.155 277.031 462.652C275.912 463.149 274.611 463.398 273.128 463.398C271.181 463.398 269.569 462.975 268.293 462.13C267.017 461.285 266.209 460.05 265.87 458.426L268.654 457.73C268.919 458.758 269.42 459.528 270.158 460.042C270.903 460.556 271.877 460.812 273.079 460.812C274.446 460.812 275.531 460.522 276.335 459.942C277.147 459.354 277.553 458.65 277.553 457.83C277.553 457.167 277.321 456.612 276.857 456.164C276.393 455.708 275.68 455.369 274.719 455.145L271.537 454.399C269.789 453.985 268.505 453.343 267.684 452.473C266.872 451.594 266.466 450.496 266.466 449.179C266.466 448.102 266.769 447.149 267.374 446.32C267.987 445.492 268.82 444.841 269.872 444.369C270.932 443.897 272.134 443.661 273.476 443.661C275.366 443.661 276.849 444.075 277.926 444.903C279.011 445.732 279.782 446.826 280.238 448.185ZM293.304 443.909V446.395H283.41V443.909H293.304ZM286.294 439.335H289.227V457.531C289.227 458.36 289.347 458.981 289.587 459.396C289.836 459.802 290.151 460.075 290.532 460.216C290.921 460.348 291.332 460.415 291.762 460.415C292.086 460.415 292.351 460.398 292.558 460.365C292.765 460.324 292.931 460.29 293.055 460.266L293.652 462.901C293.453 462.975 293.175 463.05 292.819 463.124C292.463 463.207 292.011 463.249 291.464 463.249C290.636 463.249 289.824 463.07 289.028 462.714C288.241 462.358 287.586 461.815 287.064 461.086C286.551 460.357 286.294 459.437 286.294 458.327V439.335ZM315.315 463.398C313.592 463.398 312.08 462.988 310.779 462.167C309.486 461.347 308.475 460.199 307.746 458.724C307.025 457.25 306.665 455.526 306.665 453.554C306.665 451.565 307.025 449.829 307.746 448.346C308.475 446.863 309.486 445.711 310.779 444.891C312.08 444.071 313.592 443.661 315.315 443.661C317.039 443.661 318.547 444.071 319.839 444.891C321.14 445.711 322.151 446.863 322.872 448.346C323.601 449.829 323.966 451.565 323.966 453.554C323.966 455.526 323.601 457.25 322.872 458.724C322.151 460.199 321.14 461.347 319.839 462.167C318.547 462.988 317.039 463.398 315.315 463.398ZM315.315 460.763C316.625 460.763 317.702 460.427 318.547 459.756C319.392 459.085 320.018 458.202 320.424 457.109C320.83 456.015 321.033 454.83 321.033 453.554C321.033 452.278 320.83 451.089 320.424 449.987C320.018 448.885 319.392 447.994 318.547 447.315C317.702 446.635 316.625 446.295 315.315 446.295C314.006 446.295 312.929 446.635 312.084 447.315C311.239 447.994 310.613 448.885 310.207 449.987C309.801 451.089 309.598 452.278 309.598 453.554C309.598 454.83 309.801 456.015 310.207 457.109C310.613 458.202 311.239 459.085 312.084 459.756C312.929 460.427 314.006 460.763 315.315 460.763ZM328.443 463V443.909H331.277V446.793H331.476C331.824 445.848 332.454 445.082 333.365 444.493C334.277 443.905 335.304 443.611 336.448 443.611C336.663 443.611 336.932 443.615 337.256 443.623C337.579 443.632 337.823 443.644 337.989 443.661V446.643C337.889 446.619 337.662 446.581 337.305 446.532C336.957 446.474 336.589 446.445 336.199 446.445C335.271 446.445 334.443 446.639 333.713 447.029C332.992 447.41 332.421 447.94 331.998 448.62C331.584 449.291 331.377 450.057 331.377 450.919V463H328.443ZM351.31 470.159V443.909H354.143V446.942H354.491C354.707 446.61 355.005 446.188 355.386 445.674C355.776 445.152 356.331 444.688 357.052 444.282C357.781 443.868 358.767 443.661 360.01 443.661C361.617 443.661 363.034 444.062 364.261 444.866C365.487 445.67 366.444 446.809 367.132 448.284C367.819 449.759 368.163 451.499 368.163 453.504C368.163 455.526 367.819 457.279 367.132 458.762C366.444 460.237 365.491 461.38 364.273 462.192C363.055 462.996 361.651 463.398 360.06 463.398C358.833 463.398 357.851 463.195 357.114 462.789C356.377 462.374 355.809 461.906 355.411 461.384C355.013 460.854 354.707 460.415 354.491 460.067H354.243V470.159H351.31ZM354.193 453.455C354.193 454.896 354.404 456.168 354.827 457.27C355.25 458.364 355.867 459.222 356.679 459.843C357.491 460.456 358.485 460.763 359.662 460.763C360.888 460.763 361.912 460.44 362.732 459.793C363.56 459.139 364.182 458.26 364.596 457.158C365.019 456.048 365.23 454.813 365.23 453.455C365.23 452.112 365.023 450.902 364.609 449.825C364.203 448.74 363.585 447.882 362.757 447.252C361.936 446.614 360.905 446.295 359.662 446.295C358.469 446.295 357.466 446.598 356.654 447.203C355.842 447.799 355.229 448.636 354.815 449.713C354.4 450.782 354.193 452.029 354.193 453.455ZM380.393 463.398C378.67 463.398 377.158 462.988 375.857 462.167C374.564 461.347 373.553 460.199 372.824 458.724C372.103 457.25 371.743 455.526 371.743 453.554C371.743 451.565 372.103 449.829 372.824 448.346C373.553 446.863 374.564 445.711 375.857 444.891C377.158 444.071 378.67 443.661 380.393 443.661C382.117 443.661 383.625 444.071 384.918 444.891C386.219 445.711 387.229 446.863 387.95 448.346C388.679 449.829 389.044 451.565 389.044 453.554C389.044 455.526 388.679 457.25 387.95 458.724C387.229 460.199 386.219 461.347 384.918 462.167C383.625 462.988 382.117 463.398 380.393 463.398ZM380.393 460.763C381.703 460.763 382.78 460.427 383.625 459.756C384.47 459.085 385.096 458.202 385.502 457.109C385.908 456.015 386.111 454.83 386.111 453.554C386.111 452.278 385.908 451.089 385.502 449.987C385.096 448.885 384.47 447.994 383.625 447.315C382.78 446.635 381.703 446.295 380.393 446.295C379.084 446.295 378.007 446.635 377.162 447.315C376.317 447.994 375.691 448.885 375.285 449.987C374.879 451.089 374.676 452.278 374.676 453.554C374.676 454.83 374.879 456.015 375.285 457.109C375.691 458.202 376.317 459.085 377.162 459.756C378.007 460.427 379.084 460.763 380.393 460.763ZM401.277 463.398C399.554 463.398 398.042 462.988 396.741 462.167C395.448 461.347 394.437 460.199 393.708 458.724C392.987 457.25 392.627 455.526 392.627 453.554C392.627 451.565 392.987 449.829 393.708 448.346C394.437 446.863 395.448 445.711 396.741 444.891C398.042 444.071 399.554 443.661 401.277 443.661C403.001 443.661 404.509 444.071 405.801 444.891C407.102 445.711 408.113 446.863 408.834 448.346C409.563 449.829 409.928 451.565 409.928 453.554C409.928 455.526 409.563 457.25 408.834 458.724C408.113 460.199 407.102 461.347 405.801 462.167C404.509 462.988 403.001 463.398 401.277 463.398ZM401.277 460.763C402.586 460.763 403.664 460.427 404.509 459.756C405.354 459.085 405.98 458.202 406.386 457.109C406.792 456.015 406.995 454.83 406.995 453.554C406.995 452.278 406.792 451.089 406.386 449.987C405.98 448.885 405.354 447.994 404.509 447.315C403.664 446.635 402.586 446.295 401.277 446.295C399.968 446.295 398.891 446.635 398.046 447.315C397.201 447.994 396.575 448.885 396.169 449.987C395.763 451.089 395.56 452.278 395.56 453.554C395.56 454.83 395.763 456.015 396.169 457.109C396.575 458.202 397.201 459.085 398.046 459.756C398.891 460.427 399.968 460.763 401.277 460.763ZM417.339 437.545V463H414.405V437.545H417.339ZM440.31 463.398C438.587 463.398 437.075 462.988 435.774 462.167C434.481 461.347 433.47 460.199 432.741 458.724C432.02 457.25 431.66 455.526 431.66 453.554C431.66 451.565 432.02 449.829 432.741 448.346C433.47 446.863 434.481 445.711 435.774 444.891C437.075 444.071 438.587 443.661 440.31 443.661C442.034 443.661 443.542 444.071 444.835 444.891C446.136 445.711 447.146 446.863 447.867 448.346C448.596 449.829 448.961 451.565 448.961 453.554C448.961 455.526 448.596 457.25 447.867 458.724C447.146 460.199 446.136 461.347 444.835 462.167C443.542 462.988 442.034 463.398 440.31 463.398ZM440.31 460.763C441.62 460.763 442.697 460.427 443.542 459.756C444.387 459.085 445.013 458.202 445.419 457.109C445.825 456.015 446.028 454.83 446.028 453.554C446.028 452.278 445.825 451.089 445.419 449.987C445.013 448.885 444.387 447.994 443.542 447.315C442.697 446.635 441.62 446.295 440.31 446.295C439.001 446.295 437.924 446.635 437.079 447.315C436.234 447.994 435.608 448.885 435.202 449.987C434.796 451.089 434.593 452.278 434.593 453.554C434.593 454.83 434.796 456.015 435.202 457.109C435.608 458.202 436.234 459.085 437.079 459.756C437.924 460.427 439.001 460.763 440.31 460.763ZM461.94 443.909V446.395H451.649V443.909H461.94ZM454.731 463V441.274C454.731 440.18 454.988 439.269 455.502 438.54C456.016 437.811 456.683 437.264 457.503 436.899C458.323 436.535 459.189 436.352 460.1 436.352C460.821 436.352 461.41 436.41 461.865 436.526C462.321 436.642 462.661 436.75 462.885 436.849L462.039 439.385C461.89 439.335 461.683 439.273 461.418 439.199C461.161 439.124 460.821 439.087 460.399 439.087C459.429 439.087 458.729 439.331 458.298 439.82C457.876 440.309 457.664 441.026 457.664 441.97V463H454.731ZM475.895 463V443.909H478.728V446.892H478.977C479.375 445.873 480.017 445.082 480.903 444.518C481.79 443.946 482.855 443.661 484.098 443.661C485.357 443.661 486.405 443.946 487.242 444.518C488.087 445.082 488.746 445.873 489.218 446.892H489.417C489.906 445.906 490.64 445.123 491.617 444.543C492.595 443.955 493.767 443.661 495.135 443.661C496.842 443.661 498.238 444.195 499.323 445.264C500.409 446.324 500.951 447.978 500.951 450.223V463H498.018V450.223C498.018 448.814 497.633 447.808 496.862 447.203C496.092 446.598 495.184 446.295 494.14 446.295C492.798 446.295 491.758 446.701 491.021 447.513C490.283 448.317 489.915 449.336 489.915 450.571V463H486.932V449.925C486.932 448.839 486.579 447.965 485.875 447.302C485.171 446.631 484.263 446.295 483.153 446.295C482.391 446.295 481.678 446.498 481.015 446.904C480.361 447.31 479.83 447.874 479.424 448.595C479.027 449.307 478.828 450.132 478.828 451.068V463H475.895ZM514.319 463.398C512.479 463.398 510.893 462.992 509.559 462.18C508.233 461.359 507.209 460.216 506.489 458.749C505.776 457.274 505.42 455.559 505.42 453.604C505.42 451.648 505.776 449.925 506.489 448.433C507.209 446.933 508.212 445.765 509.496 444.928C510.789 444.083 512.297 443.661 514.021 443.661C515.015 443.661 515.997 443.826 516.966 444.158C517.936 444.489 518.818 445.028 519.614 445.773C520.409 446.511 521.043 447.489 521.515 448.707C521.987 449.925 522.224 451.424 522.224 453.206V454.449H507.508V451.913H519.241C519.241 450.836 519.025 449.875 518.594 449.03C518.172 448.185 517.567 447.518 516.78 447.029C516.001 446.54 515.081 446.295 514.021 446.295C512.852 446.295 511.841 446.585 510.988 447.165C510.143 447.737 509.492 448.483 509.036 449.403C508.581 450.322 508.353 451.308 508.353 452.361V454.051C508.353 455.493 508.601 456.715 509.099 457.718C509.604 458.712 510.304 459.47 511.199 459.992C512.094 460.506 513.134 460.763 514.319 460.763C515.089 460.763 515.785 460.655 516.407 460.44C517.037 460.216 517.579 459.884 518.035 459.445C518.491 458.998 518.843 458.443 519.092 457.78L521.925 458.575C521.627 459.536 521.126 460.382 520.421 461.111C519.717 461.832 518.847 462.395 517.811 462.801C516.776 463.199 515.611 463.398 514.319 463.398ZM540.208 448.185L537.573 448.93C537.408 448.491 537.163 448.065 536.84 447.65C536.525 447.228 536.094 446.88 535.547 446.606C535.001 446.333 534.3 446.196 533.447 446.196C532.279 446.196 531.305 446.465 530.526 447.004C529.756 447.534 529.37 448.21 529.37 449.03C529.37 449.759 529.635 450.335 530.166 450.757C530.696 451.18 531.525 451.532 532.652 451.814L535.485 452.51C537.192 452.924 538.464 453.558 539.301 454.412C540.138 455.257 540.556 456.346 540.556 457.68C540.556 458.774 540.242 459.752 539.612 460.614C538.99 461.475 538.12 462.155 537.002 462.652C535.883 463.149 534.582 463.398 533.099 463.398C531.152 463.398 529.54 462.975 528.264 462.13C526.988 461.285 526.18 460.05 525.84 458.426L528.625 457.73C528.89 458.758 529.391 459.528 530.128 460.042C530.874 460.556 531.848 460.812 533.049 460.812C534.416 460.812 535.502 460.522 536.306 459.942C537.118 459.354 537.524 458.65 537.524 457.83C537.524 457.167 537.292 456.612 536.828 456.164C536.364 455.708 535.651 455.369 534.69 455.145L531.508 454.399C529.76 453.985 528.475 453.343 527.655 452.473C526.843 451.594 526.437 450.496 526.437 449.179C526.437 448.102 526.739 447.149 527.344 446.32C527.958 445.492 528.79 444.841 529.843 444.369C530.903 443.897 532.105 443.661 533.447 443.661C535.336 443.661 536.819 444.075 537.897 444.903C538.982 445.732 539.753 446.826 540.208 448.185ZM558.494 448.185L555.86 448.93C555.694 448.491 555.449 448.065 555.126 447.65C554.811 447.228 554.381 446.88 553.834 446.606C553.287 446.333 552.587 446.196 551.733 446.196C550.565 446.196 549.591 446.465 548.812 447.004C548.042 447.534 547.656 448.21 547.656 449.03C547.656 449.759 547.922 450.335 548.452 450.757C548.982 451.18 549.811 451.532 550.938 451.814L553.771 452.51C555.478 452.924 556.75 453.558 557.587 454.412C558.424 455.257 558.843 456.346 558.843 457.68C558.843 458.774 558.528 459.752 557.898 460.614C557.276 461.475 556.406 462.155 555.288 462.652C554.169 463.149 552.868 463.398 551.385 463.398C549.438 463.398 547.826 462.975 546.55 462.13C545.274 461.285 544.466 460.05 544.127 458.426L546.911 457.73C547.176 458.758 547.677 459.528 548.415 460.042C549.16 460.556 550.134 460.812 551.335 460.812C552.703 460.812 553.788 460.522 554.592 459.942C555.404 459.354 555.81 458.65 555.81 457.83C555.81 457.167 555.578 456.612 555.114 456.164C554.65 455.708 553.937 455.369 552.976 455.145L549.794 454.399C548.046 453.985 546.762 453.343 545.941 452.473C545.129 451.594 544.723 450.496 544.723 449.179C544.723 448.102 545.026 447.149 545.631 446.32C546.244 445.492 547.076 444.841 548.129 444.369C549.189 443.897 550.391 443.661 551.733 443.661C553.622 443.661 555.106 444.075 556.183 444.903C557.268 445.732 558.039 446.826 558.494 448.185ZM568.876 463.447C567.666 463.447 566.568 463.22 565.582 462.764C564.596 462.3 563.813 461.633 563.233 460.763C562.653 459.884 562.363 458.824 562.363 457.581C562.363 456.487 562.578 455.601 563.009 454.921C563.44 454.233 564.016 453.695 564.737 453.305C565.458 452.916 566.253 452.626 567.123 452.435C568.002 452.237 568.884 452.079 569.771 451.963C570.931 451.814 571.871 451.702 572.592 451.627C573.321 451.545 573.852 451.408 574.183 451.217C574.523 451.027 574.693 450.695 574.693 450.223V450.124C574.693 448.897 574.357 447.944 573.686 447.265C573.023 446.585 572.016 446.246 570.666 446.246C569.265 446.246 568.167 446.552 567.372 447.165C566.576 447.779 566.017 448.433 565.694 449.129L562.91 448.135C563.407 446.975 564.07 446.072 564.899 445.425C565.735 444.771 566.647 444.315 567.633 444.058C568.627 443.793 569.605 443.661 570.566 443.661C571.179 443.661 571.884 443.735 572.679 443.884C573.483 444.025 574.258 444.319 575.003 444.767C575.757 445.214 576.383 445.889 576.88 446.793C577.377 447.696 577.626 448.906 577.626 450.422V463H574.693V460.415H574.543C574.345 460.829 574.013 461.272 573.549 461.745C573.085 462.217 572.468 462.619 571.697 462.95C570.927 463.282 569.986 463.447 568.876 463.447ZM569.323 460.812C570.483 460.812 571.461 460.585 572.256 460.129C573.06 459.673 573.665 459.085 574.071 458.364C574.485 457.643 574.693 456.885 574.693 456.089V453.405C574.568 453.554 574.295 453.691 573.872 453.815C573.458 453.931 572.977 454.035 572.43 454.126C571.892 454.209 571.366 454.283 570.852 454.349C570.347 454.407 569.936 454.457 569.622 454.499C568.859 454.598 568.147 454.76 567.484 454.983C566.829 455.199 566.299 455.526 565.893 455.965C565.495 456.396 565.296 456.984 565.296 457.73C565.296 458.749 565.673 459.52 566.427 460.042C567.19 460.556 568.155 460.812 569.323 460.812ZM590.686 470.557C589.269 470.557 588.051 470.375 587.031 470.01C586.012 469.654 585.163 469.181 584.483 468.593C583.812 468.013 583.278 467.392 582.88 466.729L585.217 465.088C585.482 465.436 585.818 465.834 586.224 466.281C586.63 466.737 587.185 467.131 587.889 467.462C588.602 467.802 589.534 467.972 590.686 467.972C592.227 467.972 593.499 467.599 594.501 466.853C595.504 466.107 596.005 464.939 596.005 463.348V459.47H595.757C595.541 459.818 595.235 460.249 594.837 460.763C594.447 461.268 593.884 461.72 593.146 462.118C592.417 462.507 591.431 462.702 590.188 462.702C588.647 462.702 587.263 462.337 586.037 461.608C584.819 460.879 583.854 459.818 583.141 458.426C582.437 457.034 582.085 455.344 582.085 453.355C582.085 451.4 582.429 449.697 583.116 448.247C583.804 446.788 584.761 445.662 585.987 444.866C587.214 444.062 588.631 443.661 590.238 443.661C591.481 443.661 592.467 443.868 593.196 444.282C593.934 444.688 594.497 445.152 594.887 445.674C595.284 446.188 595.591 446.61 595.806 446.942H596.105V443.909H598.938V463.547C598.938 465.188 598.566 466.522 597.82 467.549C597.082 468.585 596.088 469.343 594.837 469.824C593.594 470.312 592.21 470.557 590.686 470.557ZM590.586 460.067C591.763 460.067 592.757 459.797 593.569 459.259C594.381 458.72 594.998 457.946 595.421 456.935C595.844 455.924 596.055 454.714 596.055 453.305C596.055 451.93 595.848 450.716 595.433 449.664C595.019 448.611 594.406 447.787 593.594 447.19C592.782 446.594 591.779 446.295 590.586 446.295C589.343 446.295 588.307 446.61 587.479 447.24C586.659 447.87 586.041 448.715 585.627 449.776C585.221 450.836 585.018 452.013 585.018 453.305C585.018 454.631 585.225 455.804 585.639 456.823C586.062 457.834 586.683 458.629 587.504 459.209C588.332 459.781 589.36 460.067 590.586 460.067ZM612.312 463.398C610.472 463.398 608.886 462.992 607.552 462.18C606.226 461.359 605.203 460.216 604.482 458.749C603.769 457.274 603.413 455.559 603.413 453.604C603.413 451.648 603.769 449.925 604.482 448.433C605.203 446.933 606.205 445.765 607.49 444.928C608.782 444.083 610.29 443.661 612.014 443.661C613.008 443.661 613.99 443.826 614.959 444.158C615.929 444.489 616.811 445.028 617.607 445.773C618.402 446.511 619.036 447.489 619.508 448.707C619.981 449.925 620.217 451.424 620.217 453.206V454.449H605.501V451.913H617.234C617.234 450.836 617.018 449.875 616.588 449.03C616.165 448.185 615.56 447.518 614.773 447.029C613.994 446.54 613.074 446.295 612.014 446.295C610.845 446.295 609.834 446.585 608.981 447.165C608.136 447.737 607.485 448.483 607.03 449.403C606.574 450.322 606.346 451.308 606.346 452.361V454.051C606.346 455.493 606.595 456.715 607.092 457.718C607.597 458.712 608.297 459.47 609.192 459.992C610.087 460.506 611.127 460.763 612.312 460.763C613.083 460.763 613.779 460.655 614.4 460.44C615.03 460.216 615.573 459.884 616.028 459.445C616.484 458.998 616.836 458.443 617.085 457.78L619.919 458.575C619.62 459.536 619.119 460.382 618.415 461.111C617.71 461.832 616.84 462.395 615.805 462.801C614.769 463.199 613.605 463.398 612.312 463.398ZM638.202 448.185L635.567 448.93C635.401 448.491 635.156 448.065 634.833 447.65C634.518 447.228 634.088 446.88 633.541 446.606C632.994 446.333 632.294 446.196 631.44 446.196C630.272 446.196 629.298 446.465 628.519 447.004C627.749 447.534 627.363 448.21 627.363 449.03C627.363 449.759 627.629 450.335 628.159 450.757C628.689 451.18 629.518 451.532 630.645 451.814L633.479 452.51C635.185 452.924 636.457 453.558 637.294 454.412C638.131 455.257 638.55 456.346 638.55 457.68C638.55 458.774 638.235 459.752 637.605 460.614C636.983 461.475 636.113 462.155 634.995 462.652C633.876 463.149 632.575 463.398 631.092 463.398C629.145 463.398 627.533 462.975 626.257 462.13C624.981 461.285 624.173 460.05 623.834 458.426L626.618 457.73C626.883 458.758 627.384 459.528 628.122 460.042C628.867 460.556 629.841 460.812 631.042 460.812C632.41 460.812 633.495 460.522 634.299 459.942C635.111 459.354 635.517 458.65 635.517 457.83C635.517 457.167 635.285 456.612 634.821 456.164C634.357 455.708 633.644 455.369 632.683 455.145L629.501 454.399C627.753 453.985 626.469 453.343 625.648 452.473C624.836 451.594 624.43 450.496 624.43 449.179C624.43 448.102 624.733 447.149 625.338 446.32C625.951 445.492 626.783 444.841 627.836 444.369C628.896 443.897 630.098 443.661 631.44 443.661C633.329 443.661 634.813 444.075 635.89 444.903C636.975 445.732 637.746 446.826 638.202 448.185ZM150.54 505L144.723 485.909H147.805L151.932 500.526H152.131L156.207 485.909H159.339L163.366 500.476H163.565L167.692 485.909H170.774L164.957 505H162.074L157.898 490.334H157.599L153.423 505H150.54ZM177.585 493.516V505H174.652V479.545H177.585V488.892H177.834C178.281 487.906 178.952 487.123 179.847 486.543C180.75 485.955 181.952 485.661 183.452 485.661C184.753 485.661 185.892 485.922 186.87 486.444C187.847 486.957 188.606 487.749 189.144 488.817C189.691 489.878 189.964 491.229 189.964 492.869V505H187.031V493.068C187.031 491.552 186.638 490.379 185.85 489.551C185.072 488.714 183.99 488.295 182.606 488.295C181.645 488.295 180.784 488.498 180.021 488.904C179.267 489.31 178.671 489.903 178.231 490.682C177.801 491.461 177.585 492.405 177.585 493.516ZM195.331 505V485.909H198.264V505H195.331ZM196.822 482.727C196.25 482.727 195.757 482.533 195.343 482.143C194.937 481.754 194.734 481.286 194.734 480.739C194.734 480.192 194.937 479.724 195.343 479.334C195.757 478.945 196.25 478.75 196.822 478.75C197.394 478.75 197.883 478.945 198.289 479.334C198.703 479.724 198.91 480.192 198.91 480.739C198.91 481.286 198.703 481.754 198.289 482.143C197.883 482.533 197.394 482.727 196.822 482.727ZM211.392 505.398C209.602 505.398 208.061 504.975 206.768 504.13C205.476 503.285 204.481 502.121 203.785 500.637C203.089 499.154 202.741 497.46 202.741 495.554C202.741 493.615 203.098 491.904 203.81 490.421C204.531 488.929 205.534 487.765 206.818 486.928C208.111 486.083 209.619 485.661 211.342 485.661C212.685 485.661 213.894 485.909 214.972 486.406C216.049 486.903 216.931 487.599 217.619 488.494C218.307 489.389 218.733 490.433 218.899 491.626H215.966C215.742 490.756 215.245 489.986 214.474 489.315C213.712 488.635 212.685 488.295 211.392 488.295C210.249 488.295 209.246 488.594 208.384 489.19C207.531 489.779 206.864 490.611 206.383 491.689C205.911 492.757 205.675 494.013 205.675 495.455C205.675 496.929 205.907 498.214 206.371 499.308C206.843 500.401 207.506 501.251 208.359 501.855C209.221 502.46 210.232 502.763 211.392 502.763C212.154 502.763 212.846 502.63 213.468 502.365C214.089 502.1 214.615 501.719 215.046 501.222C215.477 500.724 215.784 500.128 215.966 499.432H218.899C218.733 500.559 218.323 501.574 217.669 502.477C217.022 503.372 216.165 504.084 215.096 504.615C214.035 505.137 212.801 505.398 211.392 505.398ZM226.12 493.516V505H223.187V479.545H226.12V488.892H226.369C226.816 487.906 227.488 487.123 228.382 486.543C229.286 485.955 230.487 485.661 231.987 485.661C233.288 485.661 234.427 485.922 235.405 486.444C236.383 486.957 237.141 487.749 237.679 488.817C238.226 489.878 238.5 491.229 238.5 492.869V505H235.566V493.068C235.566 491.552 235.173 490.379 234.386 489.551C233.607 488.714 232.525 488.295 231.142 488.295C230.18 488.295 229.319 488.498 228.556 488.904C227.802 489.31 227.206 489.903 226.767 490.682C226.336 491.461 226.12 492.405 226.12 493.516ZM255.599 512.159C255.102 512.159 254.658 512.118 254.269 512.035C253.879 511.96 253.61 511.886 253.461 511.811L254.207 509.226C254.919 509.408 255.549 509.474 256.096 509.425C256.643 509.375 257.128 509.131 257.55 508.691C257.981 508.261 258.375 507.56 258.731 506.591L259.278 505.099L252.218 485.909H255.4L260.67 501.122H260.869L266.139 485.909H269.32L261.217 507.784C260.852 508.77 260.4 509.586 259.862 510.233C259.323 510.887 258.698 511.372 257.985 511.687C257.281 512.002 256.485 512.159 255.599 512.159ZM280.264 505.398C278.541 505.398 277.028 504.988 275.727 504.167C274.435 503.347 273.424 502.199 272.695 500.724C271.974 499.25 271.614 497.526 271.614 495.554C271.614 493.565 271.974 491.829 272.695 490.346C273.424 488.863 274.435 487.711 275.727 486.891C277.028 486.071 278.541 485.661 280.264 485.661C281.988 485.661 283.496 486.071 284.788 486.891C286.089 487.711 287.1 488.863 287.821 490.346C288.55 491.829 288.915 493.565 288.915 495.554C288.915 497.526 288.55 499.25 287.821 500.724C287.1 502.199 286.089 503.347 284.788 504.167C283.496 504.988 281.988 505.398 280.264 505.398ZM280.264 502.763C281.573 502.763 282.65 502.427 283.496 501.756C284.341 501.085 284.966 500.202 285.372 499.109C285.778 498.015 285.981 496.83 285.981 495.554C285.981 494.278 285.778 493.089 285.372 491.987C284.966 490.885 284.341 489.994 283.496 489.315C282.65 488.635 281.573 488.295 280.264 488.295C278.955 488.295 277.878 488.635 277.033 489.315C276.187 489.994 275.562 490.885 275.156 491.987C274.75 493.089 274.547 494.278 274.547 495.554C274.547 496.83 274.75 498.015 275.156 499.109C275.562 500.202 276.187 501.085 277.033 501.756C277.878 502.427 278.955 502.763 280.264 502.763ZM305.423 497.195V485.909H308.357V505H305.423V501.768H305.225C304.777 502.738 304.081 503.562 303.136 504.242C302.192 504.913 300.999 505.249 299.557 505.249C298.364 505.249 297.303 504.988 296.375 504.466C295.447 503.935 294.718 503.14 294.188 502.079C293.657 501.01 293.392 499.664 293.392 498.04V485.909H296.325V497.841C296.325 499.233 296.715 500.343 297.494 501.172C298.281 502 299.284 502.415 300.502 502.415C301.231 502.415 301.972 502.228 302.726 501.855C303.489 501.483 304.127 500.911 304.64 500.14C305.162 499.37 305.423 498.388 305.423 497.195ZM331.329 505.398C329.539 505.398 327.998 504.975 326.705 504.13C325.412 503.285 324.418 502.121 323.722 500.637C323.026 499.154 322.678 497.46 322.678 495.554C322.678 493.615 323.034 491.904 323.747 490.421C324.468 488.929 325.47 487.765 326.755 486.928C328.047 486.083 329.555 485.661 331.279 485.661C332.621 485.661 333.831 485.909 334.908 486.406C335.985 486.903 336.868 487.599 337.555 488.494C338.243 489.389 338.67 490.433 338.836 491.626H335.902C335.679 490.756 335.182 489.986 334.411 489.315C333.649 488.635 332.621 488.295 331.329 488.295C330.185 488.295 329.182 488.594 328.321 489.19C327.467 489.779 326.8 490.611 326.32 491.689C325.847 492.757 325.611 494.013 325.611 495.455C325.611 496.929 325.843 498.214 326.307 499.308C326.78 500.401 327.442 501.251 328.296 501.855C329.158 502.46 330.168 502.763 331.329 502.763C332.091 502.763 332.783 502.63 333.404 502.365C334.026 502.1 334.552 501.719 334.983 501.222C335.414 500.724 335.72 500.128 335.902 499.432H338.836C338.67 500.559 338.26 501.574 337.605 502.477C336.959 503.372 336.101 504.084 335.032 504.615C333.972 505.137 332.737 505.398 331.329 505.398ZM348.742 505.447C347.532 505.447 346.434 505.22 345.448 504.764C344.462 504.3 343.679 503.633 343.099 502.763C342.519 501.884 342.229 500.824 342.229 499.581C342.229 498.487 342.444 497.601 342.875 496.921C343.306 496.233 343.882 495.695 344.603 495.305C345.324 494.916 346.119 494.626 346.989 494.435C347.867 494.237 348.75 494.079 349.636 493.963C350.796 493.814 351.737 493.702 352.458 493.627C353.187 493.545 353.717 493.408 354.049 493.217C354.388 493.027 354.558 492.695 354.558 492.223V492.124C354.558 490.897 354.223 489.944 353.552 489.265C352.889 488.585 351.882 488.246 350.531 488.246C349.131 488.246 348.033 488.552 347.238 489.165C346.442 489.779 345.883 490.433 345.56 491.129L342.776 490.135C343.273 488.975 343.936 488.072 344.764 487.425C345.601 486.771 346.513 486.315 347.499 486.058C348.493 485.793 349.471 485.661 350.432 485.661C351.045 485.661 351.749 485.735 352.545 485.884C353.349 486.025 354.123 486.319 354.869 486.767C355.623 487.214 356.249 487.889 356.746 488.793C357.243 489.696 357.492 490.906 357.492 492.422V505H354.558V502.415H354.409C354.21 502.829 353.879 503.272 353.415 503.745C352.951 504.217 352.333 504.619 351.563 504.95C350.792 505.282 349.852 505.447 348.742 505.447ZM349.189 502.812C350.349 502.812 351.327 502.585 352.122 502.129C352.926 501.673 353.531 501.085 353.937 500.364C354.351 499.643 354.558 498.885 354.558 498.089V495.405C354.434 495.554 354.161 495.691 353.738 495.815C353.324 495.931 352.843 496.035 352.296 496.126C351.758 496.209 351.231 496.283 350.718 496.349C350.212 496.407 349.802 496.457 349.487 496.499C348.725 496.598 348.012 496.76 347.349 496.983C346.695 497.199 346.165 497.526 345.759 497.965C345.361 498.396 345.162 498.984 345.162 499.73C345.162 500.749 345.539 501.52 346.293 502.042C347.055 502.556 348.021 502.812 349.189 502.812ZM365.779 493.516V505H362.845V485.909H365.679V488.892H365.928C366.375 487.923 367.055 487.144 367.966 486.555C368.878 485.959 370.054 485.661 371.496 485.661C372.788 485.661 373.92 485.926 374.889 486.456C375.858 486.978 376.612 487.773 377.151 488.842C377.69 489.903 377.959 491.245 377.959 492.869V505H375.026V493.068C375.026 491.568 374.636 490.4 373.857 489.563C373.078 488.718 372.01 488.295 370.651 488.295C369.714 488.295 368.878 488.498 368.14 488.904C367.411 489.31 366.835 489.903 366.412 490.682C365.99 491.461 365.779 492.405 365.779 493.516ZM406.685 490.185L404.05 490.93C403.885 490.491 403.64 490.065 403.317 489.65C403.002 489.228 402.571 488.88 402.025 488.606C401.478 488.333 400.778 488.196 399.924 488.196C398.756 488.196 397.782 488.465 397.003 489.004C396.233 489.534 395.847 490.21 395.847 491.03C395.847 491.759 396.112 492.335 396.643 492.757C397.173 493.18 398.002 493.532 399.129 493.814L401.962 494.51C403.669 494.924 404.941 495.558 405.778 496.412C406.615 497.257 407.033 498.346 407.033 499.68C407.033 500.774 406.719 501.752 406.089 502.614C405.467 503.475 404.597 504.155 403.479 504.652C402.36 505.149 401.059 505.398 399.576 505.398C397.629 505.398 396.017 504.975 394.741 504.13C393.465 503.285 392.657 502.05 392.318 500.426L395.102 499.73C395.367 500.758 395.868 501.528 396.606 502.042C397.351 502.556 398.325 502.812 399.526 502.812C400.894 502.812 401.979 502.522 402.783 501.942C403.595 501.354 404.001 500.65 404.001 499.83C404.001 499.167 403.769 498.612 403.305 498.164C402.841 497.708 402.128 497.369 401.167 497.145L397.985 496.399C396.237 495.985 394.952 495.343 394.132 494.473C393.32 493.594 392.914 492.496 392.914 491.179C392.914 490.102 393.217 489.149 393.821 488.32C394.435 487.492 395.267 486.841 396.32 486.369C397.38 485.897 398.582 485.661 399.924 485.661C401.813 485.661 403.296 486.075 404.374 486.903C405.459 487.732 406.23 488.826 406.685 490.185ZM419.453 505.398C417.614 505.398 416.027 504.992 414.693 504.18C413.367 503.359 412.344 502.216 411.623 500.749C410.91 499.274 410.554 497.559 410.554 495.604C410.554 493.648 410.91 491.925 411.623 490.433C412.344 488.933 413.346 487.765 414.631 486.928C415.923 486.083 417.431 485.661 419.155 485.661C420.149 485.661 421.131 485.826 422.1 486.158C423.07 486.489 423.952 487.028 424.748 487.773C425.543 488.511 426.177 489.489 426.649 490.707C427.122 491.925 427.358 493.424 427.358 495.206V496.449H412.642V493.913H424.375C424.375 492.836 424.16 491.875 423.729 491.03C423.306 490.185 422.701 489.518 421.914 489.029C421.135 488.54 420.215 488.295 419.155 488.295C417.986 488.295 416.976 488.585 416.122 489.165C415.277 489.737 414.626 490.483 414.171 491.403C413.715 492.322 413.487 493.308 413.487 494.361V496.051C413.487 497.493 413.736 498.715 414.233 499.718C414.738 500.712 415.439 501.47 416.333 501.992C417.228 502.506 418.268 502.763 419.453 502.763C420.224 502.763 420.92 502.655 421.541 502.44C422.171 502.216 422.714 501.884 423.169 501.445C423.625 500.998 423.977 500.443 424.226 499.78L427.06 500.575C426.761 501.536 426.26 502.382 425.556 503.111C424.851 503.832 423.981 504.395 422.946 504.801C421.91 505.199 420.746 505.398 419.453 505.398ZM434.753 493.516V505H431.82V485.909H434.654V488.892H434.902C435.35 487.923 436.029 487.144 436.941 486.555C437.852 485.959 439.029 485.661 440.47 485.661C441.763 485.661 442.894 485.926 443.864 486.456C444.833 486.978 445.587 487.773 446.126 488.842C446.664 489.903 446.934 491.245 446.934 492.869V505H444V493.068C444 491.568 443.611 490.4 442.832 489.563C442.053 488.718 440.984 488.295 439.625 488.295C438.689 488.295 437.852 488.498 437.115 488.904C436.385 489.31 435.81 489.903 435.387 490.682C434.964 491.461 434.753 492.405 434.753 493.516ZM459.502 505.398C457.911 505.398 456.507 504.996 455.289 504.192C454.071 503.38 453.118 502.237 452.43 500.762C451.743 499.279 451.399 497.526 451.399 495.504C451.399 493.499 451.743 491.759 452.43 490.284C453.118 488.809 454.075 487.67 455.301 486.866C456.528 486.062 457.945 485.661 459.552 485.661C460.795 485.661 461.777 485.868 462.498 486.282C463.227 486.688 463.782 487.152 464.163 487.674C464.553 488.188 464.855 488.61 465.071 488.942H465.319V479.545H468.252V505H465.419V502.067H465.071C464.855 502.415 464.549 502.854 464.151 503.384C463.753 503.906 463.185 504.374 462.448 504.789C461.711 505.195 460.729 505.398 459.502 505.398ZM459.9 502.763C461.077 502.763 462.071 502.456 462.883 501.843C463.695 501.222 464.312 500.364 464.735 499.27C465.158 498.168 465.369 496.896 465.369 495.455C465.369 494.029 465.162 492.782 464.747 491.713C464.333 490.636 463.72 489.799 462.908 489.203C462.096 488.598 461.093 488.295 459.9 488.295C458.657 488.295 457.621 488.614 456.793 489.252C455.973 489.882 455.355 490.74 454.941 491.825C454.535 492.902 454.332 494.112 454.332 495.455C454.332 496.813 454.539 498.048 454.953 499.158C455.376 500.26 455.997 501.139 456.818 501.793C457.646 502.44 458.674 502.763 459.9 502.763ZM492.178 485.909V488.395H482.285V485.909H492.178ZM485.168 481.335H488.101V499.531C488.101 500.36 488.222 500.981 488.462 501.396C488.71 501.802 489.025 502.075 489.406 502.216C489.796 502.348 490.206 502.415 490.637 502.415C490.96 502.415 491.225 502.398 491.432 502.365C491.64 502.324 491.805 502.29 491.93 502.266L492.526 504.901C492.327 504.975 492.05 505.05 491.693 505.124C491.337 505.207 490.886 505.249 490.339 505.249C489.51 505.249 488.698 505.07 487.903 504.714C487.115 504.358 486.461 503.815 485.939 503.086C485.425 502.357 485.168 501.437 485.168 500.327V481.335ZM504.141 505.398C502.418 505.398 500.905 504.988 499.604 504.167C498.312 503.347 497.301 502.199 496.572 500.724C495.851 499.25 495.49 497.526 495.49 495.554C495.49 493.565 495.851 491.829 496.572 490.346C497.301 488.863 498.312 487.711 499.604 486.891C500.905 486.071 502.418 485.661 504.141 485.661C505.865 485.661 507.373 486.071 508.665 486.891C509.966 487.711 510.977 488.863 511.698 490.346C512.427 491.829 512.792 493.565 512.792 495.554C512.792 497.526 512.427 499.25 511.698 500.724C510.977 502.199 509.966 503.347 508.665 504.167C507.373 504.988 505.865 505.398 504.141 505.398ZM504.141 502.763C505.45 502.763 506.527 502.427 507.373 501.756C508.218 501.085 508.843 500.202 509.249 499.109C509.655 498.015 509.858 496.83 509.858 495.554C509.858 494.278 509.655 493.089 509.249 491.987C508.843 490.885 508.218 489.994 507.373 489.315C506.527 488.635 505.45 488.295 504.141 488.295C502.832 488.295 501.755 488.635 500.909 489.315C500.064 489.994 499.439 490.885 499.033 491.987C498.627 493.089 498.424 494.278 498.424 495.554C498.424 496.83 498.627 498.015 499.033 499.109C499.439 500.202 500.064 501.085 500.909 501.756C501.755 502.427 502.832 502.763 504.141 502.763ZM529.002 512.159C528.505 512.159 528.062 512.118 527.672 512.035C527.283 511.96 527.013 511.886 526.864 511.811L527.61 509.226C528.323 509.408 528.952 509.474 529.499 509.425C530.046 509.375 530.531 509.131 530.953 508.691C531.384 508.261 531.778 507.56 532.134 506.591L532.681 505.099L525.621 485.909H528.803L534.073 501.122H534.272L539.542 485.909H542.724L534.62 507.784C534.255 508.77 533.804 509.586 533.265 510.233C532.727 510.887 532.101 511.372 531.388 511.687C530.684 512.002 529.889 512.159 529.002 512.159ZM553.667 505.398C551.944 505.398 550.432 504.988 549.131 504.167C547.838 503.347 546.827 502.199 546.098 500.724C545.377 499.25 545.017 497.526 545.017 495.554C545.017 493.565 545.377 491.829 546.098 490.346C546.827 488.863 547.838 487.711 549.131 486.891C550.432 486.071 551.944 485.661 553.667 485.661C555.391 485.661 556.899 486.071 558.192 486.891C559.492 487.711 560.503 488.863 561.224 490.346C561.953 491.829 562.318 493.565 562.318 495.554C562.318 497.526 561.953 499.25 561.224 500.724C560.503 502.199 559.492 503.347 558.192 504.167C556.899 504.988 555.391 505.398 553.667 505.398ZM553.667 502.763C554.977 502.763 556.054 502.427 556.899 501.756C557.744 501.085 558.37 500.202 558.776 499.109C559.182 498.015 559.385 496.83 559.385 495.554C559.385 494.278 559.182 493.089 558.776 491.987C558.37 490.885 557.744 489.994 556.899 489.315C556.054 488.635 554.977 488.295 553.667 488.295C552.358 488.295 551.281 488.635 550.436 489.315C549.591 489.994 548.965 490.885 548.559 491.987C548.153 493.089 547.95 494.278 547.95 495.554C547.95 496.83 548.153 498.015 548.559 499.109C548.965 500.202 549.591 501.085 550.436 501.756C551.281 502.427 552.358 502.763 553.667 502.763ZM578.827 497.195V485.909H581.76V505H578.827V501.768H578.628C578.18 502.738 577.484 503.562 576.54 504.242C575.595 504.913 574.402 505.249 572.96 505.249C571.767 505.249 570.706 504.988 569.778 504.466C568.85 503.935 568.121 503.14 567.591 502.079C567.061 501.01 566.795 499.664 566.795 498.04V485.909H569.729V497.841C569.729 499.233 570.118 500.343 570.897 501.172C571.684 502 572.687 502.415 573.905 502.415C574.634 502.415 575.376 502.228 576.13 501.855C576.892 501.483 577.53 500.911 578.044 500.14C578.566 499.37 578.827 498.388 578.827 497.195ZM587.132 505V485.909H589.966V488.793H590.165C590.513 487.848 591.143 487.082 592.054 486.493C592.966 485.905 593.993 485.611 595.137 485.611C595.352 485.611 595.621 485.615 595.945 485.623C596.268 485.632 596.512 485.644 596.678 485.661V488.643C596.578 488.619 596.351 488.581 595.994 488.532C595.646 488.474 595.278 488.445 594.888 488.445C593.96 488.445 593.131 488.639 592.402 489.029C591.681 489.41 591.11 489.94 590.687 490.62C590.273 491.291 590.066 492.057 590.066 492.919V505H587.132ZM258.524 547.447C257.314 547.447 256.217 547.22 255.231 546.764C254.245 546.3 253.461 545.633 252.881 544.763C252.301 543.884 252.011 542.824 252.011 541.581C252.011 540.487 252.227 539.601 252.658 538.921C253.089 538.233 253.665 537.695 254.385 537.305C255.106 536.916 255.902 536.626 256.772 536.435C257.65 536.237 258.533 536.079 259.419 535.963C260.579 535.814 261.52 535.702 262.241 535.627C262.97 535.545 263.5 535.408 263.831 535.217C264.171 535.027 264.341 534.695 264.341 534.223V534.124C264.341 532.897 264.005 531.944 263.334 531.265C262.671 530.585 261.665 530.246 260.314 530.246C258.914 530.246 257.816 530.552 257.02 531.165C256.225 531.779 255.666 532.433 255.342 533.129L252.558 532.135C253.055 530.975 253.718 530.072 254.547 529.425C255.384 528.771 256.295 528.315 257.281 528.058C258.276 527.793 259.253 527.661 260.215 527.661C260.828 527.661 261.532 527.735 262.328 527.884C263.131 528.025 263.906 528.319 264.652 528.767C265.406 529.214 266.031 529.889 266.528 530.793C267.026 531.696 267.274 532.906 267.274 534.422V547H264.341V544.415H264.192C263.993 544.829 263.662 545.272 263.198 545.745C262.734 546.217 262.116 546.619 261.346 546.95C260.575 547.282 259.635 547.447 258.524 547.447ZM258.972 544.812C260.132 544.812 261.109 544.585 261.905 544.129C262.709 543.673 263.314 543.085 263.72 542.364C264.134 541.643 264.341 540.885 264.341 540.089V537.405C264.217 537.554 263.943 537.691 263.521 537.815C263.106 537.931 262.626 538.035 262.079 538.126C261.54 538.209 261.014 538.283 260.5 538.349C259.995 538.407 259.585 538.457 259.27 538.499C258.508 538.598 257.795 538.76 257.132 538.983C256.478 539.199 255.947 539.526 255.541 539.965C255.144 540.396 254.945 540.984 254.945 541.73C254.945 542.749 255.322 543.52 256.076 544.042C256.838 544.556 257.803 544.812 258.972 544.812ZM280.384 547.398C278.594 547.398 277.053 546.975 275.76 546.13C274.468 545.285 273.473 544.121 272.777 542.637C272.081 541.154 271.733 539.46 271.733 537.554C271.733 535.615 272.089 533.904 272.802 532.421C273.523 530.929 274.526 529.765 275.81 528.928C277.102 528.083 278.61 527.661 280.334 527.661C281.676 527.661 282.886 527.909 283.963 528.406C285.04 528.903 285.923 529.599 286.611 530.494C287.298 531.389 287.725 532.433 287.891 533.626H284.958C284.734 532.756 284.237 531.986 283.466 531.315C282.704 530.635 281.676 530.295 280.384 530.295C279.24 530.295 278.238 530.594 277.376 531.19C276.522 531.779 275.855 532.611 275.375 533.689C274.903 534.757 274.666 536.013 274.666 537.455C274.666 538.929 274.898 540.214 275.362 541.308C275.835 542.401 276.498 543.251 277.351 543.855C278.213 544.46 279.224 544.763 280.384 544.763C281.146 544.763 281.838 544.63 282.459 544.365C283.081 544.1 283.607 543.719 284.038 543.222C284.469 542.724 284.775 542.128 284.958 541.432H287.891C287.725 542.559 287.315 543.574 286.66 544.477C286.014 545.372 285.156 546.084 284.088 546.615C283.027 547.137 281.792 547.398 280.384 547.398ZM305.204 554.159V544.067H304.956C304.74 544.415 304.434 544.854 304.036 545.384C303.638 545.906 303.071 546.374 302.333 546.789C301.596 547.195 300.614 547.398 299.388 547.398C297.797 547.398 296.392 546.996 295.174 546.192C293.956 545.38 293.003 544.237 292.316 542.762C291.628 541.279 291.284 539.526 291.284 537.504C291.284 535.499 291.628 533.759 292.316 532.284C293.003 530.809 293.96 529.67 295.187 528.866C296.413 528.062 297.83 527.661 299.437 527.661C300.68 527.661 301.662 527.868 302.383 528.282C303.112 528.688 303.667 529.152 304.048 529.674C304.438 530.188 304.74 530.61 304.956 530.942H305.304V527.909H308.138V554.159H305.204ZM299.785 544.763C300.962 544.763 301.956 544.456 302.768 543.843C303.58 543.222 304.198 542.364 304.62 541.27C305.043 540.168 305.254 538.896 305.254 537.455C305.254 536.029 305.047 534.782 304.633 533.713C304.218 532.636 303.605 531.799 302.793 531.203C301.981 530.598 300.979 530.295 299.785 530.295C298.542 530.295 297.507 530.614 296.678 531.252C295.858 531.882 295.24 532.74 294.826 533.825C294.42 534.902 294.217 536.112 294.217 537.455C294.217 538.813 294.424 540.048 294.839 541.158C295.261 542.26 295.883 543.139 296.703 543.793C297.532 544.44 298.559 544.763 299.785 544.763ZM325.538 539.195V527.909H328.471V547H325.538V543.768H325.339C324.892 544.738 324.196 545.562 323.251 546.242C322.307 546.913 321.113 547.249 319.672 547.249C318.479 547.249 317.418 546.988 316.49 546.466C315.562 545.935 314.833 545.14 314.302 544.079C313.772 543.01 313.507 541.664 313.507 540.04V527.909H316.44V539.841C316.44 541.233 316.83 542.343 317.608 543.172C318.396 544 319.398 544.415 320.616 544.415C321.345 544.415 322.087 544.228 322.841 543.855C323.603 543.483 324.241 542.911 324.755 542.14C325.277 541.37 325.538 540.388 325.538 539.195ZM339.462 547.447C338.252 547.447 337.154 547.22 336.168 546.764C335.182 546.3 334.399 545.633 333.819 544.763C333.239 543.884 332.949 542.824 332.949 541.581C332.949 540.487 333.164 539.601 333.595 538.921C334.026 538.233 334.602 537.695 335.323 537.305C336.044 536.916 336.839 536.626 337.709 536.435C338.588 536.237 339.47 536.079 340.357 535.963C341.517 535.814 342.457 535.702 343.178 535.627C343.907 535.545 344.437 535.408 344.769 535.217C345.109 535.027 345.278 534.695 345.278 534.223V534.124C345.278 532.897 344.943 531.944 344.272 531.265C343.609 530.585 342.602 530.246 341.252 530.246C339.851 530.246 338.753 530.552 337.958 531.165C337.162 531.779 336.603 532.433 336.28 533.129L333.496 532.135C333.993 530.975 334.656 530.072 335.484 529.425C336.321 528.771 337.233 528.315 338.219 528.058C339.213 527.793 340.191 527.661 341.152 527.661C341.765 527.661 342.47 527.735 343.265 527.884C344.069 528.025 344.843 528.319 345.589 528.767C346.343 529.214 346.969 529.889 347.466 530.793C347.963 531.696 348.212 532.906 348.212 534.422V547H345.278V544.415H345.129C344.93 544.829 344.599 545.272 344.135 545.745C343.671 546.217 343.054 546.619 342.283 546.95C341.513 547.282 340.572 547.447 339.462 547.447ZM339.909 544.812C341.069 544.812 342.047 544.585 342.842 544.129C343.646 543.673 344.251 543.085 344.657 542.364C345.071 541.643 345.278 540.885 345.278 540.089V537.405C345.154 537.554 344.881 537.691 344.458 537.815C344.044 537.931 343.563 538.035 343.016 538.126C342.478 538.209 341.952 538.283 341.438 538.349C340.932 538.407 340.522 538.457 340.207 538.499C339.445 538.598 338.733 538.76 338.07 538.983C337.415 539.199 336.885 539.526 336.479 539.965C336.081 540.396 335.882 540.984 335.882 541.73C335.882 542.749 336.259 543.52 337.013 544.042C337.776 544.556 338.741 544.812 339.909 544.812ZM353.566 547V527.909H356.499V547H353.566ZM355.057 524.727C354.485 524.727 353.992 524.533 353.578 524.143C353.172 523.754 352.969 523.286 352.969 522.739C352.969 522.192 353.172 521.724 353.578 521.334C353.992 520.945 354.485 520.75 355.057 520.75C355.629 520.75 356.118 520.945 356.524 521.334C356.938 521.724 357.145 522.192 357.145 522.739C357.145 523.286 356.938 523.754 356.524 524.143C356.118 524.533 355.629 524.727 355.057 524.727ZM364.804 535.516V547H361.871V527.909H364.705V530.892H364.954C365.401 529.923 366.08 529.144 366.992 528.555C367.903 527.959 369.08 527.661 370.522 527.661C371.814 527.661 372.945 527.926 373.915 528.456C374.884 528.978 375.638 529.773 376.177 530.842C376.716 531.903 376.985 533.245 376.985 534.869V547H374.052V535.068C374.052 533.568 373.662 532.4 372.883 531.563C372.104 530.718 371.035 530.295 369.677 530.295C368.74 530.295 367.903 530.498 367.166 530.904C366.437 531.31 365.861 531.903 365.438 532.682C365.016 533.461 364.804 534.405 364.804 535.516ZM390.647 527.909V530.395H380.754V527.909H390.647ZM383.637 523.335H386.571V541.531C386.571 542.36 386.691 542.981 386.931 543.396C387.18 543.802 387.495 544.075 387.876 544.216C388.265 544.348 388.675 544.415 389.106 544.415C389.429 544.415 389.694 544.398 389.902 544.365C390.109 544.324 390.275 544.29 390.399 544.266L390.995 546.901C390.797 546.975 390.519 547.05 390.163 547.124C389.806 547.207 389.355 547.249 388.808 547.249C387.979 547.249 387.167 547.07 386.372 546.714C385.585 546.358 384.93 545.815 384.408 545.086C383.894 544.357 383.637 543.437 383.637 542.327V523.335ZM400.678 547.447C399.468 547.447 398.37 547.22 397.384 546.764C396.398 546.3 395.615 545.633 395.035 544.763C394.455 543.884 394.165 542.824 394.165 541.581C394.165 540.487 394.38 539.601 394.811 538.921C395.242 538.233 395.818 537.695 396.539 537.305C397.26 536.916 398.055 536.626 398.925 536.435C399.803 536.237 400.686 536.079 401.572 535.963C402.732 535.814 403.673 535.702 404.394 535.627C405.123 535.545 405.653 535.408 405.985 535.217C406.324 535.027 406.494 534.695 406.494 534.223V534.124C406.494 532.897 406.159 531.944 405.488 531.265C404.825 530.585 403.818 530.246 402.467 530.246C401.067 530.246 399.969 530.552 399.174 531.165C398.378 531.779 397.819 532.433 397.496 533.129L394.712 532.135C395.209 530.975 395.872 530.072 396.7 529.425C397.537 528.771 398.449 528.315 399.435 528.058C400.429 527.793 401.407 527.661 402.368 527.661C402.981 527.661 403.685 527.735 404.481 527.884C405.285 528.025 406.059 528.319 406.805 528.767C407.559 529.214 408.185 529.889 408.682 530.793C409.179 531.696 409.428 532.906 409.428 534.422V547H406.494V544.415H406.345C406.146 544.829 405.815 545.272 405.351 545.745C404.887 546.217 404.27 546.619 403.499 546.95C402.728 547.282 401.788 547.447 400.678 547.447ZM401.125 544.812C402.285 544.812 403.263 544.585 404.058 544.129C404.862 543.673 405.467 543.085 405.873 542.364C406.287 541.643 406.494 540.885 406.494 540.089V537.405C406.37 537.554 406.097 537.691 405.674 537.815C405.26 537.931 404.779 538.035 404.232 538.126C403.694 538.209 403.167 538.283 402.654 538.349C402.148 538.407 401.738 538.457 401.423 538.499C400.661 538.598 399.948 538.76 399.286 538.983C398.631 539.199 398.101 539.526 397.695 539.965C397.297 540.396 397.098 540.984 397.098 541.73C397.098 542.749 397.475 543.52 398.229 544.042C398.991 544.556 399.957 544.812 401.125 544.812ZM417.715 535.516V547H414.781V527.909H417.615V530.892H417.864C418.311 529.923 418.991 529.144 419.902 528.555C420.814 527.959 421.99 527.661 423.432 527.661C424.725 527.661 425.856 527.926 426.825 528.456C427.794 528.978 428.549 529.773 429.087 530.842C429.626 531.903 429.895 533.245 429.895 534.869V547H426.962V535.068C426.962 533.568 426.572 532.4 425.793 531.563C425.015 530.718 423.946 530.295 422.587 530.295C421.65 530.295 420.814 530.498 420.076 530.904C419.347 531.31 418.771 531.903 418.348 532.682C417.926 533.461 417.715 534.405 417.715 535.516ZM443.011 547.398C441.221 547.398 439.68 546.975 438.387 546.13C437.094 545.285 436.1 544.121 435.404 542.637C434.708 541.154 434.36 539.46 434.36 537.554C434.36 535.615 434.716 533.904 435.429 532.421C436.15 530.929 437.152 529.765 438.437 528.928C439.729 528.083 441.237 527.661 442.961 527.661C444.303 527.661 445.513 527.909 446.59 528.406C447.667 528.903 448.55 529.599 449.238 530.494C449.925 531.389 450.352 532.433 450.518 533.626H447.585C447.361 532.756 446.864 531.986 446.093 531.315C445.331 530.635 444.303 530.295 443.011 530.295C441.867 530.295 440.865 530.594 440.003 531.19C439.149 531.779 438.482 532.611 438.002 533.689C437.529 534.757 437.293 536.013 437.293 537.455C437.293 538.929 437.525 540.214 437.989 541.308C438.462 542.401 439.125 543.251 439.978 543.855C440.84 544.46 441.851 544.763 443.011 544.763C443.773 544.763 444.465 544.63 445.086 544.365C445.708 544.1 446.234 543.719 446.665 543.222C447.096 542.724 447.402 542.128 447.585 541.432H450.518C450.352 542.559 449.942 543.574 449.287 544.477C448.641 545.372 447.783 546.084 446.714 546.615C445.654 547.137 444.419 547.398 443.011 547.398ZM462.81 547.398C460.971 547.398 459.384 546.992 458.05 546.18C456.724 545.359 455.701 544.216 454.98 542.749C454.267 541.274 453.911 539.559 453.911 537.604C453.911 535.648 454.267 533.925 454.98 532.433C455.701 530.933 456.703 529.765 457.988 528.928C459.28 528.083 460.788 527.661 462.512 527.661C463.506 527.661 464.488 527.826 465.457 528.158C466.427 528.489 467.309 529.028 468.105 529.773C468.9 530.511 469.534 531.489 470.006 532.707C470.479 533.925 470.715 535.424 470.715 537.206V538.449H455.999V535.913H467.732C467.732 534.836 467.516 533.875 467.086 533.03C466.663 532.185 466.058 531.518 465.271 531.029C464.492 530.54 463.572 530.295 462.512 530.295C461.343 530.295 460.333 530.585 459.479 531.165C458.634 531.737 457.983 532.483 457.528 533.403C457.072 534.322 456.844 535.308 456.844 536.361V538.051C456.844 539.493 457.093 540.715 457.59 541.718C458.095 542.712 458.795 543.47 459.69 543.992C460.585 544.506 461.625 544.763 462.81 544.763C463.581 544.763 464.277 544.655 464.898 544.44C465.528 544.216 466.071 543.884 466.526 543.445C466.982 542.998 467.334 542.443 467.583 541.78L470.417 542.575C470.118 543.536 469.617 544.382 468.913 545.111C468.208 545.832 467.338 546.395 466.303 546.801C465.267 547.199 464.103 547.398 462.81 547.398ZM488.7 532.185L486.065 532.93C485.899 532.491 485.654 532.065 485.331 531.65C485.016 531.228 484.586 530.88 484.039 530.606C483.492 530.333 482.792 530.196 481.938 530.196C480.77 530.196 479.796 530.465 479.017 531.004C478.247 531.534 477.862 532.21 477.862 533.03C477.862 533.759 478.127 534.335 478.657 534.757C479.187 535.18 480.016 535.532 481.143 535.814L483.977 536.51C485.683 536.924 486.955 537.558 487.792 538.412C488.629 539.257 489.048 540.346 489.048 541.68C489.048 542.774 488.733 543.752 488.103 544.614C487.482 545.475 486.612 546.155 485.493 546.652C484.374 547.149 483.073 547.398 481.59 547.398C479.643 547.398 478.031 546.975 476.755 546.13C475.479 545.285 474.671 544.05 474.332 542.426L477.116 541.73C477.381 542.758 477.882 543.528 478.62 544.042C479.365 544.556 480.339 544.812 481.54 544.812C482.908 544.812 483.993 544.522 484.797 543.942C485.609 543.354 486.015 542.65 486.015 541.83C486.015 541.167 485.783 540.612 485.319 540.164C484.855 539.708 484.142 539.369 483.181 539.145L479.999 538.399C478.251 537.985 476.967 537.343 476.146 536.473C475.334 535.594 474.928 534.496 474.928 533.179C474.928 532.102 475.231 531.149 475.836 530.32C476.449 529.492 477.281 528.841 478.334 528.369C479.394 527.897 480.596 527.661 481.938 527.661C483.827 527.661 485.311 528.075 486.388 528.903C487.473 529.732 488.244 530.826 488.7 532.185Z" fill="black"/>
<defs>
<clipPath id="clip0_202_174">
<rect width="727.566" height="606.201" fill="white" transform="translate(691 188)"/>
</clipPath>
</defs>
</svg>
