<svg width="1512" height="982" viewBox="0 0 1512 982" fill="none" xmlns="http://www.w3.org/2000/svg">
<g clip-path="url(#clip0_210_277)">
<path d="M671.784 897.024L652.441 914.832L667.813 889.038C655.702 867.076 635.895 848.095 635.895 848.095C635.895 848.095 594.801 887.466 594.801 918.414C594.801 949.362 613.199 960.168 635.895 960.168C658.59 960.168 676.988 949.362 676.988 918.414C676.988 911.525 674.949 904.22 671.784 897.024Z" fill="#F2F2F2"/>
<path d="M647.467 915.796V917.321C647.376 935.053 644.386 948.888 638.518 958.63C638.435 958.773 638.344 958.909 638.261 959.053L637.604 958.652L636.977 958.26C643.487 947.74 645.79 932.87 645.873 917.404C645.881 916.906 645.888 916.4 645.881 915.894C645.858 909.346 645.458 902.723 644.816 896.289C644.771 895.791 644.718 895.285 644.665 894.779C643.774 886.291 642.49 878.18 641.176 871.134C641.085 870.635 640.987 870.137 640.889 869.646C638.616 857.729 636.297 849.098 635.769 847.187C635.708 846.953 635.671 846.825 635.663 846.794L636.381 846.591L636.388 846.583L637.113 846.379C637.121 846.409 637.249 846.84 637.46 847.64C638.268 850.631 640.368 858.749 642.43 869.457C642.52 869.941 642.618 870.439 642.709 870.938C643.781 876.654 644.831 883.043 645.662 889.749C645.873 891.433 646.062 893.095 646.228 894.733C646.289 895.239 646.341 895.745 646.387 896.244C647.082 903.199 647.441 909.716 647.467 915.796Z" fill="white"/>
<path d="M642.43 869.458C641.924 869.526 641.41 869.593 640.889 869.646C639.474 869.792 638.052 869.865 636.63 869.865C630.567 869.873 624.58 868.521 619.109 865.908C618.792 866.308 618.475 866.709 618.15 867.116C623.905 869.926 630.226 871.382 636.63 871.376C638.148 871.375 639.666 871.295 641.176 871.134C641.689 871.081 642.203 871.013 642.709 870.938C646.886 870.339 650.947 869.109 654.754 867.29C654.429 866.875 654.112 866.467 653.803 866.067C650.199 867.751 646.367 868.894 642.43 869.458Z" fill="white"/>
<path d="M646.228 894.734C645.707 894.764 645.186 894.779 644.665 894.779C644.506 894.787 644.34 894.786 644.182 894.786C637.612 894.787 631.141 893.198 625.318 890.157C619.495 887.115 614.495 882.711 610.742 877.319C610.44 877.765 610.138 878.21 609.843 878.663C613.755 884.119 618.91 888.564 624.881 891.63C630.853 894.697 637.469 896.297 644.182 896.297C644.393 896.297 644.604 896.297 644.816 896.289C645.344 896.282 645.866 896.267 646.387 896.244C654.45 895.831 662.223 893.104 668.778 888.39C668.536 887.944 668.295 887.499 668.045 887.053C661.675 891.682 654.093 894.351 646.228 894.734Z" fill="white"/>
<path d="M647.466 915.796C646.938 915.841 646.409 915.871 645.881 915.894C645.314 915.916 644.748 915.932 644.181 915.932C635.354 915.921 626.768 913.052 619.708 907.754C612.648 902.455 607.494 895.013 605.018 886.54C604.678 887.152 604.338 887.756 604.013 888.367C606.803 896.82 612.186 904.179 619.397 909.399C626.608 914.618 635.28 917.432 644.181 917.442C644.748 917.442 645.314 917.434 645.873 917.404C646.409 917.389 646.938 917.359 647.466 917.321C658.144 916.486 668.105 911.624 675.333 903.72C675.174 903.161 674.993 902.61 674.812 902.051C667.831 910.014 658.022 914.944 647.466 915.796Z" fill="white"/>
<path d="M1126.69 277.566H386.075C385.791 277.565 385.518 277.452 385.317 277.25C385.117 277.049 385.004 276.776 385.004 276.492C385.004 276.207 385.117 275.934 385.317 275.733C385.518 275.531 385.791 275.418 386.075 275.417H1126.69C1126.98 275.418 1127.25 275.531 1127.45 275.733C1127.65 275.934 1127.76 276.207 1127.76 276.492C1127.76 276.776 1127.65 277.049 1127.45 277.25C1127.25 277.452 1126.98 277.565 1126.69 277.566Z" fill="#CACACA"/>
<path d="M410.269 262.518C416.799 262.518 422.093 257.224 422.093 250.694C422.093 244.163 416.799 238.869 410.269 238.869C403.739 238.869 398.445 244.163 398.445 250.694C398.445 257.224 403.739 262.518 410.269 262.518Z" fill="#3F3D56"/>
<path d="M451.116 262.518C457.646 262.518 462.94 257.224 462.94 250.694C462.94 244.163 457.646 238.869 451.116 238.869C444.586 238.869 439.292 244.163 439.292 250.694C439.292 257.224 444.586 262.518 451.116 262.518Z" fill="#3F3D56"/>
<path d="M491.963 262.518C498.493 262.518 503.787 257.224 503.787 250.694C503.787 244.163 498.493 238.869 491.963 238.869C485.432 238.869 480.139 244.163 480.139 250.694C480.139 257.224 485.432 262.518 491.963 262.518Z" fill="#3F3D56"/>
<path d="M1102.22 246.102H1073.2C1072.63 246.1 1072.08 245.873 1071.68 245.47C1071.28 245.067 1071.05 244.521 1071.05 243.952C1071.05 243.383 1071.28 242.837 1071.68 242.434C1072.08 242.032 1072.63 241.804 1073.2 241.802H1102.22C1102.5 241.801 1102.78 241.856 1103.04 241.964C1103.31 242.071 1103.54 242.23 1103.74 242.429C1103.94 242.629 1104.1 242.866 1104.21 243.128C1104.32 243.389 1104.38 243.669 1104.38 243.952C1104.38 244.235 1104.32 244.515 1104.21 244.776C1104.1 245.038 1103.94 245.275 1103.74 245.475C1103.54 245.675 1103.31 245.833 1103.04 245.94C1102.78 246.048 1102.5 246.103 1102.22 246.102Z" fill="#3F3D56"/>
<path d="M1102.22 254.164H1073.2C1072.63 254.162 1072.08 253.934 1071.68 253.531C1071.28 253.128 1071.05 252.583 1071.05 252.014C1071.05 251.445 1071.28 250.899 1071.68 250.496C1072.08 250.093 1072.63 249.866 1073.2 249.864H1102.22C1102.5 249.863 1102.78 249.918 1103.04 250.026C1103.31 250.133 1103.54 250.291 1103.74 250.491C1103.94 250.691 1104.1 250.928 1104.21 251.189C1104.32 251.451 1104.38 251.731 1104.38 252.014C1104.38 252.297 1104.32 252.577 1104.21 252.838C1104.1 253.1 1103.94 253.337 1103.74 253.537C1103.54 253.736 1103.31 253.895 1103.04 254.002C1102.78 254.11 1102.5 254.165 1102.22 254.164Z" fill="#3F3D56"/>
<path d="M1102.22 262.226H1073.2C1072.63 262.224 1072.08 261.996 1071.68 261.593C1071.28 261.19 1071.05 260.645 1071.05 260.076C1071.05 259.507 1071.28 258.961 1071.68 258.558C1072.08 258.155 1072.63 257.928 1073.2 257.926H1102.22C1102.5 257.925 1102.78 257.98 1103.04 258.087C1103.31 258.195 1103.54 258.353 1103.74 258.553C1103.94 258.753 1104.1 258.99 1104.21 259.251C1104.32 259.513 1104.38 259.793 1104.38 260.076C1104.38 260.359 1104.32 260.639 1104.21 260.9C1104.1 261.161 1103.94 261.399 1103.74 261.599C1103.54 261.798 1103.31 261.956 1103.04 262.064C1102.78 262.172 1102.5 262.227 1102.22 262.226Z" fill="#3F3D56"/>
<path d="M1086.02 326.178H407.312V685.769H1086.02V326.178Z" fill="#F0F0F0"/>
<path d="M1086.02 393.488V389.961H953.905V326.178H950.379V389.961H818.26V326.178H814.733V389.961H682.615V326.178H679.089V389.961H546.97V326.178H543.443V389.961H407.312V393.488H543.443V463.952H407.312V467.478H543.443V537.942H407.312V541.469H543.443V611.92H407.312V615.446H543.443V685.769H546.97V615.446H679.089V685.769H682.615V615.446H814.733V685.769H818.26V615.446H950.379V685.769H953.905V615.446H1086.02V611.92H953.905V541.469H1086.02V537.942H953.905V467.478H1086.02V463.952H953.905V393.488L1086.02 393.488ZM679.089 611.92H546.97V541.469H679.089V611.92ZM679.089 537.942H546.97V467.478H679.089V537.942ZM679.089 463.952H546.97V393.488H679.089V463.952ZM814.733 611.92H682.615V541.469H814.733V611.92ZM814.733 537.942H682.615V467.478H814.733V537.942ZM814.733 463.952H682.615V393.488H814.733V463.952ZM950.379 611.92H818.26V541.469H950.379V611.92ZM950.379 537.942H818.26V467.478H950.379V537.942ZM950.379 463.952H818.26V393.488H950.379V463.952Z" fill="white"/>
<path d="M618.659 410.624H573.253V454.583H618.659V410.624Z" fill="#CACACA"/>
<path d="M1036.7 552.963H991.292V596.921H1036.7V552.963Z" fill="#CACACA"/>
<path d="M632.765 626.056H587.358V670.014H632.765V626.056Z" fill="#CACACA"/>
<path d="M646.184 402.469H600.778V446.427H646.184V402.469Z" fill="#6C63FF"/>
<path d="M859.629 585.196L913.512 537.19L929.407 545.066L864.783 612.847L859.629 585.196Z" fill="#FFB6B6"/>
<path d="M920.603 553.689C927.685 553.689 933.426 547.948 933.426 540.866C933.426 533.784 927.685 528.043 920.603 528.043C913.521 528.043 907.78 533.784 907.78 540.866C907.78 547.948 913.521 553.689 920.603 553.689Z" fill="#FFB6B6"/>
<path d="M809.194 946.532H796.444L790.378 897.354L809.195 897.356L809.194 946.532Z" fill="#FFB6B6"/>
<path d="M812.445 958.89L771.335 958.889V958.369C771.335 954.125 773.021 950.055 776.022 947.055C779.023 944.054 783.092 942.368 787.336 942.368H787.337L812.446 942.369L812.445 958.89Z" fill="#2F2E41"/>
<path d="M763.03 946.532H750.28L744.214 897.354L763.031 897.356L763.03 946.532Z" fill="#FFB6B6"/>
<path d="M766.281 958.89L725.171 958.889V958.369C725.171 954.125 726.857 950.055 729.858 947.055C732.859 944.054 736.928 942.368 741.172 942.368H741.173L766.282 942.369L766.281 958.89Z" fill="#2F2E41"/>
<path d="M819.901 665.423C819.901 665.423 851.96 662.858 841.701 719.281C831.442 775.703 810.193 930.047 810.193 930.047L790.928 932.694L779.546 726.804L770.936 932.695L746.434 930.047L722.444 709.022C722.444 709.022 714.741 691.251 722.44 678.978C730.138 666.705 819.901 665.423 819.901 665.423Z" fill="#2F2E41"/>
<path d="M799.384 525.649L808.285 520.88C808.285 520.88 830.214 519.01 839.164 544.77L862.898 580.618L901.368 547.278L918.038 558.819L869.555 616.683L849.395 619.259L805.796 562.836L799.384 525.649Z" fill="#3F3D56"/>
<path d="M767.087 421.609C730.518 421.609 720.282 461.781 720.282 484.443C720.282 507.106 741.237 503.678 767.087 503.678C778.182 503.678 788.369 504.305 796.391 503.234L800.249 493.812L803.354 501.619C809.939 499.199 813.892 494.282 813.892 484.443C813.892 461.781 804.916 421.609 767.087 421.609Z" fill="#2F2E41"/>
<path d="M766.93 503.641C784.324 503.641 798.425 489.54 798.425 472.145C798.425 454.751 784.324 440.65 766.93 440.65C749.536 440.65 735.435 454.751 735.435 472.145C735.435 489.54 749.536 503.641 766.93 503.641Z" fill="#FFB6B6"/>
<path d="M730.54 469.055H742.997L748.493 453.667L749.592 469.055H755.545L758.751 460.079L759.392 469.055H803.633C803.633 460.213 800.12 451.733 793.868 445.48C787.615 439.228 779.135 435.715 770.292 435.715H763.881C755.038 435.715 746.558 439.228 740.305 445.48C734.053 451.733 730.54 460.213 730.54 469.055Z" fill="#2F2E41"/>
<path d="M941.12 492.232H895.714V536.19H941.12V492.232Z" fill="#6C63FF"/>
<path d="M829.867 653.82C825.031 653.882 810.465 567.455 810.465 567.455L808.285 520.88L792.37 520.345V519.299C792.37 517.196 791.535 515.18 790.048 513.694C788.562 512.207 786.546 511.372 784.444 511.372H754.132C752.118 511.373 750.181 512.141 748.713 513.52C747.246 514.899 746.358 516.785 746.232 518.794L733.751 518.375L712.136 587.049C712.136 587.049 732.053 650.858 722.44 678.978C722.44 678.978 816.099 687.021 834.029 669.169C834.029 669.169 834.702 653.757 829.867 653.82Z" fill="#3F3D56"/>
<path d="M739.115 526.931L733.751 518.375C733.751 518.375 716.298 514.06 709.113 525.625C701.927 537.19 680.807 599.853 680.807 599.853L702.607 607.547L727.345 572.866L739.115 526.931Z" fill="#3F3D56"/>
<path d="M793.652 571.736H748.246V615.695H793.652V571.736Z" fill="#6C63FF"/>
<path d="M713.408 587.624L697.612 585.953C696.614 588.081 696.114 590.408 696.148 592.758C696.183 595.108 696.751 597.419 697.811 599.517C698.871 601.615 700.394 603.444 702.265 604.867C704.136 606.289 706.306 607.267 708.61 607.727L771.116 620.202L764.596 600.122L713.408 587.624Z" fill="#FFB6B6"/>
<path d="M771.304 620.434C778.386 620.434 784.127 614.692 784.127 607.61C784.127 600.528 778.386 594.787 771.304 594.787C764.222 594.787 758.48 600.528 758.48 607.61C758.48 614.692 764.222 620.434 771.304 620.434Z" fill="#FFB6B6"/>
<path d="M755.296 620.824L707.677 609.943C704.226 609.145 701.04 607.469 698.427 605.079C695.814 602.688 693.862 599.664 692.76 596.298L690.836 590.363L703.194 580.638L759.813 596.463L755.296 620.824Z" fill="#3F3D56"/>
<path d="M1022.88 961.471H534.313C533.973 961.471 533.647 961.336 533.406 961.095C533.166 960.855 533.031 960.528 533.031 960.188C533.031 959.848 533.166 959.522 533.406 959.282C533.647 959.041 533.973 958.906 534.313 958.906H1022.88C1023.22 958.906 1023.55 959.041 1023.79 959.282C1024.03 959.522 1024.16 959.848 1024.16 960.188C1024.16 960.528 1024.03 960.855 1023.79 961.095C1023.55 961.336 1023.22 961.471 1022.88 961.471Z" fill="#CACACA"/>
</g>
<path d="M557.892 181H554.199L564.88 151.909H568.517L579.199 181H575.505L566.812 156.511H566.585L557.892 181ZM559.255 169.636H574.142V172.761H559.255V169.636ZM591.397 159.182V162.023H580.09V159.182H591.397ZM583.385 153.955H586.738V174.75C586.738 175.697 586.875 176.407 587.15 176.881C587.434 177.345 587.793 177.657 588.229 177.818C588.674 177.97 589.143 178.045 589.635 178.045C590.005 178.045 590.308 178.027 590.544 177.989C590.781 177.941 590.971 177.903 591.113 177.875L591.794 180.886C591.567 180.972 591.25 181.057 590.843 181.142C590.435 181.237 589.919 181.284 589.294 181.284C588.347 181.284 587.419 181.08 586.51 180.673C585.611 180.266 584.863 179.646 584.266 178.812C583.679 177.979 583.385 176.928 583.385 175.659V153.955ZM614.11 181.511C612.727 181.511 611.472 181.251 610.346 180.73C609.219 180.2 608.324 179.438 607.661 178.443C606.998 177.439 606.667 176.227 606.667 174.807C606.667 173.557 606.913 172.544 607.405 171.767C607.898 170.981 608.556 170.366 609.38 169.92C610.203 169.475 611.113 169.144 612.107 168.926C613.111 168.699 614.119 168.519 615.132 168.386C616.458 168.216 617.533 168.088 618.357 168.003C619.19 167.908 619.796 167.752 620.175 167.534C620.563 167.316 620.757 166.937 620.757 166.398V166.284C620.757 164.883 620.374 163.794 619.607 163.017C618.849 162.241 617.699 161.852 616.155 161.852C614.555 161.852 613.3 162.203 612.391 162.903C611.482 163.604 610.843 164.352 610.473 165.148L607.292 164.011C607.86 162.686 608.617 161.653 609.564 160.915C610.521 160.167 611.562 159.646 612.689 159.352C613.826 159.049 614.943 158.898 616.042 158.898C616.742 158.898 617.547 158.983 618.456 159.153C619.375 159.314 620.26 159.651 621.113 160.162C621.974 160.673 622.689 161.445 623.257 162.477C623.826 163.509 624.11 164.892 624.11 166.625V181H620.757V178.045H620.587C620.36 178.519 619.981 179.026 619.451 179.565C618.92 180.105 618.215 180.564 617.334 180.943C616.453 181.322 615.379 181.511 614.11 181.511ZM614.621 178.5C615.947 178.5 617.064 178.24 617.973 177.719C618.892 177.198 619.583 176.526 620.047 175.702C620.521 174.878 620.757 174.011 620.757 173.102V170.034C620.615 170.205 620.303 170.361 619.82 170.503C619.346 170.635 618.797 170.754 618.172 170.858C617.557 170.953 616.955 171.038 616.368 171.114C615.791 171.18 615.322 171.237 614.962 171.284C614.091 171.398 613.276 171.582 612.519 171.838C611.771 172.084 611.165 172.458 610.701 172.96C610.246 173.453 610.019 174.125 610.019 174.977C610.019 176.142 610.45 177.023 611.311 177.619C612.183 178.206 613.286 178.5 614.621 178.5ZM633.581 167.875V181H630.228V159.182H633.467V162.591H633.751C634.262 161.483 635.039 160.593 636.081 159.92C637.122 159.239 638.467 158.898 640.115 158.898C641.592 158.898 642.885 159.201 643.993 159.807C645.1 160.403 645.962 161.312 646.578 162.534C647.193 163.746 647.501 165.28 647.501 167.136V181H644.149V167.364C644.149 165.65 643.704 164.314 642.814 163.358C641.923 162.392 640.702 161.909 639.149 161.909C638.079 161.909 637.122 162.141 636.279 162.605C635.446 163.069 634.788 163.746 634.305 164.636C633.822 165.527 633.581 166.606 633.581 167.875ZM663.115 159.182V162.023H651.809V159.182H663.115ZM655.104 153.955H658.456V174.75C658.456 175.697 658.594 176.407 658.868 176.881C659.152 177.345 659.512 177.657 659.948 177.818C660.393 177.97 660.862 178.045 661.354 178.045C661.723 178.045 662.026 178.027 662.263 177.989C662.5 177.941 662.689 177.903 662.831 177.875L663.513 180.886C663.286 180.972 662.969 181.057 662.561 181.142C662.154 181.237 661.638 181.284 661.013 181.284C660.066 181.284 659.138 181.08 658.229 180.673C657.329 180.266 656.581 179.646 655.985 178.812C655.398 177.979 655.104 176.928 655.104 175.659V153.955ZM670.317 189.182C669.749 189.182 669.242 189.134 668.797 189.04C668.352 188.955 668.044 188.869 667.874 188.784L668.726 185.83C669.541 186.038 670.26 186.114 670.885 186.057C671.51 186 672.064 185.721 672.547 185.219C673.04 184.726 673.489 183.926 673.897 182.818L674.522 181.114L666.453 159.182H670.09L676.113 176.568H676.34L682.363 159.182H685.999L676.738 184.182C676.321 185.309 675.805 186.241 675.189 186.98C674.574 187.728 673.859 188.282 673.044 188.642C672.239 189.002 671.33 189.182 670.317 189.182ZM711.162 159.182V162.023H699.855V159.182H711.162ZM703.151 153.955H706.503V174.75C706.503 175.697 706.641 176.407 706.915 176.881C707.199 177.345 707.559 177.657 707.995 177.818C708.44 177.97 708.908 178.045 709.401 178.045C709.77 178.045 710.073 178.027 710.31 177.989C710.547 177.941 710.736 177.903 710.878 177.875L711.56 180.886C711.333 180.972 711.016 181.057 710.608 181.142C710.201 181.237 709.685 181.284 709.06 181.284C708.113 181.284 707.185 181.08 706.276 180.673C705.376 180.266 704.628 179.646 704.032 178.812C703.444 177.979 703.151 176.928 703.151 175.659V153.955ZM716.205 181V159.182H719.557V181H716.205ZM717.909 155.545C717.256 155.545 716.693 155.323 716.219 154.878C715.755 154.433 715.523 153.898 715.523 153.273C715.523 152.648 715.755 152.113 716.219 151.668C716.693 151.223 717.256 151 717.909 151C718.563 151 719.122 151.223 719.586 151.668C720.059 152.113 720.296 152.648 720.296 153.273C720.296 153.898 720.059 154.433 719.586 154.878C719.122 155.323 718.563 155.545 717.909 155.545ZM725.697 181V159.182H728.936V162.591H729.22C729.674 161.426 730.408 160.522 731.422 159.878C732.435 159.224 733.652 158.898 735.072 158.898C736.511 158.898 737.709 159.224 738.666 159.878C739.632 160.522 740.385 161.426 740.924 162.591H741.152C741.71 161.464 742.548 160.569 743.666 159.906C744.783 159.234 746.123 158.898 747.686 158.898C749.636 158.898 751.232 159.509 752.473 160.73C753.713 161.942 754.333 163.831 754.333 166.398V181H750.981V166.398C750.981 164.788 750.541 163.637 749.66 162.946C748.779 162.255 747.743 161.909 746.549 161.909C745.015 161.909 743.827 162.373 742.984 163.301C742.141 164.22 741.72 165.384 741.72 166.795V181H738.311V166.057C738.311 164.816 737.908 163.817 737.103 163.06C736.298 162.293 735.261 161.909 733.993 161.909C733.121 161.909 732.307 162.141 731.549 162.605C730.801 163.069 730.195 163.713 729.731 164.537C729.277 165.351 729.049 166.294 729.049 167.364V181H725.697ZM769.61 181.455C767.508 181.455 765.695 180.991 764.17 180.062C762.655 179.125 761.485 177.818 760.662 176.142C759.847 174.456 759.44 172.496 759.44 170.261C759.44 168.027 759.847 166.057 760.662 164.352C761.485 162.638 762.631 161.303 764.099 160.347C765.576 159.381 767.3 158.898 769.27 158.898C770.406 158.898 771.528 159.087 772.636 159.466C773.744 159.845 774.752 160.46 775.662 161.312C776.571 162.155 777.295 163.273 777.835 164.665C778.375 166.057 778.645 167.771 778.645 169.807V171.227H761.826V168.33H775.235C775.235 167.098 774.989 166 774.497 165.034C774.014 164.068 773.323 163.306 772.423 162.747C771.533 162.188 770.482 161.909 769.27 161.909C767.934 161.909 766.779 162.241 765.804 162.903C764.838 163.557 764.094 164.409 763.574 165.46C763.053 166.511 762.792 167.638 762.792 168.841V170.773C762.792 172.42 763.076 173.817 763.645 174.963C764.222 176.099 765.022 176.966 766.045 177.562C767.068 178.15 768.256 178.443 769.61 178.443C770.491 178.443 771.287 178.32 771.997 178.074C772.717 177.818 773.337 177.439 773.858 176.938C774.378 176.426 774.781 175.792 775.065 175.034L778.304 175.943C777.963 177.042 777.39 178.008 776.585 178.841C775.78 179.665 774.786 180.309 773.602 180.773C772.418 181.227 771.088 181.455 769.61 181.455ZM801.414 181.511C800.032 181.511 798.777 181.251 797.65 180.73C796.523 180.2 795.628 179.438 794.966 178.443C794.303 177.439 793.971 176.227 793.971 174.807C793.971 173.557 794.217 172.544 794.71 171.767C795.202 170.981 795.86 170.366 796.684 169.92C797.508 169.475 798.417 169.144 799.412 168.926C800.415 168.699 801.424 168.519 802.437 168.386C803.763 168.216 804.838 168.088 805.662 168.003C806.495 167.908 807.101 167.752 807.48 167.534C807.868 167.316 808.062 166.937 808.062 166.398V166.284C808.062 164.883 807.679 163.794 806.912 163.017C806.154 162.241 805.003 161.852 803.46 161.852C801.859 161.852 800.605 162.203 799.696 162.903C798.787 163.604 798.147 164.352 797.778 165.148L794.596 164.011C795.164 162.686 795.922 161.653 796.869 160.915C797.825 160.167 798.867 159.646 799.994 159.352C801.13 159.049 802.248 158.898 803.346 158.898C804.047 158.898 804.852 158.983 805.761 159.153C806.68 159.314 807.565 159.651 808.417 160.162C809.279 160.673 809.994 161.445 810.562 162.477C811.13 163.509 811.414 164.892 811.414 166.625V181H808.062V178.045H807.892C807.664 178.519 807.286 179.026 806.755 179.565C806.225 180.105 805.52 180.564 804.639 180.943C803.758 181.322 802.683 181.511 801.414 181.511ZM801.926 178.5C803.252 178.5 804.369 178.24 805.278 177.719C806.197 177.198 806.888 176.526 807.352 175.702C807.825 174.878 808.062 174.011 808.062 173.102V170.034C807.92 170.205 807.608 170.361 807.125 170.503C806.651 170.635 806.102 170.754 805.477 170.858C804.861 170.953 804.26 171.038 803.673 171.114C803.095 171.18 802.627 171.237 802.267 171.284C801.395 171.398 800.581 171.582 799.824 171.838C799.075 172.084 798.469 172.458 798.005 172.96C797.551 173.453 797.324 174.125 797.324 174.977C797.324 176.142 797.754 177.023 798.616 177.619C799.487 178.206 800.591 178.5 801.926 178.5ZM820.885 167.875V181H817.533V159.182H820.772V162.591H821.056C821.567 161.483 822.344 160.593 823.385 159.92C824.427 159.239 825.772 158.898 827.419 158.898C828.897 158.898 830.189 159.201 831.297 159.807C832.405 160.403 833.267 161.312 833.882 162.534C834.498 163.746 834.806 165.28 834.806 167.136V181H831.453V167.364C831.453 165.65 831.008 164.314 830.118 163.358C829.228 162.392 828.007 161.909 826.453 161.909C825.383 161.909 824.427 162.141 823.584 162.605C822.751 163.069 822.093 163.746 821.61 164.636C821.127 165.527 820.885 166.606 820.885 167.875ZM849.17 181.455C847.352 181.455 845.747 180.995 844.355 180.077C842.963 179.149 841.874 177.842 841.088 176.156C840.302 174.461 839.909 172.458 839.909 170.148C839.909 167.856 840.302 165.867 841.088 164.182C841.874 162.496 842.967 161.194 844.369 160.276C845.77 159.357 847.39 158.898 849.227 158.898C850.647 158.898 851.77 159.134 852.593 159.608C853.427 160.072 854.061 160.602 854.497 161.199C854.942 161.786 855.288 162.269 855.534 162.648H855.818V151.909H859.17V181H855.931V177.648H855.534C855.288 178.045 854.937 178.547 854.483 179.153C854.028 179.75 853.379 180.285 852.537 180.759C851.694 181.223 850.572 181.455 849.17 181.455ZM849.625 178.443C850.969 178.443 852.106 178.093 853.034 177.392C853.962 176.682 854.667 175.702 855.15 174.452C855.633 173.192 855.875 171.739 855.875 170.091C855.875 168.462 855.638 167.037 855.164 165.815C854.691 164.584 853.99 163.628 853.062 162.946C852.134 162.255 850.988 161.909 849.625 161.909C848.204 161.909 847.02 162.274 846.074 163.003C845.136 163.723 844.431 164.703 843.957 165.943C843.493 167.174 843.261 168.557 843.261 170.091C843.261 171.644 843.498 173.055 843.971 174.324C844.454 175.583 845.164 176.587 846.102 177.335C847.049 178.074 848.223 178.443 849.625 178.443ZM886.457 181H877.48V151.909H886.855C889.677 151.909 892.092 152.491 894.099 153.656C896.107 154.812 897.645 156.473 898.716 158.642C899.786 160.801 900.321 163.386 900.321 166.398C900.321 169.428 899.781 172.037 898.701 174.224C897.622 176.402 896.05 178.079 893.985 179.253C891.921 180.418 889.412 181 886.457 181ZM881.002 177.875H886.23C888.635 177.875 890.628 177.411 892.21 176.483C893.791 175.555 894.97 174.234 895.747 172.52C896.523 170.806 896.912 168.765 896.912 166.398C896.912 164.049 896.528 162.027 895.761 160.332C894.994 158.628 893.848 157.321 892.324 156.412C890.799 155.493 888.9 155.034 886.627 155.034H881.002V177.875ZM912.196 181.511C910.813 181.511 909.558 181.251 908.431 180.73C907.305 180.2 906.41 179.438 905.747 178.443C905.084 177.439 904.752 176.227 904.752 174.807C904.752 173.557 904.999 172.544 905.491 171.767C905.984 170.981 906.642 170.366 907.466 169.92C908.289 169.475 909.199 169.144 910.193 168.926C911.197 168.699 912.205 168.519 913.218 168.386C914.544 168.216 915.619 168.088 916.443 168.003C917.276 167.908 917.882 167.752 918.261 167.534C918.649 167.316 918.843 166.937 918.843 166.398V166.284C918.843 164.883 918.46 163.794 917.693 163.017C916.935 162.241 915.785 161.852 914.241 161.852C912.641 161.852 911.386 162.203 910.477 162.903C909.568 163.604 908.929 164.352 908.559 165.148L905.377 164.011C905.946 162.686 906.703 161.653 907.65 160.915C908.607 160.167 909.648 159.646 910.775 159.352C911.912 159.049 913.029 158.898 914.127 158.898C914.828 158.898 915.633 158.983 916.542 159.153C917.461 159.314 918.346 159.651 919.199 160.162C920.06 160.673 920.775 161.445 921.343 162.477C921.912 163.509 922.196 164.892 922.196 166.625V181H918.843V178.045H918.673C918.446 178.519 918.067 179.026 917.537 179.565C917.006 180.105 916.301 180.564 915.42 180.943C914.539 181.322 913.465 181.511 912.196 181.511ZM912.707 178.5C914.033 178.5 915.15 178.24 916.059 177.719C916.978 177.198 917.669 176.526 918.133 175.702C918.607 174.878 918.843 174.011 918.843 173.102V170.034C918.701 170.205 918.389 170.361 917.906 170.503C917.432 170.635 916.883 170.754 916.258 170.858C915.643 170.953 915.041 171.038 914.454 171.114C913.877 171.18 913.408 171.237 913.048 171.284C912.177 171.398 911.362 171.582 910.605 171.838C909.857 172.084 909.251 172.458 908.787 172.96C908.332 173.453 908.105 174.125 908.105 174.977C908.105 176.142 908.536 177.023 909.397 177.619C910.269 178.206 911.372 178.5 912.707 178.5ZM937.803 159.182V162.023H926.496V159.182H937.803ZM929.792 153.955H933.144V174.75C933.144 175.697 933.281 176.407 933.556 176.881C933.84 177.345 934.2 177.657 934.635 177.818C935.08 177.97 935.549 178.045 936.042 178.045C936.411 178.045 936.714 178.027 936.951 177.989C937.187 177.941 937.377 177.903 937.519 177.875L938.201 180.886C937.973 180.972 937.656 181.057 937.249 181.142C936.842 181.237 936.326 181.284 935.701 181.284C934.754 181.284 933.826 181.08 932.917 180.673C932.017 180.266 931.269 179.646 930.672 178.812C930.085 177.979 929.792 176.928 929.792 175.659V153.955ZM951.759 181.455C949.657 181.455 947.843 180.991 946.319 180.062C944.803 179.125 943.634 177.818 942.81 176.142C941.996 174.456 941.588 172.496 941.588 170.261C941.588 168.027 941.996 166.057 942.81 164.352C943.634 162.638 944.78 161.303 946.248 160.347C947.725 159.381 949.448 158.898 951.418 158.898C952.554 158.898 953.676 159.087 954.784 159.466C955.892 159.845 956.901 160.46 957.81 161.312C958.719 162.155 959.444 163.273 959.983 164.665C960.523 166.057 960.793 167.771 960.793 169.807V171.227H943.975V168.33H957.384C957.384 167.098 957.138 166 956.645 165.034C956.162 164.068 955.471 163.306 954.571 162.747C953.681 162.188 952.63 161.909 951.418 161.909C950.083 161.909 948.927 162.241 947.952 162.903C946.986 163.557 946.243 164.409 945.722 165.46C945.201 166.511 944.941 167.638 944.941 168.841V170.773C944.941 172.42 945.225 173.817 945.793 174.963C946.371 176.099 947.171 176.966 948.194 177.562C949.216 178.15 950.405 178.443 951.759 178.443C952.64 178.443 953.435 178.32 954.145 178.074C954.865 177.818 955.485 177.439 956.006 176.938C956.527 176.426 956.929 175.792 957.213 175.034L960.452 175.943C960.111 177.042 959.538 178.008 958.733 178.841C957.928 179.665 956.934 180.309 955.75 180.773C954.567 181.227 953.236 181.455 951.759 181.455Z" fill="black"/>
<defs>
<clipPath id="clip0_210_277">
<rect width="742.768" height="722.601" fill="white" transform="translate(385 238.869)"/>
</clipPath>
</defs>
</svg>
