<svg width="1512" height="982" viewBox="0 0 1512 982" fill="none" xmlns="http://www.w3.org/2000/svg">
<g clip-path="url(#clip0_210_203)">
<g clip-path="url(#clip1_210_203)">
<path d="M604.265 981.446L601.258 981.388C602.421 947.958 605.988 914.655 611.931 881.737C624.933 811.26 646.552 764.974 676.188 744.165L677.914 746.626C608.684 795.234 604.3 979.589 604.265 981.446Z" fill="#2F2E41"/>
<path d="M641.848 980.727L638.841 980.668C638.906 977.339 640.785 898.867 671.678 877.177L673.404 879.638C643.758 900.452 641.863 979.927 641.848 980.727Z" fill="#2F2E41"/>
<path d="M695.019 746.899C703.322 746.899 710.052 740.168 710.052 731.866C710.052 723.563 703.322 716.833 695.019 716.833C686.716 716.833 679.986 723.563 679.986 731.866C679.986 740.168 686.716 746.899 695.019 746.899Z" fill="#6C63FF"/>
<path d="M687.575 876.185C695.877 876.185 702.608 869.454 702.608 861.151C702.608 852.849 695.877 846.118 687.575 846.118C679.272 846.118 672.542 852.849 672.542 861.151C672.542 869.454 679.272 876.185 687.575 876.185Z" fill="#6C63FF"/>
<path d="M634.841 755.911C637.666 773.957 630.302 790.097 630.302 790.097C630.302 790.097 618.358 776.979 615.533 758.933C612.707 740.888 620.071 724.747 620.071 724.747C620.071 724.747 632.015 737.865 634.841 755.911Z" fill="#2F2E41"/>
<path d="M683.98 799.738C666.703 805.665 649.526 801.226 649.526 801.226C649.526 801.226 660.362 787.179 677.639 781.252C694.917 775.326 712.094 779.765 712.094 779.765C712.094 779.765 701.258 793.812 683.98 799.738Z" fill="#2F2E41"/>
<path d="M684.535 914.233C676.716 916.689 668.388 917.049 660.386 915.276C665.467 908.807 672.31 903.945 680.091 901.276C687.872 898.607 696.259 898.245 704.241 900.233C699.011 906.545 692.216 911.372 684.535 914.233V914.233Z" fill="#2F2E41"/>
<path d="M1292.02 961.731H1272.27L1262.87 885.536L1292.03 885.537L1292.02 961.731Z" fill="#9E616A"/>
<path d="M1297.06 980.881L1233.36 980.878V980.073C1233.36 973.497 1235.98 967.192 1240.63 962.542C1245.27 957.893 1251.58 955.281 1258.16 955.281H1258.16L1297.06 955.282L1297.06 980.881Z" fill="#2F2E41"/>
<path d="M1170.1 961.731H1150.35L1140.95 885.536L1170.1 885.537L1170.1 961.731Z" fill="#9E616A"/>
<path d="M1175.14 980.881L1111.44 980.878V980.073C1111.44 973.497 1114.05 967.192 1118.7 962.542C1123.35 957.893 1129.66 955.281 1136.23 955.281H1136.24L1175.14 955.282L1175.14 980.881Z" fill="#2F2E41"/>
<path d="M1120.82 535.034L1093.46 530.807L1084.62 545.034L989.502 569.28L989.76 570.591C987.07 567.783 983.538 565.927 979.699 565.305C975.861 564.682 971.924 565.327 968.484 567.142C965.045 568.957 962.29 571.843 960.637 575.363C958.984 578.883 958.522 582.846 959.322 586.651C960.122 590.457 962.14 593.899 965.071 596.455C968.001 599.012 971.685 600.544 975.564 600.82C979.443 601.097 983.306 600.102 986.57 597.986C989.833 595.871 992.318 592.75 993.65 589.096L1108.84 565.072L1120.82 535.034Z" fill="#9E616A"/>
<path d="M1394.07 518.093C1391.82 518.095 1389.59 518.524 1387.49 519.357L1388.04 518.405L1267.11 455.897L1250.62 482.551L1376.35 538.362C1376.81 541.768 1378.23 544.97 1380.46 547.586C1382.69 550.202 1385.63 552.12 1388.92 553.111C1392.21 554.102 1395.72 554.124 1399.02 553.174C1402.32 552.225 1405.28 550.344 1407.55 547.757C1409.81 545.169 1411.28 541.985 1411.78 538.585C1412.28 535.185 1411.79 531.712 1410.37 528.583C1408.94 525.454 1406.65 522.801 1403.76 520.94C1400.87 519.08 1397.51 518.092 1394.07 518.093H1394.07Z" fill="#9E616A"/>
<path d="M1203.29 355.064C1208.02 325.939 1188.24 298.498 1159.12 293.771C1129.99 289.045 1102.55 308.824 1097.82 337.949C1093.1 367.074 1112.87 394.515 1142 399.242C1171.12 403.968 1198.57 384.189 1203.29 355.064Z" fill="#2F2E41"/>
<path d="M1150.1 399.471C1168.92 399.471 1184.18 384.212 1184.18 365.389C1184.18 346.567 1168.92 331.308 1150.1 331.308C1131.27 331.308 1116.02 346.567 1116.02 365.389C1116.02 384.212 1131.27 399.471 1150.1 399.471Z" fill="#A0616A"/>
<path d="M1150.56 353.875C1170.91 353.875 1187.4 343.978 1187.4 331.769C1187.4 319.559 1170.91 309.662 1150.56 309.662C1130.21 309.662 1113.71 319.559 1113.71 331.769C1113.71 343.978 1130.21 353.875 1150.56 353.875Z" fill="#2F2E41"/>
<path d="M1154.24 315.188C1166.45 315.188 1176.35 305.291 1176.35 293.081C1176.35 280.872 1166.45 270.975 1154.24 270.975C1142.03 270.975 1132.14 280.872 1132.14 293.081C1132.14 305.291 1142.03 315.188 1154.24 315.188Z" fill="#2F2E41"/>
<path d="M1124.77 281.107C1124.77 275.642 1126.79 270.372 1130.45 266.312C1134.1 262.251 1139.14 259.689 1144.57 259.12C1143.81 259.04 1143.04 259 1142.27 259C1136.41 259.007 1130.79 261.339 1126.65 265.484C1122.51 269.629 1120.19 275.248 1120.19 281.107C1120.19 286.966 1122.51 292.585 1126.65 296.73C1130.79 300.875 1136.41 303.207 1142.27 303.214C1143.04 303.214 1143.81 303.174 1144.57 303.094C1139.14 302.525 1134.1 299.963 1130.45 295.902C1126.79 291.842 1124.77 286.571 1124.77 281.107V281.107Z" fill="#2F2E41"/>
<path d="M1132.38 449.999L1135.13 423.576C1135.13 423.576 1172.42 399.001 1185.09 413.525L1260.84 543.131C1260.84 543.131 1307.93 559.871 1306.26 623.796L1304.01 932.788L1250.62 938.642L1218.2 697.734L1188.9 947.325L1126.74 945.378L1132.33 780.952L1161.97 621.559L1161.69 568.668L1148.63 547.323C1148.63 547.323 1124.72 537.716 1124.05 510.567L1123.53 472.404L1132.38 449.999Z" fill="#2F2E41"/>
<path d="M1171.48 420.779L1172.22 408.393C1172.22 408.393 1285.01 438.117 1276.06 459.369C1267.12 480.622 1250.34 487.333 1250.34 487.333L1185.46 461.606L1171.48 420.779Z" fill="#2F2E41"/>
<path d="M1142 451.601L1133.52 442.55C1133.52 442.55 1065.82 537.543 1086.29 548.157C1106.76 558.77 1123.95 553.198 1123.95 553.198L1157.37 491.927L1142 451.601Z" fill="#2F2E41"/>
<path d="M1006.5 760.917L1431.28 676.124L1395.78 498.287L971.001 583.08L1006.5 760.917Z" fill="white"/>
<path d="M1434.76 678.444L1004.18 764.394L967.525 580.761L1398.1 494.81L1434.76 678.444ZM1008.82 757.441L1427.8 673.805L1393.46 501.763L974.478 585.399L1008.82 757.441Z" fill="#E4E4E4"/>
<path d="M1366.76 555.26L1022.99 623.882L1024.78 632.845L1368.55 564.223L1366.76 555.26Z" fill="#E4E4E4"/>
<path d="M1373.73 590.159L1029.96 658.781L1031.75 667.744L1375.52 599.123L1373.73 590.159Z" fill="#E4E4E4"/>
<path d="M1380.73 625.26L1036.97 693.882L1038.76 702.845L1382.52 634.224L1380.73 625.26Z" fill="#E4E4E4"/>
<path d="M1202.51 610.957L1190.49 613.357C1189.61 613.532 1188.7 613.351 1187.95 612.854C1187.21 612.357 1186.69 611.584 1186.51 610.706L1180.83 582.23C1180.65 581.351 1180.84 580.44 1181.33 579.695C1181.83 578.95 1182.6 578.433 1183.48 578.256L1195.5 575.856C1196.38 575.682 1197.29 575.863 1198.04 576.36C1198.78 576.857 1199.3 577.629 1199.48 578.507L1205.16 606.984C1205.34 607.862 1205.15 608.774 1204.66 609.519C1204.16 610.264 1203.39 610.781 1202.51 610.957V610.957Z" fill="#6C63FF"/>
<path d="M1339.46 619.91L1327.44 622.31C1326.56 622.484 1325.65 622.303 1324.9 621.806C1324.16 621.309 1323.64 620.537 1323.46 619.659L1317.78 591.182C1317.6 590.304 1317.79 589.392 1318.28 588.647C1318.78 587.903 1319.55 587.385 1320.43 587.209L1332.45 584.809C1333.33 584.635 1334.24 584.816 1334.99 585.313C1335.73 585.81 1336.25 586.582 1336.43 587.46L1342.11 615.937C1342.28 616.815 1342.1 617.727 1341.61 618.471C1341.11 619.216 1340.34 619.734 1339.46 619.91Z" fill="#6C63FF"/>
<path d="M1265.3 671.214L1253.27 673.614C1252.39 673.788 1251.48 673.607 1250.74 673.11C1249.99 672.613 1249.48 671.841 1249.3 670.963L1243.61 642.486C1243.44 641.608 1243.62 640.696 1244.12 639.952C1244.62 639.207 1245.39 638.689 1246.27 638.513L1258.29 636.113C1259.17 635.939 1260.08 636.12 1260.82 636.617C1261.57 637.114 1262.09 637.886 1262.26 638.764L1267.95 667.241C1268.12 668.119 1267.94 669.031 1267.44 669.776C1266.95 670.52 1266.17 671.038 1265.3 671.214V671.214Z" fill="#6C63FF"/>
<path d="M1510.5 982.023H381.503C381.105 982.023 380.722 981.865 380.44 981.583C380.158 981.301 380 980.919 380 980.52C380 980.121 380.158 979.739 380.44 979.457C380.722 979.175 381.105 979.017 381.503 979.017H1510.5C1510.9 979.017 1511.28 979.175 1511.56 979.457C1511.84 979.739 1512 980.121 1512 980.52C1512 980.919 1511.84 981.301 1511.56 981.583C1511.28 981.865 1510.9 982.023 1510.5 982.023Z" fill="#CACACA"/>
</g>
<path d="M274.057 322H270.534C270.326 320.987 269.961 320.097 269.44 319.33C268.929 318.562 268.304 317.919 267.565 317.398C266.836 316.867 266.027 316.47 265.136 316.205C264.246 315.939 263.318 315.807 262.352 315.807C260.591 315.807 258.995 316.252 257.565 317.142C256.145 318.032 255.013 319.344 254.17 321.077C253.337 322.81 252.92 324.936 252.92 327.455C252.92 329.973 253.337 332.099 254.17 333.832C255.013 335.565 256.145 336.877 257.565 337.767C258.995 338.657 260.591 339.102 262.352 339.102C263.318 339.102 264.246 338.97 265.136 338.705C266.027 338.439 266.836 338.046 267.565 337.526C268.304 336.995 268.929 336.347 269.44 335.58C269.961 334.803 270.326 333.913 270.534 332.909H274.057C273.792 334.396 273.309 335.726 272.608 336.901C271.907 338.075 271.036 339.074 269.994 339.898C268.953 340.712 267.783 341.332 266.486 341.759C265.198 342.185 263.82 342.398 262.352 342.398C259.871 342.398 257.665 341.792 255.733 340.58C253.801 339.367 252.281 337.644 251.173 335.409C250.065 333.174 249.511 330.523 249.511 327.455C249.511 324.386 250.065 321.735 251.173 319.5C252.281 317.265 253.801 315.542 255.733 314.33C257.665 313.117 259.871 312.511 262.352 312.511C263.82 312.511 265.198 312.724 266.486 313.151C267.783 313.577 268.953 314.202 269.994 315.026C271.036 315.84 271.907 316.834 272.608 318.009C273.309 319.173 273.792 320.504 274.057 322ZM288.158 342.455C286.189 342.455 284.46 341.986 282.974 341.048C281.496 340.111 280.341 338.799 279.508 337.114C278.684 335.428 278.272 333.458 278.272 331.205C278.272 328.932 278.684 326.948 279.508 325.253C280.341 323.558 281.496 322.241 282.974 321.304C284.46 320.366 286.189 319.898 288.158 319.898C290.128 319.898 291.852 320.366 293.329 321.304C294.816 322.241 295.971 323.558 296.795 325.253C297.628 326.948 298.045 328.932 298.045 331.205C298.045 333.458 297.628 335.428 296.795 337.114C295.971 338.799 294.816 340.111 293.329 341.048C291.852 341.986 290.128 342.455 288.158 342.455ZM288.158 339.443C289.655 339.443 290.886 339.06 291.852 338.293C292.817 337.526 293.532 336.517 293.996 335.267C294.46 334.017 294.692 332.663 294.692 331.205C294.692 329.746 294.46 328.387 293.996 327.128C293.532 325.868 292.817 324.85 291.852 324.074C290.886 323.297 289.655 322.909 288.158 322.909C286.662 322.909 285.431 323.297 284.465 324.074C283.499 324.85 282.784 325.868 282.32 327.128C281.856 328.387 281.624 329.746 281.624 331.205C281.624 332.663 281.856 334.017 282.32 335.267C282.784 336.517 283.499 337.526 284.465 338.293C285.431 339.06 286.662 339.443 288.158 339.443ZM306.514 328.875V342H303.162V320.182H306.401V323.591H306.685C307.196 322.483 307.973 321.593 309.014 320.92C310.056 320.239 311.401 319.898 313.048 319.898C314.526 319.898 315.818 320.201 316.926 320.807C318.034 321.403 318.896 322.312 319.511 323.534C320.127 324.746 320.435 326.28 320.435 328.136V342H317.082V328.364C317.082 326.65 316.637 325.314 315.747 324.358C314.857 323.392 313.635 322.909 312.082 322.909C311.012 322.909 310.056 323.141 309.213 323.605C308.38 324.069 307.722 324.746 307.239 325.636C306.756 326.527 306.514 327.606 306.514 328.875ZM336.276 320.182V323.023H324.515V320.182H336.276ZM328.038 342V317.17C328.038 315.92 328.331 314.879 328.918 314.045C329.505 313.212 330.268 312.587 331.205 312.17C332.143 311.754 333.132 311.545 334.174 311.545C334.998 311.545 335.67 311.612 336.191 311.744C336.712 311.877 337.1 312 337.356 312.114L336.39 315.011C336.219 314.955 335.983 314.884 335.68 314.798C335.386 314.713 334.998 314.67 334.515 314.67C333.407 314.67 332.607 314.95 332.114 315.509C331.631 316.067 331.39 316.886 331.39 317.966V342H328.038ZM340.974 342V320.182H344.327V342H340.974ZM342.679 316.545C342.026 316.545 341.462 316.323 340.989 315.878C340.525 315.433 340.293 314.898 340.293 314.273C340.293 313.648 340.525 313.113 340.989 312.668C341.462 312.223 342.026 312 342.679 312C343.332 312 343.891 312.223 344.355 312.668C344.829 313.113 345.065 313.648 345.065 314.273C345.065 314.898 344.829 315.433 344.355 315.878C343.891 316.323 343.332 316.545 342.679 316.545ZM359.273 350.636C357.654 350.636 356.262 350.428 355.097 350.011C353.933 349.604 352.962 349.064 352.185 348.392C351.418 347.729 350.808 347.019 350.353 346.261L353.023 344.386C353.326 344.784 353.71 345.239 354.174 345.75C354.638 346.271 355.272 346.721 356.077 347.099C356.892 347.488 357.957 347.682 359.273 347.682C361.035 347.682 362.488 347.256 363.634 346.403C364.78 345.551 365.353 344.216 365.353 342.398V337.966H365.069C364.823 338.364 364.472 338.856 364.018 339.443C363.573 340.021 362.929 340.537 362.086 340.991C361.253 341.437 360.126 341.659 358.705 341.659C356.944 341.659 355.362 341.242 353.961 340.409C352.569 339.576 351.466 338.364 350.651 336.773C349.846 335.182 349.444 333.25 349.444 330.977C349.444 328.742 349.837 326.796 350.623 325.139C351.409 323.473 352.503 322.185 353.904 321.276C355.306 320.357 356.925 319.898 358.762 319.898C360.183 319.898 361.309 320.134 362.143 320.608C362.986 321.072 363.629 321.602 364.075 322.199C364.529 322.786 364.879 323.269 365.126 323.648H365.467V320.182H368.705V342.625C368.705 344.5 368.279 346.025 367.427 347.199C366.584 348.383 365.448 349.249 364.018 349.798C362.597 350.357 361.016 350.636 359.273 350.636ZM359.16 338.648C360.504 338.648 361.641 338.34 362.569 337.724C363.497 337.109 364.202 336.223 364.685 335.068C365.168 333.913 365.41 332.53 365.41 330.92C365.41 329.348 365.173 327.961 364.7 326.759C364.226 325.556 363.525 324.614 362.597 323.932C361.669 323.25 360.523 322.909 359.16 322.909C357.739 322.909 356.556 323.269 355.609 323.989C354.671 324.708 353.966 325.674 353.492 326.886C353.028 328.098 352.796 329.443 352.796 330.92C352.796 332.436 353.033 333.776 353.506 334.94C353.989 336.096 354.7 337.005 355.637 337.668C356.584 338.321 357.758 338.648 359.16 338.648ZM388.592 333.08V320.182H391.944V342H388.592V338.307H388.364C387.853 339.415 387.058 340.357 385.978 341.134C384.898 341.901 383.535 342.284 381.887 342.284C380.523 342.284 379.311 341.986 378.251 341.389C377.19 340.783 376.357 339.874 375.751 338.662C375.145 337.44 374.842 335.902 374.842 334.045V320.182H378.194V333.818C378.194 335.409 378.639 336.678 379.529 337.625C380.429 338.572 381.575 339.045 382.967 339.045C383.8 339.045 384.647 338.832 385.509 338.406C386.38 337.98 387.11 337.327 387.697 336.446C388.293 335.565 388.592 334.443 388.592 333.08ZM398.084 342V320.182H401.322V323.477H401.55C401.947 322.398 402.667 321.522 403.709 320.849C404.75 320.177 405.925 319.841 407.232 319.841C407.478 319.841 407.786 319.846 408.155 319.855C408.524 319.865 408.804 319.879 408.993 319.898V323.307C408.879 323.278 408.619 323.236 408.212 323.179C407.814 323.113 407.393 323.08 406.947 323.08C405.887 323.08 404.94 323.302 404.107 323.747C403.283 324.183 402.629 324.789 402.146 325.565C401.673 326.332 401.436 327.208 401.436 328.193V342H398.084ZM421.45 342.455C419.348 342.455 417.535 341.991 416.01 341.062C414.495 340.125 413.325 338.818 412.501 337.142C411.687 335.456 411.28 333.496 411.28 331.261C411.28 329.027 411.687 327.057 412.501 325.352C413.325 323.638 414.471 322.303 415.939 321.347C417.416 320.381 419.14 319.898 421.109 319.898C422.246 319.898 423.368 320.087 424.476 320.466C425.584 320.845 426.592 321.46 427.501 322.312C428.411 323.155 429.135 324.273 429.675 325.665C430.214 327.057 430.484 328.771 430.484 330.807V332.227H413.666V329.33H427.075C427.075 328.098 426.829 327 426.337 326.034C425.854 325.068 425.162 324.306 424.263 323.747C423.373 323.188 422.321 322.909 421.109 322.909C419.774 322.909 418.619 323.241 417.643 323.903C416.678 324.557 415.934 325.409 415.413 326.46C414.893 327.511 414.632 328.638 414.632 329.841V331.773C414.632 333.42 414.916 334.817 415.484 335.963C416.062 337.099 416.862 337.966 417.885 338.562C418.908 339.15 420.096 339.443 421.45 339.443C422.331 339.443 423.126 339.32 423.837 339.074C424.556 338.818 425.177 338.439 425.697 337.938C426.218 337.426 426.621 336.792 426.905 336.034L430.143 336.943C429.803 338.042 429.23 339.008 428.425 339.841C427.62 340.665 426.625 341.309 425.442 341.773C424.258 342.227 422.928 342.455 421.45 342.455ZM456.322 320.182V323.023H445.016V320.182H456.322ZM448.311 314.955H451.663V335.75C451.663 336.697 451.801 337.407 452.075 337.881C452.359 338.345 452.719 338.657 453.155 338.818C453.6 338.97 454.069 339.045 454.561 339.045C454.93 339.045 455.233 339.027 455.47 338.989C455.707 338.941 455.896 338.903 456.038 338.875L456.72 341.886C456.493 341.972 456.176 342.057 455.768 342.142C455.361 342.237 454.845 342.284 454.22 342.284C453.273 342.284 452.345 342.08 451.436 341.673C450.536 341.266 449.788 340.646 449.192 339.812C448.605 338.979 448.311 337.928 448.311 336.659V314.955ZM465.186 328.875V342H461.834V312.909H465.186V323.591H465.47C465.982 322.464 466.749 321.569 467.771 320.906C468.804 320.234 470.177 319.898 471.891 319.898C473.377 319.898 474.679 320.196 475.797 320.793C476.914 321.38 477.781 322.284 478.396 323.506C479.021 324.718 479.334 326.261 479.334 328.136V342H475.982V328.364C475.982 326.631 475.532 325.291 474.632 324.344C473.742 323.387 472.506 322.909 470.925 322.909C469.826 322.909 468.841 323.141 467.97 323.605C467.108 324.069 466.427 324.746 465.925 325.636C465.432 326.527 465.186 327.606 465.186 328.875ZM494.614 342.455C492.512 342.455 490.699 341.991 489.174 341.062C487.659 340.125 486.489 338.818 485.665 337.142C484.851 335.456 484.444 333.496 484.444 331.261C484.444 329.027 484.851 327.057 485.665 325.352C486.489 323.638 487.635 322.303 489.103 321.347C490.58 320.381 492.304 319.898 494.273 319.898C495.41 319.898 496.532 320.087 497.64 320.466C498.748 320.845 499.756 321.46 500.665 322.312C501.575 323.155 502.299 324.273 502.839 325.665C503.379 327.057 503.648 328.771 503.648 330.807V332.227H486.83V329.33H500.239C500.239 328.098 499.993 327 499.501 326.034C499.018 325.068 498.326 324.306 497.427 323.747C496.537 323.188 495.486 322.909 494.273 322.909C492.938 322.909 491.783 323.241 490.808 323.903C489.842 324.557 489.098 325.409 488.577 326.46C488.057 327.511 487.796 328.638 487.796 329.841V331.773C487.796 333.42 488.08 334.817 488.648 335.963C489.226 337.099 490.026 337.966 491.049 338.562C492.072 339.15 493.26 339.443 494.614 339.443C495.495 339.443 496.29 339.32 497.001 339.074C497.72 338.818 498.341 338.439 498.862 337.938C499.382 337.426 499.785 336.792 500.069 336.034L503.308 336.943C502.967 338.042 502.394 339.008 501.589 339.841C500.784 340.665 499.79 341.309 498.606 341.773C497.422 342.227 496.092 342.455 494.614 342.455ZM535.452 325.068L532.441 325.92C532.252 325.419 531.972 324.931 531.603 324.457C531.243 323.974 530.751 323.577 530.126 323.264C529.501 322.952 528.701 322.795 527.725 322.795C526.39 322.795 525.277 323.103 524.387 323.719C523.506 324.325 523.066 325.097 523.066 326.034C523.066 326.867 523.369 327.526 523.975 328.009C524.581 328.491 525.528 328.894 526.816 329.216L530.055 330.011C532.005 330.485 533.459 331.209 534.415 332.185C535.372 333.151 535.85 334.396 535.85 335.92C535.85 337.17 535.49 338.288 534.771 339.273C534.06 340.258 533.066 341.034 531.788 341.602C530.509 342.17 529.022 342.455 527.327 342.455C525.102 342.455 523.26 341.972 521.802 341.006C520.344 340.04 519.42 338.629 519.032 336.773L522.214 335.977C522.517 337.152 523.09 338.032 523.933 338.619C524.785 339.206 525.897 339.5 527.271 339.5C528.833 339.5 530.074 339.169 530.992 338.506C531.92 337.833 532.384 337.028 532.384 336.091C532.384 335.333 532.119 334.699 531.589 334.188C531.058 333.667 530.244 333.278 529.146 333.023L525.509 332.17C523.511 331.697 522.043 330.963 521.106 329.969C520.178 328.965 519.714 327.71 519.714 326.205C519.714 324.973 520.059 323.884 520.751 322.938C521.451 321.991 522.403 321.247 523.606 320.707C524.818 320.168 526.191 319.898 527.725 319.898C529.884 319.898 531.579 320.371 532.81 321.318C534.051 322.265 534.932 323.515 535.452 325.068ZM550.044 342.455C547.942 342.455 546.128 341.991 544.604 341.062C543.089 340.125 541.919 338.818 541.095 337.142C540.281 335.456 539.874 333.496 539.874 331.261C539.874 329.027 540.281 327.057 541.095 325.352C541.919 323.638 543.065 322.303 544.533 321.347C546.01 320.381 547.733 319.898 549.703 319.898C550.839 319.898 551.962 320.087 553.07 320.466C554.178 320.845 555.186 321.46 556.095 322.312C557.004 323.155 557.729 324.273 558.268 325.665C558.808 327.057 559.078 328.771 559.078 330.807V332.227H542.26V329.33H555.669C555.669 328.098 555.423 327 554.93 326.034C554.447 325.068 553.756 324.306 552.857 323.747C551.966 323.188 550.915 322.909 549.703 322.909C548.368 322.909 547.213 323.241 546.237 323.903C545.271 324.557 544.528 325.409 544.007 326.46C543.486 327.511 543.226 328.638 543.226 329.841V331.773C543.226 333.42 543.51 334.817 544.078 335.963C544.656 337.099 545.456 337.966 546.479 338.562C547.501 339.15 548.69 339.443 550.044 339.443C550.925 339.443 551.72 339.32 552.43 339.074C553.15 338.818 553.77 338.439 554.291 337.938C554.812 337.426 555.214 336.792 555.499 336.034L558.737 336.943C558.396 338.042 557.823 339.008 557.018 339.841C556.214 340.665 555.219 341.309 554.036 341.773C552.852 342.227 551.521 342.455 550.044 342.455ZM567.53 328.875V342H564.178V320.182H567.416V323.591H567.7C568.212 322.483 568.988 321.593 570.03 320.92C571.071 320.239 572.416 319.898 574.064 319.898C575.541 319.898 576.834 320.201 577.942 320.807C579.05 321.403 579.911 322.312 580.527 323.534C581.143 324.746 581.45 326.28 581.45 328.136V342H578.098V328.364C578.098 326.65 577.653 325.314 576.763 324.358C575.873 323.392 574.651 322.909 573.098 322.909C572.028 322.909 571.071 323.141 570.229 323.605C569.395 324.069 568.737 324.746 568.254 325.636C567.771 326.527 567.53 327.606 567.53 328.875ZM595.815 342.455C593.996 342.455 592.391 341.995 590.999 341.077C589.607 340.149 588.518 338.842 587.732 337.156C586.946 335.461 586.553 333.458 586.553 331.148C586.553 328.856 586.946 326.867 587.732 325.182C588.518 323.496 589.612 322.194 591.013 321.276C592.415 320.357 594.034 319.898 595.871 319.898C597.292 319.898 598.414 320.134 599.238 320.608C600.071 321.072 600.706 321.602 601.141 322.199C601.586 322.786 601.932 323.269 602.178 323.648H602.462V312.909H605.815V342H602.576V338.648H602.178C601.932 339.045 601.582 339.547 601.127 340.153C600.673 340.75 600.024 341.285 599.181 341.759C598.338 342.223 597.216 342.455 595.815 342.455ZM596.269 339.443C597.614 339.443 598.75 339.093 599.678 338.392C600.606 337.682 601.312 336.702 601.795 335.452C602.278 334.192 602.519 332.739 602.519 331.091C602.519 329.462 602.282 328.037 601.809 326.815C601.335 325.584 600.635 324.628 599.707 323.946C598.779 323.255 597.633 322.909 596.269 322.909C594.849 322.909 593.665 323.274 592.718 324.003C591.781 324.723 591.075 325.703 590.602 326.943C590.138 328.174 589.906 329.557 589.906 331.091C589.906 332.644 590.142 334.055 590.616 335.324C591.099 336.583 591.809 337.587 592.746 338.335C593.693 339.074 594.868 339.443 596.269 339.443ZM612.42 342V320.182H615.772V342H612.42ZM614.124 316.545C613.471 316.545 612.907 316.323 612.434 315.878C611.97 315.433 611.738 314.898 611.738 314.273C611.738 313.648 611.97 313.113 612.434 312.668C612.907 312.223 613.471 312 614.124 312C614.778 312 615.336 312.223 615.8 312.668C616.274 313.113 616.511 313.648 616.511 314.273C616.511 314.898 616.274 315.433 615.8 315.878C615.336 316.323 614.778 316.545 614.124 316.545ZM625.264 328.875V342H621.912V320.182H625.151V323.591H625.435C625.946 322.483 626.723 321.593 627.764 320.92C628.806 320.239 630.151 319.898 631.798 319.898C633.276 319.898 634.568 320.201 635.676 320.807C636.784 321.403 637.646 322.312 638.261 323.534C638.877 324.746 639.185 326.28 639.185 328.136V342H635.832V328.364C635.832 326.65 635.387 325.314 634.497 324.358C633.607 323.392 632.385 322.909 630.832 322.909C629.762 322.909 628.806 323.141 627.963 323.605C627.13 324.069 626.472 324.746 625.989 325.636C625.506 326.527 625.264 327.606 625.264 328.875ZM654.117 350.636C652.498 350.636 651.106 350.428 649.941 350.011C648.776 349.604 647.806 349.064 647.029 348.392C646.262 347.729 645.651 347.019 645.197 346.261L647.867 344.386C648.17 344.784 648.554 345.239 649.018 345.75C649.482 346.271 650.116 346.721 650.921 347.099C651.736 347.488 652.801 347.682 654.117 347.682C655.879 347.682 657.332 347.256 658.478 346.403C659.624 345.551 660.197 344.216 660.197 342.398V337.966H659.913C659.666 338.364 659.316 338.856 658.862 339.443C658.416 340.021 657.772 340.537 656.93 340.991C656.096 341.437 654.969 341.659 653.549 341.659C651.788 341.659 650.206 341.242 648.805 340.409C647.413 339.576 646.309 338.364 645.495 336.773C644.69 335.182 644.288 333.25 644.288 330.977C644.288 328.742 644.681 326.796 645.467 325.139C646.253 323.473 647.346 322.185 648.748 321.276C650.149 320.357 651.769 319.898 653.606 319.898C655.026 319.898 656.153 320.134 656.987 320.608C657.829 321.072 658.473 321.602 658.918 322.199C659.373 322.786 659.723 323.269 659.969 323.648H660.31V320.182H663.549V342.625C663.549 344.5 663.123 346.025 662.271 347.199C661.428 348.383 660.291 349.249 658.862 349.798C657.441 350.357 655.86 350.636 654.117 350.636ZM654.004 338.648C655.348 338.648 656.485 338.34 657.413 337.724C658.341 337.109 659.046 336.223 659.529 335.068C660.012 333.913 660.254 332.53 660.254 330.92C660.254 329.348 660.017 327.961 659.543 326.759C659.07 325.556 658.369 324.614 657.441 323.932C656.513 323.25 655.367 322.909 654.004 322.909C652.583 322.909 651.399 323.269 650.452 323.989C649.515 324.708 648.809 325.674 648.336 326.886C647.872 328.098 647.64 329.443 647.64 330.92C647.64 332.436 647.877 333.776 648.35 334.94C648.833 336.096 649.543 337.005 650.481 337.668C651.428 338.321 652.602 338.648 654.004 338.648ZM689.799 342.455C687.829 342.455 686.101 341.986 684.614 341.048C683.137 340.111 681.982 338.799 681.148 337.114C680.325 335.428 679.913 333.458 679.913 331.205C679.913 328.932 680.325 326.948 681.148 325.253C681.982 323.558 683.137 322.241 684.614 321.304C686.101 320.366 687.829 319.898 689.799 319.898C691.769 319.898 693.492 320.366 694.969 321.304C696.456 322.241 697.612 323.558 698.435 325.253C699.269 326.948 699.685 328.932 699.685 331.205C699.685 333.458 699.269 335.428 698.435 337.114C697.612 338.799 696.456 340.111 694.969 341.048C693.492 341.986 691.769 342.455 689.799 342.455ZM689.799 339.443C691.295 339.443 692.526 339.06 693.492 338.293C694.458 337.526 695.173 336.517 695.637 335.267C696.101 334.017 696.333 332.663 696.333 331.205C696.333 329.746 696.101 328.387 695.637 327.128C695.173 325.868 694.458 324.85 693.492 324.074C692.526 323.297 691.295 322.909 689.799 322.909C688.303 322.909 687.072 323.297 686.106 324.074C685.14 324.85 684.425 325.868 683.961 327.128C683.497 328.387 683.265 329.746 683.265 331.205C683.265 332.663 683.497 334.017 683.961 335.267C684.425 336.517 685.14 337.526 686.106 338.293C687.072 339.06 688.303 339.443 689.799 339.443ZM714.518 320.182V323.023H702.757V320.182H714.518ZM706.28 342V317.17C706.28 315.92 706.573 314.879 707.161 314.045C707.748 313.212 708.51 312.587 709.447 312.17C710.385 311.754 711.375 311.545 712.416 311.545C713.24 311.545 713.912 311.612 714.433 311.744C714.954 311.877 715.342 312 715.598 312.114L714.632 315.011C714.462 314.955 714.225 314.884 713.922 314.798C713.628 314.713 713.24 314.67 712.757 314.67C711.649 314.67 710.849 314.95 710.357 315.509C709.874 316.067 709.632 316.886 709.632 317.966V342H706.28ZM732.626 350.182C732.058 350.182 731.551 350.134 731.106 350.04C730.661 349.955 730.353 349.869 730.183 349.784L731.035 346.83C731.849 347.038 732.569 347.114 733.194 347.057C733.819 347 734.373 346.721 734.856 346.219C735.348 345.726 735.798 344.926 736.205 343.818L736.83 342.114L728.762 320.182H732.398L738.421 337.568H738.648L744.671 320.182H748.308L739.046 345.182C738.629 346.309 738.113 347.241 737.498 347.98C736.882 348.728 736.167 349.282 735.353 349.642C734.548 350.002 733.639 350.182 732.626 350.182ZM760.815 342.455C758.845 342.455 757.117 341.986 755.63 341.048C754.153 340.111 752.997 338.799 752.164 337.114C751.34 335.428 750.928 333.458 750.928 331.205C750.928 328.932 751.34 326.948 752.164 325.253C752.997 323.558 754.153 322.241 755.63 321.304C757.117 320.366 758.845 319.898 760.815 319.898C762.784 319.898 764.508 320.366 765.985 321.304C767.472 322.241 768.627 323.558 769.451 325.253C770.284 326.948 770.701 328.932 770.701 331.205C770.701 333.458 770.284 335.428 769.451 337.114C768.627 338.799 767.472 340.111 765.985 341.048C764.508 341.986 762.784 342.455 760.815 342.455ZM760.815 339.443C762.311 339.443 763.542 339.06 764.508 338.293C765.474 337.526 766.189 336.517 766.653 335.267C767.117 334.017 767.349 332.663 767.349 331.205C767.349 329.746 767.117 328.387 766.653 327.128C766.189 325.868 765.474 324.85 764.508 324.074C763.542 323.297 762.311 322.909 760.815 322.909C759.318 322.909 758.087 323.297 757.121 324.074C756.156 324.85 755.441 325.868 754.977 327.128C754.513 328.387 754.281 329.746 754.281 331.205C754.281 332.663 754.513 334.017 754.977 335.267C755.441 336.517 756.156 337.526 757.121 338.293C758.087 339.06 759.318 339.443 760.815 339.443ZM789.568 333.08V320.182H792.92V342H789.568V338.307H789.341C788.83 339.415 788.034 340.357 786.955 341.134C785.875 341.901 784.511 342.284 782.864 342.284C781.5 342.284 780.288 341.986 779.227 341.389C778.167 340.783 777.333 339.874 776.727 338.662C776.121 337.44 775.818 335.902 775.818 334.045V320.182H779.17V333.818C779.17 335.409 779.616 336.678 780.506 337.625C781.405 338.572 782.551 339.045 783.943 339.045C784.777 339.045 785.624 338.832 786.486 338.406C787.357 337.98 788.086 337.327 788.673 336.446C789.27 335.565 789.568 334.443 789.568 333.08ZM799.06 342V320.182H802.299V323.477H802.526C802.924 322.398 803.644 321.522 804.685 320.849C805.727 320.177 806.901 319.841 808.208 319.841C808.454 319.841 808.762 319.846 809.131 319.855C809.501 319.865 809.78 319.879 809.969 319.898V323.307C809.856 323.278 809.595 323.236 809.188 323.179C808.79 323.113 808.369 323.08 807.924 323.08C806.863 323.08 805.916 323.302 805.083 323.747C804.259 324.183 803.606 324.789 803.123 325.565C802.649 326.332 802.413 327.208 802.413 328.193V342H799.06ZM215.232 390V368.182H218.471V371.591H218.755C219.21 370.426 219.943 369.522 220.957 368.878C221.97 368.224 223.187 367.898 224.607 367.898C226.047 367.898 227.245 368.224 228.201 368.878C229.167 369.522 229.92 370.426 230.46 371.591H230.687C231.246 370.464 232.084 369.569 233.201 368.906C234.318 368.234 235.658 367.898 237.221 367.898C239.172 367.898 240.767 368.509 242.008 369.73C243.248 370.942 243.869 372.831 243.869 375.398V390H240.516V375.398C240.516 373.788 240.076 372.637 239.195 371.946C238.315 371.255 237.278 370.909 236.085 370.909C234.55 370.909 233.362 371.373 232.519 372.301C231.676 373.22 231.255 374.384 231.255 375.795V390H227.846V375.057C227.846 373.816 227.443 372.817 226.638 372.06C225.834 371.293 224.797 370.909 223.528 370.909C222.656 370.909 221.842 371.141 221.085 371.605C220.336 372.069 219.73 372.713 219.266 373.537C218.812 374.351 218.585 375.294 218.585 376.364V390H215.232ZM259.146 390.455C257.043 390.455 255.23 389.991 253.705 389.062C252.19 388.125 251.021 386.818 250.197 385.142C249.382 383.456 248.975 381.496 248.975 379.261C248.975 377.027 249.382 375.057 250.197 373.352C251.021 371.638 252.166 370.303 253.634 369.347C255.112 368.381 256.835 367.898 258.805 367.898C259.941 367.898 261.063 368.087 262.171 368.466C263.279 368.845 264.288 369.46 265.197 370.312C266.106 371.155 266.83 372.273 267.37 373.665C267.91 375.057 268.18 376.771 268.18 378.807V380.227H251.362V377.33H264.771C264.771 376.098 264.524 375 264.032 374.034C263.549 373.068 262.858 372.306 261.958 371.747C261.068 371.188 260.017 370.909 258.805 370.909C257.469 370.909 256.314 371.241 255.339 371.903C254.373 372.557 253.629 373.409 253.109 374.46C252.588 375.511 252.327 376.638 252.327 377.841V379.773C252.327 381.42 252.612 382.817 253.18 383.963C253.757 385.099 254.558 385.966 255.58 386.562C256.603 387.15 257.791 387.443 259.146 387.443C260.026 387.443 260.822 387.32 261.532 387.074C262.252 386.818 262.872 386.439 263.393 385.938C263.914 385.426 264.316 384.792 264.6 384.034L267.839 384.943C267.498 386.042 266.925 387.008 266.12 387.841C265.315 388.665 264.321 389.309 263.137 389.773C261.953 390.227 260.623 390.455 259.146 390.455ZM288.734 373.068L285.722 373.92C285.533 373.419 285.254 372.931 284.884 372.457C284.524 371.974 284.032 371.577 283.407 371.264C282.782 370.952 281.982 370.795 281.006 370.795C279.671 370.795 278.558 371.103 277.668 371.719C276.788 372.325 276.347 373.097 276.347 374.034C276.347 374.867 276.65 375.526 277.256 376.009C277.862 376.491 278.809 376.894 280.097 377.216L283.336 378.011C285.287 378.485 286.74 379.209 287.697 380.185C288.653 381.151 289.131 382.396 289.131 383.92C289.131 385.17 288.772 386.288 288.052 387.273C287.342 388.258 286.347 389.034 285.069 389.602C283.79 390.17 282.304 390.455 280.609 390.455C278.383 390.455 276.541 389.972 275.083 389.006C273.625 388.04 272.701 386.629 272.313 384.773L275.495 383.977C275.798 385.152 276.371 386.032 277.214 386.619C278.066 387.206 279.179 387.5 280.552 387.5C282.114 387.5 283.355 387.169 284.273 386.506C285.201 385.833 285.665 385.028 285.665 384.091C285.665 383.333 285.4 382.699 284.87 382.188C284.34 381.667 283.525 381.278 282.427 381.023L278.79 380.17C276.792 379.697 275.325 378.963 274.387 377.969C273.459 376.965 272.995 375.71 272.995 374.205C272.995 372.973 273.341 371.884 274.032 370.938C274.733 369.991 275.684 369.247 276.887 368.707C278.099 368.168 279.472 367.898 281.006 367.898C283.165 367.898 284.861 368.371 286.092 369.318C287.332 370.265 288.213 371.515 288.734 373.068ZM309.632 373.068L306.621 373.92C306.431 373.419 306.152 372.931 305.783 372.457C305.423 371.974 304.93 371.577 304.305 371.264C303.68 370.952 302.88 370.795 301.905 370.795C300.57 370.795 299.457 371.103 298.567 371.719C297.686 372.325 297.246 373.097 297.246 374.034C297.246 374.867 297.549 375.526 298.155 376.009C298.761 376.491 299.708 376.894 300.996 377.216L304.234 378.011C306.185 378.485 307.639 379.209 308.595 380.185C309.552 381.151 310.03 382.396 310.03 383.92C310.03 385.17 309.67 386.288 308.95 387.273C308.24 388.258 307.246 389.034 305.967 389.602C304.689 390.17 303.202 390.455 301.507 390.455C299.282 390.455 297.44 389.972 295.982 389.006C294.523 388.04 293.6 386.629 293.212 384.773L296.393 383.977C296.696 385.152 297.269 386.032 298.112 386.619C298.964 387.206 300.077 387.5 301.45 387.5C303.013 387.5 304.253 387.169 305.172 386.506C306.1 385.833 306.564 385.028 306.564 384.091C306.564 383.333 306.299 382.699 305.768 382.188C305.238 381.667 304.424 381.278 303.325 381.023L299.689 380.17C297.691 379.697 296.223 378.963 295.286 377.969C294.357 376.965 293.893 375.71 293.893 374.205C293.893 372.973 294.239 371.884 294.93 370.938C295.631 369.991 296.583 369.247 297.786 368.707C298.998 368.168 300.371 367.898 301.905 367.898C304.064 367.898 305.759 368.371 306.99 369.318C308.231 370.265 309.111 371.515 309.632 373.068ZM321.496 390.511C320.114 390.511 318.859 390.251 317.732 389.73C316.605 389.2 315.71 388.438 315.048 387.443C314.385 386.439 314.053 385.227 314.053 383.807C314.053 382.557 314.299 381.544 314.792 380.767C315.284 379.981 315.942 379.366 316.766 378.92C317.59 378.475 318.499 378.144 319.494 377.926C320.497 377.699 321.506 377.519 322.519 377.386C323.845 377.216 324.92 377.088 325.744 377.003C326.577 376.908 327.183 376.752 327.562 376.534C327.95 376.316 328.144 375.937 328.144 375.398V375.284C328.144 373.883 327.761 372.794 326.994 372.017C326.236 371.241 325.085 370.852 323.542 370.852C321.942 370.852 320.687 371.203 319.778 371.903C318.869 372.604 318.229 373.352 317.86 374.148L314.678 373.011C315.246 371.686 316.004 370.653 316.951 369.915C317.907 369.167 318.949 368.646 320.076 368.352C321.212 368.049 322.33 367.898 323.428 367.898C324.129 367.898 324.934 367.983 325.843 368.153C326.762 368.314 327.647 368.651 328.499 369.162C329.361 369.673 330.076 370.445 330.644 371.477C331.212 372.509 331.496 373.892 331.496 375.625V390H328.144V387.045H327.974C327.746 387.519 327.368 388.026 326.837 388.565C326.307 389.105 325.602 389.564 324.721 389.943C323.84 390.322 322.765 390.511 321.496 390.511ZM322.008 387.5C323.334 387.5 324.451 387.24 325.36 386.719C326.279 386.198 326.97 385.526 327.434 384.702C327.907 383.878 328.144 383.011 328.144 382.102V379.034C328.002 379.205 327.69 379.361 327.207 379.503C326.733 379.635 326.184 379.754 325.559 379.858C324.943 379.953 324.342 380.038 323.755 380.114C323.177 380.18 322.709 380.237 322.349 380.284C321.478 380.398 320.663 380.582 319.906 380.838C319.157 381.084 318.551 381.458 318.087 381.96C317.633 382.453 317.406 383.125 317.406 383.977C317.406 385.142 317.836 386.023 318.698 386.619C319.569 387.206 320.673 387.5 322.008 387.5ZM346.422 398.636C344.803 398.636 343.411 398.428 342.246 398.011C341.081 397.604 340.11 397.064 339.334 396.392C338.567 395.729 337.956 395.019 337.501 394.261L340.172 392.386C340.475 392.784 340.858 393.239 341.322 393.75C341.786 394.271 342.421 394.721 343.226 395.099C344.04 395.488 345.106 395.682 346.422 395.682C348.183 395.682 349.637 395.256 350.783 394.403C351.929 393.551 352.501 392.216 352.501 390.398V385.966H352.217C351.971 386.364 351.621 386.856 351.166 387.443C350.721 388.021 350.077 388.537 349.234 388.991C348.401 389.437 347.274 389.659 345.854 389.659C344.092 389.659 342.511 389.242 341.109 388.409C339.717 387.576 338.614 386.364 337.8 384.773C336.995 383.182 336.592 381.25 336.592 378.977C336.592 376.742 336.985 374.796 337.771 373.139C338.557 371.473 339.651 370.185 341.053 369.276C342.454 368.357 344.073 367.898 345.911 367.898C347.331 367.898 348.458 368.134 349.291 368.608C350.134 369.072 350.778 369.602 351.223 370.199C351.678 370.786 352.028 371.269 352.274 371.648H352.615V368.182H355.854V390.625C355.854 392.5 355.428 394.025 354.575 395.199C353.732 396.383 352.596 397.249 351.166 397.798C349.746 398.357 348.164 398.636 346.422 398.636ZM346.308 386.648C347.653 386.648 348.789 386.34 349.717 385.724C350.645 385.109 351.351 384.223 351.834 383.068C352.317 381.913 352.558 380.53 352.558 378.92C352.558 377.348 352.321 375.961 351.848 374.759C351.375 373.556 350.674 372.614 349.746 371.932C348.818 371.25 347.672 370.909 346.308 370.909C344.888 370.909 343.704 371.269 342.757 371.989C341.82 372.708 341.114 373.674 340.641 374.886C340.177 376.098 339.945 377.443 339.945 378.92C339.945 380.436 340.181 381.776 340.655 382.94C341.138 384.096 341.848 385.005 342.786 385.668C343.732 386.321 344.907 386.648 346.308 386.648ZM371.138 390.455C369.036 390.455 367.222 389.991 365.697 389.062C364.182 388.125 363.013 386.818 362.189 385.142C361.375 383.456 360.967 381.496 360.967 379.261C360.967 377.027 361.375 375.057 362.189 373.352C363.013 371.638 364.159 370.303 365.626 369.347C367.104 368.381 368.827 367.898 370.797 367.898C371.933 367.898 373.055 368.087 374.163 368.466C375.271 368.845 376.28 369.46 377.189 370.312C378.098 371.155 378.822 372.273 379.362 373.665C379.902 375.057 380.172 376.771 380.172 378.807V380.227H363.354V377.33H376.763C376.763 376.098 376.517 375 376.024 374.034C375.541 373.068 374.85 372.306 373.95 371.747C373.06 371.188 372.009 370.909 370.797 370.909C369.462 370.909 368.306 371.241 367.331 371.903C366.365 372.557 365.622 373.409 365.101 374.46C364.58 375.511 364.32 376.638 364.32 377.841V379.773C364.32 381.42 364.604 382.817 365.172 383.963C365.75 385.099 366.55 385.966 367.572 386.562C368.595 387.15 369.784 387.443 371.138 387.443C372.018 387.443 372.814 387.32 373.524 387.074C374.244 386.818 374.864 386.439 375.385 385.938C375.906 385.426 376.308 384.792 376.592 384.034L379.831 384.943C379.49 386.042 378.917 387.008 378.112 387.841C377.307 388.665 376.313 389.309 375.129 389.773C373.946 390.227 372.615 390.455 371.138 390.455ZM400.726 373.068L397.714 373.92C397.525 373.419 397.246 372.931 396.876 372.457C396.517 371.974 396.024 371.577 395.399 371.264C394.774 370.952 393.974 370.795 392.999 370.795C391.663 370.795 390.551 371.103 389.661 371.719C388.78 372.325 388.339 373.097 388.339 374.034C388.339 374.867 388.643 375.526 389.249 376.009C389.855 376.491 390.802 376.894 392.089 377.216L395.328 378.011C397.279 378.485 398.732 379.209 399.689 380.185C400.645 381.151 401.124 382.396 401.124 383.92C401.124 385.17 400.764 386.288 400.044 387.273C399.334 388.258 398.339 389.034 397.061 389.602C395.783 390.17 394.296 390.455 392.601 390.455C390.375 390.455 388.534 389.972 387.075 389.006C385.617 388.04 384.694 386.629 384.305 384.773L387.487 383.977C387.79 385.152 388.363 386.032 389.206 386.619C390.058 387.206 391.171 387.5 392.544 387.5C394.107 387.5 395.347 387.169 396.266 386.506C397.194 385.833 397.658 385.028 397.658 384.091C397.658 383.333 397.393 382.699 396.862 382.188C396.332 381.667 395.518 381.278 394.419 381.023L390.783 380.17C388.785 379.697 387.317 378.963 386.379 377.969C385.451 376.965 384.987 375.71 384.987 374.205C384.987 372.973 385.333 371.884 386.024 370.938C386.725 369.991 387.677 369.247 388.879 368.707C390.091 368.168 391.464 367.898 392.999 367.898C395.158 367.898 396.853 368.371 398.084 369.318C399.324 370.265 400.205 371.515 400.726 373.068ZM423.84 390.511C422.458 390.511 421.203 390.251 420.076 389.73C418.949 389.2 418.054 388.438 417.391 387.443C416.728 386.439 416.397 385.227 416.397 383.807C416.397 382.557 416.643 381.544 417.136 380.767C417.628 379.981 418.286 379.366 419.11 378.92C419.934 378.475 420.843 378.144 421.837 377.926C422.841 377.699 423.85 377.519 424.863 377.386C426.189 377.216 427.263 377.088 428.087 377.003C428.921 376.908 429.527 376.752 429.906 376.534C430.294 376.316 430.488 375.937 430.488 375.398V375.284C430.488 373.883 430.104 372.794 429.337 372.017C428.58 371.241 427.429 370.852 425.886 370.852C424.285 370.852 423.031 371.203 422.121 371.903C421.212 372.604 420.573 373.352 420.204 374.148L417.022 373.011C417.59 371.686 418.348 370.653 419.295 369.915C420.251 369.167 421.293 368.646 422.42 368.352C423.556 368.049 424.674 367.898 425.772 367.898C426.473 367.898 427.278 367.983 428.187 368.153C429.105 368.314 429.991 368.651 430.843 369.162C431.705 369.673 432.42 370.445 432.988 371.477C433.556 372.509 433.84 373.892 433.84 375.625V390H430.488V387.045H430.317C430.09 387.519 429.711 388.026 429.181 388.565C428.651 389.105 427.945 389.564 427.065 389.943C426.184 390.322 425.109 390.511 423.84 390.511ZM424.352 387.5C425.677 387.5 426.795 387.24 427.704 386.719C428.622 386.198 429.314 385.526 429.778 384.702C430.251 383.878 430.488 383.011 430.488 382.102V379.034C430.346 379.205 430.033 379.361 429.55 379.503C429.077 379.635 428.528 379.754 427.903 379.858C427.287 379.953 426.686 380.038 426.099 380.114C425.521 380.18 425.052 380.237 424.692 380.284C423.821 380.398 423.007 380.582 422.249 380.838C421.501 381.084 420.895 381.458 420.431 381.96C419.977 382.453 419.749 383.125 419.749 383.977C419.749 385.142 420.18 386.023 421.042 386.619C421.913 387.206 423.016 387.5 424.352 387.5ZM453.709 381.08V368.182H457.061V390H453.709V386.307H453.482C452.97 387.415 452.175 388.357 451.095 389.134C450.016 389.901 448.652 390.284 447.004 390.284C445.641 390.284 444.429 389.986 443.368 389.389C442.307 388.783 441.474 387.874 440.868 386.662C440.262 385.44 439.959 383.902 439.959 382.045V368.182H443.311V381.818C443.311 383.409 443.756 384.678 444.646 385.625C445.546 386.572 446.692 387.045 448.084 387.045C448.917 387.045 449.765 386.832 450.626 386.406C451.498 385.98 452.227 385.327 452.814 384.446C453.411 383.565 453.709 382.443 453.709 381.08ZM472.69 368.182V371.023H461.383V368.182H472.69ZM464.678 362.955H468.031V383.75C468.031 384.697 468.168 385.407 468.442 385.881C468.727 386.345 469.086 386.657 469.522 386.818C469.967 386.97 470.436 387.045 470.928 387.045C471.298 387.045 471.601 387.027 471.837 386.989C472.074 386.941 472.263 386.903 472.406 386.875L473.087 389.886C472.86 389.972 472.543 390.057 472.136 390.142C471.728 390.237 471.212 390.284 470.587 390.284C469.64 390.284 468.712 390.08 467.803 389.673C466.904 389.266 466.156 388.646 465.559 387.812C464.972 386.979 464.678 385.928 464.678 384.659V362.955ZM486.362 390.455C484.392 390.455 482.664 389.986 481.177 389.048C479.7 388.111 478.544 386.799 477.711 385.114C476.887 383.428 476.475 381.458 476.475 379.205C476.475 376.932 476.887 374.948 477.711 373.253C478.544 371.558 479.7 370.241 481.177 369.304C482.664 368.366 484.392 367.898 486.362 367.898C488.331 367.898 490.055 368.366 491.532 369.304C493.019 370.241 494.174 371.558 494.998 373.253C495.831 374.948 496.248 376.932 496.248 379.205C496.248 381.458 495.831 383.428 494.998 385.114C494.174 386.799 493.019 388.111 491.532 389.048C490.055 389.986 488.331 390.455 486.362 390.455ZM486.362 387.443C487.858 387.443 489.089 387.06 490.055 386.293C491.021 385.526 491.736 384.517 492.2 383.267C492.664 382.017 492.896 380.663 492.896 379.205C492.896 377.746 492.664 376.387 492.2 375.128C491.736 373.868 491.021 372.85 490.055 372.074C489.089 371.297 487.858 370.909 486.362 370.909C484.865 370.909 483.634 371.297 482.668 372.074C481.702 372.85 480.987 373.868 480.523 375.128C480.059 376.387 479.827 377.746 479.827 379.205C479.827 380.663 480.059 382.017 480.523 383.267C480.987 384.517 481.702 385.526 482.668 386.293C483.634 387.06 484.865 387.443 486.362 387.443ZM501.365 390V368.182H504.604V371.591H504.888C505.342 370.426 506.076 369.522 507.089 368.878C508.103 368.224 509.32 367.898 510.74 367.898C512.179 367.898 513.377 368.224 514.334 368.878C515.3 369.522 516.053 370.426 516.592 371.591H516.82C517.378 370.464 518.216 369.569 519.334 368.906C520.451 368.234 521.791 367.898 523.354 367.898C525.304 367.898 526.9 368.509 528.141 369.73C529.381 370.942 530.001 372.831 530.001 375.398V390H526.649V375.398C526.649 373.788 526.209 372.637 525.328 371.946C524.447 371.255 523.411 370.909 522.217 370.909C520.683 370.909 519.495 371.373 518.652 372.301C517.809 373.22 517.388 374.384 517.388 375.795V390H513.979V375.057C513.979 373.816 513.576 372.817 512.771 372.06C511.966 371.293 510.929 370.909 509.661 370.909C508.789 370.909 507.975 371.141 507.217 371.605C506.469 372.069 505.863 372.713 505.399 373.537C504.945 374.351 504.717 375.294 504.717 376.364V390H501.365ZM542.551 390.511C541.169 390.511 539.914 390.251 538.787 389.73C537.66 389.2 536.765 388.438 536.102 387.443C535.439 386.439 535.108 385.227 535.108 383.807C535.108 382.557 535.354 381.544 535.847 380.767C536.339 379.981 536.997 379.366 537.821 378.92C538.645 378.475 539.554 378.144 540.548 377.926C541.552 377.699 542.561 377.519 543.574 377.386C544.9 377.216 545.974 377.088 546.798 377.003C547.632 376.908 548.238 376.752 548.616 376.534C549.005 376.316 549.199 375.937 549.199 375.398V375.284C549.199 373.883 548.815 372.794 548.048 372.017C547.291 371.241 546.14 370.852 544.597 370.852C542.996 370.852 541.741 371.203 540.832 371.903C539.923 372.604 539.284 373.352 538.915 374.148L535.733 373.011C536.301 371.686 537.059 370.653 538.006 369.915C538.962 369.167 540.004 368.646 541.131 368.352C542.267 368.049 543.384 367.898 544.483 367.898C545.184 367.898 545.989 367.983 546.898 368.153C547.816 368.314 548.702 368.651 549.554 369.162C550.416 369.673 551.131 370.445 551.699 371.477C552.267 372.509 552.551 373.892 552.551 375.625V390H549.199V387.045H549.028C548.801 387.519 548.422 388.026 547.892 388.565C547.362 389.105 546.656 389.564 545.776 389.943C544.895 390.322 543.82 390.511 542.551 390.511ZM543.062 387.5C544.388 387.5 545.506 387.24 546.415 386.719C547.333 386.198 548.025 385.526 548.489 384.702C548.962 383.878 549.199 383.011 549.199 382.102V379.034C549.057 379.205 548.744 379.361 548.261 379.503C547.788 379.635 547.239 379.754 546.614 379.858C545.998 379.953 545.397 380.038 544.81 380.114C544.232 380.18 543.763 380.237 543.403 380.284C542.532 380.398 541.718 380.582 540.96 380.838C540.212 381.084 539.606 381.458 539.142 381.96C538.688 382.453 538.46 383.125 538.46 383.977C538.46 385.142 538.891 386.023 539.753 386.619C540.624 387.206 541.727 387.5 543.062 387.5ZM568.158 368.182V371.023H556.852V368.182H568.158ZM560.147 362.955H563.499V383.75C563.499 384.697 563.637 385.407 563.911 385.881C564.195 386.345 564.555 386.657 564.991 386.818C565.436 386.97 565.905 387.045 566.397 387.045C566.766 387.045 567.069 387.027 567.306 386.989C567.543 386.941 567.732 386.903 567.874 386.875L568.556 389.886C568.329 389.972 568.012 390.057 567.604 390.142C567.197 390.237 566.681 390.284 566.056 390.284C565.109 390.284 564.181 390.08 563.272 389.673C562.372 389.266 561.624 388.646 561.028 387.812C560.441 386.979 560.147 385.928 560.147 384.659V362.955ZM573.201 390V368.182H576.553V390H573.201ZM574.906 364.545C574.252 364.545 573.689 364.323 573.215 363.878C572.751 363.433 572.519 362.898 572.519 362.273C572.519 361.648 572.751 361.113 573.215 360.668C573.689 360.223 574.252 360 574.906 360C575.559 360 576.118 360.223 576.582 360.668C577.055 361.113 577.292 361.648 577.292 362.273C577.292 362.898 577.055 363.433 576.582 363.878C576.118 364.323 575.559 364.545 574.906 364.545ZM591.557 390.455C589.511 390.455 587.75 389.972 586.273 389.006C584.795 388.04 583.659 386.709 582.864 385.014C582.068 383.319 581.67 381.383 581.67 379.205C581.67 376.989 582.078 375.033 582.892 373.338C583.716 371.634 584.862 370.303 586.33 369.347C587.807 368.381 589.53 367.898 591.5 367.898C593.034 367.898 594.417 368.182 595.648 368.75C596.879 369.318 597.887 370.114 598.673 371.136C599.459 372.159 599.947 373.352 600.136 374.716H596.784C596.528 373.722 595.96 372.841 595.08 372.074C594.208 371.297 593.034 370.909 591.557 370.909C590.25 370.909 589.104 371.25 588.119 371.932C587.144 372.604 586.382 373.556 585.832 374.787C585.293 376.009 585.023 377.443 585.023 379.091C585.023 380.777 585.288 382.244 585.818 383.494C586.358 384.744 587.116 385.715 588.091 386.406C589.076 387.098 590.231 387.443 591.557 387.443C592.428 387.443 593.219 387.292 593.929 386.989C594.639 386.686 595.241 386.25 595.733 385.682C596.225 385.114 596.576 384.432 596.784 383.636H600.136C599.947 384.924 599.478 386.084 598.73 387.116C597.991 388.139 597.011 388.954 595.79 389.56C594.578 390.156 593.167 390.455 591.557 390.455ZM611.457 390.511C610.075 390.511 608.82 390.251 607.693 389.73C606.566 389.2 605.671 388.438 605.009 387.443C604.346 386.439 604.014 385.227 604.014 383.807C604.014 382.557 604.26 381.544 604.753 380.767C605.245 379.981 605.903 379.366 606.727 378.92C607.551 378.475 608.46 378.144 609.455 377.926C610.458 377.699 611.467 377.519 612.48 377.386C613.806 377.216 614.881 377.088 615.705 377.003C616.538 376.908 617.144 376.752 617.523 376.534C617.911 376.316 618.105 375.937 618.105 375.398V375.284C618.105 373.883 617.722 372.794 616.955 372.017C616.197 371.241 615.046 370.852 613.503 370.852C611.902 370.852 610.648 371.203 609.739 371.903C608.83 372.604 608.19 373.352 607.821 374.148L604.639 373.011C605.207 371.686 605.965 370.653 606.912 369.915C607.868 369.167 608.91 368.646 610.037 368.352C611.173 368.049 612.291 367.898 613.389 367.898C614.09 367.898 614.895 367.983 615.804 368.153C616.723 368.314 617.608 368.651 618.46 369.162C619.322 369.673 620.037 370.445 620.605 371.477C621.173 372.509 621.457 373.892 621.457 375.625V390H618.105V387.045H617.935C617.707 387.519 617.329 388.026 616.798 388.565C616.268 389.105 615.563 389.564 614.682 389.943C613.801 390.322 612.726 390.511 611.457 390.511ZM611.969 387.5C613.295 387.5 614.412 387.24 615.321 386.719C616.24 386.198 616.931 385.526 617.395 384.702C617.868 383.878 618.105 383.011 618.105 382.102V379.034C617.963 379.205 617.651 379.361 617.168 379.503C616.694 379.635 616.145 379.754 615.52 379.858C614.904 379.953 614.303 380.038 613.716 380.114C613.138 380.18 612.67 380.237 612.31 380.284C611.438 380.398 610.624 380.582 609.866 380.838C609.118 381.084 608.512 381.458 608.048 381.96C607.594 382.453 607.366 383.125 607.366 383.977C607.366 385.142 607.797 386.023 608.659 386.619C609.53 387.206 610.634 387.5 611.969 387.5ZM630.928 360.909V390H627.576V360.909H630.928ZM640.42 360.909V390H637.068V360.909H640.42ZM648.719 398.182C648.151 398.182 647.645 398.134 647.2 398.04C646.754 397.955 646.447 397.869 646.276 397.784L647.129 394.83C647.943 395.038 648.663 395.114 649.288 395.057C649.913 395 650.467 394.721 650.95 394.219C651.442 393.726 651.892 392.926 652.299 391.818L652.924 390.114L644.856 368.182H648.492L654.515 385.568H654.742L660.765 368.182H664.401L655.14 393.182C654.723 394.309 654.207 395.241 653.592 395.98C652.976 396.728 652.261 397.282 651.447 397.642C650.642 398.002 649.733 398.182 648.719 398.182ZM672.459 386.023L672.232 387.557C672.071 388.636 671.824 389.792 671.493 391.023C671.171 392.254 670.835 393.414 670.484 394.503C670.134 395.592 669.845 396.458 669.618 397.102H667.061C667.184 396.496 667.345 395.696 667.544 394.702C667.743 393.707 667.942 392.595 668.141 391.364C668.349 390.142 668.519 388.892 668.652 387.614L668.822 386.023H672.459ZM699.067 390.455C696.965 390.455 695.152 389.991 693.627 389.062C692.112 388.125 690.942 386.818 690.119 385.142C689.304 383.456 688.897 381.496 688.897 379.261C688.897 377.027 689.304 375.057 690.119 373.352C690.942 371.638 692.088 370.303 693.556 369.347C695.033 368.381 696.757 367.898 698.727 367.898C699.863 367.898 700.985 368.087 702.093 368.466C703.201 368.845 704.21 369.46 705.119 370.312C706.028 371.155 706.752 372.273 707.292 373.665C707.832 375.057 708.102 376.771 708.102 378.807V380.227H691.283V377.33H704.692C704.692 376.098 704.446 375 703.954 374.034C703.471 373.068 702.78 372.306 701.88 371.747C700.99 371.188 699.939 370.909 698.727 370.909C697.391 370.909 696.236 371.241 695.261 371.903C694.295 372.557 693.551 373.409 693.031 374.46C692.51 375.511 692.249 376.638 692.249 377.841V379.773C692.249 381.42 692.533 382.817 693.102 383.963C693.679 385.099 694.479 385.966 695.502 386.562C696.525 387.15 697.713 387.443 699.067 387.443C699.948 387.443 700.744 387.32 701.454 387.074C702.174 386.818 702.794 386.439 703.315 385.938C703.835 385.426 704.238 384.792 704.522 384.034L707.761 384.943C707.42 386.042 706.847 387.008 706.042 387.841C705.237 388.665 704.243 389.309 703.059 389.773C701.875 390.227 700.545 390.455 699.067 390.455ZM713.201 390V368.182H716.553V390H713.201ZM714.906 364.545C714.252 364.545 713.689 364.323 713.215 363.878C712.751 363.433 712.519 362.898 712.519 362.273C712.519 361.648 712.751 361.113 713.215 360.668C713.689 360.223 714.252 360 714.906 360C715.559 360 716.118 360.223 716.582 360.668C717.055 361.113 717.292 361.648 717.292 362.273C717.292 362.898 717.055 363.433 716.582 363.878C716.118 364.323 715.559 364.545 714.906 364.545ZM732.182 368.182V371.023H720.875V368.182H732.182ZM724.17 362.955H727.523V383.75C727.523 384.697 727.66 385.407 727.935 385.881C728.219 386.345 728.579 386.657 729.014 386.818C729.459 386.97 729.928 387.045 730.42 387.045C730.79 387.045 731.093 387.027 731.33 386.989C731.566 386.941 731.756 386.903 731.898 386.875L732.58 389.886C732.352 389.972 732.035 390.057 731.628 390.142C731.221 390.237 730.705 390.284 730.08 390.284C729.133 390.284 728.205 390.08 727.295 389.673C726.396 389.266 725.648 388.646 725.051 387.812C724.464 386.979 724.17 385.928 724.17 384.659V362.955ZM741.045 376.875V390H737.693V360.909H741.045V371.591H741.33C741.841 370.464 742.608 369.569 743.631 368.906C744.663 368.234 746.036 367.898 747.75 367.898C749.237 367.898 750.539 368.196 751.656 368.793C752.774 369.38 753.64 370.284 754.256 371.506C754.881 372.718 755.193 374.261 755.193 376.136V390H751.841V376.364C751.841 374.631 751.391 373.291 750.491 372.344C749.601 371.387 748.366 370.909 746.784 370.909C745.686 370.909 744.701 371.141 743.83 371.605C742.968 372.069 742.286 372.746 741.784 373.636C741.292 374.527 741.045 375.606 741.045 376.875ZM770.474 390.455C768.371 390.455 766.558 389.991 765.033 389.062C763.518 388.125 762.349 386.818 761.525 385.142C760.71 383.456 760.303 381.496 760.303 379.261C760.303 377.027 760.71 375.057 761.525 373.352C762.349 371.638 763.495 370.303 764.962 369.347C766.44 368.381 768.163 367.898 770.133 367.898C771.269 367.898 772.391 368.087 773.499 368.466C774.607 368.845 775.616 369.46 776.525 370.312C777.434 371.155 778.158 372.273 778.698 373.665C779.238 375.057 779.508 376.771 779.508 378.807V380.227H762.69V377.33H776.099C776.099 376.098 775.853 375 775.36 374.034C774.877 373.068 774.186 372.306 773.286 371.747C772.396 371.188 771.345 370.909 770.133 370.909C768.798 370.909 767.642 371.241 766.667 371.903C765.701 372.557 764.958 373.409 764.437 374.46C763.916 375.511 763.656 376.638 763.656 377.841V379.773C763.656 381.42 763.94 382.817 764.508 383.963C765.085 385.099 765.886 385.966 766.908 386.562C767.931 387.15 769.12 387.443 770.474 387.443C771.354 387.443 772.15 387.32 772.86 387.074C773.58 386.818 774.2 386.439 774.721 385.938C775.242 385.426 775.644 384.792 775.928 384.034L779.167 384.943C778.826 386.042 778.253 387.008 777.448 387.841C776.643 388.665 775.649 389.309 774.465 389.773C773.281 390.227 771.951 390.455 770.474 390.455ZM784.607 390V368.182H787.846V371.477H788.073C788.471 370.398 789.191 369.522 790.232 368.849C791.274 368.177 792.448 367.841 793.755 367.841C794.001 367.841 794.309 367.846 794.678 367.855C795.048 367.865 795.327 367.879 795.516 367.898V371.307C795.403 371.278 795.142 371.236 794.735 371.179C794.337 371.113 793.916 371.08 793.471 371.08C792.41 371.08 791.463 371.302 790.63 371.747C789.806 372.183 789.153 372.789 788.67 373.565C788.196 374.332 787.96 375.208 787.96 376.193V390H784.607ZM820.229 368.182V371.023H808.922V368.182H820.229ZM812.217 362.955H815.57V383.75C815.57 384.697 815.707 385.407 815.982 385.881C816.266 386.345 816.625 386.657 817.061 386.818C817.506 386.97 817.975 387.045 818.467 387.045C818.837 387.045 819.14 387.027 819.376 386.989C819.613 386.941 819.803 386.903 819.945 386.875L820.626 389.886C820.399 389.972 820.082 390.057 819.675 390.142C819.268 390.237 818.751 390.284 818.126 390.284C817.179 390.284 816.251 390.08 815.342 389.673C814.443 389.266 813.695 388.646 813.098 387.812C812.511 386.979 812.217 385.928 812.217 384.659V362.955ZM833.901 390.455C831.931 390.455 830.203 389.986 828.716 389.048C827.239 388.111 826.083 386.799 825.25 385.114C824.426 383.428 824.014 381.458 824.014 379.205C824.014 376.932 824.426 374.948 825.25 373.253C826.083 371.558 827.239 370.241 828.716 369.304C830.203 368.366 831.931 367.898 833.901 367.898C835.87 367.898 837.594 368.366 839.071 369.304C840.558 370.241 841.713 371.558 842.537 373.253C843.37 374.948 843.787 376.932 843.787 379.205C843.787 381.458 843.37 383.428 842.537 385.114C841.713 386.799 840.558 388.111 839.071 389.048C837.594 389.986 835.87 390.455 833.901 390.455ZM833.901 387.443C835.397 387.443 836.628 387.06 837.594 386.293C838.56 385.526 839.275 384.517 839.739 383.267C840.203 382.017 840.435 380.663 840.435 379.205C840.435 377.746 840.203 376.387 839.739 375.128C839.275 373.868 838.56 372.85 837.594 372.074C836.628 371.297 835.397 370.909 833.901 370.909C832.404 370.909 831.173 371.297 830.207 372.074C829.241 372.85 828.527 373.868 828.062 375.128C827.598 376.387 827.366 377.746 827.366 379.205C827.366 380.663 827.598 382.017 828.062 383.267C828.527 384.517 829.241 385.526 830.207 386.293C831.173 387.06 832.404 387.443 833.901 387.443ZM314.272 438.455C312.302 438.455 310.574 437.986 309.087 437.048C307.61 436.111 306.454 434.799 305.621 433.114C304.797 431.428 304.385 429.458 304.385 427.205C304.385 424.932 304.797 422.948 305.621 421.253C306.454 419.558 307.61 418.241 309.087 417.304C310.574 416.366 312.302 415.898 314.272 415.898C316.241 415.898 317.965 416.366 319.442 417.304C320.929 418.241 322.084 419.558 322.908 421.253C323.741 422.948 324.158 424.932 324.158 427.205C324.158 429.458 323.741 431.428 322.908 433.114C322.084 434.799 320.929 436.111 319.442 437.048C317.965 437.986 316.241 438.455 314.272 438.455ZM314.272 435.443C315.768 435.443 316.999 435.06 317.965 434.293C318.931 433.526 319.646 432.517 320.11 431.267C320.574 430.017 320.806 428.663 320.806 427.205C320.806 425.746 320.574 424.387 320.11 423.128C319.646 421.868 318.931 420.85 317.965 420.074C316.999 419.297 315.768 418.909 314.272 418.909C312.775 418.909 311.544 419.297 310.578 420.074C309.613 420.85 308.898 421.868 308.434 423.128C307.97 424.387 307.738 425.746 307.738 427.205C307.738 428.663 307.97 430.017 308.434 431.267C308.898 432.517 309.613 433.526 310.578 434.293C311.544 435.06 312.775 435.443 314.272 435.443ZM332.627 424.875V438H329.275V416.182H332.514V419.591H332.798C333.309 418.483 334.086 417.593 335.127 416.92C336.169 416.239 337.514 415.898 339.162 415.898C340.639 415.898 341.931 416.201 343.039 416.807C344.147 417.403 345.009 418.312 345.625 419.534C346.24 420.746 346.548 422.28 346.548 424.136V438H343.196V424.364C343.196 422.65 342.751 421.314 341.86 420.358C340.97 419.392 339.749 418.909 338.196 418.909C337.126 418.909 336.169 419.141 335.326 419.605C334.493 420.069 333.835 420.746 333.352 421.636C332.869 422.527 332.627 423.606 332.627 424.875ZM361.821 438.455C359.719 438.455 357.906 437.991 356.381 437.062C354.866 436.125 353.696 434.818 352.873 433.142C352.058 431.456 351.651 429.496 351.651 427.261C351.651 425.027 352.058 423.057 352.873 421.352C353.696 419.638 354.842 418.303 356.31 417.347C357.787 416.381 359.511 415.898 361.48 415.898C362.617 415.898 363.739 416.087 364.847 416.466C365.955 416.845 366.963 417.46 367.873 418.312C368.782 419.155 369.506 420.273 370.046 421.665C370.586 423.057 370.855 424.771 370.855 426.807V428.227H354.037V425.33H367.446C367.446 424.098 367.2 423 366.708 422.034C366.225 421.068 365.533 420.306 364.634 419.747C363.744 419.188 362.693 418.909 361.48 418.909C360.145 418.909 358.99 419.241 358.015 419.903C357.049 420.557 356.305 421.409 355.784 422.46C355.264 423.511 355.003 424.638 355.003 425.841V427.773C355.003 429.42 355.287 430.817 355.855 431.963C356.433 433.099 357.233 433.966 358.256 434.562C359.279 435.15 360.467 435.443 361.821 435.443C362.702 435.443 363.498 435.32 364.208 435.074C364.927 434.818 365.548 434.439 366.069 433.938C366.589 433.426 366.992 432.792 367.276 432.034L370.515 432.943C370.174 434.042 369.601 435.008 368.796 435.841C367.991 436.665 366.997 437.309 365.813 437.773C364.629 438.227 363.299 438.455 361.821 438.455ZM396.069 438.455C394.099 438.455 392.371 437.986 390.884 437.048C389.407 436.111 388.251 434.799 387.418 433.114C386.594 431.428 386.182 429.458 386.182 427.205C386.182 424.932 386.594 422.948 387.418 421.253C388.251 419.558 389.407 418.241 390.884 417.304C392.371 416.366 394.099 415.898 396.069 415.898C398.038 415.898 399.762 416.366 401.239 417.304C402.726 418.241 403.881 419.558 404.705 421.253C405.538 422.948 405.955 424.932 405.955 427.205C405.955 429.458 405.538 431.428 404.705 433.114C403.881 434.799 402.726 436.111 401.239 437.048C399.762 437.986 398.038 438.455 396.069 438.455ZM396.069 435.443C397.565 435.443 398.796 435.06 399.762 434.293C400.728 433.526 401.443 432.517 401.907 431.267C402.371 430.017 402.603 428.663 402.603 427.205C402.603 425.746 402.371 424.387 401.907 423.128C401.443 421.868 400.728 420.85 399.762 420.074C398.796 419.297 397.565 418.909 396.069 418.909C394.572 418.909 393.341 419.297 392.375 420.074C391.409 420.85 390.694 421.868 390.23 423.128C389.766 424.387 389.534 425.746 389.534 427.205C389.534 428.663 389.766 430.017 390.23 431.267C390.694 432.517 391.409 433.526 392.375 434.293C393.341 435.06 394.572 435.443 396.069 435.443ZM411.072 438V416.182H414.311V419.477H414.538C414.936 418.398 415.655 417.522 416.697 416.849C417.739 416.177 418.913 415.841 420.22 415.841C420.466 415.841 420.774 415.846 421.143 415.855C421.512 415.865 421.792 415.879 421.981 415.898V419.307C421.868 419.278 421.607 419.236 421.2 419.179C420.802 419.113 420.381 419.08 419.936 419.08C418.875 419.08 417.928 419.302 417.095 419.747C416.271 420.183 415.618 420.789 415.135 421.565C414.661 422.332 414.424 423.208 414.424 424.193V438H411.072ZM452.659 421.068L449.648 421.92C449.459 421.419 449.179 420.931 448.81 420.457C448.45 419.974 447.958 419.577 447.333 419.264C446.708 418.952 445.908 418.795 444.932 418.795C443.597 418.795 442.484 419.103 441.594 419.719C440.713 420.325 440.273 421.097 440.273 422.034C440.273 422.867 440.576 423.526 441.182 424.009C441.788 424.491 442.735 424.894 444.023 425.216L447.262 426.011C449.212 426.485 450.666 427.209 451.623 428.185C452.579 429.151 453.057 430.396 453.057 431.92C453.057 433.17 452.697 434.288 451.978 435.273C451.267 436.258 450.273 437.034 448.995 437.602C447.716 438.17 446.23 438.455 444.534 438.455C442.309 438.455 440.467 437.972 439.009 437.006C437.551 436.04 436.627 434.629 436.239 432.773L439.421 431.977C439.724 433.152 440.297 434.032 441.14 434.619C441.992 435.206 443.105 435.5 444.478 435.5C446.04 435.5 447.281 435.169 448.199 434.506C449.127 433.833 449.591 433.028 449.591 432.091C449.591 431.333 449.326 430.699 448.796 430.188C448.266 429.667 447.451 429.278 446.353 429.023L442.716 428.17C440.718 427.697 439.25 426.963 438.313 425.969C437.385 424.965 436.921 423.71 436.921 422.205C436.921 420.973 437.266 419.884 437.958 418.938C438.658 417.991 439.61 417.247 440.813 416.707C442.025 416.168 443.398 415.898 444.932 415.898C447.091 415.898 448.786 416.371 450.017 417.318C451.258 418.265 452.139 419.515 452.659 421.068ZM467.251 438.455C465.149 438.455 463.335 437.991 461.811 437.062C460.296 436.125 459.126 434.818 458.302 433.142C457.488 431.456 457.081 429.496 457.081 427.261C457.081 425.027 457.488 423.057 458.302 421.352C459.126 419.638 460.272 418.303 461.74 417.347C463.217 416.381 464.94 415.898 466.91 415.898C468.047 415.898 469.169 416.087 470.277 416.466C471.385 416.845 472.393 417.46 473.302 418.312C474.211 419.155 474.936 420.273 475.475 421.665C476.015 423.057 476.285 424.771 476.285 426.807V428.227H459.467V425.33H472.876C472.876 424.098 472.63 423 472.137 422.034C471.654 421.068 470.963 420.306 470.064 419.747C469.173 419.188 468.122 418.909 466.91 418.909C465.575 418.909 464.42 419.241 463.444 419.903C462.478 420.557 461.735 421.409 461.214 422.46C460.693 423.511 460.433 424.638 460.433 425.841V427.773C460.433 429.42 460.717 430.817 461.285 431.963C461.863 433.099 462.663 433.966 463.686 434.562C464.708 435.15 465.897 435.443 467.251 435.443C468.132 435.443 468.927 435.32 469.637 435.074C470.357 434.818 470.977 434.439 471.498 433.938C472.019 433.426 472.422 432.792 472.706 432.034L475.944 432.943C475.603 434.042 475.03 435.008 474.225 435.841C473.421 436.665 472.426 437.309 471.243 437.773C470.059 438.227 468.728 438.455 467.251 438.455ZM498.561 416.182L490.493 438H487.084L479.016 416.182H482.652L488.675 433.568H488.902L494.925 416.182H498.561ZM511.353 438.455C509.25 438.455 507.437 437.991 505.912 437.062C504.397 436.125 503.228 434.818 502.404 433.142C501.589 431.456 501.182 429.496 501.182 427.261C501.182 425.027 501.589 423.057 502.404 421.352C503.228 419.638 504.373 418.303 505.841 417.347C507.319 416.381 509.042 415.898 511.012 415.898C512.148 415.898 513.27 416.087 514.378 416.466C515.486 416.845 516.495 417.46 517.404 418.312C518.313 419.155 519.037 420.273 519.577 421.665C520.117 423.057 520.387 424.771 520.387 426.807V428.227H503.569V425.33H516.978C516.978 424.098 516.731 423 516.239 422.034C515.756 421.068 515.065 420.306 514.165 419.747C513.275 419.188 512.224 418.909 511.012 418.909C509.676 418.909 508.521 419.241 507.546 419.903C506.58 420.557 505.837 421.409 505.316 422.46C504.795 423.511 504.534 424.638 504.534 425.841V427.773C504.534 429.42 504.819 430.817 505.387 431.963C505.964 433.099 506.765 433.966 507.787 434.562C508.81 435.15 509.998 435.443 511.353 435.443C512.233 435.443 513.029 435.32 513.739 435.074C514.459 434.818 515.079 434.439 515.6 433.938C516.121 433.426 516.523 432.792 516.807 432.034L520.046 432.943C519.705 434.042 519.132 435.008 518.327 435.841C517.522 436.665 516.528 437.309 515.344 437.773C514.16 438.227 512.83 438.455 511.353 438.455ZM525.486 438V416.182H528.725V419.477H528.952C529.35 418.398 530.069 417.522 531.111 416.849C532.153 416.177 533.327 415.841 534.634 415.841C534.88 415.841 535.188 415.846 535.557 415.855C535.926 415.865 536.206 415.879 536.395 415.898V419.307C536.282 419.278 536.021 419.236 535.614 419.179C535.216 419.113 534.795 419.08 534.35 419.08C533.289 419.08 532.342 419.302 531.509 419.747C530.685 420.183 530.032 420.789 529.549 421.565C529.075 422.332 528.838 423.208 528.838 424.193V438H525.486ZM546.789 438.511C545.407 438.511 544.152 438.251 543.025 437.73C541.898 437.2 541.003 436.438 540.341 435.443C539.678 434.439 539.346 433.227 539.346 431.807C539.346 430.557 539.592 429.544 540.085 428.767C540.577 427.981 541.235 427.366 542.059 426.92C542.883 426.475 543.792 426.144 544.787 425.926C545.79 425.699 546.799 425.519 547.812 425.386C549.138 425.216 550.213 425.088 551.037 425.003C551.87 424.908 552.476 424.752 552.855 424.534C553.243 424.316 553.437 423.937 553.437 423.398V423.284C553.437 421.883 553.054 420.794 552.287 420.017C551.529 419.241 550.378 418.852 548.835 418.852C547.234 418.852 545.98 419.203 545.071 419.903C544.162 420.604 543.522 421.352 543.153 422.148L539.971 421.011C540.539 419.686 541.297 418.653 542.244 417.915C543.2 417.167 544.242 416.646 545.369 416.352C546.505 416.049 547.623 415.898 548.721 415.898C549.422 415.898 550.227 415.983 551.136 416.153C552.055 416.314 552.94 416.651 553.792 417.162C554.654 417.673 555.369 418.445 555.937 419.477C556.505 420.509 556.789 421.892 556.789 423.625V438H553.437V435.045H553.267C553.039 435.519 552.661 436.026 552.13 436.565C551.6 437.105 550.895 437.564 550.014 437.943C549.133 438.322 548.058 438.511 546.789 438.511ZM547.301 435.5C548.627 435.5 549.744 435.24 550.653 434.719C551.572 434.198 552.263 433.526 552.727 432.702C553.2 431.878 553.437 431.011 553.437 430.102V427.034C553.295 427.205 552.983 427.361 552.5 427.503C552.026 427.635 551.477 427.754 550.852 427.858C550.236 427.953 549.635 428.038 549.048 428.114C548.47 428.18 548.002 428.237 547.642 428.284C546.77 428.398 545.956 428.582 545.199 428.838C544.45 429.084 543.844 429.458 543.38 429.96C542.926 430.453 542.699 431.125 542.699 431.977C542.699 433.142 543.129 434.023 543.991 434.619C544.862 435.206 545.966 435.5 547.301 435.5ZM566.26 408.909V438H562.908V408.909H566.26ZM592.514 438.455C590.468 438.455 588.707 437.972 587.23 437.006C585.752 436.04 584.616 434.709 583.821 433.014C583.025 431.319 582.627 429.383 582.627 427.205C582.627 424.989 583.035 423.033 583.849 421.338C584.673 419.634 585.819 418.303 587.287 417.347C588.764 416.381 590.487 415.898 592.457 415.898C593.991 415.898 595.374 416.182 596.605 416.75C597.836 417.318 598.844 418.114 599.63 419.136C600.416 420.159 600.904 421.352 601.093 422.716H597.741C597.485 421.722 596.917 420.841 596.037 420.074C595.165 419.297 593.991 418.909 592.514 418.909C591.207 418.909 590.061 419.25 589.076 419.932C588.101 420.604 587.339 421.556 586.789 422.787C586.25 424.009 585.98 425.443 585.98 427.091C585.98 428.777 586.245 430.244 586.775 431.494C587.315 432.744 588.073 433.715 589.048 434.406C590.033 435.098 591.188 435.443 592.514 435.443C593.385 435.443 594.176 435.292 594.886 434.989C595.596 434.686 596.198 434.25 596.69 433.682C597.182 433.114 597.533 432.432 597.741 431.636H601.093C600.904 432.924 600.435 434.084 599.687 435.116C598.949 436.139 597.968 436.954 596.747 437.56C595.535 438.156 594.124 438.455 592.514 438.455ZM614.858 438.455C612.888 438.455 611.16 437.986 609.673 437.048C608.196 436.111 607.04 434.799 606.207 433.114C605.383 431.428 604.971 429.458 604.971 427.205C604.971 424.932 605.383 422.948 606.207 421.253C607.04 419.558 608.196 418.241 609.673 417.304C611.16 416.366 612.888 415.898 614.858 415.898C616.827 415.898 618.551 416.366 620.028 417.304C621.515 418.241 622.67 419.558 623.494 421.253C624.327 422.948 624.744 424.932 624.744 427.205C624.744 429.458 624.327 431.428 623.494 433.114C622.67 434.799 621.515 436.111 620.028 437.048C618.551 437.986 616.827 438.455 614.858 438.455ZM614.858 435.443C616.354 435.443 617.585 435.06 618.551 434.293C619.517 433.526 620.232 432.517 620.696 431.267C621.16 430.017 621.392 428.663 621.392 427.205C621.392 425.746 621.16 424.387 620.696 423.128C620.232 421.868 619.517 420.85 618.551 420.074C617.585 419.297 616.354 418.909 614.858 418.909C613.361 418.909 612.13 419.297 611.164 420.074C610.199 420.85 609.484 421.868 609.02 423.128C608.556 424.387 608.324 425.746 608.324 427.205C608.324 428.663 608.556 430.017 609.02 431.267C609.484 432.517 610.199 433.526 611.164 434.293C612.13 435.06 613.361 435.443 614.858 435.443ZM633.213 424.875V438H629.861V416.182H633.1V419.591H633.384C633.895 418.483 634.672 417.593 635.713 416.92C636.755 416.239 638.1 415.898 639.748 415.898C641.225 415.898 642.517 416.201 643.625 416.807C644.733 417.403 645.595 418.312 646.211 419.534C646.826 420.746 647.134 422.28 647.134 424.136V438H643.782V424.364C643.782 422.65 643.337 421.314 642.446 420.358C641.556 419.392 640.335 418.909 638.782 418.909C637.712 418.909 636.755 419.141 635.912 419.605C635.079 420.069 634.421 420.746 633.938 421.636C633.455 422.527 633.213 423.606 633.213 424.875ZM662.748 416.182V419.023H651.441V416.182H662.748ZM654.737 410.955H658.089V431.75C658.089 432.697 658.226 433.407 658.501 433.881C658.785 434.345 659.145 434.657 659.581 434.818C660.026 434.97 660.494 435.045 660.987 435.045C661.356 435.045 661.659 435.027 661.896 434.989C662.133 434.941 662.322 434.903 662.464 434.875L663.146 437.886C662.919 437.972 662.601 438.057 662.194 438.142C661.787 438.237 661.271 438.284 660.646 438.284C659.699 438.284 658.771 438.08 657.862 437.673C656.962 437.266 656.214 436.646 655.618 435.812C655.03 434.979 654.737 433.928 654.737 432.659V410.955ZM674.211 438.511C672.829 438.511 671.574 438.251 670.447 437.73C669.32 437.2 668.425 436.438 667.762 435.443C667.1 434.439 666.768 433.227 666.768 431.807C666.768 430.557 667.014 429.544 667.507 428.767C667.999 427.981 668.657 427.366 669.481 426.92C670.305 426.475 671.214 426.144 672.208 425.926C673.212 425.699 674.221 425.519 675.234 425.386C676.56 425.216 677.635 425.088 678.458 425.003C679.292 424.908 679.898 424.752 680.277 424.534C680.665 424.316 680.859 423.937 680.859 423.398V423.284C680.859 421.883 680.475 420.794 679.708 420.017C678.951 419.241 677.8 418.852 676.257 418.852C674.656 418.852 673.402 419.203 672.493 419.903C671.583 420.604 670.944 421.352 670.575 422.148L667.393 421.011C667.961 419.686 668.719 418.653 669.666 417.915C670.622 417.167 671.664 416.646 672.791 416.352C673.927 416.049 675.045 415.898 676.143 415.898C676.844 415.898 677.649 415.983 678.558 416.153C679.476 416.314 680.362 416.651 681.214 417.162C682.076 417.673 682.791 418.445 683.359 419.477C683.927 420.509 684.211 421.892 684.211 423.625V438H680.859V435.045H680.689C680.461 435.519 680.083 436.026 679.552 436.565C679.022 437.105 678.316 437.564 677.436 437.943C676.555 438.322 675.48 438.511 674.211 438.511ZM674.723 435.5C676.048 435.5 677.166 435.24 678.075 434.719C678.993 434.198 679.685 433.526 680.149 432.702C680.622 431.878 680.859 431.011 680.859 430.102V427.034C680.717 427.205 680.404 427.361 679.922 427.503C679.448 427.635 678.899 427.754 678.274 427.858C677.658 427.953 677.057 428.038 676.47 428.114C675.892 428.18 675.423 428.237 675.064 428.284C674.192 428.398 673.378 428.582 672.62 428.838C671.872 429.084 671.266 429.458 670.802 429.96C670.348 430.453 670.12 431.125 670.12 431.977C670.12 433.142 670.551 434.023 671.413 434.619C672.284 435.206 673.387 435.5 674.723 435.5ZM699.194 438.455C697.148 438.455 695.387 437.972 693.909 437.006C692.432 436.04 691.296 434.709 690.5 433.014C689.705 431.319 689.307 429.383 689.307 427.205C689.307 424.989 689.714 423.033 690.529 421.338C691.353 419.634 692.498 418.303 693.966 417.347C695.444 416.381 697.167 415.898 699.137 415.898C700.671 415.898 702.053 416.182 703.284 416.75C704.516 417.318 705.524 418.114 706.31 419.136C707.096 420.159 707.584 421.352 707.773 422.716H704.421C704.165 421.722 703.597 420.841 702.716 420.074C701.845 419.297 700.671 418.909 699.194 418.909C697.887 418.909 696.741 419.25 695.756 419.932C694.781 420.604 694.018 421.556 693.469 422.787C692.929 424.009 692.659 425.443 692.659 427.091C692.659 428.777 692.925 430.244 693.455 431.494C693.995 432.744 694.752 433.715 695.728 434.406C696.712 435.098 697.868 435.443 699.194 435.443C700.065 435.443 700.855 435.292 701.566 434.989C702.276 434.686 702.877 434.25 703.37 433.682C703.862 433.114 704.212 432.432 704.421 431.636H707.773C707.584 432.924 707.115 434.084 706.367 435.116C705.628 436.139 704.648 436.954 703.426 437.56C702.214 438.156 700.803 438.455 699.194 438.455ZM722.162 416.182V419.023H710.855V416.182H722.162ZM714.151 410.955H717.503V431.75C717.503 432.697 717.641 433.407 717.915 433.881C718.199 434.345 718.559 434.657 718.995 434.818C719.44 434.97 719.908 435.045 720.401 435.045C720.77 435.045 721.073 435.027 721.31 434.989C721.547 434.941 721.736 434.903 721.878 434.875L722.56 437.886C722.333 437.972 722.016 438.057 721.608 438.142C721.201 438.237 720.685 438.284 720.06 438.284C719.113 438.284 718.185 438.08 717.276 437.673C716.376 437.266 715.628 436.646 715.032 435.812C714.444 434.979 714.151 433.928 714.151 432.659V410.955ZM742.269 421.068L739.257 421.92C739.068 421.419 738.789 420.931 738.419 420.457C738.06 419.974 737.567 419.577 736.942 419.264C736.317 418.952 735.517 418.795 734.542 418.795C733.206 418.795 732.094 419.103 731.203 419.719C730.323 420.325 729.882 421.097 729.882 422.034C729.882 422.867 730.185 423.526 730.792 424.009C731.398 424.491 732.345 424.894 733.632 425.216L736.871 426.011C738.822 426.485 740.275 427.209 741.232 428.185C742.188 429.151 742.667 430.396 742.667 431.92C742.667 433.17 742.307 434.288 741.587 435.273C740.877 436.258 739.882 437.034 738.604 437.602C737.326 438.17 735.839 438.455 734.144 438.455C731.918 438.455 730.077 437.972 728.618 437.006C727.16 436.04 726.237 434.629 725.848 432.773L729.03 431.977C729.333 433.152 729.906 434.032 730.749 434.619C731.601 435.206 732.714 435.5 734.087 435.5C735.65 435.5 736.89 435.169 737.809 434.506C738.737 433.833 739.201 433.028 739.201 432.091C739.201 431.333 738.935 430.699 738.405 430.188C737.875 429.667 737.06 429.278 735.962 429.023L732.326 428.17C730.328 427.697 728.86 426.963 727.922 425.969C726.994 424.965 726.53 423.71 726.53 422.205C726.53 420.973 726.876 419.884 727.567 418.938C728.268 417.991 729.22 417.247 730.422 416.707C731.634 416.168 733.007 415.898 734.542 415.898C736.701 415.898 738.396 416.371 739.627 417.318C740.867 418.265 741.748 419.515 742.269 421.068ZM750.156 438.227C749.455 438.227 748.854 437.976 748.352 437.474C747.85 436.973 747.599 436.371 747.599 435.67C747.599 434.97 747.85 434.368 748.352 433.866C748.854 433.365 749.455 433.114 750.156 433.114C750.857 433.114 751.458 433.365 751.96 433.866C752.462 434.368 752.713 434.97 752.713 435.67C752.713 436.134 752.594 436.561 752.358 436.949C752.13 437.337 751.823 437.65 751.434 437.886C751.056 438.114 750.629 438.227 750.156 438.227Z" fill="black"/>
</g>
<defs>
<clipPath id="clip0_210_203">
<rect width="1512" height="982" fill="white"/>
</clipPath>
<clipPath id="clip1_210_203">
<rect width="1132" height="723.023" fill="white" transform="translate(380 259)"/>
</clipPath>
</defs>
</svg>
